<svg width="959" height="714" viewBox="0 0 959 714" fill="none" xmlns="http://www.w3.org/2000/svg">
<path opacity="0.2" d="M188.09 286.82C275.85 286.82 350.985 340.98 382.009 417.756H383C351.718 335.467 272.227 277 179.104 277C58.648 277 -39 374.826 -39 495.5C-39 616.174 58.648 714 179.104 714C265.28 714 339.783 663.931 375.207 591.247H374.56C339.999 659.242 269.474 705.818 188.09 705.818C72.5969 705.818 -21.0289 612.021 -21.0289 496.318C-21.0289 380.616 72.5969 286.82 188.09 286.82Z" fill="white"/>
<path opacity="0.2" d="M366.91 427.18C279.15 427.18 204.015 373.02 172.991 296.243L172 296.243C203.282 378.533 282.773 437 375.896 437C496.352 437 594 339.174 594 218.5C594 97.8257 496.352 -8.53666e-06 375.896 -1.90673e-05C289.72 -2.6601e-05 215.217 50.0688 179.793 122.753L180.44 122.753C215.001 54.7581 285.526 8.18158 366.91 8.18159C482.403 8.1816 576.029 101.979 576.029 217.682C576.029 333.384 482.403 427.18 366.91 427.18Z" fill="white"/>
<path opacity="0.2" d="M691.532 372.798C743.523 372.798 788.034 404.773 806.413 450.101H807C788.468 401.518 741.376 367 686.209 367C614.848 367 557 424.755 557 496C557 567.245 614.848 625 686.209 625C737.261 625 781.397 595.44 802.383 552.528H802C781.526 592.671 739.745 620.17 691.532 620.17C623.112 620.17 567.646 564.793 567.646 496.483C567.646 428.174 623.112 372.798 691.532 372.798Z" fill="white"/>
<path opacity="0.2" d="M864.29 491.934C827.688 491.934 796.352 469.501 783.413 437.701L783 437.701C796.046 471.785 829.199 496.001 868.037 496.001C918.275 496.001 959 455.483 959 405.501C959 355.519 918.275 315.001 868.037 315.001C832.097 315.001 801.024 335.739 786.25 365.844L786.52 365.844C800.934 337.681 830.347 318.39 864.29 318.39C912.457 318.39 951.505 357.24 951.505 405.162C951.505 453.085 912.457 491.934 864.29 491.934Z" fill="white"/>
</svg>
