<svg width="1867" height="1782" viewBox="0 0 1867 1782" fill="none" xmlns="http://www.w3.org/2000/svg">
<path opacity="0.2" d="M227.09 286.82C314.85 286.82 389.985 340.98 421.009 417.756H422C390.718 335.467 311.227 277 218.104 277C97.648 277 0 374.826 0 495.5C0 616.174 97.648 714 218.104 714C304.28 714 378.783 663.931 414.207 591.247H413.56C378.999 659.242 308.474 705.818 227.09 705.818C111.597 705.818 17.9711 612.021 17.9711 496.318C17.9711 380.616 111.597 286.82 227.09 286.82Z" fill="white"/>
<path opacity="0.2" d="M405.91 427.18C318.15 427.18 243.015 373.02 211.991 296.243L211 296.243C242.282 378.533 321.773 437 414.896 437C535.352 437 633 339.174 633 218.5C633 97.8257 535.352 -8.53666e-06 414.896 -1.90673e-05C328.72 -2.6601e-05 254.217 50.0688 218.793 122.753L219.44 122.753C254.001 54.7581 324.526 8.18158 405.91 8.18159C521.403 8.1816 615.029 101.979 615.029 217.682C615.029 333.384 521.403 427.18 405.91 427.18Z" fill="white"/>
<path opacity="0.2" d="M730.532 372.798C782.523 372.798 827.034 404.773 845.413 450.101H846C827.468 401.518 780.376 367 725.209 367C653.848 367 596 424.755 596 496C596 567.245 653.848 625 725.209 625C776.261 625 820.397 595.44 841.383 552.528H841C820.526 592.671 778.745 620.17 730.532 620.17C662.112 620.17 606.646 564.793 606.646 496.483C606.646 428.174 662.112 372.798 730.532 372.798Z" fill="white"/>
<path opacity="0.2" d="M903.29 491.934C866.688 491.934 835.352 469.501 822.413 437.701L822 437.701C835.046 471.785 868.199 496.001 907.037 496.001C957.275 496.001 998 455.483 998 405.501C998 355.519 957.275 315.001 907.037 315.001C871.097 315.001 840.024 335.739 825.25 365.844L825.52 365.844C839.934 337.681 869.347 318.39 903.29 318.39C951.457 318.39 990.505 357.24 990.505 405.162C990.505 453.085 951.457 491.934 903.29 491.934Z" fill="white"/>
<path opacity="0.2" d="M1096.09 1354.82C1183.85 1354.82 1258.99 1408.98 1290.01 1485.76H1291C1259.72 1403.47 1180.23 1345 1087.1 1345C966.648 1345 869 1442.83 869 1563.5C869 1684.17 966.648 1782 1087.1 1782C1173.28 1782 1247.78 1731.93 1283.21 1659.25H1282.56C1248 1727.24 1177.47 1773.82 1096.09 1773.82C980.597 1773.82 886.971 1680.02 886.971 1564.32C886.971 1448.62 980.597 1354.82 1096.09 1354.82Z" fill="white"/>
<path opacity="0.2" d="M1274.91 1495.18C1187.15 1495.18 1112.01 1441.02 1080.99 1364.24L1080 1364.24C1111.28 1446.53 1190.77 1505 1283.9 1505C1404.35 1505 1502 1407.17 1502 1286.5C1502 1165.83 1404.35 1068 1283.9 1068C1197.72 1068 1123.22 1118.07 1087.79 1190.75L1088.44 1190.75C1123 1122.76 1193.53 1076.18 1274.91 1076.18C1390.4 1076.18 1484.03 1169.98 1484.03 1285.68C1484.03 1401.38 1390.4 1495.18 1274.91 1495.18Z" fill="white"/>
<path opacity="0.2" d="M1599.53 1440.8C1651.52 1440.8 1696.03 1472.77 1714.41 1518.1H1715C1696.47 1469.52 1649.38 1435 1594.21 1435C1522.85 1435 1465 1492.76 1465 1564C1465 1635.24 1522.85 1693 1594.21 1693C1645.26 1693 1689.4 1663.44 1710.38 1620.53H1710C1689.53 1660.67 1647.75 1688.17 1599.53 1688.17C1531.11 1688.17 1475.65 1632.79 1475.65 1564.48C1475.65 1496.17 1531.11 1440.8 1599.53 1440.8Z" fill="white"/>
<path opacity="0.2" d="M1772.29 1559.93C1735.69 1559.93 1704.35 1537.5 1691.41 1505.7L1691 1505.7C1704.05 1539.78 1737.2 1564 1776.04 1564C1826.27 1564 1867 1523.48 1867 1473.5C1867 1423.52 1826.27 1383 1776.04 1383C1740.1 1383 1709.02 1403.74 1694.25 1433.84L1694.52 1433.84C1708.93 1405.68 1738.35 1386.39 1772.29 1386.39C1820.46 1386.39 1859.5 1425.24 1859.5 1473.16C1859.5 1521.08 1820.46 1559.93 1772.29 1559.93Z" fill="white"/>
</svg>
