<svg width="65" height="17" viewBox="0 0 65 17" fill="none" xmlns="http://www.w3.org/2000/svg">
<g clip-path="url(#clip0_219_12112)">
<mask id="mask0_219_12112" style="mask-type:luminance" maskUnits="userSpaceOnUse" x="0" y="0" width="65" height="17">
<path d="M65 0H0V16.1062H65V0Z" fill="white"/>
</mask>
<g mask="url(#mask0_219_12112)">
<path d="M13.9541 5.04924L12.2479 16.0042H15.7364L16.9408 14.9279L17.9645 8.56218H22.0592L22.6894 5.0332H19.1287C18.659 5.0332 17.8199 5.66539 17.7919 6.20156H17.5591C17.5591 6.20156 17.4747 5.6494 17.3101 5.04122L13.9541 5.04924Z" fill="white"/>
<path d="M34.1427 5.04894L33.7934 7.37758L32.7376 8.12578H28.4301L27.7196 13.1111H32.8219L32.569 15.0117L31.4008 16.004H24.8171C24.2742 15.928 23.7822 15.6448 23.4451 15.214C23.108 14.7832 22.9521 14.2385 23.0106 13.6953L24.0263 7.12551C24.1376 6.56105 24.4351 6.04998 24.8716 5.67367C25.3082 5.29737 25.8584 5.07745 26.4349 5.04894C26.6918 5.02892 34.1427 5.04894 34.1427 5.04894Z" fill="white"/>
<path d="M46.4069 5.04203L46.0576 7.04256L44.9015 8.07086H39.9716L39.9234 8.79903L44.0223 9.55126C44.4456 9.64299 44.8174 9.89363 45.0601 10.2512C45.3032 10.6088 45.3985 11.0458 45.327 11.4717L44.9817 14.0045C44.8369 14.8327 43.5885 16.005 42.5087 16.005H34.1426L34.4357 14.1845L35.7483 13.1042H40.6862V12.188L36.9046 11.4598C36.3385 11.3197 35.1543 10.8155 35.2546 9.68329L35.6561 7.04256C35.7961 6.46965 36.1258 5.96053 36.592 5.59752C37.0583 5.23448 37.6337 5.03878 38.2253 5.04203H46.4069Z" fill="white"/>
<path d="M48.1251 5.04199L46.407 16.021H49.9317L51.0354 14.9807L52.6171 5.066L48.1251 5.04199Z" fill="white"/>
<path d="M48.4098 3.31691L48.912 0H53.4443L53.1271 2.18459L51.8383 3.31691H48.4098Z" fill="#009C60"/>
<path d="M64.9254 5.04199L64.5722 7.04252L63.42 8.07082L58.4141 8.04278L58.3539 8.77897L62.5126 9.52318C63.0868 9.66722 64.018 10.4274 63.8455 11.4717L63.4924 13.9924C63.4001 14.5246 62.2114 16.041 61.0115 16.041H52.6694L52.9585 14.2205L54.2832 13.1242H59.1244L59.2691 12.216L55.4714 11.5437C54.4678 11.3037 53.6046 10.7435 53.7731 9.49116L54.1748 7.06254C54.3204 6.4973 54.6485 5.99541 55.1082 5.63401C55.5684 5.27257 56.1344 5.07163 56.7198 5.06197L64.9254 5.04199Z" fill="white"/>
<path d="M3.51644 5.04122C3.51644 5.04122 1.50921 5.12923 1.13988 6.90971C1.08769 7.1698 0.0198457 13.7436 0.0198457 13.7436C-0.0496665 14.2327 0.0648293 14.7301 0.341287 15.1401C0.617743 15.55 1.03661 15.8436 1.51723 15.9642C1.51723 15.9642 3.39198 16.0482 5.15433 16.0122C5.48149 15.9742 5.79579 15.8631 6.07382 15.687C6.35189 15.5111 6.58645 15.2749 6.76013 14.9959H6.92471L7.22176 16.0042H10.4815L12.2478 5.0332L3.51644 5.04122ZM6.47508 13.0794H4.43573L5.23865 8.15806H7.24585L6.47508 13.0794Z" fill="white"/>
</g>
</g>
<defs>
<clipPath id="clip0_219_12112">
<rect width="65" height="16.4667" fill="white"/>
</clipPath>
</defs>
</svg>
