<svg width="24" height="24" viewBox="0 0 24 24" fill="none" xmlns="http://www.w3.org/2000/svg">
<g clip-path="url(#clip0_135_8449)">
<path d="M9.35156 0.0797272C8.98594 0.271915 8.98594 0.267227 5.90156 6.43598C2.93437 12.3657 2.90625 12.4266 2.90625 12.7032C2.90625 13.186 3.14062 13.561 3.55312 13.7391C3.74531 13.8235 3.91875 13.8282 6.82969 13.8282H9.9L9.87656 13.936C9.85781 13.9922 9.42187 16.0219 8.90625 18.4454C8.175 21.8391 7.96406 22.8985 7.9875 23.0532C8.03906 23.4422 8.30156 23.7891 8.65781 23.9391C9.01875 24.0891 9.6375 23.9719 9.88125 23.7047C9.99844 23.5735 20.7703 9.2016 20.9344 8.95317C21.0844 8.72817 21.1359 8.2641 21.0469 7.99223C20.9719 7.75785 20.6953 7.45785 20.4609 7.35473C20.2875 7.27504 20.0766 7.26567 17.4047 7.26567H14.5312L15.9984 4.33598L17.4609 1.4016L17.4562 1.08285C17.4562 0.604729 17.2172 0.24379 16.7859 0.0656662C16.6547 0.00941467 16.0266 4.00543e-05 13.0594 4.00543e-05C9.90469 0.00472832 9.47812 0.0141029 9.35156 0.0797272ZM14.5312 2.2266C14.5312 2.23598 13.8844 3.54379 13.0922 5.12817C11.7844 7.74848 11.6531 8.02973 11.6344 8.28285C11.5969 8.7891 11.9156 9.28129 12.3703 9.41254C12.4969 9.45473 13.3125 9.46879 15.1594 9.46879H17.7656L14.5219 13.8C12.7359 16.1813 11.2687 18.1266 11.2687 18.1219C11.2641 18.1219 11.5078 16.9547 11.8172 15.5391C12.1219 14.1188 12.3703 12.8485 12.375 12.7125C12.375 12.4125 12.2391 12.1032 12.0187 11.9063C11.6859 11.6157 11.7937 11.625 8.66719 11.625H5.8125L8.16562 6.9141L10.5234 2.20317H12.525C13.6312 2.20317 14.5312 2.21254 14.5312 2.2266Z" fill="#2A2A2A"/>
</g>
<defs>
<clipPath id="clip0_135_8449">
<rect width="24" height="24" fill="white"/>
</clipPath>
</defs>
</svg>
