<svg width="20" height="26" viewBox="0 0 20 26" fill="none" xmlns="http://www.w3.org/2000/svg">
<g clip-path="url(#clip0_135_8418)">
<path d="M1.16875 1.08906C1.09844 1.13594 0.995313 1.23906 0.948438 1.30937C0.864063 1.44062 0.859375 1.6 0.859375 5.26562C0.859375 8.93125 0.864063 9.09062 0.948438 9.22187C1.15 9.52187 1.18281 9.53125 2.49063 9.53125H3.67188V11.6406V13.75H3.19375C2.66406 13.75 2.52813 13.8016 2.35469 14.0594C2.27031 14.1859 2.26562 14.3078 2.26562 15.8594C2.26562 17.4016 2.275 17.5328 2.35469 17.6547C2.51406 17.9031 2.62656 17.9453 3.175 17.9687L3.68594 17.9922L3.77031 18.4047C3.94844 19.3047 4.41719 20.1531 5.02656 20.6969C5.3125 20.95 5.99688 21.4 6.26875 21.5125L6.48438 21.6016V23.0781C6.48438 24.7094 6.48438 24.7047 6.79375 24.9109C6.925 24.9953 7.07031 25 10 25C12.9297 25 13.075 24.9953 13.2063 24.9109C13.5156 24.7047 13.5156 24.7094 13.5156 23.0781V21.6016L13.7313 21.5125C14.0031 21.4 14.6875 20.95 14.9734 20.6969C15.5828 20.1531 16.0516 19.3047 16.2297 18.4047L16.3141 17.9922L16.825 17.9687C17.3734 17.9453 17.4859 17.9031 17.6453 17.6547C17.725 17.5328 17.7344 17.4016 17.7344 15.8594C17.7344 14.3078 17.7297 14.1859 17.6453 14.0594C17.4719 13.8016 17.3359 13.75 16.8109 13.75H16.3281V11.6406V9.53125H17.5141C18.8172 9.53125 18.85 9.52187 19.0516 9.22187C19.1359 9.09062 19.1406 8.93125 19.1406 5.26562C19.1406 1.6 19.1359 1.44062 19.0516 1.30937C19.0047 1.23906 18.9016 1.13594 18.8313 1.08906C18.7 1.00469 18.4375 1 10 1C1.5625 1 1.3 1.00469 1.16875 1.08906ZM17.7344 5.26562V8.125H16.8625H15.9953L15.9438 7.97031C15.9156 7.89062 15.7797 7.6 15.6391 7.32812C14.7578 5.58906 13.0281 4.31406 11.1016 3.98125C10.5484 3.88281 9.45156 3.88281 8.89844 3.98125C6.97188 4.31406 5.24219 5.58906 4.36094 7.32812C4.22031 7.6 4.08438 7.89062 4.05625 7.97031L4.00469 8.125H3.1375H2.26562V5.26562V2.40625H10H17.7344V5.26562ZM10.5391 5.37812C11.4766 5.45312 12.5312 5.93125 13.3141 6.64375C13.9469 7.22031 14.5234 8.18594 14.7344 9.01094C14.8797 9.5875 14.9219 10.2484 14.9219 12.0953V13.75H10H5.07812V12.0953C5.07812 9.62969 5.14844 9.07656 5.56563 8.19062C5.84219 7.60938 6.10469 7.23438 6.55 6.78437C7.37969 5.95937 8.44375 5.45781 9.56875 5.36406C9.79375 5.34531 10.0281 5.33594 10.0938 5.34062C10.1594 5.35 10.3609 5.36406 10.5391 5.37812ZM16.3281 15.8594V16.5625H10H3.67188V15.8594V15.1562H10H16.3281V15.8594ZM14.8047 18.1422C14.6266 19.0984 13.8531 19.9187 12.7328 20.3406C12.1047 20.5797 12.1094 20.5562 12.1094 22.2344V23.5938H10H7.89063V22.2344C7.89063 20.5562 7.89531 20.5797 7.26719 20.3406C6.14688 19.9187 5.37344 19.0984 5.19531 18.1422L5.1625 17.9687H10H14.8375L14.8047 18.1422Z" fill="#2A2A2A" stroke="#2A2A2A" stroke-width="0.5"/>
</g>
<defs>
<clipPath id="clip0_135_8418">
<rect width="20" height="26" fill="white"/>
</clipPath>
</defs>
</svg>
