<svg width="24" height="24" viewBox="0 0 24 24" fill="none" xmlns="http://www.w3.org/2000/svg">
<g clip-path="url(#clip0_135_8373)">
<path d="M0.309375 0.0890617C0.239063 0.135937 0.135938 0.239061 0.0890625 0.309374C0.0046875 0.440624 0 0.684374 0 8.22656C0 15.7687 0.0046875 16.0125 0.0890625 16.1437C0.135938 16.2141 0.239063 16.3172 0.309375 16.3641C0.435938 16.4484 0.5625 16.4531 2.29688 16.4531H4.14844L4.75781 17.0672C5.56875 17.8875 5.6625 17.9531 5.99531 17.9531C6.45 17.9531 6.70313 17.7 6.70313 17.2453C6.70313 17.0297 6.67969 16.95 6.56719 16.8C6.38906 16.5562 4.97813 15.1687 4.82812 15.0891C4.73438 15.0422 4.35938 15.0328 3.06094 15.0422L1.40625 15.0516V12.7219V10.3875L1.55625 10.5328C1.82813 10.7812 1.92656 10.8281 2.20312 10.8281C2.65313 10.8281 2.90625 10.575 2.90625 10.1203C2.90625 9.7875 2.84063 9.69375 2.02031 8.88281L1.40625 8.27344V4.84219V1.40625H5.03906H8.67188V4.66406V7.92188H6.64688C4.73906 7.92188 4.60781 7.92656 4.48125 8.01094C4.26562 8.15625 4.17188 8.33437 4.17188 8.625C4.17188 8.91562 4.26562 9.09375 4.48125 9.23906C4.6125 9.32344 4.77188 9.32812 8.4375 9.32812C12.1031 9.32812 12.2625 9.32344 12.3938 9.23906C12.6094 9.09375 12.7031 8.91562 12.7031 8.625C12.7031 8.33437 12.6094 8.15625 12.3938 8.01094C12.2719 7.93125 12.1547 7.92188 11.1703 7.92188H10.0781V4.66406V1.40625H16.3359H22.5938V4.66875V7.92656L19.0688 7.91719C16.2188 7.90781 15.5156 7.91719 15.4219 7.96406C15.2719 8.04375 13.8656 9.43125 13.6828 9.675C13.5703 9.825 13.5469 9.90469 13.5469 10.1203C13.5469 10.575 13.8 10.8281 14.2547 10.8281C14.5875 10.8281 14.6813 10.7625 15.4922 9.94219L16.1016 9.32812H19.3453H22.5938V12.1875V15.0469H19.0453C15.6422 15.0469 15.4875 15.0516 15.3563 15.1359C15.1406 15.2812 15.0469 15.4594 15.0469 15.75C15.0469 16.0406 15.1406 16.2187 15.3563 16.3641C15.4875 16.4484 15.6422 16.4531 19.0453 16.4531H22.5938V19.5234V22.5938H19.5234H16.4531V20.9156C16.4531 19.3547 16.4484 19.2328 16.3641 19.1062C16.3172 19.0359 16.2141 18.9328 16.1438 18.8859C16.0172 18.8016 15.8953 18.7969 14.3578 18.7969H12.7031V17.4469V16.1016L13.3172 15.4922C14.1375 14.6812 14.2031 14.5875 14.2031 14.2547C14.2031 13.8 13.95 13.5469 13.4953 13.5469C13.1625 13.5469 13.0688 13.6125 12.2578 14.4328L11.6484 15.0469H9.82031C8.10938 15.0469 7.98281 15.0516 7.85625 15.1359C7.64063 15.2812 7.54688 15.4594 7.54688 15.75C7.54688 16.0406 7.64063 16.2187 7.85625 16.3641C7.98281 16.4484 8.10469 16.4531 9.64688 16.4531H11.2969V18.1031C11.2969 19.6453 11.3016 19.7672 11.3859 19.8937C11.4328 19.9641 11.5359 20.0672 11.6063 20.1141C11.7328 20.1984 11.8547 20.2031 13.3969 20.2031H15.0469V21.8766C15.0469 23.4422 15.0516 23.5641 15.1359 23.6906C15.1828 23.7609 15.2859 23.8641 15.3563 23.9109C15.4875 23.9953 15.6516 24 19.5234 24C23.3953 24 23.5594 23.9953 23.6906 23.9109C23.7609 23.8641 23.8641 23.7609 23.9109 23.6906C23.9953 23.5594 24 23.2406 24 12C24 0.759375 23.9953 0.440624 23.9109 0.309374C23.8641 0.239061 23.7609 0.135937 23.6906 0.0890617C23.5594 0.00468636 23.2406 0 12 0C0.759375 0 0.440625 0.00468636 0.309375 0.0890617Z" fill="#2A2A2A" stroke="#2A2A2A" stroke-width="0.5"/>
</g>
<defs>
<clipPath id="clip0_135_8373">
<rect width="24" height="24" fill="white"/>
</clipPath>
</defs>
</svg>
