<svg width="24" height="24" viewBox="0 0 24 24" fill="none" xmlns="http://www.w3.org/2000/svg">
<g clip-path="url(#clip0_151_9491)">
<path d="M11.5308 4.45378C11.3433 4.53347 6.15425 9.68035 5.96675 9.98035C5.87769 10.1163 5.84019 10.2475 5.82144 10.4819C5.80269 10.7585 5.81676 10.8288 5.92457 11.0585C6.20113 11.6163 6.87613 11.8225 7.45269 11.5319C7.54176 11.485 8.34801 10.7163 9.24801 9.82566L10.8746 8.20378L10.8746 15.5819C10.8746 20.4522 10.8933 23.035 10.9261 23.1757C10.9918 23.4616 11.1605 23.71 11.4043 23.8647C11.5777 23.9819 11.6433 23.996 11.9996 23.996C12.3511 23.996 12.4214 23.9819 12.5902 23.8694C12.698 23.7991 12.8339 23.6772 12.8902 23.5975C13.1339 23.2553 13.1246 23.5647 13.1246 15.61L13.1246 8.20378L14.7558 9.82566C15.6511 10.7163 16.4574 11.485 16.5464 11.5319C17.123 11.8225 17.798 11.6163 18.0746 11.0585C18.1824 10.8288 18.1964 10.7585 18.1777 10.4819C18.1589 10.2475 18.1214 10.1163 18.0324 9.98034C17.8308 9.66159 12.6558 4.53347 12.4589 4.4491C12.2386 4.36003 11.7464 4.36003 11.5308 4.45378Z" fill="#2A2A2A"/>
<path d="M23.3673 2.09062C23.8173 1.88438 24.0236 1.52344 23.9908 1.00781C23.9673 0.6 23.7845 0.309375 23.4423 0.13125L23.1939 -6.99602e-08L12.0001 -1.04855e-06L0.806389 -2.02714e-06L0.557951 0.131248C0.215763 0.309373 0.0329513 0.599998 0.00951377 1.00781C-0.0232984 1.52344 0.182951 1.88437 0.632952 2.09062L0.867327 2.20312L12.0001 2.20312L23.133 2.20312L23.3673 2.09062Z" fill="#2A2A2A"/>
</g>
<defs>
<clipPath id="clip0_151_9491">
<rect width="24" height="24" fill="white" transform="translate(24 24) rotate(-180)"/>
</clipPath>
</defs>
</svg>
