<svg width="22" height="24" viewBox="0 0 22 24" fill="none" xmlns="http://www.w3.org/2000/svg">
<g clip-path="url(#clip0_135_8369)">
<path d="M8.3908 1.09799C8.1587 1.25272 8.10282 1.39456 8.04695 1.98771C7.84923 4.0981 7.11855 6.09674 6.00532 7.56671C5.54542 8.17274 5.51534 8.17704 5.19727 7.69565C4.94368 7.31312 4.72448 6.8919 4.56544 6.47927C4.40211 6.05376 4.2087 5.89902 3.84765 5.89902C3.57257 5.89902 3.46942 5.97639 3.09978 6.44059C1.81893 8.0438 1.01947 9.82323 0.761582 11.6285C0.675619 12.2173 0.679917 13.4595 0.76588 14.0698C1.35902 18.3422 5.15859 22.0601 9.78769 22.9025C10.3035 22.9971 11.8422 23.0314 12.4354 22.967C15.3667 22.6317 17.8295 21.1102 19.5144 18.6001C19.8883 18.0413 20.4428 16.9367 20.6921 16.2576C21.0145 15.3807 21.2681 14.2675 21.3712 13.2918C21.4271 12.746 21.4271 11.2717 21.3669 10.6872C21.238 9.38482 20.791 7.61828 20.503 7.29592C20.2666 7.02514 19.8583 6.99935 19.5875 7.24005C19.48 7.33031 19.4113 7.45495 19.3253 7.71714C19.1792 8.15985 19.0502 8.41774 18.7837 8.80887C18.3797 9.39342 17.6662 9.96937 17.0602 10.2015C16.8238 10.2917 16.8109 10.2917 16.7292 10.2187C16.6819 10.1757 16.6432 10.0983 16.6432 10.0424C16.6432 9.81894 16.4025 8.66273 16.2349 8.06529C15.2635 4.66975 13.0586 2.12095 10.3679 1.28281C9.42665 0.990536 8.65298 0.917467 8.3908 1.09799ZM10.4023 2.71409C11.4468 3.14821 12.5127 4.00354 13.2864 5.0308C14.275 6.33743 14.9799 8.06529 15.2678 9.87911C15.3796 10.5754 15.414 10.6829 15.5988 10.9579C15.8524 11.3362 16.3768 11.6156 16.8367 11.6156C17.2493 11.6156 17.9585 11.3276 18.5387 10.9193C18.8998 10.6657 19.4542 10.1456 19.682 9.84902C19.768 9.73297 19.8454 9.64701 19.8583 9.65561C19.9012 9.69859 20.0388 10.7301 20.0775 11.319C20.1763 12.7202 19.9915 14.1214 19.5359 15.5011L19.3339 16.1028L19.2436 15.8235C19.0502 15.2561 18.7021 14.7102 18.427 14.5383C18.2379 14.4223 17.8854 14.4223 17.6963 14.5383C17.6146 14.5899 17.5029 14.7274 17.4255 14.8693C17.0903 15.5011 16.3381 16.3607 15.9126 16.61C15.6934 16.7347 15.487 16.7905 15.4097 16.739C15.3839 16.7218 15.328 16.524 15.2893 16.3005C14.7134 12.9437 12.6245 10.6958 9.64156 10.2144C9.04412 10.1198 8.66588 10.1241 8.52834 10.2273C8.29194 10.3992 8.23606 10.5453 8.18019 11.0869C8.03405 12.5354 7.55696 13.9752 6.86495 15.0412C6.59847 15.4495 6.34058 15.7848 6.289 15.7848C6.23742 15.7848 5.85919 15.1272 5.69586 14.7489C5.52393 14.3406 5.42078 14.2116 5.22306 14.1257C5.01245 14.0354 4.82763 14.0526 4.53106 14.1945C3.82186 14.5297 3.23732 15.0713 2.91496 15.6945L2.73013 16.0513L2.59689 15.7375C2.23155 14.8521 2.07252 14.1085 2.04243 13.1328C2.01664 12.3377 2.05962 11.8176 2.21006 11.1643C2.42497 10.2359 2.91066 9.09255 3.45222 8.26301L3.71441 7.85898L3.85195 8.08678C4.41931 9.05816 4.84912 9.38052 5.55832 9.38052C6.18155 9.38052 6.58557 9.09255 7.2174 8.19853C8.25326 6.73286 8.97105 4.91045 9.25902 3.01497L9.35788 2.38743L9.72322 2.48629C9.92524 2.53787 10.2304 2.64103 10.4023 2.71409ZM10.1101 11.6886C10.8837 11.9121 11.5714 12.3119 12.1861 12.9007C13.1403 13.8205 13.7076 14.9896 13.9784 16.5799C14.0343 16.9152 14.1116 17.2118 14.1718 17.3321C14.3093 17.5943 14.55 17.8221 14.8595 17.9639C15.0787 18.0628 15.1733 18.0843 15.4827 18.08C16.1833 18.08 16.7593 17.7748 17.5072 17.0011C17.6877 16.8163 17.8725 16.61 17.9241 16.5455L18.0144 16.4209L18.0487 16.5455C18.0659 16.61 18.0831 16.9539 18.0831 17.3106C18.0831 18.3637 18.0229 18.4883 17.1676 19.3264C16.6948 19.7906 16.2951 20.1087 15.8051 20.4139C14.765 21.0629 13.5916 21.4798 12.3666 21.6303C11.7992 21.7033 10.7247 21.6904 10.1745 21.6088C7.96958 21.2778 5.81191 20.0872 4.23019 18.3207L3.82616 17.8694L3.84765 17.3751C3.86485 16.9925 3.89063 16.8163 3.9723 16.5971C4.08835 16.2791 4.33334 15.918 4.52246 15.7848L4.64281 15.6988L4.87061 16.0942C5.18008 16.6186 5.50244 16.9496 5.81191 17.057C6.38356 17.2504 6.981 17.0871 7.37643 16.6272C8.36071 15.4753 9.16876 13.6056 9.42665 11.8863L9.47823 11.5339L9.61147 11.5597C9.68454 11.5726 9.90804 11.6328 10.1101 11.6886Z" fill="#2A2A2A" stroke="#2A2A2A" stroke-width="0.5"/>
</g>
<defs>
<clipPath id="clip0_135_8369">
<rect width="22" height="24" fill="white"/>
</clipPath>
</defs>
</svg>
