<svg width="24" height="24" viewBox="0 0 24 24" fill="none" xmlns="http://www.w3.org/2000/svg">
<g clip-path="url(#clip0_135_8458)">
<path d="M3.04219 0.107811C2.95313 0.164062 2.84531 0.285936 2.80313 0.375C2.72344 0.529686 2.71875 1.18125 2.71875 12C2.71875 22.8187 2.72344 23.4703 2.80313 23.625C2.84531 23.7141 2.95313 23.8359 3.04219 23.8922L3.20156 24H12H20.7984L20.9578 23.8922C21.0469 23.8359 21.1547 23.7141 21.1969 23.625C21.2766 23.4703 21.2812 22.9547 21.2812 14.8266C21.2812 8.93437 21.2672 6.15 21.2344 6.06094C21.1781 5.91094 15.4688 0.173437 15.2719 0.0656242C15.1641 0.00937462 14.2734 0 9.17344 0H3.20156L3.04219 0.107811ZM14.2031 3.94687C14.2031 6.78281 14.1938 6.70312 14.5266 6.92344L14.6859 7.03125H17.2547H19.8281V14.8125V22.5938H12H4.17188V12V1.40625H9.1875H14.2031V3.94687ZM17.25 4.05469L18.8203 5.625H17.2359H15.6563V4.05469C15.6563 3.19219 15.6609 2.48438 15.6703 2.48438C15.675 2.48438 16.3875 3.19219 17.25 4.05469Z" fill="#2A2A2A" stroke="#2A2A2A" stroke-width="0.5"/>
<path d="M11.695 6.95625C11.4934 7.04531 5.47934 13.1766 5.3809 13.3969C5.27777 13.6219 5.27777 13.7578 5.39027 14.0016C5.50277 14.2594 5.7184 14.3906 6.01371 14.3906C6.29965 14.3906 6.38402 14.3484 6.71684 14.025L6.98402 13.7625V16.0969C6.98402 18.4125 6.98402 18.4359 7.08715 18.6141C7.15277 18.7312 7.26059 18.8297 7.38246 18.8906C7.56996 18.9844 7.67309 18.9844 11.9996 18.9844C16.3262 18.9844 16.4293 18.9844 16.6168 18.8906C16.7387 18.8297 16.8465 18.7312 16.9121 18.6141C17.0153 18.4359 17.0153 18.4125 17.0153 16.0969V13.7625L17.2871 14.025C17.6153 14.3484 17.6996 14.3906 17.9856 14.3906C18.2809 14.3906 18.4965 14.2594 18.609 14.0016C18.7215 13.7578 18.7215 13.6219 18.6184 13.3969C18.5106 13.1625 12.5012 7.04062 12.295 6.95625C12.1075 6.87656 11.8778 6.87656 11.695 6.95625ZM13.795 10.4859L15.5621 12.2812V14.9062V17.5312H11.9996H8.43715V14.9062V12.2812L10.209 10.4812C11.1793 9.4875 11.9903 8.68125 12.0043 8.68594C12.0184 8.69062 12.8246 9.50156 13.795 10.4859Z" fill="#2A2A2A" stroke="#2A2A2A" stroke-width="0.5"/>
</g>
<defs>
<clipPath id="clip0_135_8458">
<rect width="24" height="24" fill="white"/>
</clipPath>
</defs>
</svg>
