<svg width="24" height="24" viewBox="0 0 24 24" fill="none" xmlns="http://www.w3.org/2000/svg">
<g clip-path="url(#clip0_151_9483)">
<path d="M7.89844 0.0890617C7.65938 0.196875 7.4625 0.393749 7.35469 0.632812C7.28438 0.787498 7.26563 0.942186 7.26563 1.48594V2.15156L4.02188 2.16562C0.796875 2.17969 0.773438 2.17969 0.585938 2.28281C0.346875 2.40937 0.164062 2.60156 0.075 2.82187C0.009375 2.97656 0 4.07344 0 13.0969V23.1937L0.13125 23.4422C0.225 23.625 0.323438 23.7328 0.492188 23.8359L0.717188 23.9766H12H23.2828L23.5078 23.8359C23.6766 23.7328 23.775 23.625 23.8688 23.4422L24 23.1937V13.0969C24 4.07344 23.9906 2.97656 23.925 2.82187C23.8359 2.60156 23.6531 2.40937 23.4141 2.28281C23.2266 2.17969 23.2031 2.17969 19.9828 2.16562L16.7344 2.15156V1.48594C16.7344 0.942186 16.7156 0.787498 16.6453 0.632812C16.4625 0.229687 16.0969 0 15.6328 0C15.2813 0 15.0328 0.112499 14.8031 0.365623C14.5734 0.61875 14.5313 0.801561 14.5313 1.53281V2.15625H12H9.46875V1.53281C9.46875 1.19531 9.44531 0.834373 9.41719 0.735937C9.35625 0.506248 9.075 0.196875 8.83594 0.0890617C8.5875 -0.0234375 8.14688 -0.0234375 7.89844 0.0890617ZM21.7969 5.46094V6.51562H12H2.20312V5.46094V4.40625H12H21.7969V5.46094ZM21.7969 15.2812V21.7969H12H2.20312V15.2812V8.76562H12H21.7969V15.2812Z" fill="#2A2A2A"/>
<path d="M14.8118 12.075C14.7087 12.1172 13.9493 12.8438 12.7868 14.0016L10.9259 15.8625L10.1384 15.0891C9.29461 14.2594 9.13523 14.1563 8.6993 14.1563C8.46492 14.1563 8.08523 14.3297 7.9118 14.5125C7.62586 14.8219 7.54148 15.375 7.72898 15.7594C7.78992 15.8907 8.23992 16.3735 9.03211 17.1657C10.3165 18.4454 10.4665 18.5579 10.8743 18.5625C11.3759 18.5625 11.2727 18.6469 13.818 16.111C15.1165 14.8172 16.2087 13.7016 16.2462 13.6266C16.5321 13.0875 16.3212 12.3891 15.7868 12.1219C15.5009 11.9813 15.079 11.9578 14.8118 12.075Z" fill="#2A2A2A"/>
</g>
<defs>
<clipPath id="clip0_151_9483">
<rect width="24" height="24" fill="white"/>
</clipPath>
</defs>
</svg>
