<svg width="24" height="24" viewBox="0 0 24 24" fill="none" xmlns="http://www.w3.org/2000/svg">
<path fill-rule="evenodd" clip-rule="evenodd" d="M3 10.55V6C3 4.61925 4.1193 3.5 5.5 3.5H18.5C19.8807 3.5 21 4.61927 21 6V10.55C22.1411 10.7816 23 11.7905 23 13V17.5C23 18.0523 22.5523 18.5 22 18.5V19.5C22 20.0523 21.5523 20.5 21 20.5C20.4477 20.5 20 20.0523 20 19.5V18.5H4V19.5C4 20.0523 3.55228 20.5 3 20.5C2.44772 20.5 2 20.0523 2 19.5V18.5C1.44772 18.5 1 18.0523 1 17.5V13C1 11.7905 1.85889 10.7816 3 10.55ZM5 6C5 5.72385 5.22385 5.5 5.5 5.5H18.5C18.7762 5.5 19 5.72383 19 6V8.99974C18.5439 8.39266 17.8178 8 17 8H14C13.1822 8 12.4561 8.39266 12 8.99974C11.5439 8.39266 10.8178 8 10 8H7C6.18219 8 5.45611 8.39266 5 8.99974V6ZM3 16.5H21V13C21 12.7238 20.7762 12.5 20.5 12.5H3.5C3.22385 12.5 3 12.7238 3 13V16.5Z" fill="#2A2A2A"/>
</svg>
