<svg width="24" height="24" viewBox="0 0 24 24" fill="none" xmlns="http://www.w3.org/2000/svg">
<g clip-path="url(#clip0_135_8365)">
<path fill-rule="evenodd" clip-rule="evenodd" d="M16 4C16 3.44772 16.4477 3 17 3H22C22.5523 3 23 3.44772 23 4C23 4.55228 22.5523 5 22 5H18V9.33333C18 9.88562 17.5523 10.3333 17 10.3333H13V14.6667C13 15.219 12.5523 15.6667 12 15.6667H8V20C8 20.5523 7.55228 21 7 21H2C1.44772 21 1 20.5523 1 20C1 19.4477 1.44772 19 2 19H6V14.6667C6 14.1144 6.44772 13.6667 7 13.6667H11V9.33333C11 8.78105 11.4477 8.33333 12 8.33333H16V4Z" fill="#2A2A2A"/>
</g>
<defs>
<clipPath id="clip0_135_8365">
<rect width="24" height="24" fill="white"/>
</clipPath>
</defs>
</svg>
