<svg width="26" height="22" viewBox="0 0 26 22" fill="none" xmlns="http://www.w3.org/2000/svg">
<g clip-path="url(#clip0_135_8397)">
<path d="M12.0625 0.710938C11.0594 0.912498 10.1406 1.40469 9.41875 2.12187C9.00156 2.54375 8.74375 2.90937 8.47188 3.46719L8.25156 3.92188H4.87188C1.58125 3.92188 1.4875 3.92656 1.3375 4.01562C1.25313 4.06719 1.14531 4.175 1.09375 4.25937C1 4.41406 1 4.5125 1 12.6781V20.9422L1.18281 21.1391L1.37031 21.3359H13H24.6297L24.8172 21.1391L25 20.9422V12.6781C25 4.5125 25 4.41406 24.9062 4.25937C24.8547 4.175 24.7469 4.06719 24.6625 4.01562C24.5125 3.92656 24.4188 3.92188 21.1281 3.92188H17.7484L17.5281 3.46719C17.2563 2.90937 16.9984 2.54375 16.5813 2.12187C15.8547 1.39531 14.9266 0.903124 13.9375 0.715624C13.4734 0.626562 12.4938 0.621874 12.0625 0.710938ZM13.7641 2.16875C14.3172 2.29062 14.9875 2.64219 15.4047 3.03125C16.6141 4.16094 16.8625 5.65625 16.1125 7.25C15.8266 7.85469 15.5875 8.22969 14.7344 9.40625C14.3359 9.96406 13.7875 10.7375 13.5156 11.1312C13.2438 11.5203 13.0141 11.8438 13 11.8438C12.9859 11.8391 12.7563 11.5203 12.4844 11.1312C12.2125 10.7375 11.6641 9.96406 11.2609 9.40625C9.86406 7.47031 9.47969 6.64531 9.47031 5.5625C9.46094 4.56406 9.82188 3.75312 10.5906 3.03594C11.0031 2.64687 11.6125 2.31875 12.1609 2.1875C12.6016 2.07969 13.3188 2.07031 13.7641 2.16875ZM6.20312 5.38906C6.20312 5.39375 5.35 6.25156 4.30469 7.29687L2.40625 9.19531V7.28281V5.375H4.30469C5.35 5.375 6.20312 5.37969 6.20312 5.38906ZM20.7484 7.9625L18.1562 10.5547L17.4484 9.84219L16.7359 9.13437L16.9234 8.83437C17.5609 7.82656 17.8984 6.84219 17.9922 5.73594L18.025 5.375H20.6781H23.3359L20.7484 7.9625ZM8.03125 5.975C8.03125 6.09687 8.07344 6.37344 8.12031 6.59375C8.36406 7.68594 8.8375 8.58125 10.0188 10.1984L10.4781 10.8266L8.51875 12.7859L6.55469 14.75L4.64688 12.8422L2.73438 10.9297L5.34531 8.31875C6.77969 6.88437 7.97031 5.71719 7.99375 5.73125C8.0125 5.74531 8.03125 5.85312 8.03125 5.975ZM23.5938 11.5953V15.9922L21.3906 13.7891L19.1875 11.5859L21.3766 9.39687C22.5859 8.1875 23.575 7.20312 23.5797 7.20312C23.5891 7.20312 23.5938 9.18125 23.5938 11.5953ZM23.5938 18.9781V19.9062H19.9469H16.3047L13.1031 16.7047L9.90625 13.5078L10.6281 12.7859L11.3453 12.0687L11.8703 12.8187C12.5734 13.8172 12.5922 13.8359 13 13.8359C13.2906 13.8359 13.3375 13.8219 13.4641 13.7C13.5438 13.625 13.9422 13.0859 14.3453 12.5047C14.7484 11.9234 15.2594 11.1969 15.475 10.8875L15.8734 10.3344L19.7313 14.1922L23.5938 18.0547V18.9781ZM3.9625 17.3375L2.40625 18.8984V15.7812V12.6641L3.9625 14.225L5.52344 15.7812L3.9625 17.3375ZM11.5703 17.2344L14.2422 19.9062H8.875H3.50781L6.17969 17.2344C7.64688 15.7625 8.86094 14.5625 8.875 14.5625C8.88906 14.5625 10.1031 15.7625 11.5703 17.2344Z" fill="#2A2A2A" stroke="#2A2A2A" stroke-width="0.5"/>
<path d="M12.3438 3.49531C11.9313 3.62656 11.6875 3.77656 11.4016 4.05781C10.9609 4.49844 10.75 5.01875 10.75 5.65625C10.75 6.29375 10.9609 6.81406 11.4016 7.25469C11.8422 7.69531 12.3625 7.90625 13 7.90625C13.6375 7.90625 14.1578 7.69531 14.5984 7.25469C15.3063 6.54688 15.4563 5.49219 14.9828 4.55938C14.8328 4.25938 14.3969 3.82344 14.0969 3.67344C13.5531 3.39688 12.8641 3.32656 12.3438 3.49531ZM13.3984 4.96719C13.9234 5.2625 13.9234 6.04531 13.3984 6.35C13.1547 6.49063 12.7609 6.47656 12.5406 6.31719C11.9125 5.87188 12.2359 4.85938 13 4.85938C13.1313 4.85938 13.2812 4.90156 13.3984 4.96719Z" fill="#2A2A2A"/>
</g>
<defs>
<clipPath id="clip0_135_8397">
<rect width="26" height="22" fill="white"/>
</clipPath>
</defs>
</svg>
