<svg width="30" height="30" viewBox="0 0 30 30" fill="none" xmlns="http://www.w3.org/2000/svg">
<g clip-path="url(#clip0_151_9487)">
<path d="M4.8043 0.140625C4.45273 0.322266 4.1832 0.679688 4.10703 1.06641C4.06016 1.2832 4.04258 4.23633 4.0543 11.0742C4.07188 20.2734 4.07773 20.7832 4.17734 21.0059C4.31211 21.3047 4.53477 21.5391 4.83359 21.6973C5.06797 21.8262 5.09141 21.8262 9.33359 21.8438L13.5934 21.8613V25.3008C13.5934 29.0977 13.5992 29.1562 13.9508 29.5547C14.4781 30.1582 15.5211 30.1582 16.0484 29.5547C16.4 29.1562 16.4059 29.0977 16.4059 25.3008V21.8613L20.6715 21.8438C24.9078 21.8262 24.9313 21.8262 25.1656 21.6973C25.4645 21.5391 25.6871 21.3047 25.8219 21.0059C25.9215 20.7832 25.9273 20.2734 25.9449 11.0742C25.9566 4.23633 25.9391 1.2832 25.8922 1.06641C25.816 0.679688 25.5465 0.322266 25.1949 0.140625L24.9313 0H14.9996H5.06797L4.8043 0.140625ZM23.1441 10.8984V19.043H14.9996H6.85508V10.8984V2.75391H14.9996H23.1441V10.8984Z" fill="#2A2A2A"/>
<path d="M12.7503 5.49024C12.346 5.5957 11.9534 6.0293 11.8363 6.50391C11.7894 6.68555 11.7777 8.08008 11.7894 11.0742C11.807 15.1465 11.8128 15.3926 11.9183 15.5859C12.1937 16.1133 12.6097 16.3711 13.1839 16.3711C13.6116 16.3711 13.9281 16.2422 14.1859 15.9551C14.5081 15.6094 14.555 15.4453 14.5784 14.5254L14.6019 13.6641L15.6683 13.6406C16.6351 13.6172 16.7699 13.5996 17.1976 13.4531C17.971 13.1895 18.557 12.791 19.0902 12.1641C19.3714 11.8301 19.8167 10.957 19.9163 10.5352C20.3616 8.64844 19.4476 6.69727 17.7249 5.85938C16.9456 5.47852 16.7347 5.44922 14.6781 5.45508C13.682 5.46094 12.8089 5.47852 12.7503 5.49024ZM16.2366 8.26172C16.5413 8.34961 16.8167 8.54883 17.0218 8.8418C17.18 9.07031 17.1976 9.13477 17.1976 9.54492C17.1976 9.9668 17.1859 10.0137 16.9925 10.2832C16.8577 10.4648 16.6761 10.623 16.4945 10.7168C16.2366 10.8516 16.1253 10.8691 15.3988 10.8867L14.5902 10.9102V9.55664V8.20313H15.3109C15.7034 8.20313 16.1195 8.23242 16.2366 8.26172Z" fill="#2A2A2A"/>
</g>
<defs>
<clipPath id="clip0_151_9487">
<rect width="30" height="30" fill="white"/>
</clipPath>
</defs>
</svg>
