<svg width="24" height="24" viewBox="0 0 24 24" fill="none" xmlns="http://www.w3.org/2000/svg">
<g clip-path="url(#clip0_135_8378)">
<path d="M9.74091 2.3625C9.64716 2.39531 9.48778 2.475 9.38466 2.53594C8.99559 2.77031 0.17372 9.77344 0.0893448 9.90938C-0.0372177 10.1203 -0.0278427 10.4859 0.108095 10.6922C0.258095 10.9172 0.487782 11.025 0.764345 11.0016C1.01278 10.9781 1.03622 10.9641 1.87528 10.2984L2.39091 9.89063V15.1172V20.3438H1.42059C0.544032 20.3438 0.431532 20.3531 0.309657 20.4328C0.0940323 20.5781 0.000282326 20.7563 0.000282326 21.0469C0.000282326 21.3375 0.0940323 21.5156 0.309657 21.6609C0.440907 21.7453 0.759658 21.75 12.0003 21.75C23.2409 21.75 23.5597 21.7453 23.6909 21.6609C23.9065 21.5156 24.0003 21.3375 24.0003 21.0469C24.0003 20.7563 23.9065 20.5781 23.6909 20.4328C23.569 20.3531 23.4565 20.3438 22.5847 20.3438H21.6097V16.0313C21.6097 13.6594 21.619 11.7188 21.6331 11.7188C21.6472 11.7188 21.9425 11.9203 22.2893 12.1641C22.6315 12.4078 22.969 12.6281 23.0393 12.6563C23.344 12.7734 23.7097 12.6563 23.8925 12.3797C24.0284 12.1734 24.0378 11.8078 23.9112 11.5969C23.855 11.5078 23.1425 10.9734 21.9472 10.125L20.0675 8.79844L20.0534 6.59063C20.0393 4.40156 20.0393 4.38281 19.9315 4.14844C19.7956 3.85313 19.5425 3.59063 19.2425 3.43125C19.0128 3.30469 18.9987 3.30469 18.0472 3.30469H17.0862L16.8378 3.44063C16.5331 3.61406 16.3362 3.82969 16.1815 4.17188C16.0737 4.40156 16.055 4.50469 16.0362 5.17969L16.0081 5.93438L13.5706 4.20938C12.0753 3.15 11.0393 2.45156 10.8847 2.39063C10.594 2.27813 10.0128 2.26406 9.74091 2.3625ZM15.2628 7.20469L20.1565 10.6594V15.5016V20.3438H19.7112H19.2659V18.3609C19.2659 17.1797 19.2472 16.3125 19.219 16.2141C19.144 15.9516 18.98 15.7406 18.7503 15.6094L18.5393 15.4922H15.0003H11.4612L11.269 15.5953C11.0253 15.7266 10.8472 15.9328 10.7815 16.1625C10.7534 16.2703 10.7347 17.1047 10.7347 18.3375V20.3438H10.1956H9.65653V18.3375C9.65653 17.1047 9.63778 16.2703 9.60966 16.1625C9.54403 15.9328 9.36591 15.7266 9.12216 15.5953C8.93466 15.4922 8.89716 15.4922 7.17216 15.4922C5.44247 15.4922 5.40966 15.4922 5.21747 15.5953C4.99716 15.7125 4.82372 15.9281 4.73935 16.1672C4.70653 16.275 4.68778 16.9594 4.68778 18.3328V20.3438H4.26591H3.84403V14.5406V8.74219L7.01278 6.24375C8.81747 4.82813 10.2237 3.75 10.2753 3.75C10.3315 3.75 12.5722 5.30625 15.2628 7.20469ZM18.6097 6.23438C18.6097 7.05938 18.6003 7.73438 18.5862 7.73438C18.5722 7.73438 18.319 7.56563 18.0237 7.35469L17.4847 6.97969V5.8875C17.4847 5.2875 17.4987 4.78125 17.5175 4.76719C17.5315 4.74844 17.7847 4.73438 18.08 4.73438H18.6097V6.23438ZM8.20341 18.6328V20.3438H7.17216H6.14091V18.6328V16.9219H7.17216H8.20341V18.6328ZM17.8128 17.2969V17.6719H15.0003H12.1878V17.2969V16.9219H15.0003H17.8128V17.2969ZM17.8128 19.7344V20.3438H15.0003H12.1878V19.7344V19.125H15.0003H17.8128V19.7344Z" fill="#2A2A2A"/>
<path d="M11.2969 5.77035C11.0953 5.83129 10.8844 6.01879 10.8 6.22035C10.7438 6.34692 10.7344 7.04535 10.7344 10.1579C10.7344 13.7485 10.7391 13.9547 10.8234 14.1375C10.8703 14.2454 10.9828 14.3813 11.0672 14.4422L11.2266 14.5547L14.9438 14.5688C18.5672 14.5782 18.6609 14.5782 18.8391 14.4844C18.9375 14.4375 19.0734 14.3157 19.1297 14.2172C19.2422 14.0391 19.2422 14.0297 19.2422 12.6094C19.2422 11.2594 19.2375 11.1704 19.1484 11.0204C19.0781 10.8985 18.1547 10.2235 15.5391 8.38129C13.6031 7.01723 11.9719 5.87348 11.9062 5.83598C11.7328 5.74223 11.4844 5.71879 11.2969 5.77035ZM14.4281 9.39379C15.5156 10.1625 16.4062 10.7954 16.4062 10.8094C16.4062 10.8188 15.4594 10.8282 14.2969 10.8282H12.1875V9.32348V7.82348L12.3188 7.91254C12.3891 7.95941 13.3359 8.62973 14.4281 9.39379ZM17.8125 12.7032V13.125H15H12.1875V12.7032V12.2813H15H17.8125V12.7032Z" fill="#2A2A2A"/>
<path d="M8.57344 6.11245C8.47969 6.14526 7.60313 6.80151 6.63281 7.57026C5.15156 8.74214 4.84688 8.99995 4.77656 9.15933C4.69688 9.33745 4.6875 9.51558 4.6875 11.6578C4.6875 13.1718 4.70625 14.0062 4.73906 14.0953C4.80938 14.2921 5.05781 14.5265 5.25 14.5781C5.46563 14.639 8.87813 14.639 9.09375 14.5781C9.28594 14.5265 9.53438 14.2921 9.60469 14.0953C9.64219 14.0062 9.65625 12.7828 9.65625 10.3453C9.65625 6.93276 9.65156 6.71714 9.56719 6.53901C9.46406 6.30933 9.34219 6.19683 9.10781 6.11245C8.8875 6.03745 8.78906 6.03276 8.57344 6.11245ZM8.20313 9.51558V10.8281H7.17188H6.14062V10.3218L6.14531 9.82026L7.1625 9.01401C7.72031 8.57339 8.18438 8.20776 8.19375 8.20776C8.19844 8.20308 8.20313 8.7937 8.20313 9.51558ZM8.20313 12.7265V13.1718H7.17188H6.14062V12.7265V12.2812H7.17188H8.20313V12.7265Z" fill="#2A2A2A"/>
</g>
<defs>
<clipPath id="clip0_135_8378">
<rect width="24" height="24" fill="white"/>
</clipPath>
</defs>
</svg>
