<svg width="24" height="24" viewBox="0 0 24 24" fill="none" xmlns="http://www.w3.org/2000/svg">
<g clip-path="url(#clip0_135_8415)">
<path d="M3.30796 1.00962C2.79306 1.19568 2.41229 1.54184 2.16566 2.04376C2.03152 2.32068 2.02719 2.35097 2.02719 2.8702C2.02719 3.38943 2.03152 3.41972 2.16566 3.69664C2.41662 4.20722 2.79739 4.54905 3.32527 4.73078C3.55027 4.80866 3.68873 4.81732 4.60171 4.81732H5.63152L7.84258 6.57405L10.0536 8.33078V9.34328V10.3558H9.61229C9.12335 10.3558 8.99787 10.4034 8.83777 10.6414C8.76421 10.7582 8.75556 10.862 8.75556 11.8572V12.9519H8.14114C7.60892 12.9519 7.50508 12.9649 7.39691 13.0341C7.14594 13.1986 7.11133 13.3067 7.11133 13.9125V14.4664H5.90844H4.70989L4.62335 14.3106C4.5195 14.1159 4.33777 13.9601 4.06085 13.8346C3.85316 13.7351 3.80123 13.7308 2.86662 13.7308H1.88873L1.62479 13.8649C1.32623 14.012 1.17479 14.1721 1.02767 14.488L0.923828 14.7043V18.2351V21.7659L1.05796 22.0298C1.20508 22.3284 1.36517 22.4798 1.68104 22.6269C1.88873 22.7265 1.94066 22.7308 2.87094 22.7308C3.80123 22.7308 3.85316 22.7265 4.06085 22.6269C4.33777 22.5015 4.5195 22.3457 4.62335 22.151L4.70989 21.9952H6.27623H7.84258L8.07191 22.2159C8.37912 22.5101 8.83344 22.787 9.25316 22.9341L9.59931 23.0553H12.0008H14.4022L14.7483 22.9341C15.1681 22.787 15.6224 22.5101 15.9296 22.2159L16.1589 21.9952H17.7253H19.2916L19.3782 22.151C19.482 22.3457 19.6637 22.5015 19.9407 22.6269C20.1483 22.7265 20.2003 22.7308 21.1349 22.7308H22.1128L22.3767 22.5966C22.6753 22.4495 22.8267 22.2894 22.9738 21.9736L23.0777 21.7572V18.2308V14.7043L22.9738 14.488C22.8267 14.1721 22.6753 14.012 22.3767 13.8649L22.1128 13.7308H21.1349C20.2003 13.7308 20.1483 13.7351 19.9407 13.8346C19.6637 13.9601 19.482 14.1159 19.3782 14.3106L19.2916 14.4664H18.0931H16.8902V13.9125C16.8902 13.3067 16.8556 13.1986 16.6046 13.0341C16.4964 12.9649 16.3926 12.9519 15.8647 12.9519H15.2459V11.8572C15.2459 10.862 15.2373 10.7582 15.1637 10.6414C15.0036 10.4034 14.8782 10.3558 14.3935 10.3558H13.9479V9.34328V8.33078L16.1459 6.58703L18.3397 4.83895L19.4647 4.81732L20.5897 4.79568L20.8926 4.64857C21.2907 4.45386 21.6325 4.11203 21.8272 3.71395C21.97 3.41972 21.9743 3.39808 21.9743 2.8702C21.9743 2.34232 21.97 2.32068 21.8272 2.02645C21.6325 1.62837 21.2907 1.28655 20.8926 1.09184L20.5897 0.944719L12.0657 0.936066C3.74066 0.927412 3.53729 0.927412 3.30796 1.00962ZM20.3517 2.33799C20.5508 2.45914 20.6546 2.6452 20.6546 2.8702C20.6546 3.0952 20.5508 3.28126 20.3517 3.40241L20.2003 3.4976H12.0008C3.87912 3.4976 3.80123 3.4976 3.65844 3.41107C3.16517 3.11251 3.27767 2.39857 3.84017 2.26011C3.91373 2.2428 7.62623 2.23414 12.0873 2.23414L20.2003 2.2428L20.3517 2.33799ZM10.0536 5.71299C10.0536 6.55674 10.0493 6.60001 9.98008 6.53943C9.93681 6.50482 9.46517 6.12837 8.92864 5.70434C8.3921 5.28462 7.92479 4.90818 7.89017 4.87789C7.83825 4.82597 7.99402 4.81732 8.94162 4.81732H10.0536V5.71299ZM12.6498 5.46635V6.11539H12.0008H11.3517V5.46635V4.81732H12.0008H12.6498V5.46635ZM16.1113 4.87789C16.0508 4.92982 14.9258 5.82982 14.2421 6.37068L13.9479 6.60001V5.70866V4.81732H15.0599C15.9988 4.81732 16.1633 4.82597 16.1113 4.87789ZM12.6498 8.88462V10.3558H12.0008H11.3517V8.88462V7.41347H12.0008H12.6498V8.88462ZM13.9479 12.3029V12.9519H12.0008H10.0536V12.3029V11.6539H12.0008H13.9479V12.3029ZM15.5921 17.0279C15.5921 18.5596 15.5705 19.9529 15.5488 20.126C15.4926 20.55 15.3282 20.8789 15.0123 21.199C14.6921 21.5149 14.3633 21.6793 13.9392 21.7356C13.5282 21.7875 10.4733 21.7875 10.0623 21.7356C9.63825 21.6793 9.30941 21.5149 8.98921 21.199C8.67335 20.8789 8.50892 20.55 8.45267 20.126C8.43104 19.9529 8.40941 18.5596 8.40941 17.0279V14.25H12.0008H15.5921V17.0279ZM3.51998 18.2308V21.4327H2.87094H2.22191V18.2308V15.0289H2.87094H3.51998V18.2308ZM21.7796 18.2308V21.4327H21.1306H20.4815V18.2308V15.0289H21.1306H21.7796V18.2308ZM7.11133 18.0664C7.11133 19.3341 7.12864 20.4462 7.15027 20.5327L7.18921 20.6971H6.00364H4.81806V18.2308V15.7644H5.96469H7.11133V18.0664ZM19.1834 18.2308V20.6971H17.9979H16.8123L16.8512 20.5327C16.8729 20.4462 16.8902 19.3341 16.8902 18.0664V15.7644H18.0368H19.1834V18.2308Z" fill="#2A2A2A" stroke="#2A2A2A" stroke-width="0.5"/>
</g>
<defs>
<clipPath id="clip0_135_8415">
<rect width="24" height="24" fill="white"/>
</clipPath>
</defs>
</svg>
