<svg width="21" height="21" viewBox="0 0 21 21" fill="none" xmlns="http://www.w3.org/2000/svg">
<g clip-path="url(#clip0_135_8389)">
<path d="M3.32314 0.0615234C1.63329 0.426563 0.402823 1.66524 0.0623928 3.34277C0.00497096 3.63809 0.000869396 4.51172 0.00907252 12.0217L0.0213772 20.3725L0.144424 20.5693C0.234658 20.717 0.328994 20.8031 0.488955 20.8852L0.706338 21H10.5009H20.2954L20.5128 20.8852C20.6727 20.8031 20.7671 20.717 20.8573 20.5693L20.9804 20.3725L20.9927 12.0217C21.005 2.95723 21.0132 3.43301 20.7876 2.76855C20.3856 1.59551 19.4054 0.615234 18.2323 0.213282C17.5761 -0.0082016 17.9247 0 10.4722 0.00410271C4.76278 0.00410271 3.54462 0.016407 3.32314 0.0615234ZM17.3136 1.98516C17.9575 2.12461 18.5317 2.57578 18.8434 3.18691C19.0854 3.6668 19.0731 3.23613 19.0731 11.4926V19.0723H17.8509H16.6327L15.6934 18.133L14.7542 17.1938L15.353 17.1773C15.9395 17.165 15.9518 17.165 16.1282 17.042C16.3292 16.8984 16.4686 16.7057 16.5302 16.4924C16.5876 16.2873 16.5876 4.7127 16.5302 4.50762C16.4686 4.29434 16.3292 4.10156 16.1241 3.95801L15.9477 3.83496H10.5009H5.054L4.87763 3.95801C4.67255 4.10156 4.5331 4.29434 4.47157 4.50762C4.41415 4.7127 4.41415 16.2873 4.47157 16.4924C4.5331 16.7057 4.67255 16.8984 4.87353 17.042C5.04989 17.165 5.0622 17.165 5.64872 17.1773L6.24755 17.1938L5.30829 18.133L4.36903 19.0723H3.15087H1.9286V11.4926C1.9286 3.23613 1.9163 3.6668 2.15829 3.18691C2.46181 2.58398 3.04013 2.12461 3.66767 1.98926C4.04911 1.90723 16.9239 1.90313 17.3136 1.98516ZM14.6024 7.62891V9.51563H10.5009H6.39931V7.62891V5.74219H10.5009H14.6024V7.62891ZM14.6024 13.3711V15.2578H10.5009H6.39931V13.3711V11.4844H10.5009H14.6024V13.3711ZM12.9413 18.1289L13.8847 19.0723H10.5009H7.11708L8.06044 18.1289L9.0038 17.1855H10.5009H11.9979L12.9413 18.1289Z" fill="#2A2A2A"/>
<path d="M8.26986 12.4483C7.89251 12.5795 7.67103 12.8707 7.63822 13.2727C7.5931 13.8633 7.99505 14.3186 8.57337 14.3186C9.13939 14.3227 9.55365 13.9207 9.55775 13.3711C9.55775 12.6903 8.9015 12.2227 8.26986 12.4483Z" fill="#2A2A2A"/>
<path d="M12.0873 12.4441C11.6936 12.5918 11.4434 12.9486 11.4434 13.3711C11.4475 14.2406 12.5016 14.6508 13.1168 14.0232C13.4613 13.6705 13.4572 13.0799 13.1086 12.682C12.8994 12.4441 12.399 12.3252 12.0873 12.4441Z" fill="#2A2A2A"/>
</g>
<defs>
<clipPath id="clip0_135_8389">
<rect width="21" height="21" fill="white"/>
</clipPath>
</defs>
</svg>
