<svg width="24" height="24" viewBox="0 0 24 24" fill="none" xmlns="http://www.w3.org/2000/svg">
<g clip-path="url(#clip0_150_9430)">
<path d="M1.96804 0.103125C1.88367 0.164062 1.76648 0.271873 1.71492 0.342186C1.62117 0.46875 1.61648 0.539062 1.60242 1.82812L1.58835 3.17812L1.03054 3.19687C0.416478 3.21094 0.313353 3.25312 0.107103 3.5625C-0.00070934 3.71719 -0.000709342 3.72656 -0.000709342 5.56406C-0.000709342 7.61719 -0.000709331 7.62187 0.308666 7.85625C0.477416 7.9875 0.510228 7.99219 1.03992 8.00625L1.59304 8.025V15.1875V22.3453L1.08679 22.3687C0.669603 22.3875 0.547728 22.4062 0.388353 22.4953C-0.131959 22.7906 -0.141334 23.5453 0.369603 23.8922L0.528978 24H11.9993H23.4696L23.629 23.8922C23.9993 23.6437 24.1165 23.1656 23.9009 22.7812C23.7368 22.4906 23.5024 22.3922 22.9118 22.3687L22.4055 22.3453V15.1875V8.025L22.9587 8.00625C23.4884 7.99219 23.5212 7.9875 23.6899 7.85625C23.9993 7.62187 23.9993 7.61719 23.9993 5.56406C23.9993 3.72656 23.9993 3.71719 23.8962 3.5625C23.6852 3.25312 23.5821 3.21094 22.968 3.19687L22.4102 3.17812L22.3962 1.82812C22.3821 0.539062 22.3774 0.46875 22.2837 0.342186C22.2321 0.271873 22.1149 0.164062 22.0305 0.103125L21.8759 0H11.9993H2.12273L1.96804 0.103125ZM20.7649 2.41406V3.1875H11.9993H3.23367V2.41406V1.64062H11.9993H20.7649V2.41406ZM22.3587 5.60156V6.375H11.9993H1.63992V5.60156V4.82812H11.9993H22.3587V5.60156ZM20.7649 8.78437V9.55781L19.4665 9.57187C18.0134 9.58594 17.9805 9.59531 17.7321 9.92344L17.6009 10.0922V12V13.9078L17.7321 14.0766C17.9805 14.4047 18.0134 14.4141 19.4665 14.4281L20.7649 14.4422V15.2156V15.9844H19.4899C18.0509 15.9844 17.9477 16.0031 17.718 16.3453L17.6009 16.5187L17.5868 18.3516L17.5727 20.1844L17.6852 20.3906C17.7602 20.5312 17.8587 20.6297 17.9993 20.7047C18.1962 20.8078 18.2337 20.8125 19.4852 20.8125H20.7649V21.5859V22.3594H11.9993H3.23367V21.5859V20.8125H4.51335C5.76492 20.8125 5.80242 20.8078 5.99929 20.7047C6.13992 20.6297 6.23835 20.5312 6.31335 20.3906L6.42585 20.1844L6.41179 18.3516L6.39773 16.5187L6.28054 16.3453C6.05085 16.0031 5.94773 15.9844 4.50867 15.9844H3.23367V15.2156V14.4422L4.53679 14.4281C5.98523 14.4141 6.01804 14.4047 6.26648 14.0766L6.39773 13.9078V12V10.0922L6.26648 9.92344C6.01804 9.59531 5.98523 9.58594 4.53679 9.57187L3.23367 9.55781V8.78437V8.01562H11.9993H20.7649V8.78437ZM4.78054 12V12.7969H4.0071H3.23367V12V11.2031H4.0071H4.78054V12ZM20.7649 12V12.7969H19.9915H19.218V12V11.2031H19.9915H20.7649V12ZM4.78054 18.3984V19.1719H4.0071H3.23367V18.3984V17.625H4.0071H4.78054V18.3984ZM20.7649 18.3984V19.1719H19.9915H19.218V18.3984V17.625H19.9915H20.7649V18.3984Z" fill="#2A2A2A"/>
<path d="M8.58281 9.60942C8.35313 9.66567 8.19375 9.79692 8.07656 10.0313C7.96875 10.2375 7.96875 10.2657 7.96875 12C7.96875 13.7344 7.96875 13.7625 8.07656 13.9688C8.19844 14.2125 8.35313 14.3344 8.60625 14.3907C8.84531 14.4469 15.1547 14.4469 15.3938 14.3907C15.6469 14.3344 15.8016 14.2125 15.9281 13.9688C16.0312 13.7625 16.0312 13.7344 16.0312 12C16.0312 10.2657 16.0312 10.2375 15.9281 10.0313C15.8016 9.78755 15.6469 9.66567 15.3938 9.60942C15.1688 9.55317 8.80781 9.55786 8.58281 9.60942ZM11.1563 12V12.7969H10.3828H9.60938V12V11.2032H10.3828H11.1563V12ZM14.3906 12V12.7969H13.6172H12.8438V12V11.2032H13.6172H14.3906V12Z" fill="#2A2A2A"/>
<path d="M8.44245 16.0687C8.35338 16.1109 8.21745 16.2281 8.13776 16.3265L7.99245 16.5093L7.97838 18.225C7.96901 19.1718 7.97838 20.0343 7.99245 20.1468C8.02526 20.3812 8.24088 20.6531 8.47057 20.7468C8.69557 20.8406 15.3049 20.8406 15.5299 20.7468C15.7596 20.6531 15.9753 20.3812 16.0081 20.1468C16.0221 20.0343 16.0315 19.1718 16.0221 18.225L16.0081 16.5093L15.8628 16.3265C15.5721 15.9656 15.8065 15.9843 12.0003 15.9843C8.85963 15.9843 8.58776 15.989 8.44245 16.0687ZM11.1565 18.3984V19.1718H10.3831H9.60963V18.3984V17.625H10.3831H11.1565V18.3984ZM14.3909 18.3984V19.1718H13.6174H12.844V18.3984V17.625H13.6174H14.3909V18.3984Z" fill="#2A2A2A"/>
</g>
<defs>
<clipPath id="clip0_150_9430">
<rect width="24" height="24" fill="white"/>
</clipPath>
</defs>
</svg>
