<svg width="24" height="24" viewBox="0 0 24 24" fill="none" xmlns="http://www.w3.org/2000/svg">
  <path d="M6.54229 1.17971C7.81388 1.19396 8.38718 1.26129 9.40831 1.52017C10.4824 1.79226 11.0786 2.01419 12.4565 2.6512L12.4573 2.65158C14.2644 3.49492 15.3837 3.8083 16.9509 3.93203L16.9512 3.93204C18.7198 4.07336 20.7663 3.65359 22.5883 2.77483C22.8767 2.63552 23.1394 2.55084 23.3881 2.56589C23.6525 2.58189 23.8609 2.70716 24.0414 2.89897L24.0428 2.90046L24.16 3.02702L24.2266 3.09891V3.19688V12V20.8031V20.9011L24.16 20.973L24.0428 21.0995L24.0423 21.1001C23.9294 21.2212 23.723 21.3461 23.4937 21.4639C23.2536 21.5873 22.9541 21.7198 22.6255 21.85C21.9689 22.1103 21.1814 22.3674 20.4948 22.5277C19.4635 22.7723 18.9744 22.8203 17.6016 22.8203L17.6005 22.8203C16.5213 22.8156 16.231 22.8018 15.7026 22.7088C14.2799 22.4653 13.1711 22.1011 11.5945 21.3673C10.058 20.6524 9.03159 20.3241 7.83409 20.1458C5.73608 19.8443 3.50357 20.2137 1.41195 21.2251L1.41187 21.2251C1.12341 21.3645 0.860609 21.4492 0.611853 21.4341C0.347456 21.4181 0.13911 21.2928 -0.041425 21.101L-0.041431 21.101L-0.0428151 21.0995L-0.160003 20.973L-0.226562 20.9011V20.8031V12V3.19688V3.10151L-0.163047 3.03037L-0.0458596 2.89912L-0.0458726 2.89911L-0.0438822 2.89693L6.53906 1.42969M6.54229 1.17971C6.54214 1.17971 6.542 1.1797 6.54186 1.1797L6.53906 1.42969M6.54229 1.17971C6.54243 1.17971 6.54257 1.17972 6.54271 1.17972L6.53906 1.42969M6.54229 1.17971C6.21976 1.175 5.90404 1.17382 5.65545 1.17559C5.42296 1.17725 5.22665 1.18139 5.15095 1.1907M6.53906 1.42969C5.89688 1.42031 5.28281 1.425 5.17969 1.43906M5.15095 1.1907C5.15193 1.1906 5.15291 1.1905 5.15388 1.1904L5.17969 1.43906M5.15095 1.1907C5.1492 1.19092 5.14752 1.19114 5.14591 1.19136L5.17969 1.43906M5.15095 1.1907C4.13645 1.29629 2.89479 1.58681 1.8935 1.94913L5.17969 1.43906M7.38397 3.14955L7.38462 3.14963C7.42273 3.1544 7.45907 3.15977 7.49167 3.16522C7.49249 3.17219 7.49332 3.17939 7.49415 3.18682C7.50659 3.29705 7.52036 3.4471 7.53189 3.60844L7.53191 3.60881C7.63876 5.07381 7.90705 6.25817 8.38912 7.23451C8.87322 8.21496 9.56662 8.97289 10.5026 9.5928C10.81 9.79765 11.5782 10.2334 12.2136 10.5582C14.5435 11.7677 15.4155 12.4172 15.9853 13.2981C16.2416 13.6959 16.4074 14.0634 16.7579 14.9936C17.0846 15.8749 17.3531 16.4822 17.6677 16.95C17.9878 17.426 18.3487 17.7479 18.8419 18.0727C19.8297 18.7248 20.9735 19.2055 21.9209 19.3577M7.38397 3.14955L21.9609 19.1109M7.38397 3.14955C7.18347 3.12395 6.73135 3.11402 6.25358 3.12049C5.77739 3.12693 5.30742 3.1492 5.07377 3.18196L5.07218 3.18217C4.07627 3.31527 3.159 3.55821 2.18873 3.94909L2.18694 3.94979L1.72591 4.13141L1.7125 7.60846L1.7125 7.60878L1.70377 11M7.38397 3.14955L1.70377 11M21.9209 19.3577C21.9211 19.3577 21.9212 19.3578 21.9213 19.3578L21.9609 19.1109M21.9209 19.3577C21.9208 19.3577 21.9207 19.3577 21.9206 19.3577L21.9609 19.1109M21.9209 19.3577C21.9829 19.3679 22.0428 19.3776 22.099 19.3867C22.1612 19.3968 22.2188 19.4061 22.2695 19.4145C22.2765 19.4156 22.2832 19.4167 22.2898 19.4178M21.9609 19.1109C22.022 19.1209 22.082 19.1307 22.1384 19.1398C22.3204 19.1693 22.4656 19.1928 22.4906 19.2M22.2898 19.4178C22.289 19.3807 22.2873 19.3529 22.285 19.3326C22.2836 19.3198 22.2823 19.3145 22.2823 19.3145C22.2823 19.3145 22.2835 19.3192 22.2867 19.3269C22.2934 19.3426 22.3256 19.4085 22.4116 19.4372L22.4906 19.2M22.2898 19.4178C22.3287 19.4242 22.3615 19.4298 22.3867 19.4342C22.4145 19.4392 22.4246 19.4413 22.4246 19.4412C22.4246 19.4411 22.4237 19.4409 22.4219 19.4404L22.4906 19.2M22.2898 19.4178L22.4906 19.2M1.70377 11L1.8375 11L1.83808 11C3.92405 11.0048 6.27792 11.8896 7.90148 13.2771C9.10198 14.3027 9.98824 15.7537 10.4825 17.481C10.5479 17.7089 10.6255 18.0325 10.6864 18.3167C10.717 18.4592 10.7439 18.5939 10.7633 18.7036C10.7733 18.7602 10.7826 18.8175 10.789 18.868L1.70377 11ZM9.67399 3.64129L9.6749 3.64158C10.2543 3.82408 10.6456 3.98726 11.6839 4.46433C13.9711 5.53194 15.5213 5.89853 17.6959 5.89375L17.6963 5.89375C18.9182 5.88899 19.6605 5.80274 20.7091 5.53941C20.7092 5.53939 20.7092 5.53937 20.7093 5.53935L20.6484 5.29688C21.1172 5.17969 22.1438 4.84688 22.4672 4.71094L9.67399 3.64129ZM9.67399 3.64129C9.61704 3.62312 9.56071 3.60515 9.508 3.58834C9.50244 3.58657 9.49692 3.58481 9.49144 3.58306C9.49817 3.68222 9.5106 3.81225 9.52965 3.97954L9.52965 3.97956C9.66314 5.15333 9.96965 6.13767 10.3955 6.79173L10.3959 6.79248C10.8447 7.4872 11.4332 7.94028 13.1928 8.84814L13.1931 8.84833C14.4985 9.52451 14.8407 9.72153 15.4191 10.104L15.4206 10.105C16.4086 10.7684 17.0827 11.3993 17.5797 12.1423L17.5804 12.1434C17.9607 12.7187 18.2029 13.2259 18.5675 14.2248C18.9983 15.3907 19.2032 15.7648 19.5538 16.1112L19.5541 16.1115C20.0485 16.6015 21.0918 17.1466 22.0037 17.378L22.0037 17.378L22.0066 17.3788C22.1063 17.4053 22.2097 17.4287 22.2947 17.4452C22.2954 17.4454 22.2961 17.4455 22.2969 17.4457M9.67399 3.64129L22.2969 17.4457M22.2969 17.4457V11.1984C22.2969 8.10139 22.2957 6.47338 22.2852 5.62341C22.282 5.36443 22.2779 5.18099 22.273 5.05177L22.2969 17.4457ZM22.2876 19.6185L22.2876 19.6179L22.5375 19.6266L22.2876 19.6189C22.2876 19.6187 22.2876 19.6186 22.2876 19.6185ZM22.2791 19.8662L22.4262 19.8041L22.5234 20.0344L22.2736 20.0258L22.2791 19.8662ZM22.0049 19.9819L22.1016 20.2125L22.0043 19.9822L22.0046 19.9821C22.0047 19.982 22.0048 19.982 22.0049 19.9819ZM18.8585 20.8271C18.8587 20.827 18.859 20.827 18.8592 20.827L18.8906 21.075L18.8578 20.8272C18.858 20.8271 18.8583 20.8271 18.8585 20.8271ZM11.1427 19.0182C11.1428 19.0182 11.1429 19.0183 11.1431 19.0183L11.0531 19.2516L11.1426 19.0181C11.1426 19.0181 11.1427 19.0181 11.1427 19.0182ZM11.7891 4.2375C14.0484 5.29219 15.5625 5.64844 17.6953 5.64375L9.75 3.40313C10.3453 3.59063 10.7484 3.75938 11.7891 4.2375ZM3.1125 12.8438L3.06742 13.0897C3.06696 13.0896 3.0665 13.0895 3.06604 13.0894C3.06558 13.0893 3.06513 13.0892 3.06468 13.0891L3.1125 12.8438ZM2.01617 12.9668L1.70312 12.9516V15.9984C1.70312 16.9098 1.70547 17.7378 1.70898 18.3378C1.71045 18.5888 1.71212 18.7996 1.71391 18.9598C1.7472 18.9471 1.78191 18.9338 1.81743 18.92L1.81743 18.92L1.81902 18.9194C3.39175 18.3219 5.1219 18.0348 6.75921 18.097C7.32568 18.1173 8.1289 18.2024 8.66811 18.2961L2.01617 12.9668Z" fill="#2A2A2A" stroke="#2A2A2A" stroke-width="0.5" />
  <path d="M19.0502 7.53786L19.0502 7.53784L19.053 7.53701C19.3688 7.44287 19.7118 7.49755 19.9955 7.63729C20.2783 7.77662 20.5304 8.01453 20.6467 8.32401C20.7985 8.70642 20.7444 9.18656 20.5274 9.53513C20.1924 10.0754 19.4374 10.2957 18.8567 10.0291C18.2021 9.7331 17.9022 8.94343 18.1981 8.28781L18.1981 8.28781L18.1986 8.28671C18.2844 8.09912 18.3912 7.94102 18.5362 7.81335C18.6813 7.68567 18.852 7.59946 19.0502 7.53786Z" fill="#2A2A2A" stroke="#2A2A2A" stroke-width="0.5" />
</svg>