<svg width="26" height="26" viewBox="0 0 26 26" fill="none" xmlns="http://www.w3.org/2000/svg">
<g clip-path="url(#clip0_135_8422)">
<path d="M1.37578 1.08437C1.28672 1.12656 1.16484 1.23437 1.10859 1.32343C1.00078 1.48281 1.00078 1.49687 1.00078 3.13281C1.00078 4.76875 1.00078 4.78281 1.10859 4.94218C1.16484 5.03124 1.28672 5.13906 1.37578 5.18124C1.70391 5.34531 2.09766 5.24218 2.29922 4.94218C2.39297 4.80156 2.40703 4.72187 2.40703 4.32343V3.85937H5.94609H9.48516L9.47578 4.61874L9.46172 5.37343L7.44609 5.875C4.97578 6.48906 4.73203 6.57812 3.82266 7.1875C2.51016 8.06406 1.60078 9.3625 1.16016 10.9891L1.02422 11.4766L1.01016 17.2937L0.996094 23.1062L1.10391 23.2703C1.31016 23.575 1.40391 23.5937 2.67891 23.5937H3.81328V24.0578C3.81328 24.4562 3.82734 24.5359 3.92109 24.6766C4.14141 25.0047 4.08984 25 6.64922 25C9.20859 25 9.15703 25.0047 9.37734 24.6766C9.47109 24.5359 9.48516 24.4562 9.48516 24.0578V23.5937H10.1883H10.8914V24.0578C10.8914 24.4562 10.9055 24.5359 10.9992 24.6766C11.2195 25.0047 11.168 25 13.7039 25C16.2398 25 16.1883 25.0047 16.4086 24.6766C16.5023 24.5359 16.5164 24.4562 16.5164 24.0578V23.5937H17.6555C18.9258 23.5937 19.0195 23.575 19.2211 23.2703L19.3289 23.1109V20.5187V17.9219H21.8977C24.757 17.9219 24.6727 17.9312 24.893 17.5984L25.0008 17.4344L24.9914 12.6531L24.9773 7.86718L24.832 7.5625C24.6445 7.16875 24.2789 6.775 23.932 6.5875C23.7211 6.475 23.1398 6.31093 21.5039 5.90312L19.3523 5.36874L19.3383 4.61406L19.3289 3.85937H21.4617H23.5945V4.32343C23.5945 4.72187 23.6086 4.80156 23.7023 4.94218C23.9836 5.36406 24.6117 5.36406 24.893 4.94218C25.0008 4.78281 25.0008 4.76875 25.0008 3.13281C25.0008 1.49687 25.0008 1.48281 24.893 1.32343C24.6117 0.901556 23.9836 0.901556 23.7023 1.32343C23.6086 1.46406 23.5945 1.54375 23.5945 1.94218V2.40624H13.0008H2.40703V1.94218C2.40703 1.54375 2.39297 1.46406 2.29922 1.32343C2.17266 1.13124 1.92891 0.999994 1.70391 0.999994C1.61484 0.999994 1.46484 1.03749 1.37578 1.08437ZM17.9133 4.61874L17.8992 5.37812L16.1555 5.81406L14.407 6.25L12.6633 5.81406L10.9148 5.37812L10.9008 4.61874L10.8914 3.85937H14.407H17.9227L17.9133 4.61874ZM10.5867 6.79375L10.8914 6.86875V8.15312V9.4375H10.1883H9.48516V8.15312V6.86875L9.75703 6.79843C10.1133 6.70468 10.2305 6.70468 10.5867 6.79375ZM19.5773 6.93437C20.9273 7.27187 20.8055 7.225 20.7117 7.32812C20.5945 7.45937 19.8164 7.83437 19.4695 7.92343C19.2539 7.98437 18.9961 8.00781 18.5789 8.00312C17.8008 7.99843 17.4352 7.88125 16.9242 7.4875L16.5633 7.21093L17.5148 6.96718C18.0352 6.83593 18.5227 6.72343 18.593 6.72343C18.6633 6.71875 19.1086 6.8125 19.5773 6.93437ZM8.07891 15.3906V23.5469H6.64922H5.21953V18.8406V14.1391L5.11172 13.9797C4.83047 13.5578 4.20234 13.5578 3.92109 13.9797L3.81328 14.1391V18.1375V22.1406H3.10547H2.40234L2.42109 17.0406C2.43516 13.2859 2.45391 11.8797 2.49609 11.6875C2.89453 9.88281 3.98672 8.54218 5.60391 7.88593C5.88516 7.76875 7.83984 7.24375 8.02266 7.23906C8.06484 7.23437 8.07891 8.89375 8.07891 15.3906ZM13.2914 7.46875C13.8117 7.6 14.3836 7.75937 14.5617 7.82031C16.0852 8.35468 17.318 9.70468 17.7352 11.2891C17.7867 11.4953 17.8523 11.9078 17.8758 12.2031C17.8992 12.4984 17.9227 14.8516 17.9227 17.4391V22.1406H17.2195H16.5164V18.1375V14.1391L16.4086 13.9797C16.1273 13.5578 15.4992 13.5578 15.218 13.9797L15.1102 14.1391V18.8406V23.5469H13.7039H12.2977V15.3906C12.2977 10.9047 12.307 7.23437 12.3211 7.23437C12.3352 7.23437 12.7711 7.34218 13.2914 7.46875ZM22.8539 7.74531C23.2336 7.84843 23.3789 7.9375 23.4867 8.13906C23.5664 8.27968 23.5711 8.57031 23.5852 12.3766L23.5992 16.4687H21.4617H19.3289V14.1906C19.3289 12.8219 19.3102 11.7812 19.2773 11.5797C19.1883 10.9562 19.0148 10.4031 18.6445 9.55C18.6305 9.51718 18.757 9.48437 19.0289 9.46562C20.2055 9.36718 21.3023 8.85625 22.1414 8.00781C22.3336 7.81562 22.5023 7.65625 22.5164 7.65625C22.5305 7.65625 22.6805 7.69375 22.8539 7.74531ZM10.8914 16.5156V22.1406H10.1883H9.48516V16.5156V10.8906H10.1883H10.8914V16.5156Z" fill="#2A2A2A" stroke="#2A2A2A" stroke-width="0.5"/>
</g>
<defs>
<clipPath id="clip0_135_8422">
<rect width="26" height="26" fill="white"/>
</clipPath>
</defs>
</svg>
