<svg width="24" height="24" viewBox="0 0 24 24" fill="none" xmlns="http://www.w3.org/2000/svg">
<path d="M11.3438 1.31719C8.40469 1.58438 5.90625 3.81094 5.32031 6.67969C5.17969 7.36875 5.16094 7.97344 5.15625 11.4469V14.9016L2.8875 14.9156L0.61875 14.9297L0.4125 15.0703C0.15 15.2531 0 15.5484 0 15.8766C0 16.4859 0.384375 16.8703 0.99375 16.875H1.26094L1.275 19.4438L1.28906 22.0078L1.40625 22.2188C1.5375 22.4484 1.74844 22.6125 2.01094 22.6875C2.12344 22.7156 5.56406 22.7344 12 22.7344C18.4359 22.7344 21.8766 22.7156 21.9891 22.6875C22.2516 22.6125 22.4625 22.4484 22.5938 22.2188L22.7109 22.0078L22.725 19.4391L22.7391 16.875H23.0063C23.6156 16.8703 24 16.4859 24 15.8766C24 15.5484 23.85 15.2531 23.5875 15.0703L23.3813 14.9297L21.1125 14.9156L18.8438 14.9016V11.4469C18.8391 9.54844 18.8203 7.78125 18.7969 7.52344C18.6656 6.0375 18.0984 4.70156 17.1422 3.61406C15.9563 2.26875 14.3859 1.47188 12.5859 1.3125C12.0563 1.26094 11.9062 1.26563 11.3438 1.31719ZM11.0156 5.71875V8.0625H9.08906H7.15781L7.18594 7.69219C7.33594 5.74219 8.74219 4.03594 10.6641 3.46406C10.8188 3.41719 10.9594 3.37969 10.9828 3.37969C11.0016 3.375 11.0156 4.42969 11.0156 5.71875ZM13.5234 3.525C15.3234 4.11094 16.6688 5.81719 16.8141 7.69219L16.8422 8.0625H14.9109H12.9844V5.71875V3.375L13.1156 3.40313C13.1859 3.42188 13.3688 3.47344 13.5234 3.525ZM11.0156 12.4922V14.9063H9.09375H7.17188V12.4922V10.0781H9.09375H11.0156V12.4922ZM16.8281 12.4922V14.9063H14.9063H12.9844V12.4922V10.0781H14.9063H16.8281V12.4922ZM5.15625 18.7969V20.7188H4.21875H3.28125V18.7969V16.875H4.21875H5.15625V18.7969ZM9.04688 18.7969V20.7188H8.10938H7.17188V18.7969V16.875H8.10938H9.04688V18.7969ZM12.9375 18.7969V20.7188H12H11.0625V18.7969V16.875H12H12.9375V18.7969ZM16.8281 18.7969V20.7188H15.8906H14.9531V18.7969V16.875H15.8906H16.8281V18.7969ZM20.7188 18.7969V20.7188H19.7812H18.8438V18.7969V16.875H19.7812H20.7188V18.7969Z" fill="#2A2A2A"/>
</svg>
