<svg width="26" height="26" viewBox="0 0 26 26" fill="none" xmlns="http://www.w3.org/2000/svg">
<g clip-path="url(#clip0_150_9448)">
<path d="M12.1094 1.03281C11.3125 1.15937 10.7359 1.33281 10.1172 1.64219C8.33594 2.53281 7.14531 4.1875 6.76094 6.325C6.61094 7.15937 6.60625 8.4625 6.75625 9.20312C6.98125 10.3 7.58594 11.8703 8.26563 13.1078L8.58438 13.6797L7.12188 13.7031C5.63594 13.7266 5.56563 13.7359 5.39688 13.9234C5.35469 13.9703 4.34688 16.2766 3.16094 19.0469C1.2625 23.4719 1 24.1094 1 24.3203C1 24.5828 1.09844 24.7703 1.30938 24.9109C1.44063 24.9953 1.75938 25 13 25C24.2406 25 24.5594 24.9953 24.6906 24.9109C24.9016 24.7703 25 24.5828 25 24.3109C25 24.0953 24.7656 23.5234 22.8625 19.0844C21.6906 16.3422 20.6969 14.0547 20.6594 13.9984C20.4906 13.7359 20.4578 13.7266 18.8781 13.7031L17.4156 13.6797L17.7391 13.0938C18.4234 11.8469 19.0281 10.2812 19.2344 9.22656C19.6 7.3375 19.2063 5.22812 18.1984 3.69531C17.8844 3.22187 17.0688 2.39687 16.6 2.0875C15.8313 1.57187 14.9641 1.225 14.0828 1.075C13.675 1.00469 12.4422 0.976561 12.1094 1.03281ZM14.1719 2.58437C15.5734 2.96406 16.6328 3.79844 17.2609 5.03125C17.7766 6.03437 18.0203 7.39844 17.8797 8.47656C17.6641 10.1359 16.7031 12.2312 14.9922 14.7812C14.5188 15.4891 13.4406 16.9562 13.1219 17.3359L13 17.4766L12.8781 17.3359C12.8125 17.2562 12.4891 16.8344 12.1609 16.3984C10.1781 13.7687 8.79531 11.2609 8.3125 9.42812C8.10625 8.64531 8.04531 8.02187 8.11563 7.29062C8.25625 5.70625 8.74375 4.62812 9.73281 3.68594C10.3938 3.05781 11.1859 2.6875 12.2969 2.48125C12.3625 2.47187 12.7328 2.46719 13.1172 2.47656C13.6422 2.48594 13.9094 2.51406 14.1719 2.58437ZM9.85469 15.7047C10.0563 16.0094 10.3094 16.3797 10.4172 16.525L10.6141 16.7922L10.5063 16.8578C10.4453 16.8953 9.18438 17.5422 7.70313 18.2969C6.22188 19.0516 4.85313 19.75 4.67031 19.8531L4.32813 20.0359L4.45938 19.7359C4.52969 19.5719 4.99844 18.475 5.5 17.2984L6.41406 15.1562H7.94688H9.48438L9.85469 15.7047ZM20.6078 17.5516C21.1703 18.8687 21.6156 19.9656 21.5922 19.9891C21.5688 20.0125 20.0312 20.8187 18.1703 21.7891L14.7859 23.5469H14.0453H13.3047L11.1719 21.4141C9.47969 19.7219 9.05313 19.2719 9.10938 19.2344C9.14688 19.2109 9.70469 18.9203 10.3469 18.5969L11.5141 18.0016L11.6078 18.1141C12.1188 18.7516 12.5031 19.1969 12.6016 19.2625C12.775 19.375 13.0891 19.3984 13.2906 19.3141C13.5719 19.1969 14.9266 17.5 16.0234 15.8922L16.5203 15.1562H18.0531H19.5859L20.6078 17.5516ZM9.41406 21.7656L11.1953 23.5469H7.01406H2.82813L2.87031 23.4437C3.04375 23.0031 3.40938 22.2016 3.45625 22.15C3.50781 22.0984 7.52031 20.0125 7.60938 19.9891C7.62344 19.9891 8.43438 20.7859 9.41406 21.7656ZM22.7078 22.4594L23.1672 23.5234L21.8781 23.5375C21.1703 23.5422 20.0125 23.5422 19.3047 23.5375L18.0156 23.5234L20.1109 22.4359C21.2641 21.8359 22.2156 21.3578 22.2297 21.3719C22.2438 21.3812 22.4594 21.8734 22.7078 22.4594Z" fill="#2A2A2A" stroke="#2A2A2A" stroke-width="0.5"/>
<path d="M12.5334 5.63181L12.5333 5.63183C11.6567 5.86662 11.0964 6.73254 11.2368 7.62435C11.3356 8.23149 11.6886 8.70211 12.2468 8.97173C12.4315 9.05917 12.4861 9.08134 12.5509 9.09377C12.6268 9.10834 12.7254 9.11094 13.0006 9.11094C13.2757 9.11094 13.3743 9.10834 13.4502 9.09377C13.515 9.08134 13.5696 9.05917 13.7543 8.97174C14.3135 8.70165 14.6739 8.2172 14.7639 7.62266C14.9558 6.35382 13.776 5.29862 12.5334 5.63181ZM13.3897 6.41502L13.39 6.41516C13.7619 6.57247 14.0162 6.95163 14.0162 7.35625C14.0162 7.52752 13.983 7.69412 13.8893 7.85098C13.7992 8.00188 13.6695 8.11577 13.5256 8.21281C13.0436 8.54334 12.4662 8.34253 12.1426 7.90196C12.0124 7.72722 11.9705 7.51308 11.9807 7.32279C11.9911 7.12969 12.0564 6.92746 12.1822 6.76088L12.1822 6.76088L12.1832 6.75962C12.3237 6.57545 12.5049 6.43321 12.7246 6.368C12.9466 6.30207 13.1754 6.32461 13.3897 6.41502Z" fill="#2A2A2A" stroke="#2A2A2A" stroke-width="0.7"/>
</g>
<defs>
<clipPath id="clip0_150_9448">
<rect width="26" height="26" fill="white"/>
</clipPath>
</defs>
</svg>
