<svg width="24" height="24" viewBox="0 0 24 24" fill="none" xmlns="http://www.w3.org/2000/svg">
<path d="M12.0002 1C12.0436 1 12.0862 1.00275 12.1281 1.0081C12.1318 1.00868 12.1351 1.00913 12.1385 1.00959C12.1745 1.01445 12.21 1.02137 12.2448 1.03013C12.259 1.0339 12.2737 1.03797 12.2884 1.04239C12.3148 1.05011 12.3401 1.05887 12.3649 1.06858C12.4108 1.0868 12.4563 1.10858 12.5002 1.13397L12.4019 1.08393C12.4278 1.09532 12.4532 1.10777 12.4779 1.12125L12.5002 1.13397L21.1605 6.13397C21.1699 6.13939 21.1791 6.14494 21.1883 6.15063C21.2051 6.16086 21.2218 6.17187 21.2381 6.1834C21.253 6.19423 21.2677 6.20525 21.2821 6.21663C21.2988 6.22961 21.3151 6.24341 21.331 6.25778C21.3414 6.26745 21.3514 6.27694 21.3613 6.28662C21.3797 6.30433 21.3977 6.32347 21.415 6.34341C21.424 6.35401 21.4326 6.36434 21.441 6.37483C21.4553 6.39249 21.4692 6.41121 21.4826 6.43053C21.4916 6.44364 21.5004 6.45702 21.5089 6.4706C21.515 6.48041 21.5208 6.49014 21.5265 6.5L21.5415 6.52692C21.5515 6.54561 21.561 6.56463 21.5698 6.58395L21.5265 6.5C21.5517 6.54371 21.5733 6.58853 21.5913 6.63411C21.5988 6.65367 21.606 6.67362 21.6125 6.69381C21.6187 6.71244 21.6239 6.73057 21.6287 6.74877C21.6331 6.7667 21.6375 6.78566 21.6413 6.80477C21.646 6.82761 21.6496 6.84964 21.6525 6.87171C21.6577 6.91342 21.6605 6.95651 21.6605 7L21.6566 6.90963C21.659 6.93598 21.6603 6.96234 21.6606 6.98866L21.6605 7V17C21.6605 17.0092 21.6604 17.0183 21.6601 17.0274C21.6597 17.0515 21.6581 17.0755 21.6558 17.0995C21.654 17.1151 21.6521 17.1302 21.6499 17.1452C21.6473 17.1648 21.6437 17.1848 21.6396 17.2048C21.6355 17.223 21.6313 17.2406 21.6266 17.2581C21.6209 17.2804 21.614 17.3031 21.6062 17.3256C21.6021 17.337 21.5981 17.348 21.5939 17.3589C21.5846 17.3834 21.5741 17.4077 21.5625 17.4318C21.5566 17.444 21.5505 17.456 21.5442 17.468C21.5387 17.4785 21.5327 17.4893 21.5265 17.5L21.5089 17.5294C21.5004 17.543 21.4916 17.5564 21.4825 17.5695L21.5265 17.5C21.5007 17.5446 21.472 17.5866 21.4408 17.6256C21.4326 17.6357 21.424 17.646 21.4151 17.6562C21.3977 17.6765 21.3797 17.6957 21.361 17.714C21.3514 17.7231 21.3414 17.7325 21.3311 17.7418C21.3164 17.7555 21.3014 17.7682 21.2861 17.7805C21.2469 17.8116 21.2049 17.8404 21.1605 17.866L21.2381 17.8166C21.2218 17.8281 21.2051 17.8391 21.1882 17.8496L21.1605 17.866L12.5002 22.866C12.4928 22.8703 12.4852 22.8746 12.4777 22.8787C12.4532 22.8922 12.4278 22.9047 12.4019 22.9161C12.3892 22.9214 12.3768 22.9265 12.3644 22.9314C12.3401 22.9411 12.3148 22.9499 12.2891 22.9576C12.2737 22.962 12.259 22.9661 12.2441 22.9698C12.21 22.9786 12.1745 22.9856 12.1383 22.9905C12.1351 22.9909 12.1318 22.9913 12.1284 22.9918C12.0862 22.9972 12.0436 23 12.0002 23C11.9569 23 11.9142 22.9972 11.8724 22.9919C11.8687 22.9913 11.8653 22.9909 11.862 22.9904C11.826 22.9856 11.7905 22.9786 11.7556 22.9699C11.7415 22.9661 11.7268 22.962 11.7121 22.9576C11.6856 22.9499 11.6603 22.9411 11.6355 22.9314C11.5896 22.9132 11.5442 22.8914 11.5002 22.866L11.5986 22.9161C11.5726 22.9047 11.5473 22.8922 11.5226 22.8788L11.5002 22.866L2.83998 17.866C2.83164 17.8612 2.82339 17.8563 2.81523 17.8513C2.79749 17.8406 2.77974 17.8289 2.76235 17.8166C2.74599 17.8047 2.72992 17.7926 2.71427 17.7801C2.69906 17.7682 2.68406 17.7555 2.66941 17.7422C2.65874 17.7322 2.64834 17.7224 2.63818 17.7124C2.62136 17.6961 2.60572 17.6796 2.5906 17.6624C2.57783 17.6477 2.56534 17.6327 2.55331 17.6174C2.54175 17.6028 2.53066 17.5878 2.51995 17.5724C2.50957 17.5575 2.49945 17.5421 2.48976 17.5264C2.48423 17.5175 2.47903 17.5088 2.47395 17.5L2.46228 17.4792C2.45117 17.4589 2.44076 17.4381 2.43108 17.417L2.47395 17.5C2.44742 17.4541 2.42496 17.4069 2.40644 17.3589C2.4009 17.3441 2.39556 17.3292 2.39057 17.3141C2.38337 17.293 2.37723 17.2721 2.37179 17.2512C2.36735 17.2333 2.363 17.2143 2.35919 17.1952C2.35441 17.1724 2.35082 17.1504 2.34798 17.1283C2.3428 17.0866 2.33998 17.0435 2.33998 17L2.34374 17.0894C2.34136 17.0627 2.34007 17.036 2.33984 17.0093L2.33998 17V7C2.33998 6.99394 2.34003 6.9879 2.34014 6.98186C2.34043 6.9535 2.34217 6.92447 2.3452 6.89548C2.34645 6.88591 2.34752 6.8769 2.34872 6.86792C2.35209 6.84057 2.35696 6.81284 2.36303 6.78524C2.36623 6.77185 2.36938 6.75883 2.37277 6.7459C2.37875 6.72226 2.38604 6.69822 2.39429 6.67435C2.39863 6.66229 2.40289 6.65063 2.40737 6.63906C2.41513 6.61871 2.42381 6.59836 2.43322 6.57819C2.44223 6.55899 2.45169 6.54023 2.46172 6.5218C2.46542 6.515 2.46963 6.50748 2.47395 6.5L2.48976 6.47356C2.49967 6.45756 2.51003 6.44184 2.52083 6.42641L2.47395 6.5C2.49959 6.45559 2.52812 6.4139 2.55916 6.37501C2.57074 6.36076 2.58239 6.34699 2.59443 6.33352C2.61118 6.31447 2.62873 6.29625 2.64687 6.2788C2.65315 6.2731 2.65928 6.26735 2.66549 6.26168C2.68672 6.24196 2.7086 6.22365 2.73114 6.20638C2.76531 6.18045 2.80173 6.15605 2.83998 6.13398L2.78491 6.16793C2.79887 6.15863 2.81305 6.1497 2.82742 6.14114L2.83998 6.13398L11.5002 1.13397C11.5077 1.12966 11.5152 1.12545 11.5228 1.12134C11.5473 1.10777 11.5726 1.09532 11.5986 1.08393C11.6112 1.07864 11.6236 1.07351 11.6361 1.06863C11.6603 1.05887 11.6856 1.05011 11.7113 1.04237C11.7268 1.03797 11.7415 1.0339 11.7563 1.03018C11.7905 1.02137 11.826 1.01445 11.8622 1.00945C11.8653 1.00913 11.8687 1.00868 11.872 1.00824C11.9142 1.00276 11.9569 1 12.0002 1ZM12.0001 13.155L5.33984 17L10.9998 20.267L11.0002 17C11.0002 16.4477 11.4479 16 12.0002 16C12.5131 16 12.9357 16.386 12.9935 16.8834L13.0002 17L12.9998 20.267L18.6588 17L12.0001 13.155ZM10.9998 3.732L5.33984 6.999L8.17008 8.63398C8.64837 8.91012 8.81225 9.52171 8.53611 10C8.27969 10.4441 7.73403 10.6172 7.27444 10.4185L7.17008 10.366L4.33884 8.731V15.268L11.0001 11.422L10.9998 3.732ZM12.9998 3.732L13.0001 11.422L19.6598 15.267V8.732L16.8304 10.366C16.3521 10.6422 15.7405 10.4783 15.4644 10C15.2079 9.55587 15.3309 8.99681 15.7327 8.69811L15.8304 8.63398L18.6588 6.999L12.9998 3.732Z" fill="#2A2A2A"/>
</svg>
