<svg width="24" height="24" viewBox="0 0 24 24" fill="none" xmlns="http://www.w3.org/2000/svg">
<path fill-rule="evenodd" clip-rule="evenodd" d="M3 1.5C2.44772 1.5 2 1.94772 2 2.5V10C2 10.5523 2.44772 11 3 11H17C17.5523 11 18 10.5523 18 10V7H20.5V13.1715L9.37194 14.6084C8.8733 14.6728 8.5 15.0974 8.5 15.6002V21.5C8.5 22.0523 8.94772 22.5 9.5 22.5C10.0523 22.5 10.5 22.0523 10.5 21.5V16.4794L21.6281 15.0425C22.1267 14.9781 22.5 14.5535 22.5 14.0507V6C22.5 5.44772 22.0523 5 21.5 5H18V2.5C18 1.94772 17.5523 1.5 17 1.5H3ZM4 9V3.5H16V9H4Z" fill="#2A2A2A"/>
</svg>
