<svg width="24" height="24" viewBox="0 0 24 24" fill="none" xmlns="http://www.w3.org/2000/svg">
<path d="M11.5503 0.0890617C11.1753 0.257812 10.9175 0.754687 10.9925 1.1625C11.0394 1.425 11.2316 1.72031 11.4472 1.86562C11.6347 1.9875 11.6722 1.99219 12.3144 2.00625L12.9847 2.025V3V3.97969L10.0925 3.99844C7.31283 4.0125 7.18158 4.01719 6.82064 4.11094C5.94408 4.34531 5.21752 4.74375 4.60814 5.31562C3.84408 6.03281 3.44095 6.70312 3.12689 7.75781C3.03314 8.06719 3.02845 8.21719 3.01439 10.6734C2.99564 13.0078 3.00502 13.2797 3.07064 13.425C3.17377 13.6453 3.35658 13.8234 3.58627 13.9266C3.7597 14.0062 3.93783 14.0156 6.00033 14.0156C8.06283 14.0156 8.24095 14.0062 8.41439 13.9266C8.63939 13.8234 8.8222 13.6453 8.92533 13.4344C8.99095 13.2984 9.00033 13.0406 9.00033 11.6531V10.0312H14.5363C18.366 10.0312 20.1285 10.0172 20.2691 9.97969C20.705 9.87187 21.0003 9.47812 21.0003 9C21.0003 8.52187 20.705 8.12812 20.2691 8.02031C20.1472 7.9875 19.4863 7.96875 18.5441 7.96875H17.016V6.98437V6H18.6472C20.2691 6 20.2831 6 20.4894 5.89219C20.8081 5.72344 20.9722 5.45625 20.991 5.06719C21.0191 4.58437 20.8316 4.26562 20.4144 4.07344C20.241 3.99375 20.0488 3.98438 17.616 3.98438H15.0003V3V2.01562H15.6238C16.1253 2.01562 16.28 1.99687 16.43 1.92656C17.2081 1.56562 17.2081 0.440624 16.4347 0.0749998C16.2941 0.00937462 15.9847 -9.53674e-07 14.0066 -9.53674e-07C11.9066 -9.53674e-07 11.7285 0.00937462 11.5503 0.0890617ZM10.9691 6.98437V7.96406L9.34252 7.97812L7.71127 7.99219L7.48627 8.12344C7.36439 8.19375 7.20502 8.34375 7.1347 8.44687L7.00814 8.63906L6.99408 10.3219L6.98002 12H5.99564H5.01127L5.02533 10.2281C5.04408 8.69531 5.05814 8.42812 5.12845 8.20312C5.43783 7.24687 6.21127 6.45937 7.11595 6.16406C7.50033 6.04219 7.91283 6.01406 9.50658 6.00469L10.9691 6V6.98437ZM15.0003 6.98437V7.96875H14.016H13.0316V6.98437V6H14.016H15.0003V6.98437Z" fill="#2A2A2A"/>
<path d="M5.53156 16.0922C5.41437 16.1531 5.24562 16.2984 5.15656 16.4203C4.85187 16.8234 3.91906 18.3891 3.60031 19.0313C3.15968 19.9313 3.03781 20.3109 3.00968 20.8734C2.98156 21.4734 3.05187 21.8156 3.31437 22.3547C3.60968 22.9688 4.03156 23.3906 4.64562 23.6859C5.16593 23.9391 5.43781 24 6.00031 24C6.56281 24 6.83468 23.9391 7.355 23.6859C7.96906 23.3906 8.39093 22.9688 8.68625 22.3547C8.94875 21.8156 9.01906 21.4734 8.99093 20.8734C8.96281 20.3109 8.84093 19.9313 8.40031 19.0313C8.08156 18.3891 7.14875 16.8234 6.84406 16.4203C6.62843 16.1344 6.33781 15.9891 6.00031 15.9891C5.82218 15.9891 5.67687 16.0219 5.53156 16.0922ZM6.33312 19.5141C6.98937 20.7188 7.07375 21.0609 6.83 21.4828C6.74562 21.6234 6.62375 21.7453 6.47843 21.8297C6.01906 22.1016 5.4425 21.9469 5.17062 21.4828C4.9925 21.1781 5.00187 20.8969 5.20343 20.4375C5.3675 20.0531 5.96281 18.9375 6.00031 18.9375C6.01437 18.9375 6.16437 19.1953 6.33312 19.5141Z" fill="#2A2A2A"/>
</svg>
