<svg width="24" height="24" viewBox="0 0 24 24" fill="none" xmlns="http://www.w3.org/2000/svg">
<path d="M20.9798 11.8019C20.9427 11.6165 20.8536 11.4456 20.7229 11.3091C20.5922 11.1725 20.4254 11.076 20.2418 11.0309L13.3818 9.31488L15.9188 3.39388C16.0072 3.18841 16.024 2.9592 15.9665 2.74304C15.909 2.52688 15.7806 2.3363 15.6018 2.20188C15.4234 2.06657 15.2045 1.99535 14.9806 1.9997C14.7567 2.00405 14.5409 2.08373 14.3678 2.22588L3.36781 11.2259C3.22433 11.3433 3.11629 11.4982 3.05577 11.6734C2.99525 11.8486 2.98463 12.0372 3.02508 12.2181C3.06554 12.399 3.15548 12.5651 3.28487 12.6979C3.41426 12.8306 3.578 12.9248 3.75781 12.9699L10.4768 14.6509L7.13181 20.5049C7.04552 20.657 7.00057 20.829 7.00143 21.0038C7.0023 21.1787 7.04895 21.3503 7.13675 21.5015C7.22455 21.6527 7.35042 21.7783 7.50185 21.8657C7.65327 21.9532 7.82495 21.9994 7.99981 21.9999C8.21624 22.0002 8.42689 21.93 8.59981 21.7999L20.5998 12.7999C20.751 12.6864 20.8669 12.5325 20.9342 12.3558C21.0014 12.1792 21.0173 11.9871 20.9798 11.8019Z" fill="black"/>
<path d="M20.9798 11.8019C20.9427 11.6165 20.8536 11.4456 20.7229 11.3091C20.5922 11.1725 20.4254 11.076 20.2418 11.0309L13.3818 9.31488L15.9188 3.39388C16.0072 3.18841 16.024 2.9592 15.9665 2.74304C15.909 2.52688 15.7806 2.3363 15.6018 2.20188C15.4234 2.06657 15.2045 1.99535 14.9806 1.9997C14.7567 2.00405 14.5409 2.08373 14.3678 2.22588L3.36781 11.2259C3.22433 11.3433 3.11629 11.4982 3.05577 11.6734C2.99525 11.8486 2.98463 12.0372 3.02508 12.2181C3.06554 12.399 3.15548 12.5651 3.28487 12.6979C3.41426 12.8306 3.578 12.9248 3.75781 12.9699L10.4768 14.6509L7.13181 20.5049C7.04552 20.657 7.00057 20.829 7.00143 21.0038C7.0023 21.1787 7.04895 21.3503 7.13675 21.5015C7.22455 21.6527 7.35042 21.7783 7.50185 21.8657C7.65327 21.9532 7.82495 21.9994 7.99981 21.9999C8.21624 22.0002 8.42689 21.93 8.59981 21.7999L20.5998 12.7999C20.751 12.6864 20.8669 12.5325 20.9342 12.3558C21.0014 12.1792 21.0173 11.9871 20.9798 11.8019Z" fill="url(#paint0_linear_2001_1400)"/>
<defs>
<linearGradient id="paint0_linear_2001_1400" x1="8.1929" y1="6.37459" x2="22.2865" y2="10.7362" gradientUnits="userSpaceOnUse">
<stop stop-color="#FBA47F"/>
<stop offset="1" stop-color="#DF6B00"/>
</linearGradient>
</defs>
</svg>
