<svg width="200" height="144" viewBox="0 0 200 144" fill="none" xmlns="http://www.w3.org/2000/svg">
<path d="M27.7679 57.9133C27.1594 55.0577 26.8551 53.6298 27.188 52.4227C27.4686 51.4055 28.0562 50.4997 28.8706 49.8288C29.8371 49.0326 31.2649 48.7283 34.1205 48.1198L55.1926 43.6291C56.4074 43.3702 57.0147 43.2408 57.6166 43.2551C58.1283 43.2673 58.6353 43.3561 59.1207 43.5184C59.6917 43.7094 60.219 44.0375 61.2736 44.6936L61.8976 45.0819C62.9522 45.738 63.4795 46.0661 64.0504 46.257C64.5358 46.4194 65.0428 46.5081 65.5545 46.5203C66.1564 46.5347 66.7638 46.4052 67.9786 46.1464L89.2435 41.6146C92.0991 41.0061 93.5269 40.7018 94.734 41.0347C95.7512 41.3153 96.6571 41.9029 97.328 42.7173C98.1241 43.6838 98.4284 45.1116 99.037 47.9672L109.279 96.0295C109.584 97.4573 109.736 98.1712 109.569 98.7747C109.429 99.2833 109.135 99.7363 108.728 100.072C108.245 100.47 107.531 100.622 106.103 100.926L47.205 113.478C44.6349 114.026 43.3499 114.299 42.2635 114C41.348 113.747 40.5328 113.218 39.9289 112.485C39.2124 111.616 38.9386 110.331 38.3908 107.761L27.7679 57.9133Z" fill="url(#paint0_linear_724_8390)"/>
<g filter="url(#filter0_b_724_8390)">
<path d="M49.4542 68.4939C49.6435 65.9036 49.7381 64.6085 50.5247 63.706C51.3113 62.8035 52.5809 62.533 55.1203 61.9918L101.365 52.1366C105.364 51.2845 107.363 50.8584 108.693 51.9323C110.024 53.0062 110.029 55.0505 110.039 59.1389L110.126 94.2421C110.132 97.032 110.136 98.4269 109.336 99.4173C108.537 100.408 107.172 100.698 104.444 101.28L44.9538 113.958C46.9463 110.585 46.3452 107.764 47.1356 98.7496C47.7026 92.2822 48.8507 76.7531 49.4542 68.4939Z" fill="#F8B77B" fill-opacity="0.6"/>
<path d="M49.6928 68.5113C49.7878 67.2105 49.858 66.2555 50.0004 65.512C50.1416 64.7747 50.3497 64.2708 50.705 63.8632C51.0603 63.4556 51.5309 63.1806 52.2419 62.94C52.9587 62.6974 53.8949 62.4975 55.1701 62.2258L101.415 52.3706C103.422 51.9429 104.901 51.6282 106.046 51.5508C107.184 51.4739 107.945 51.6357 108.543 52.1184C109.141 52.6011 109.46 53.3107 109.624 54.4397C109.79 55.5751 109.794 57.0878 109.8 59.1395L109.886 94.2427C109.89 95.6436 109.892 96.6727 109.796 97.4761C109.701 98.273 109.511 98.8199 109.15 99.267C108.789 99.7142 108.295 100.015 107.536 100.276C106.771 100.539 105.764 100.754 104.394 101.046L45.4206 113.614C46.2439 112.058 46.5526 110.557 46.7338 108.49C46.816 107.552 46.8724 106.493 46.938 105.257C46.9516 105.002 46.9656 104.738 46.9803 104.467C47.0662 102.884 47.1766 101.02 47.3739 98.7705C47.9411 92.301 49.0893 76.7697 49.6928 68.5113Z" stroke="url(#paint1_linear_724_8390)" stroke-width="0.478427"/>
</g>
<g filter="url(#filter1_b_724_8390)">
<path fill-rule="evenodd" clip-rule="evenodd" d="M101.465 52.6045L55.22 62.4597C53.9392 62.7327 53.0191 62.9295 52.3185 63.1666C51.6299 63.3996 51.2026 63.6563 50.8853 64.0204C50.5681 64.3844 50.3721 64.8428 50.2353 65.557C50.0961 66.2836 50.0268 67.2223 49.9313 68.5287C49.328 76.7864 48.1796 92.3197 47.6122 98.7914C47.4153 101.037 47.305 102.898 47.2192 104.48C47.2045 104.751 47.1906 105.013 47.177 105.268C47.1113 106.504 47.0547 107.568 46.9721 108.511C46.8066 110.399 46.5338 111.837 45.8565 113.276L104.344 100.812C105.72 100.519 106.71 100.307 107.458 100.05C108.194 99.7963 108.642 99.5159 108.964 99.1168C109.286 98.7177 109.466 98.2202 109.558 97.4477C109.652 96.6621 109.651 95.6502 109.647 94.2433L109.56 59.1401C109.555 57.081 109.55 55.5887 109.388 54.4743C109.227 53.3727 108.924 52.733 108.393 52.3046C107.862 51.8761 107.173 51.7144 106.062 51.7895C104.938 51.8655 103.479 52.1754 101.465 52.6045ZM104.444 101.28C107.172 100.698 108.537 100.408 109.336 99.4173C110.136 98.4269 110.132 97.032 110.126 94.2421L110.039 59.1389C110.029 55.0505 110.024 53.0062 108.693 51.9323C107.363 50.8584 105.364 51.2845 101.365 52.1366L55.1203 61.9918C52.5809 62.533 51.3113 62.8035 50.5247 63.706C49.7381 64.6085 49.6435 65.9036 49.4542 68.4939C48.8507 76.7531 47.7026 92.2822 47.1356 98.7496C46.9041 101.39 46.792 103.499 46.6991 105.246C46.4923 109.134 46.3809 111.23 45.2606 113.403C45.1658 113.587 45.0638 113.772 44.9538 113.958L104.444 101.28Z" fill="url(#paint2_linear_724_8390)"/>
</g>
<path d="M37.8669 55.1837C37.5938 53.9024 38.4111 52.6424 39.6924 52.3693L49.7211 50.2321C51.0024 49.9591 52.2624 50.7764 52.5355 52.0577C52.8085 53.339 51.9912 54.599 50.7099 54.8721L40.6813 57.0093C39.4 57.2823 38.1399 56.465 37.8669 55.1837Z" fill="url(#paint3_linear_724_8390)" fill-opacity="0.9" stroke="url(#paint4_linear_724_8390)" stroke-width="0.382741"/>
<path d="M130.784 25.5928C131.238 23.588 131.465 22.5857 132.034 21.9124C132.514 21.345 133.157 20.9395 133.875 20.751C134.728 20.5274 135.73 20.7543 137.735 21.2081L152.528 24.5566C153.381 24.7497 153.808 24.8462 154.188 25.033C154.512 25.1918 154.809 25.3981 155.072 25.6452C155.38 25.9357 155.62 26.301 156.101 27.0316L156.385 27.4639C156.866 28.1945 157.106 28.5598 157.414 28.8504C157.677 29.0974 157.975 29.3037 158.298 29.4626C158.678 29.6494 159.105 29.7459 159.958 29.9389L174.887 33.3181C176.891 33.7719 177.894 33.9988 178.567 34.5678C179.134 35.0474 179.54 35.6903 179.728 36.4088C179.952 37.2615 179.725 38.2639 179.271 40.2686L171.634 74.0104C171.407 75.0128 171.293 75.514 171.009 75.8506C170.769 76.1343 170.448 76.3371 170.088 76.4313C169.662 76.5431 169.161 76.4297 168.158 76.2028L126.809 66.8432C125.005 66.4348 124.103 66.2306 123.497 65.7185C122.986 65.2869 122.621 64.7083 122.452 64.0616C122.251 63.2942 122.455 62.3921 122.863 60.5878L130.784 25.5928Z" fill="url(#paint5_linear_724_8390)"/>
<g filter="url(#filter2_b_724_8390)">
<path d="M141.523 38.7555C142.408 37.1558 142.851 36.3559 143.62 36.0113C144.389 35.6666 145.28 35.8683 147.063 36.2719L179.529 43.6206C182.336 44.2561 183.74 44.5738 184.273 45.6528C184.806 46.7317 184.206 48.0398 183.006 50.6559L172.702 73.1178C171.883 74.9029 171.474 75.7955 170.67 76.1926C169.867 76.5896 168.909 76.3728 166.994 75.9392L125.229 66.4856C127.498 64.9176 127.946 62.9375 131.112 57.4092C133.383 53.4429 138.699 43.8563 141.523 38.7555Z" fill="#F8B77B" fill-opacity="0.6"/>
<path d="M141.67 38.837C142.115 38.0337 142.441 37.444 142.752 37.0108C143.06 36.5813 143.341 36.3206 143.689 36.1649C144.036 36.0092 144.418 35.9724 144.943 36.0284C145.473 36.0849 146.131 36.2335 147.026 36.4361L179.492 43.7849C180.9 44.1037 181.939 44.3393 182.694 44.6277C183.444 44.9144 183.882 45.2424 184.122 45.7274C184.362 46.2124 184.356 46.7599 184.128 47.5301C183.899 48.3047 183.455 49.2729 182.853 50.5857L172.549 73.0475C172.138 73.944 171.835 74.6023 171.537 75.0875C171.241 75.5687 170.958 75.8623 170.596 76.0416C170.233 76.2209 169.828 76.2669 169.266 76.2098C168.699 76.1523 167.993 75.9927 167.031 75.775L125.629 66.4035C126.614 65.6518 127.255 64.7836 127.98 63.5162C128.31 62.941 128.658 62.2804 129.065 61.5102C129.149 61.3509 129.236 61.1868 129.325 61.0179C129.847 60.031 130.468 58.8726 131.258 57.4929C133.53 53.5253 138.847 43.9373 141.67 38.837Z" stroke="url(#paint6_linear_724_8390)" stroke-width="0.33681"/>
</g>
<g filter="url(#filter3_b_724_8390)">
<path fill-rule="evenodd" clip-rule="evenodd" d="M179.455 43.9491L146.989 36.6004C146.09 36.3968 145.443 36.2511 144.926 36.1959C144.417 36.1416 144.068 36.1796 143.758 36.3186C143.447 36.4576 143.187 36.6928 142.889 37.1089C142.585 37.5323 142.264 38.1118 141.817 38.9186C138.995 44.0184 133.677 53.6076 131.404 57.5765C130.615 58.9539 129.996 60.1105 129.474 61.0967C129.385 61.2651 129.298 61.4288 129.214 61.5879C128.808 62.3582 128.457 63.0219 128.126 63.5999C127.464 64.7576 126.865 65.5961 126.007 66.3164L167.068 75.6107C168.034 75.8294 168.729 75.9861 169.283 76.0423C169.828 76.0976 170.197 76.0506 170.521 75.8906C170.845 75.7306 171.106 75.4657 171.393 74.9992C171.685 74.5248 171.983 73.8776 172.396 72.9773L182.7 50.5155C183.304 49.1979 183.742 48.2427 183.967 47.4824C184.189 46.7309 184.184 46.2325 183.971 45.802C183.758 45.3715 183.365 45.0648 182.633 44.785C181.893 44.5019 180.868 44.2692 179.455 43.9491ZM166.994 75.9392C168.909 76.3728 169.867 76.5896 170.67 76.1926C171.474 75.7955 171.883 74.9029 172.702 73.1178L183.006 50.6559C184.206 48.0398 184.806 46.7317 184.273 45.6528C183.74 44.5738 182.336 44.2561 179.529 43.6206L147.063 36.2719C145.28 35.8683 144.389 35.6666 143.62 36.0113C142.851 36.3559 142.408 37.1558 141.523 38.7555C138.699 43.8563 133.383 53.4429 131.112 57.4092C130.185 59.0284 129.491 60.3432 128.916 61.4324C127.636 63.8568 126.946 65.1636 125.589 66.2217C125.474 66.3113 125.354 66.3991 125.229 66.4856L166.994 75.9392Z" fill="url(#paint7_linear_724_8390)"/>
</g>
<path d="M138.045 26.8286C138.248 25.929 139.143 25.3649 140.042 25.5685L147.083 27.1622C147.982 27.3658 148.546 28.26 148.343 29.1596C148.139 30.0591 147.245 30.6232 146.345 30.4196L139.305 28.826C138.405 28.6224 137.841 27.7281 138.045 26.8286Z" fill="url(#paint8_linear_724_8390)" fill-opacity="0.9" stroke="url(#paint9_linear_724_8390)" stroke-width="0.269448"/>
<defs>
<filter id="filter0_b_724_8390" x="34.745" y="41.0846" width="85.5905" height="83.082" filterUnits="userSpaceOnUse" color-interpolation-filters="sRGB">
<feFlood flood-opacity="0" result="BackgroundImageFix"/>
<feGaussianBlur in="BackgroundImageFix" stdDeviation="5.10439"/>
<feComposite in2="SourceAlpha" operator="in" result="effect1_backgroundBlur_724_8390"/>
<feBlend mode="normal" in="SourceGraphic" in2="effect1_backgroundBlur_724_8390" result="shape"/>
</filter>
<filter id="filter1_b_724_8390" x="34.6999" y="41.0395" width="85.6806" height="83.1721" filterUnits="userSpaceOnUse" color-interpolation-filters="sRGB">
<feFlood flood-opacity="0" result="BackgroundImageFix"/>
<feGaussianBlur in="BackgroundImageFix" stdDeviation="5.12692"/>
<feComposite in2="SourceAlpha" operator="in" result="effect1_backgroundBlur_724_8390"/>
<feBlend mode="normal" in="SourceGraphic" in2="effect1_backgroundBlur_724_8390" result="shape"/>
</filter>
<filter id="filter2_b_724_8390" x="118.042" y="28.6484" width="73.6137" height="54.9399" filterUnits="userSpaceOnUse" color-interpolation-filters="sRGB">
<feFlood flood-opacity="0" result="BackgroundImageFix"/>
<feGaussianBlur in="BackgroundImageFix" stdDeviation="3.59346"/>
<feComposite in2="SourceAlpha" operator="in" result="effect1_backgroundBlur_724_8390"/>
<feBlend mode="normal" in="SourceGraphic" in2="effect1_backgroundBlur_724_8390" result="shape"/>
</filter>
<filter id="filter3_b_724_8390" x="118.01" y="28.6167" width="73.6772" height="55.0033" filterUnits="userSpaceOnUse" color-interpolation-filters="sRGB">
<feFlood flood-opacity="0" result="BackgroundImageFix"/>
<feGaussianBlur in="BackgroundImageFix" stdDeviation="3.60932"/>
<feComposite in2="SourceAlpha" operator="in" result="effect1_backgroundBlur_724_8390"/>
<feBlend mode="normal" in="SourceGraphic" in2="effect1_backgroundBlur_724_8390" result="shape"/>
</filter>
<linearGradient id="paint0_linear_724_8390" x1="49.3364" y1="59.7842" x2="106.486" y2="68.1128" gradientUnits="userSpaceOnUse">
<stop stop-color="#FBA47F"/>
<stop offset="1" stop-color="#DF6B00"/>
</linearGradient>
<linearGradient id="paint1_linear_724_8390" x1="30.4218" y1="71.7825" x2="124.906" y2="119.499" gradientUnits="userSpaceOnUse">
<stop stop-color="white"/>
<stop offset="1" stop-color="white" stop-opacity="0"/>
</linearGradient>
<linearGradient id="paint2_linear_724_8390" x1="31.815" y1="70.5155" x2="72.2571" y2="128.666" gradientUnits="userSpaceOnUse">
<stop stop-color="white"/>
<stop offset="0.765625" stop-color="white" stop-opacity="0"/>
</linearGradient>
<linearGradient id="paint3_linear_724_8390" x1="35.9307" y1="52.625" x2="57.8155" y2="54.3204" gradientUnits="userSpaceOnUse">
<stop stop-color="white"/>
<stop offset="1" stop-color="white" stop-opacity="0"/>
</linearGradient>
<linearGradient id="paint4_linear_724_8390" x1="34.8261" y1="54.3279" x2="45.7355" y2="56.1279" gradientUnits="userSpaceOnUse">
<stop stop-color="white"/>
<stop offset="1" stop-color="white" stop-opacity="0"/>
</linearGradient>
<linearGradient id="paint5_linear_724_8390" x1="144.018" y1="33.1539" x2="178.087" y2="55.3431" gradientUnits="userSpaceOnUse">
<stop stop-color="#FBA47F"/>
<stop offset="1" stop-color="#DF6B00"/>
</linearGradient>
<linearGradient id="paint6_linear_724_8390" x1="128.388" y1="35.2406" x2="174.695" y2="93.6223" gradientUnits="userSpaceOnUse">
<stop stop-color="white"/>
<stop offset="1" stop-color="white" stop-opacity="0"/>
</linearGradient>
<linearGradient id="paint7_linear_724_8390" x1="129.652" y1="34.8419" x2="138.339" y2="83.944" gradientUnits="userSpaceOnUse">
<stop stop-color="white"/>
<stop offset="0.765625" stop-color="white" stop-opacity="0"/>
</linearGradient>
<linearGradient id="paint8_linear_724_8390" x1="137.562" y1="24.6218" x2="151.05" y2="32.164" gradientUnits="userSpaceOnUse">
<stop stop-color="white"/>
<stop offset="1" stop-color="white" stop-opacity="0"/>
</linearGradient>
<linearGradient id="paint9_linear_724_8390" x1="136.354" y1="25.3842" x2="142.795" y2="29.7542" gradientUnits="userSpaceOnUse">
<stop stop-color="white"/>
<stop offset="1" stop-color="white" stop-opacity="0"/>
</linearGradient>
</defs>
</svg>
