<svg width="125" height="132" viewBox="0 0 125 132" fill="none" xmlns="http://www.w3.org/2000/svg">
<path d="M19.4302 72.2257C19.0043 70.2276 18.7914 69.2285 19.0244 68.3838C19.2207 67.672 19.6319 67.0382 20.2018 66.5687C20.8781 66.0116 21.8772 65.7987 23.8753 65.3729L38.6202 62.2306C39.4702 62.0495 39.8952 61.9589 40.3164 61.9689C40.6744 61.9774 41.0292 62.0395 41.3689 62.1532C41.7684 62.2868 42.1374 62.5163 42.8753 62.9755L43.3119 63.2471C44.0499 63.7063 44.4188 63.9358 44.8183 64.0694C45.158 64.183 45.5128 64.2451 45.8708 64.2537C46.292 64.2637 46.717 64.1731 47.567 63.992L62.4468 60.821C64.445 60.3951 65.4441 60.1822 66.2888 60.4152C67.0005 60.6115 67.6344 61.0227 68.1039 61.5926C68.661 62.2689 68.8739 63.268 69.2997 65.2661L76.4667 98.897C76.6797 99.8961 76.7861 100.396 76.6696 100.818C76.5715 101.174 76.3659 101.491 76.0809 101.726C75.7428 102.004 75.2433 102.111 74.2442 102.323L33.031 111.106C31.2326 111.49 30.3335 111.681 29.5733 111.472C28.9327 111.295 28.3622 110.925 27.9397 110.412C27.4383 109.803 27.2467 108.904 26.8634 107.106L19.4302 72.2257Z" fill="url(#paint0_linear_731_8529)"/>
<g filter="url(#filter0_b_731_8529)">
<path d="M34.6049 79.6293C34.7373 77.8168 34.8035 76.9106 35.3539 76.2791C35.9043 75.6476 36.7928 75.4583 38.5696 75.0796L70.9288 68.1836C73.7268 67.5873 75.1258 67.2891 76.0566 68.0406C76.9875 68.7921 76.991 70.2225 76.9981 73.0833L77.0588 97.6463C77.0636 99.5985 77.066 100.575 76.5066 101.268C75.9471 101.961 74.9925 102.164 73.0832 102.571L31.4558 111.442C32.85 109.082 32.4294 107.108 32.9825 100.8C33.3792 96.2749 34.1826 85.4086 34.6049 79.6293Z" fill="#F8B77B" fill-opacity="0.6"/>
<path d="M34.7718 79.6415C34.8383 78.7313 34.8874 78.0631 34.9871 77.5428C35.0859 77.0269 35.2315 76.6743 35.4801 76.3891C35.7287 76.1038 36.0581 75.9114 36.5555 75.7431C37.0571 75.5733 37.7122 75.4335 38.6045 75.2433L70.9637 68.3473C72.3678 68.048 73.4031 67.8278 74.2042 67.7737C75.0007 67.7198 75.5331 67.8331 75.9515 68.1708C76.3699 68.5086 76.5928 69.0051 76.7081 69.7951C76.8241 70.5896 76.8271 71.6481 76.8307 73.0837L76.8914 97.6467C76.8938 98.627 76.8953 99.3471 76.8281 99.9092C76.7614 100.467 76.6289 100.85 76.3763 101.162C76.1237 101.475 75.7776 101.685 75.2466 101.868C74.7112 102.053 74.007 102.203 73.0483 102.407L31.7824 111.201C32.3585 110.112 32.5745 109.062 32.7013 107.616C32.7589 106.96 32.7983 106.218 32.8442 105.354C32.8537 105.175 32.8635 104.991 32.8738 104.801C32.9339 103.693 33.0112 102.389 33.1492 100.815C33.5461 96.288 34.3496 85.4203 34.7718 79.6415Z" stroke="url(#paint1_linear_731_8529)" stroke-width="0.334773"/>
</g>
<g filter="url(#filter1_b_731_8529)">
<path fill-rule="evenodd" clip-rule="evenodd" d="M70.9985 68.511L38.6394 75.407C37.7432 75.598 37.0994 75.7357 36.6092 75.9016C36.1273 76.0647 35.8283 76.2443 35.6063 76.4991C35.3843 76.7538 35.2472 77.0745 35.1515 77.5743C35.0541 78.0827 35.0055 78.7396 34.9388 79.6537C34.5165 85.4319 33.713 96.3011 33.316 100.83C33.1782 102.401 33.101 103.703 33.041 104.81C33.0307 104.999 33.0209 105.183 33.0114 105.362C32.9655 106.226 32.9259 106.971 32.8681 107.631C32.7522 108.952 32.5613 109.958 32.0875 110.965L73.0134 102.243C73.9762 102.038 74.6686 101.89 75.1921 101.71C75.7069 101.533 76.0206 101.337 76.2461 101.057C76.4715 100.778 76.5972 100.43 76.6619 99.8894C76.7276 99.3397 76.7265 98.6316 76.724 97.6471L76.6633 73.0841C76.6597 71.6433 76.6563 70.5991 76.5425 69.8193C76.43 69.0485 76.2177 68.6009 75.8463 68.3011C75.475 68.0013 74.9927 67.8882 74.2155 67.9407C73.4292 67.9938 72.4077 68.2107 70.9985 68.511ZM73.0832 102.571C74.9925 102.164 75.9471 101.961 76.5066 101.268C77.066 100.575 77.0636 99.5985 77.0588 97.6463L76.9981 73.0833C76.991 70.2225 76.9875 68.7921 76.0566 68.0406C75.1258 67.2891 73.7268 67.5873 70.9288 68.1836L38.5696 75.0796C36.7928 75.4583 35.9043 75.6476 35.3539 76.2791C34.8035 76.9106 34.7373 77.8168 34.6049 79.6293C34.1826 85.4086 33.3792 96.2749 32.9825 100.8C32.8205 102.648 32.742 104.123 32.677 105.346C32.5324 108.067 32.4544 109.534 31.6705 111.054C31.6041 111.183 31.5327 111.312 31.4558 111.442L73.0832 102.571Z" fill="url(#paint2_linear_731_8529)"/>
</g>
<path d="M26.4968 70.3157C26.3057 69.4192 26.8776 68.5375 27.7742 68.3464L34.7916 66.8509C35.6882 66.6599 36.5699 67.2318 36.7609 68.1283C36.952 69.0249 36.3801 69.9066 35.4835 70.0977L28.4661 71.5932C27.5696 71.7842 26.6878 71.2123 26.4968 70.3157Z" fill="url(#paint3_linear_731_8529)" fill-opacity="0.9" stroke="url(#paint4_linear_731_8529)" stroke-width="0.267818"/>
<path d="M74.859 18.8836C75.1851 17.4427 75.3482 16.7223 75.7572 16.2384C76.1018 15.8307 76.5639 15.5392 77.0803 15.4037C77.6931 15.243 78.4136 15.4061 79.8544 15.7322L90.4867 18.1389C91.0996 18.2776 91.4061 18.347 91.6795 18.4812C91.912 18.5954 92.1261 18.7437 92.3146 18.9212C92.5364 19.1301 92.709 19.3926 93.0543 19.9177L93.2586 20.2284C93.6039 20.7535 93.7765 21.016 93.9983 21.2249C94.1868 21.4024 94.4009 21.5507 94.6334 21.6648C94.9068 21.7991 95.2133 21.8685 95.8262 22.0072L106.556 24.4359C107.997 24.762 108.717 24.9251 109.201 25.3341C109.609 25.6787 109.9 26.1408 110.036 26.6572C110.196 27.2701 110.033 27.9905 109.707 29.4313L104.218 53.682C104.055 54.4024 103.973 54.7626 103.769 55.0046C103.597 55.2085 103.366 55.3542 103.107 55.4219C102.801 55.5023 102.441 55.4208 101.72 55.2577L72.0021 48.5309C70.7053 48.2373 70.0569 48.0906 69.6214 47.7225C69.2545 47.4123 68.9921 46.9965 68.8702 46.5317C68.7256 45.9801 68.8723 45.3317 69.1659 44.035L74.859 18.8836Z" fill="url(#paint5_linear_731_8529)"/>
<g filter="url(#filter2_b_731_8529)">
<path d="M82.5766 28.3438C83.2129 27.1941 83.5311 26.6192 84.0839 26.3715C84.6366 26.1237 85.2773 26.2688 86.5585 26.5588L109.892 31.8404C111.91 32.2971 112.919 32.5255 113.302 33.301C113.685 34.0764 113.254 35.0166 112.391 36.8968L104.986 53.0405C104.397 54.3235 104.103 54.965 103.525 55.2504C102.948 55.5357 102.26 55.3799 100.883 55.0683L70.8661 48.2738C72.4969 47.1469 72.819 45.7237 75.0941 41.7505C76.7263 38.8999 80.5475 32.0098 82.5766 28.3438Z" fill="#F8B77B" fill-opacity="0.6"/>
<path d="M82.6825 28.4024C83.0021 27.825 83.2368 27.4012 83.46 27.0899C83.6812 26.7812 83.8837 26.5938 84.1334 26.4819C84.383 26.37 84.6576 26.3435 85.0352 26.3838C85.4159 26.4244 85.8884 26.5312 86.5318 26.6768L109.865 31.9585C110.878 32.1877 111.624 32.3569 112.167 32.5642C112.706 32.7703 113.021 33.006 113.193 33.3546C113.366 33.7032 113.361 34.0967 113.198 34.6503C113.033 35.207 112.714 35.9028 112.281 36.8464L104.876 52.99C104.58 53.6343 104.363 54.1074 104.148 54.4561C103.935 54.802 103.732 55.013 103.472 55.1419C103.211 55.2707 102.92 55.3038 102.516 55.2628C102.109 55.2215 101.601 55.1067 100.91 54.9502L71.1535 48.2148C71.8618 47.6746 72.3219 47.0506 72.8435 46.1397C73.0802 45.7263 73.3308 45.2515 73.623 44.6979C73.6835 44.5834 73.7457 44.4655 73.81 44.3441C74.1853 43.6348 74.6313 42.8023 75.1991 41.8106C76.8319 38.9591 80.6536 32.0681 82.6825 28.4024Z" stroke="url(#paint6_linear_731_8529)" stroke-width="0.24207"/>
</g>
<g filter="url(#filter3_b_731_8529)">
<path fill-rule="evenodd" clip-rule="evenodd" d="M109.839 32.0765L86.5051 26.7949C85.8589 26.6486 85.3944 26.5439 85.0223 26.5042C84.6565 26.4652 84.4058 26.4925 84.1829 26.5924C83.9599 26.6923 83.7727 26.8613 83.5583 27.1604C83.3403 27.4647 83.1093 27.8811 82.7884 28.461C80.7597 32.1263 76.9375 39.0182 75.3041 41.8708C74.7373 42.8607 74.292 43.692 73.9169 44.4007C73.8529 44.5218 73.7908 44.6394 73.7304 44.7538C73.4382 45.3074 73.1864 45.7844 72.9485 46.1998C72.4721 47.0319 72.0418 47.6345 71.4253 48.1522L100.936 54.8322C101.631 54.9893 102.13 55.102 102.528 55.1424C102.92 55.1821 103.185 55.1484 103.418 55.0334C103.651 54.9184 103.839 54.728 104.045 54.3927C104.255 54.0518 104.469 53.5865 104.766 52.9395L112.171 36.7959C112.606 35.8489 112.92 35.1624 113.082 34.6159C113.241 34.0758 113.238 33.7176 113.085 33.4082C112.932 33.0988 112.65 32.8784 112.123 32.6773C111.591 32.4738 110.855 32.3066 109.839 32.0765ZM100.883 55.0683C102.26 55.3799 102.948 55.5357 103.525 55.2504C104.103 54.965 104.397 54.3235 104.986 53.0405L112.391 36.8968C113.254 35.0166 113.685 34.0764 113.302 33.301C112.919 32.5255 111.91 32.2971 109.892 31.8404L86.5585 26.5588C85.2773 26.2688 84.6366 26.1237 84.0839 26.3715C83.5311 26.6192 83.2129 27.1941 82.5766 28.3438C80.5475 32.0098 76.7263 38.8999 75.0941 41.7505C74.4277 42.9142 73.9289 43.8592 73.5157 44.642C72.5959 46.3845 72.1001 47.3237 71.1247 48.0842C71.0421 48.1486 70.9561 48.2117 70.8661 48.2738L100.883 55.0683Z" fill="url(#paint7_linear_731_8529)"/>
</g>
<path d="M80.0769 19.7718C80.2232 19.1253 80.866 18.7198 81.5125 18.8661L86.5726 20.0115C87.2191 20.1579 87.6246 20.8006 87.4782 21.4471C87.3319 22.0936 86.6892 22.499 86.0427 22.3527L80.9825 21.2073C80.336 21.061 79.9306 20.4183 80.0769 19.7718Z" fill="url(#paint8_linear_731_8529)" fill-opacity="0.9" stroke="url(#paint9_linear_731_8529)" stroke-width="0.193656"/>
<defs>
<filter id="filter0_b_731_8529" x="24.3124" y="60.4501" width="59.8907" height="58.1355" filterUnits="userSpaceOnUse" color-interpolation-filters="sRGB">
<feFlood flood-opacity="0" result="BackgroundImageFix"/>
<feGaussianBlur in="BackgroundImageFix" stdDeviation="3.57172"/>
<feComposite in2="SourceAlpha" operator="in" result="effect1_backgroundBlur_731_8529"/>
<feBlend mode="normal" in="SourceGraphic" in2="effect1_backgroundBlur_731_8529" result="shape"/>
</filter>
<filter id="filter1_b_731_8529" x="24.2808" y="60.4185" width="59.9537" height="58.1985" filterUnits="userSpaceOnUse" color-interpolation-filters="sRGB">
<feFlood flood-opacity="0" result="BackgroundImageFix"/>
<feGaussianBlur in="BackgroundImageFix" stdDeviation="3.58749"/>
<feComposite in2="SourceAlpha" operator="in" result="effect1_backgroundBlur_731_8529"/>
<feBlend mode="normal" in="SourceGraphic" in2="effect1_backgroundBlur_731_8529" result="shape"/>
</filter>
<filter id="filter2_b_731_8529" x="65.7006" y="21.0797" width="52.9074" height="39.486" filterUnits="userSpaceOnUse" color-interpolation-filters="sRGB">
<feFlood flood-opacity="0" result="BackgroundImageFix"/>
<feGaussianBlur in="BackgroundImageFix" stdDeviation="2.58267"/>
<feComposite in2="SourceAlpha" operator="in" result="effect1_backgroundBlur_731_8529"/>
<feBlend mode="normal" in="SourceGraphic" in2="effect1_backgroundBlur_731_8529" result="shape"/>
</filter>
<filter id="filter3_b_731_8529" x="65.6778" y="21.0569" width="52.9529" height="39.5316" filterUnits="userSpaceOnUse" color-interpolation-filters="sRGB">
<feFlood flood-opacity="0" result="BackgroundImageFix"/>
<feGaussianBlur in="BackgroundImageFix" stdDeviation="2.59407"/>
<feComposite in2="SourceAlpha" operator="in" result="effect1_backgroundBlur_731_8529"/>
<feBlend mode="normal" in="SourceGraphic" in2="effect1_backgroundBlur_731_8529" result="shape"/>
</filter>
<linearGradient id="paint0_linear_731_8529" x1="34.5224" y1="73.5349" x2="74.5122" y2="79.3627" gradientUnits="userSpaceOnUse">
<stop stop-color="#FBA47F"/>
<stop offset="1" stop-color="#DF6B00"/>
</linearGradient>
<linearGradient id="paint1_linear_731_8529" x1="21.2872" y1="81.9305" x2="87.4009" y2="115.319" gradientUnits="userSpaceOnUse">
<stop stop-color="white"/>
<stop offset="1" stop-color="white" stop-opacity="0"/>
</linearGradient>
<linearGradient id="paint2_linear_731_8529" x1="22.2621" y1="81.0439" x2="50.5609" y2="121.734" gradientUnits="userSpaceOnUse">
<stop stop-color="white"/>
<stop offset="0.765625" stop-color="white" stop-opacity="0"/>
</linearGradient>
<linearGradient id="paint3_linear_731_8529" x1="25.142" y1="68.5253" x2="40.4555" y2="69.7116" gradientUnits="userSpaceOnUse">
<stop stop-color="white"/>
<stop offset="1" stop-color="white" stop-opacity="0"/>
</linearGradient>
<linearGradient id="paint4_linear_731_8529" x1="24.369" y1="69.7169" x2="32.0027" y2="70.9764" gradientUnits="userSpaceOnUse">
<stop stop-color="white"/>
<stop offset="1" stop-color="white" stop-opacity="0"/>
</linearGradient>
<linearGradient id="paint5_linear_731_8529" x1="84.37" y1="24.3178" x2="108.856" y2="40.2656" gradientUnits="userSpaceOnUse">
<stop stop-color="#FBA47F"/>
<stop offset="1" stop-color="#DF6B00"/>
</linearGradient>
<linearGradient id="paint6_linear_731_8529" x1="73.1362" y1="25.8176" x2="106.418" y2="67.7774" gradientUnits="userSpaceOnUse">
<stop stop-color="white"/>
<stop offset="1" stop-color="white" stop-opacity="0"/>
</linearGradient>
<linearGradient id="paint7_linear_731_8529" x1="74.045" y1="25.5311" x2="80.2886" y2="60.8214" gradientUnits="userSpaceOnUse">
<stop stop-color="white"/>
<stop offset="0.765625" stop-color="white" stop-opacity="0"/>
</linearGradient>
<linearGradient id="paint8_linear_731_8529" x1="79.7302" y1="18.1857" x2="89.4237" y2="23.6064" gradientUnits="userSpaceOnUse">
<stop stop-color="white"/>
<stop offset="1" stop-color="white" stop-opacity="0"/>
</linearGradient>
<linearGradient id="paint9_linear_731_8529" x1="78.8616" y1="18.7337" x2="83.4912" y2="21.8745" gradientUnits="userSpaceOnUse">
<stop stop-color="white"/>
<stop offset="1" stop-color="white" stop-opacity="0"/>
</linearGradient>
</defs>
</svg>
