<svg width="40" height="40" viewBox="0 0 40 40" fill="none" xmlns="http://www.w3.org/2000/svg">
<path d="M7.50183 11.209C7.50183 10.1919 7.50183 9.68332 7.70291 9.29621C7.87237 8.97001 8.13834 8.70403 8.46455 8.53458C8.85165 8.3335 9.36021 8.3335 10.3773 8.3335H17.8829C18.3156 8.3335 18.532 8.3335 18.736 8.38209C18.9094 8.42339 19.0757 8.49044 19.2293 8.58101C19.41 8.68753 19.5658 8.83759 19.8775 9.13772L20.0619 9.31531C20.3736 9.61543 20.5294 9.76549 20.7101 9.87202C20.8637 9.96258 21.03 10.0296 21.2034 10.0709C21.4075 10.1195 21.6238 10.1195 22.0565 10.1195H29.6308C30.6479 10.1195 31.1565 10.1195 31.5436 10.3206C31.8698 10.4901 32.1358 10.756 32.3052 11.0822C32.5063 11.4693 32.5063 11.9779 32.5063 12.995V30.1142C32.5063 30.6227 32.5063 30.877 32.4058 31.0706C32.321 31.2337 32.188 31.3667 32.0249 31.4514C31.8314 31.5519 31.5771 31.5519 31.0685 31.5519H10.0898C9.17438 31.5519 8.71667 31.5519 8.36828 31.3709C8.07469 31.2184 7.83531 30.9791 7.68281 30.6855C7.50183 30.3371 7.50183 29.8794 7.50183 28.964V11.209Z" fill="url(#paint0_linear_219_11582)"/>
<g filter="url(#filter0_b_219_11582)">
<path d="M14.1223 16.3884C14.3749 15.5196 14.5012 15.0852 14.8347 14.8348C15.1682 14.5845 15.6205 14.5845 16.525 14.5845H32.9967C34.421 14.5845 35.1331 14.5845 35.5084 15.047C35.8837 15.5094 35.737 16.2063 35.4435 17.6L32.9243 29.5665C32.7241 30.5175 32.624 30.993 32.2796 31.2724C31.9353 31.5518 31.4494 31.5518 30.4775 31.5518H9.2879C10.2117 30.5471 10.2117 29.5425 11.1355 26.5286C11.7983 24.3662 13.317 19.1586 14.1223 16.3884Z" fill="#F8B77B" fill-opacity="0.6"/>
<path d="M14.2024 16.4117C14.3292 15.9754 14.4224 15.6551 14.5249 15.4121C14.6266 15.1712 14.7341 15.0146 14.8847 14.9015C15.0354 14.7884 15.2157 14.7289 15.4754 14.6985C15.7373 14.6679 16.0707 14.6678 16.525 14.6678H32.9967C33.7115 14.6678 34.2384 14.668 34.6341 14.7248C35.0275 14.7812 35.275 14.8916 35.4437 15.0995C35.6124 15.3073 35.6694 15.5723 35.6436 15.9689C35.6176 16.3677 35.5092 16.8835 35.362 17.5829L32.8427 29.5493C32.7422 30.0268 32.6682 30.3776 32.5771 30.6444C32.4868 30.909 32.3826 31.0816 32.2271 31.2077C32.0717 31.3338 31.8813 31.4003 31.6038 31.4341C31.324 31.4683 30.9655 31.4684 30.4775 31.4684H9.47192C9.86543 30.998 10.0796 30.5091 10.2914 29.8181C10.3875 29.5045 10.4836 29.1476 10.5957 28.7314C10.6189 28.6453 10.6428 28.5567 10.6675 28.4654C10.8117 27.9321 10.9846 27.3052 11.2152 26.553C11.8782 24.3899 13.3971 19.1816 14.2024 16.4117Z" stroke="url(#paint1_linear_219_11582)" stroke-width="0.166667"/>
</g>
<g filter="url(#filter1_b_219_11582)">
<path fill-rule="evenodd" clip-rule="evenodd" d="M32.9967 14.7511H16.525C16.0688 14.7511 15.741 14.7514 15.4851 14.7813C15.2335 14.8107 15.0693 14.8671 14.9348 14.9681C14.8002 15.0691 14.7002 15.2111 14.6017 15.4445C14.5015 15.682 14.4098 15.9967 14.2824 16.4349C13.4772 19.2046 11.9581 24.4136 11.2949 26.5774C11.0647 27.3283 10.892 27.9542 10.7479 28.4872C10.7233 28.5782 10.6995 28.6666 10.6763 28.7526C10.5642 29.1688 10.4676 29.5274 10.3711 29.8425C10.1776 30.4737 9.98024 30.9438 9.64496 31.3851H30.4775C30.9676 31.3851 31.3201 31.3848 31.5937 31.3514C31.8627 31.3186 32.0359 31.2556 32.1746 31.143C32.3134 31.0304 32.4107 30.874 32.4983 30.6175C32.5873 30.3566 32.6602 30.0117 32.7612 29.5321L35.2804 17.5657C35.4282 16.8638 35.5349 16.355 35.5604 15.9635C35.5856 15.5765 35.5287 15.3365 35.379 15.152C35.2293 14.9675 35.0062 14.8623 34.6223 14.8073C34.2339 14.7515 33.714 14.7511 32.9967 14.7511ZM30.4775 31.5518C31.4494 31.5518 31.9353 31.5518 32.2796 31.2724C32.624 30.993 32.7241 30.5175 32.9243 29.5665L35.4435 17.6C35.737 16.2063 35.8837 15.5094 35.5084 15.047C35.1331 14.5845 34.421 14.5845 32.9967 14.5845H16.525C15.6205 14.5845 15.1682 14.5845 14.8347 14.8348C14.5012 15.0852 14.3749 15.5196 14.1223 16.3884C13.317 19.1586 11.7983 24.3662 11.1355 26.5286C10.8649 27.4113 10.6736 28.1217 10.5151 28.7102C10.1623 30.0201 9.97216 30.7262 9.43272 31.3851C9.38705 31.4409 9.33888 31.4963 9.2879 31.5518H30.4775Z" fill="url(#paint2_linear_219_11582)"/>
</g>
<path d="M11.1409 11.0122C11.1409 10.5558 11.5109 10.1858 11.9672 10.1858H15.5393C15.9957 10.1858 16.3657 10.5558 16.3657 11.0122C16.3657 11.4685 15.9957 11.8385 15.5393 11.8385H11.9672C11.5109 11.8385 11.1409 11.4685 11.1409 11.0122Z" fill="url(#paint3_linear_219_11582)" fill-opacity="0.9" stroke="url(#paint4_linear_219_11582)" stroke-width="0.133333"/>
<defs>
<filter id="filter0_b_219_11582" x="5.73153" y="11.0281" width="33.5577" height="24.08" filterUnits="userSpaceOnUse" color-interpolation-filters="sRGB">
<feFlood flood-opacity="0" result="BackgroundImageFix"/>
<feGaussianBlur in="BackgroundImageFix" stdDeviation="1.77818"/>
<feComposite in2="SourceAlpha" operator="in" result="effect1_backgroundBlur_219_11582"/>
<feBlend mode="normal" in="SourceGraphic" in2="effect1_backgroundBlur_219_11582" result="shape"/>
</filter>
<filter id="filter1_b_219_11582" x="5.71584" y="11.0124" width="33.5891" height="24.1114" filterUnits="userSpaceOnUse" color-interpolation-filters="sRGB">
<feFlood flood-opacity="0" result="BackgroundImageFix"/>
<feGaussianBlur in="BackgroundImageFix" stdDeviation="1.78603"/>
<feComposite in2="SourceAlpha" operator="in" result="effect1_backgroundBlur_219_11582"/>
<feBlend mode="normal" in="SourceGraphic" in2="effect1_backgroundBlur_219_11582" result="shape"/>
</filter>
<linearGradient id="paint0_linear_219_11582" x1="14.7147" y1="13.4125" x2="33.5816" y2="20.3998" gradientUnits="userSpaceOnUse">
<stop stop-color="#FBA47F"/>
<stop offset="1" stop-color="#DF6B00"/>
</linearGradient>
<linearGradient id="paint1_linear_219_11582" x1="7.39898" y1="16.127" x2="36.1262" y2="39.2448" gradientUnits="userSpaceOnUse">
<stop stop-color="white"/>
<stop offset="1" stop-color="white" stop-opacity="0"/>
</linearGradient>
<linearGradient id="paint2_linear_219_11582" x1="7.96566" y1="15.7964" x2="17.5226" y2="38.5455" gradientUnits="userSpaceOnUse">
<stop stop-color="white"/>
<stop offset="0.765625" stop-color="white" stop-opacity="0"/>
</linearGradient>
<linearGradient id="paint3_linear_219_11582" x1="10.667" y1="9.9998" x2="18.0003" y2="12.1665" gradientUnits="userSpaceOnUse">
<stop stop-color="white"/>
<stop offset="1" stop-color="white" stop-opacity="0"/>
</linearGradient>
<linearGradient id="paint4_linear_219_11582" x1="10.167" y1="10.4998" x2="13.7533" y2="11.9052" gradientUnits="userSpaceOnUse">
<stop stop-color="white"/>
<stop offset="1" stop-color="white" stop-opacity="0"/>
</linearGradient>
</defs>
</svg>
