<svg width="48" height="48" viewBox="0 0 48 48" fill="none" xmlns="http://www.w3.org/2000/svg">
<path d="M31.8118 11.9909C32.669 13.4757 32.669 15.4691 32.669 19.456C32.669 23.4429 32.669 25.4363 31.8118 26.9212C31.2502 27.8939 30.4424 28.7016 29.4697 29.2633C27.9849 30.1205 25.9914 30.1205 22.0045 30.1205H17.7387C16.5372 30.1205 15.5167 30.1205 14.6366 30.097L10.2828 32.6813C9.83406 32.9477 9.27228 32.5937 9.31893 32.0739L9.61064 28.8234C8.93168 28.3094 8.35995 27.6633 7.93148 26.9212C7.07422 25.4363 7.07422 23.4429 7.07422 19.456C7.07422 15.4691 7.07422 13.4757 7.93148 11.9909C8.49309 11.0181 9.30084 10.2104 10.2736 9.64877C11.7584 8.7915 13.7518 8.7915 17.7387 8.7915L22.0045 8.7915C25.9914 8.7915 27.9849 8.7915 29.4697 9.64877C30.4424 10.2104 31.2502 11.0181 31.8118 11.9909Z" fill="url(#paint0_linear_2087_16772)"/>
<g filter="url(#filter0_b_2087_16772)">
<path d="M16.4627 18.3895C15.6055 19.8744 15.6055 21.8678 15.6055 25.8547C15.6055 29.8416 15.6055 31.835 16.4627 33.3198C17.0243 34.2926 17.8321 35.1003 18.8048 35.6619C20.2896 36.5192 22.2831 36.5192 26.27 36.5192H30.5358C31.9247 36.5192 32.6192 36.5192 33.2209 36.6355C33.5829 36.7054 33.884 36.7897 34.2297 36.9177C34.8044 37.1306 35.3709 37.4745 36.5039 38.1623L37.9849 39.0614C38.4335 39.3337 39.0012 38.9799 38.9543 38.4572L38.8922 37.766C38.7502 36.1834 39.5486 34.6959 40.343 33.3198C41.2003 31.835 41.2003 29.8416 41.2003 25.8547C41.2003 21.8678 41.2003 19.8744 40.343 18.3895C39.7814 17.4168 38.9737 16.6091 38.0009 16.0475C36.5161 15.1902 34.5227 15.1902 30.5358 15.1902L26.27 15.1902C22.2831 15.1902 20.2896 15.1902 18.8048 16.0474C17.8321 16.6091 17.0243 17.4168 16.4627 18.3895Z" fill="#F8B77B" fill-opacity="0.6"/>
<path d="M15.7055 25.8547C15.7055 23.8594 15.7056 22.3696 15.8122 21.1929C15.9187 20.0175 16.131 19.1642 16.5493 18.4395C17.1022 17.482 17.8973 16.6869 18.8548 16.1341C19.5795 15.7157 20.4328 15.5035 21.6082 15.3969C22.7849 15.2903 24.2747 15.2902 26.27 15.2902L30.5358 15.2902C32.5311 15.2902 34.0208 15.2903 35.1976 15.3969C36.373 15.5035 37.2263 15.7157 37.9509 16.1341C38.9085 16.6869 39.7036 17.482 40.2564 18.4395C40.6748 19.1642 40.887 20.0175 40.9935 21.1929C41.1002 22.3696 41.1003 23.8594 41.1003 25.8547C41.1003 27.85 41.1002 29.3398 40.9935 30.5165C40.887 31.6919 40.6748 32.5452 40.2564 33.2698C39.4641 34.6421 38.6474 36.1563 38.7926 37.7749L38.8547 38.4662C38.8943 38.9072 38.4153 39.2057 38.0368 38.9759L36.5558 38.0768L36.5434 38.0693C35.4221 37.3886 34.8481 37.0401 34.2645 36.824C33.9136 36.694 33.6072 36.6083 33.2399 36.5373C32.6287 36.4192 31.9256 36.4192 30.5513 36.4192H30.5358H26.27C24.2747 36.4192 22.7849 36.4191 21.6081 36.3124C20.4328 36.2059 19.5795 35.9937 18.8548 35.5753C17.8973 35.0225 17.1022 34.2274 16.5493 33.2698C16.131 32.5452 15.9187 31.6919 15.8122 30.5165C15.7056 29.3398 15.7055 27.85 15.7055 25.8547Z" stroke="url(#paint1_linear_2087_16772)" stroke-width="0.2"/>
</g>
<g filter="url(#filter1_b_2087_16772)">
<rect x="35.0469" y="21.5996" width="2.17443" height="13.0466" rx="1.08722" transform="rotate(90 35.0469 21.5996)" fill="url(#paint2_linear_2087_16772)" fill-opacity="0.9"/>
<rect x="34.9669" y="21.6796" width="2.01443" height="12.8866" rx="1.00722" transform="rotate(90 34.9669 21.6796)" stroke="url(#paint3_linear_2087_16772)" stroke-width="0.16"/>
</g>
<g filter="url(#filter2_b_2087_16772)">
<rect x="32" y="27.9995" width="2.4" height="9.99998" rx="1.2" transform="rotate(90 32 27.9995)" fill="url(#paint4_linear_2087_16772)" fill-opacity="0.9"/>
<rect x="31.92" y="28.0795" width="2.24" height="9.83998" rx="1.12" transform="rotate(90 31.92 28.0795)" stroke="url(#paint5_linear_2087_16772)" stroke-width="0.16"/>
</g>
<defs>
<filter id="filter0_b_2087_16772" x="11.3378" y="10.9225" width="34.131" height="32.5006" filterUnits="userSpaceOnUse" color-interpolation-filters="sRGB">
<feFlood flood-opacity="0" result="BackgroundImageFix"/>
<feGaussianBlur in="BackgroundImageFix" stdDeviation="2.13382"/>
<feComposite in2="SourceAlpha" operator="in" result="effect1_backgroundBlur_2087_16772"/>
<feBlend mode="normal" in="SourceGraphic" in2="effect1_backgroundBlur_2087_16772" result="shape"/>
</filter>
<filter id="filter1_b_2087_16772" x="17.6511" y="17.2507" width="21.7446" height="10.872" filterUnits="userSpaceOnUse" color-interpolation-filters="sRGB">
<feFlood flood-opacity="0" result="BackgroundImageFix"/>
<feGaussianBlur in="BackgroundImageFix" stdDeviation="2.17443"/>
<feComposite in2="SourceAlpha" operator="in" result="effect1_backgroundBlur_2087_16772"/>
<feBlend mode="normal" in="SourceGraphic" in2="effect1_backgroundBlur_2087_16772" result="shape"/>
</filter>
<filter id="filter2_b_2087_16772" x="17.6511" y="23.6507" width="18.6977" height="11.0976" filterUnits="userSpaceOnUse" color-interpolation-filters="sRGB">
<feFlood flood-opacity="0" result="BackgroundImageFix"/>
<feGaussianBlur in="BackgroundImageFix" stdDeviation="2.17443"/>
<feComposite in2="SourceAlpha" operator="in" result="effect1_backgroundBlur_2087_16772"/>
<feBlend mode="normal" in="SourceGraphic" in2="effect1_backgroundBlur_2087_16772" result="shape"/>
</filter>
<linearGradient id="paint0_linear_2087_16772" x1="14.4573" y1="14.0373" x2="33.8112" y2="21.1409" gradientUnits="userSpaceOnUse">
<stop stop-color="#FBA47F"/>
<stop offset="1" stop-color="#DF6B00"/>
</linearGradient>
<linearGradient id="paint1_linear_2087_16772" x1="13.7773" y1="17.3689" x2="48.9052" y2="36.7395" gradientUnits="userSpaceOnUse">
<stop stop-color="white"/>
<stop offset="1" stop-color="white" stop-opacity="0"/>
</linearGradient>
<linearGradient id="paint2_linear_2087_16772" x1="38.8514" y1="20.0597" x2="36.0514" y2="32.4597" gradientUnits="userSpaceOnUse">
<stop stop-color="white" stop-opacity="0"/>
<stop offset="0.979167" stop-color="white"/>
</linearGradient>
<linearGradient id="paint3_linear_2087_16772" x1="36.1341" y1="21.5996" x2="36.1341" y2="34.6462" gradientUnits="userSpaceOnUse">
<stop stop-color="white" stop-opacity="0"/>
<stop offset="1" stop-color="white"/>
</linearGradient>
<linearGradient id="paint4_linear_2087_16772" x1="35.1801" y1="27.8923" x2="34.0955" y2="36.0137" gradientUnits="userSpaceOnUse">
<stop stop-color="white" stop-opacity="0"/>
<stop offset="0.979167" stop-color="white"/>
</linearGradient>
<linearGradient id="paint5_linear_2087_16772" x1="33.2" y1="27.9995" x2="33.2" y2="37.9995" gradientUnits="userSpaceOnUse">
<stop stop-color="white" stop-opacity="0"/>
<stop offset="1" stop-color="white"/>
</linearGradient>
</defs>
</svg>
