<svg width="40" height="41" viewBox="0 0 40 41" fill="none" xmlns="http://www.w3.org/2000/svg">
<g clip-path="url(#clip0_2087_16781)">
<path d="M16.3105 9.22135C17.6615 7.78144 18.3369 7.06148 19.1307 6.8067C19.7707 6.60131 20.4589 6.60131 21.0988 6.8067C21.8926 7.06148 22.5681 7.78144 23.919 9.22136L29.9755 15.6768C32.6318 18.5082 33.96 19.9238 34 21.1362C34.0318 22.0994 33.6305 23.0262 32.9063 23.662C31.9948 24.4623 30.0536 24.4623 26.1713 24.4623H14.0583C10.176 24.4623 8.23479 24.4623 7.32327 23.662C6.59908 23.0262 6.19776 22.0994 6.22954 21.1362C6.26954 19.9238 7.59771 18.5082 10.254 15.6768L16.3105 9.22135Z" fill="url(#paint0_linear_2087_16781)"/>
<g filter="url(#filter0_b_2087_16781)">
<rect x="8.5293" y="17.29" width="22.8797" height="17.7045" rx="3.33" fill="#F8B77B" fill-opacity="0.6"/>
<rect x="8.61263" y="17.3734" width="22.7131" height="17.5379" rx="3.24667" stroke="url(#paint1_linear_2087_16781)" stroke-width="0.166667"/>
</g>
<g filter="url(#filter1_b_2087_16781)">
<rect x="23.3301" y="27.012" width="4.82396" height="6.43195" rx="2.41198" transform="rotate(90 23.3301 27.012)" fill="url(#paint2_linear_2087_16781)"/>
<rect x="23.2634" y="27.0786" width="4.69063" height="6.29861" rx="2.34531" transform="rotate(90 23.2634 27.0786)" stroke="url(#paint3_linear_2087_16781)" stroke-width="0.133333"/>
</g>
</g>
<defs>
<filter id="filter0_b_2087_16781" x="4.97293" y="13.7337" width="29.9916" height="24.8173" filterUnits="userSpaceOnUse" color-interpolation-filters="sRGB">
<feFlood flood-opacity="0" result="BackgroundImageFix"/>
<feGaussianBlur in="BackgroundImageFix" stdDeviation="1.77818"/>
<feComposite in2="SourceAlpha" operator="in" result="effect1_backgroundBlur_2087_16781"/>
<feBlend mode="normal" in="SourceGraphic" in2="effect1_backgroundBlur_2087_16781" result="shape"/>
</filter>
<filter id="filter1_b_2087_16781" x="10.4665" y="20.58" width="19.2955" height="17.6879" filterUnits="userSpaceOnUse" color-interpolation-filters="sRGB">
<feFlood flood-opacity="0" result="BackgroundImageFix"/>
<feGaussianBlur in="BackgroundImageFix" stdDeviation="3.21597"/>
<feComposite in2="SourceAlpha" operator="in" result="effect1_backgroundBlur_2087_16781"/>
<feBlend mode="normal" in="SourceGraphic" in2="effect1_backgroundBlur_2087_16781" result="shape"/>
</filter>
<linearGradient id="paint0_linear_2087_16781" x1="11.2708" y1="10.7945" x2="38.6066" y2="26.0703" gradientUnits="userSpaceOnUse">
<stop stop-color="#FBA47F"/>
<stop offset="1" stop-color="#DF6B00"/>
</linearGradient>
<linearGradient id="paint1_linear_2087_16781" x1="6.89503" y1="18.8995" x2="35.2297" y2="37.8059" gradientUnits="userSpaceOnUse">
<stop stop-color="white"/>
<stop offset="1" stop-color="white" stop-opacity="0"/>
</linearGradient>
<linearGradient id="paint2_linear_2087_16781" x1="25.103" y1="33.0554" x2="27.6612" y2="26.0204" gradientUnits="userSpaceOnUse">
<stop stop-color="white"/>
<stop offset="1" stop-color="white" stop-opacity="0"/>
</linearGradient>
<linearGradient id="paint3_linear_2087_16781" x1="23.8239" y1="34.6543" x2="28.3007" y2="27.4593" gradientUnits="userSpaceOnUse">
<stop stop-color="white"/>
<stop offset="1" stop-color="white" stop-opacity="0"/>
</linearGradient>
<clipPath id="clip0_2087_16781">
<rect width="40" height="40" fill="white" transform="translate(0 0.5)"/>
</clipPath>
</defs>
</svg>
