<svg width="18" height="18" viewBox="0 0 18 18" fill="none" xmlns="http://www.w3.org/2000/svg">
<g clip-path="url(#clip0_703_1510)">
<path fill-rule="evenodd" clip-rule="evenodd" d="M12 3C12 2.58579 12.3358 2.25 12.75 2.25H16.5C16.9142 2.25 17.25 2.58579 17.25 3C17.25 3.41421 16.9142 3.75 16.5 3.75H13.5V7C13.5 7.41421 13.1642 7.75 12.75 7.75H9.75V11C9.75 11.4142 9.41421 11.75 9 11.75H6V15C6 15.4142 5.66421 15.75 5.25 15.75H1.5C1.08579 15.75 0.75 15.4142 0.75 15C0.75 14.5858 1.08579 14.25 1.5 14.25H4.5V11C4.5 10.5858 4.83579 10.25 5.25 10.25H8.25V7C8.25 6.58579 8.58579 6.25 9 6.25H12V3Z" fill="#2A2A2A"/>
</g>
<defs>
<clipPath id="clip0_703_1510">
<rect width="18" height="18" fill="white"/>
</clipPath>
</defs>
</svg>
