<svg width="18" height="18" viewBox="0 0 18 18" fill="none" xmlns="http://www.w3.org/2000/svg">
<path fill-rule="evenodd" clip-rule="evenodd" d="M2.25 7.91251V4.5C2.25 3.46444 3.08948 2.625 4.125 2.625H13.875C14.9106 2.625 15.75 3.46445 15.75 4.5V7.91251C16.6059 8.08623 17.25 8.84287 17.25 9.75V13.125C17.25 13.5392 16.9142 13.875 16.5 13.875V14.625C16.5 15.0392 16.1642 15.375 15.75 15.375C15.3358 15.375 15 15.0392 15 14.625V13.875H3V14.625C3 15.0392 2.66421 15.375 2.25 15.375C1.83579 15.375 1.5 15.0392 1.5 14.625V13.875C1.08579 13.875 0.75 13.5392 0.75 13.125V9.75C0.75 8.84287 1.39417 8.08623 2.25 7.91251ZM3.75 4.5C3.75 4.29288 3.91789 4.125 4.125 4.125H13.875C14.0821 4.125 14.25 4.29288 14.25 4.5V6.7498C13.9079 6.29449 13.3634 6 12.75 6H10.5C9.88664 6 9.34208 6.2945 9 6.7498C8.65792 6.2945 8.11336 6 7.5 6H5.25C4.63664 6 4.09208 6.29449 3.75 6.7498V4.5ZM2.25 12.375H15.75V9.75C15.75 9.54288 15.5821 9.375 15.375 9.375H2.625C2.41789 9.375 2.25 9.54288 2.25 9.75V12.375Z" fill="#2A2A2A"/>
</svg>
