<svg width="18" height="18" viewBox="0 0 18 18" fill="none" xmlns="http://www.w3.org/2000/svg">
<path fill-rule="evenodd" clip-rule="evenodd" d="M2.25 1.125C1.83579 1.125 1.5 1.46079 1.5 1.875V7.5C1.5 7.91421 1.83579 8.25 2.25 8.25H12.75C13.1642 8.25 13.5 7.91421 13.5 7.5V5.25H15.375V9.87864L7.02895 10.9563C6.65498 11.0046 6.375 11.3231 6.375 11.7001V16.125C6.375 16.5392 6.71079 16.875 7.125 16.875C7.53921 16.875 7.875 16.5392 7.875 16.125V12.3595L16.221 11.2818C16.595 11.2336 16.875 10.9151 16.875 10.538V4.5C16.875 4.08579 16.5392 3.75 16.125 3.75H13.5V1.875C13.5 1.46079 13.1642 1.125 12.75 1.125H2.25ZM3 6.75V2.625H12V6.75H3Z" fill="#2A2A2A"/>
</svg>
