<svg width="18" height="18" viewBox="0 0 18 18" fill="none" xmlns="http://www.w3.org/2000/svg">
<path d="M9.00017 0.75C9.03267 0.75 9.06467 0.752066 9.09608 0.756074C9.09884 0.756507 9.10135 0.756844 9.10386 0.757194C9.13084 0.760836 9.1575 0.766031 9.18361 0.772595C9.19422 0.775428 9.20528 0.778481 9.21629 0.781793C9.23614 0.787585 9.25509 0.794151 9.27369 0.801437C9.30812 0.815102 9.34219 0.831438 9.37517 0.850481L9.30141 0.812948C9.32086 0.821488 9.33988 0.830831 9.35843 0.840934L9.37517 0.850481L15.8704 4.60048C15.8774 4.60454 15.8843 4.60871 15.8912 4.61297C15.9039 4.62064 15.9163 4.6289 15.9286 4.63755C15.9398 4.64568 15.9508 4.65394 15.9616 4.66248C15.9741 4.6722 15.9864 4.68256 15.9983 4.69334C16.006 4.70059 16.0136 4.70771 16.021 4.71497C16.0347 4.72825 16.0482 4.7426 16.0612 4.75756C16.068 4.76551 16.0744 4.77325 16.0807 4.78112C16.0915 4.79437 16.1019 4.80841 16.1119 4.8229C16.1187 4.83273 16.1253 4.84276 16.1316 4.85295C16.1362 4.86031 16.1406 4.8676 16.1449 4.875L16.1561 4.89519C16.1637 4.90921 16.1707 4.92347 16.1774 4.93796L16.1449 4.875C16.1638 4.90778 16.18 4.9414 16.1935 4.97558C16.1991 4.99025 16.2045 5.00521 16.2094 5.02035C16.214 5.03433 16.2179 5.04793 16.2215 5.06158C16.2248 5.07503 16.2281 5.08924 16.2309 5.10358C16.2345 5.12071 16.2372 5.13723 16.2394 5.15378C16.2432 5.18506 16.2454 5.21738 16.2454 5.25L16.2425 5.18222C16.2443 5.20198 16.2452 5.22176 16.2454 5.24149L16.2454 5.25V12.75C16.2454 12.7569 16.2453 12.7637 16.2451 12.7706C16.2447 12.7886 16.2436 12.8066 16.2418 12.8246C16.2405 12.8363 16.2391 12.8476 16.2374 12.8589C16.2355 12.8736 16.2328 12.8886 16.2297 12.9036C16.2266 12.9172 16.2235 12.9305 16.22 12.9436C16.2157 12.9603 16.2105 12.9773 16.2046 12.9942C16.2015 13.0028 16.1985 13.011 16.1954 13.0192C16.1884 13.0375 16.1805 13.0558 16.1719 13.0739C16.1675 13.083 16.1629 13.092 16.1582 13.101C16.154 13.1088 16.1495 13.1169 16.1449 13.125L16.1316 13.1471C16.1253 13.1572 16.1187 13.1673 16.1118 13.1771L16.1449 13.125C16.1255 13.1585 16.104 13.1899 16.0806 13.2192C16.0744 13.2267 16.068 13.2345 16.0613 13.2421C16.0482 13.2574 16.0347 13.2717 16.0208 13.2855C16.0136 13.2923 16.006 13.2994 15.9983 13.3064C15.9873 13.3166 15.976 13.3262 15.9646 13.3354C15.9352 13.3587 15.9037 13.3803 15.8704 13.3995L15.9286 13.3624C15.9163 13.3711 15.9039 13.3794 15.8912 13.3872L15.8704 13.3995L9.37517 17.1495C9.36957 17.1528 9.36393 17.1559 9.35826 17.159C9.33988 17.1692 9.32086 17.1785 9.30141 17.1871C9.29192 17.191 9.28262 17.1949 9.27327 17.1985C9.25509 17.2059 9.23614 17.2124 9.21685 17.2182C9.20528 17.2215 9.19422 17.2246 9.1831 17.2274C9.1575 17.234 9.13084 17.2392 9.10372 17.2429C9.10135 17.2432 9.09884 17.2435 9.09633 17.2438C9.06467 17.2479 9.03267 17.25 9.00017 17.25C8.96768 17.25 8.93567 17.2479 8.90427 17.2439C8.90151 17.2435 8.899 17.2432 8.89649 17.2428C8.8695 17.2392 8.84285 17.234 8.81673 17.2274C8.80613 17.2246 8.79507 17.2215 8.78406 17.2182C8.76421 17.2124 8.74525 17.2059 8.72666 17.1986C8.69223 17.1849 8.65816 17.1686 8.62517 17.1495L8.69894 17.1871C8.67948 17.1785 8.66047 17.1692 8.64192 17.1591L8.62517 17.1495L2.12998 13.3995C2.12373 13.3959 2.11755 13.3922 2.11142 13.3884C2.09812 13.3804 2.08481 13.3717 2.07176 13.3624C2.05949 13.3536 2.04744 13.3445 2.0357 13.3351C2.0243 13.3262 2.01305 13.3166 2.00206 13.3067C1.99405 13.2992 1.98626 13.2918 1.97863 13.2843C1.96602 13.2721 1.95429 13.2597 1.94295 13.2468C1.93337 13.2358 1.924 13.2245 1.91498 13.213C1.90631 13.2021 1.89799 13.1909 1.88996 13.1793C1.88218 13.1681 1.87459 13.1566 1.86732 13.1448C1.86317 13.1381 1.85928 13.1316 1.85546 13.125L1.84671 13.1094C1.83838 13.0942 1.83057 13.0786 1.82331 13.0628L1.85546 13.125C1.83557 13.0905 1.81872 13.0552 1.80483 13.0192C1.80068 13.0081 1.79667 12.9969 1.79293 12.9856C1.78753 12.9697 1.78292 12.9541 1.77884 12.9384C1.77551 12.925 1.77225 12.9108 1.7694 12.8964C1.76581 12.8793 1.76311 12.8628 1.76098 12.8462C1.7571 12.8149 1.75498 12.7826 1.75498 12.75L1.7578 12.817C1.75602 12.797 1.75505 12.777 1.75488 12.757L1.75498 12.75V5.25C1.75498 5.24546 1.75502 5.24092 1.7551 5.23639C1.75532 5.21513 1.75663 5.19336 1.7589 5.17161C1.75984 5.16443 1.76064 5.15768 1.76154 5.15094C1.76407 5.13043 1.76772 5.10963 1.77227 5.08893C1.77467 5.07889 1.77703 5.06913 1.77958 5.05943C1.78406 5.04169 1.78953 5.02366 1.79572 5.00576C1.79897 4.99672 1.80217 4.98797 1.80553 4.97929C1.81135 4.96403 1.81786 4.94877 1.82492 4.93364C1.83167 4.91924 1.83876 4.90518 1.84629 4.89135C1.84906 4.88625 1.85222 4.88061 1.85546 4.875L1.86732 4.85517C1.87475 4.84317 1.88252 4.83138 1.89062 4.81981L1.85546 4.875C1.87469 4.84169 1.89609 4.81042 1.91937 4.78126C1.92805 4.77057 1.93679 4.76024 1.94582 4.75014C1.95838 4.73585 1.97155 4.72219 1.98515 4.7091C1.98986 4.70483 1.99446 4.70052 1.99912 4.69626C2.01504 4.68147 2.03145 4.66774 2.04835 4.65478C2.07398 4.63533 2.1013 4.61704 2.12998 4.60048L2.08868 4.62594C2.09915 4.61897 2.10979 4.61227 2.12056 4.60585L2.12998 4.60048L8.62517 0.85048C8.63078 0.847243 8.63642 0.844085 8.64209 0.841004C8.66047 0.830831 8.67948 0.821488 8.69894 0.812948C8.70843 0.808983 8.71772 0.80513 8.72708 0.801472C8.74525 0.79415 8.76421 0.787585 8.78349 0.781775C8.79507 0.778481 8.80613 0.775428 8.81725 0.772633C8.84285 0.766031 8.8695 0.760836 8.89662 0.757091C8.899 0.756844 8.90151 0.756507 8.90402 0.756183C8.93567 0.752066 8.96768 0.75 9.00017 0.75ZM9.0001 9.86625L4.00488 12.75L8.24988 15.2003L8.25017 12.75C8.25017 12.3358 8.58596 12 9.00017 12C9.3848 12 9.7018 12.2895 9.74513 12.6625L9.75017 12.75L9.74988 15.2003L13.9941 12.75L9.0001 9.86625ZM8.24988 2.799L4.00488 5.24925L6.12756 6.47548C6.48628 6.68259 6.60919 7.14128 6.40208 7.5C6.20976 7.8331 5.80052 7.96286 5.45583 7.81388L5.37756 7.77452L3.25413 6.54825V11.451L8.2501 8.5665L8.24988 2.799ZM9.74988 2.799L9.7501 8.5665L14.7449 11.4503V6.549L12.6228 7.77452C12.2641 7.98163 11.8054 7.85872 11.5983 7.5C11.406 7.16691 11.4982 6.74761 11.7996 6.52359L11.8728 6.47548L13.9941 5.24925L9.74988 2.799Z" fill="#2A2A2A"/>
</svg>
