<svg width="40" height="40" viewBox="0 0 40 40" fill="none" xmlns="http://www.w3.org/2000/svg">
<path d="M7.93237 17.9134C7.93237 16.1878 7.93237 15.3249 8.23803 14.6034C8.4857 14.0186 8.87383 13.5041 9.368 13.1053C9.97785 12.6132 10.8075 12.3761 12.4667 11.9021L18.3917 10.2092C19.0439 10.0229 19.3699 9.92973 19.7019 9.89449C19.9727 9.86575 20.2458 9.86575 20.5166 9.89449C20.8485 9.92973 21.1746 10.0229 21.8267 10.2092L27.7517 11.9021C29.411 12.3761 30.2406 12.6132 30.8504 13.1053C31.3446 13.5041 31.7327 14.0186 31.9804 14.6034C32.2861 15.3249 32.2861 16.1878 32.2861 17.9134V26.0808C32.2861 28.315 32.2861 29.4321 31.8375 30.2793C31.4755 30.963 30.9164 31.5221 30.2327 31.8841C29.3855 32.3326 28.2684 32.3326 26.0342 32.3326H14.1842C11.95 32.3326 10.8329 32.3326 9.98572 31.8841C9.30204 31.5221 8.74293 30.963 8.38094 30.2793C7.93237 29.4321 7.93237 28.315 7.93237 26.0808V17.9134Z" fill="url(#paint0_linear_205_1679)"/>
<g filter="url(#filter0_b_205_1679)">
<path fill-rule="evenodd" clip-rule="evenodd" d="M12.2817 6.23975C10.8406 6.23975 9.67236 7.85185 9.67236 9.84048V11.3631C9.67236 14.4342 9.67236 15.9698 10.2234 17.2105C10.7744 18.4513 12.0221 19.5788 14.5174 21.834C16.7887 23.8868 18.4595 25.3627 20.1097 25.3747C21.7936 25.387 23.4561 23.9058 25.7136 21.8473C28.2088 19.5721 29.4564 18.4344 30.0017 17.1993C30.5469 15.9641 30.5469 14.4304 30.5469 11.3631V9.84048C30.5469 7.85185 29.3787 6.23975 27.9376 6.23975H12.2817Z" fill="#F8B77B" fill-opacity="0.4"/>
<path d="M9.77236 9.84048C9.77236 8.86493 10.0591 7.98581 10.5176 7.35306C10.9762 6.72019 11.6012 6.33975 12.2817 6.33975H27.9376C28.6181 6.33975 29.2431 6.72019 29.7017 7.35306C30.1603 7.98581 30.4469 8.86493 30.4469 9.84048V11.3631C30.4469 12.8982 30.4469 14.0442 30.3791 14.9609C30.3113 15.8764 30.1764 16.556 29.9102 17.1589C29.6444 17.761 29.2053 18.3443 28.5166 19.0641C27.8276 19.7843 26.8949 20.6348 25.6463 21.7734C24.5162 22.8039 23.5414 23.6838 22.6398 24.3052C21.7382 24.9267 20.9222 25.2806 20.1104 25.2747C19.315 25.2689 18.505 24.9102 17.6033 24.2874C16.7018 23.6647 15.7214 22.7874 14.5844 21.7598C13.3357 20.6313 12.403 19.7883 11.7133 19.0725C11.0239 18.3571 10.5834 17.7748 10.3148 17.1699C10.0458 16.5642 9.90941 15.8829 9.84096 14.9658C9.77243 14.0475 9.77236 12.9001 9.77236 11.3631V9.84048Z" stroke="url(#paint1_linear_205_1679)" stroke-width="0.2"/>
</g>
<path fill-rule="evenodd" clip-rule="evenodd" d="M30.8629 16.3865C31.4491 15.9102 32.2625 16.1176 32.2779 16.8727C32.2842 17.1792 32.1464 17.5849 31.9086 17.7782L20.6579 26.9194C20.3384 27.179 19.8805 27.179 19.561 26.9194L8.30976 17.7778C8.07187 17.5845 7.93413 17.1787 7.94039 16.8722C7.95582 16.1171 8.76924 15.9098 9.35544 16.386L16.1671 21.9205C17.6017 23.0861 18.319 23.6689 19.12 23.8814C19.7684 24.0534 20.4505 24.0534 21.0989 23.8814C21.8999 23.6689 22.6172 23.0861 24.0518 21.9205L30.8629 16.3865Z" fill="url(#paint2_linear_205_1679)"/>
<path d="M18.6173 16.5394C18.6724 16.5945 18.7471 16.6254 18.825 16.6254C18.9029 16.6254 18.9776 16.5945 19.0327 16.5394L23.8112 11.7609C24.1678 11.4043 24.746 11.4043 25.1026 11.7609C25.4592 12.1175 25.4592 12.6956 25.1026 13.0522L19.4707 18.6841C19.2994 18.8554 19.0671 18.9516 18.825 18.9516C18.5828 18.9516 18.3505 18.8554 18.1793 18.6841L14.9611 15.4659C14.6045 15.1093 14.6045 14.5311 14.9611 14.1745C15.3177 13.8179 15.8958 13.8179 16.2524 14.1745L18.6173 16.5394Z" fill="url(#paint3_linear_205_1679)" fill-opacity="0.9" stroke="url(#paint4_linear_205_1679)" stroke-width="0.58742" stroke-linecap="round" stroke-linejoin="round"/>
<defs>
<filter id="filter0_b_205_1679" x="5.40472" y="1.9721" width="29.4098" height="27.6703" filterUnits="userSpaceOnUse" color-interpolation-filters="sRGB">
<feFlood flood-opacity="0" result="BackgroundImageFix"/>
<feGaussianBlur in="BackgroundImageFix" stdDeviation="2.13382"/>
<feComposite in2="SourceAlpha" operator="in" result="effect1_backgroundBlur_205_1679"/>
<feBlend mode="normal" in="SourceGraphic" in2="effect1_backgroundBlur_205_1679" result="shape"/>
</filter>
<linearGradient id="paint0_linear_205_1679" x1="14.9575" y1="14.6653" x2="33.3334" y2="21.4708" gradientUnits="userSpaceOnUse">
<stop stop-color="#FBA47F"/>
<stop offset="1" stop-color="#DF6B00"/>
</linearGradient>
<linearGradient id="paint1_linear_205_1679" x1="8.18132" y1="7.97929" x2="36.544" y2="23.955" gradientUnits="userSpaceOnUse">
<stop stop-color="white"/>
<stop offset="1" stop-color="white" stop-opacity="0"/>
</linearGradient>
<linearGradient id="paint2_linear_205_1679" x1="14.9607" y1="18.5336" x2="28.1716" y2="28.601" gradientUnits="userSpaceOnUse">
<stop stop-color="#FF8754"/>
<stop offset="1" stop-color="#FF7C03"/>
</linearGradient>
<linearGradient id="paint3_linear_205_1679" x1="16.1601" y1="14.2673" x2="33.7601" y2="16.3473" gradientUnits="userSpaceOnUse">
<stop stop-color="white"/>
<stop offset="1" stop-color="white" stop-opacity="0"/>
</linearGradient>
<linearGradient id="paint4_linear_205_1679" x1="14.7201" y1="12.3473" x2="21.9201" y2="14.7473" gradientUnits="userSpaceOnUse">
<stop stop-color="white"/>
<stop offset="1" stop-color="white" stop-opacity="0"/>
</linearGradient>
</defs>
</svg>
