<svg width="40" height="40" viewBox="0 0 40 40" fill="none" xmlns="http://www.w3.org/2000/svg">
<path d="M26.2488 10.3929C26.9346 11.5807 26.9346 13.1755 26.9346 16.365C26.9346 19.5545 26.9346 21.1492 26.2488 22.3371C25.7995 23.1153 25.1533 23.7615 24.3751 24.2108C23.1873 24.8966 21.5925 24.8966 18.403 24.8966H14.9903C14.0291 24.8966 13.2127 24.8966 12.5086 24.8778L9.02564 26.9452C8.66661 27.1584 8.21719 26.8752 8.25451 26.4593L8.48788 23.8589C7.94471 23.4477 7.48732 22.9308 7.14455 22.3371C6.45874 21.1492 6.45874 19.5545 6.45874 16.365C6.45874 13.1755 6.45874 11.5807 7.14455 10.3929C7.59383 9.61468 8.24004 8.96847 9.01822 8.51919C10.2061 7.83337 11.8008 7.83337 14.9903 7.83337L18.403 7.83337C21.5925 7.83337 23.1873 7.83337 24.3751 8.51919C25.1533 8.96847 25.7995 9.61467 26.2488 10.3929Z" fill="url(#paint0_linear_205_1659)"/>
<g filter="url(#filter0_b_205_1659)">
<path d="M13.97 15.5119C13.2842 16.6997 13.2842 18.2945 13.2842 21.484C13.2842 24.6735 13.2842 26.2683 13.97 27.4561C14.4193 28.2343 15.0655 28.8805 15.8437 29.3298C17.0315 30.0156 18.6263 30.0156 21.8158 30.0156H25.2284C25.9835 30.0156 26.3611 30.0156 26.674 30.0464C27.458 30.1236 28.1061 30.3049 28.8164 30.6458C29.0999 30.7819 29.4009 30.9646 30.003 31.3301L31.1877 32.0494C31.5466 32.2672 32.0008 31.9842 31.9632 31.566L31.9136 31.013C31.8 29.747 32.4387 28.5569 33.0742 27.4561C33.76 26.2683 33.76 24.6735 33.76 21.484C33.76 18.2945 33.76 16.6997 33.0742 15.5119C32.6249 14.7337 31.9787 14.0875 31.2006 13.6382C30.0127 12.9524 28.4179 12.9524 25.2284 12.9524L21.8158 12.9524C18.6263 12.9524 17.0315 12.9524 15.8437 13.6382C15.0655 14.0875 14.4193 14.7337 13.97 15.5119Z" fill="#F8B77B" fill-opacity="0.6"/>
<path d="M13.3842 21.484C13.3842 19.8874 13.3843 18.6966 13.4695 17.7563C13.5546 16.8174 13.7239 16.138 14.0566 15.5619C14.4971 14.7989 15.1307 14.1653 15.8937 13.7248C16.4698 13.3922 17.1492 13.2228 18.0881 13.1377C19.0284 13.0525 20.2192 13.0524 21.8158 13.0524L25.2284 13.0524C26.825 13.0524 28.0158 13.0525 28.9561 13.1377C29.895 13.2228 30.5744 13.3922 31.1506 13.7248C31.9135 14.1653 32.5471 14.7989 32.9876 15.5619C33.3203 16.138 33.4896 16.8174 33.5747 17.7563C33.6599 18.6966 33.66 19.8874 33.66 21.484C33.66 23.0806 33.6599 24.2714 33.5747 25.2117C33.4896 26.1506 33.3203 26.83 32.9876 27.4061C32.3542 28.5032 31.6971 29.7199 31.814 31.0219L31.8636 31.575C31.8938 31.9114 31.5284 32.1392 31.2396 31.9639L30.0549 31.2446L30.0481 31.2405C29.4524 30.8789 29.1476 30.6938 28.8597 30.5557C28.1389 30.2097 27.4794 30.0252 26.6838 29.9469C26.366 29.9156 25.9841 29.9156 25.2371 29.9156H25.2284H21.8158C20.2192 29.9156 19.0284 29.9155 18.0881 29.8303C17.1492 29.7452 16.4698 29.5758 15.8937 29.2432C15.1307 28.8027 14.4971 28.1691 14.0566 27.4061C13.7239 26.8299 13.5546 26.1506 13.4695 25.2117C13.3843 24.2714 13.3842 23.0806 13.3842 21.484Z" stroke="url(#paint1_linear_205_1659)" stroke-width="0.2"/>
</g>
<g filter="url(#filter1_b_205_1659)">
<rect x="28.8369" y="18.08" width="1.73955" height="10.4373" rx="0.869773" transform="rotate(90 28.8369 18.08)" fill="url(#paint2_linear_205_1659)" fill-opacity="0.9"/>
<rect x="28.7569" y="18.16" width="1.57955" height="10.2773" rx="0.789773" transform="rotate(90 28.7569 18.16)" stroke="url(#paint3_linear_205_1659)" stroke-width="0.16"/>
</g>
<g filter="url(#filter2_b_205_1659)">
<rect x="26.3997" y="23.1997" width="1.92" height="7.99999" rx="0.959999" transform="rotate(90 26.3997 23.1997)" fill="url(#paint4_linear_205_1659)" fill-opacity="0.9"/>
<rect x="26.3197" y="23.2797" width="1.76" height="7.83999" rx="0.879999" transform="rotate(90 26.3197 23.2797)" stroke="url(#paint5_linear_205_1659)" stroke-width="0.16"/>
</g>
<defs>
<filter id="filter0_b_205_1659" x="9.01654" y="8.68476" width="29.0111" height="27.7076" filterUnits="userSpaceOnUse" color-interpolation-filters="sRGB">
<feFlood flood-opacity="0" result="BackgroundImageFix"/>
<feGaussianBlur in="BackgroundImageFix" stdDeviation="2.13382"/>
<feComposite in2="SourceAlpha" operator="in" result="effect1_backgroundBlur_205_1659"/>
<feBlend mode="normal" in="SourceGraphic" in2="effect1_backgroundBlur_205_1659" result="shape"/>
</filter>
<filter id="filter1_b_205_1659" x="14.0508" y="13.7311" width="19.135" height="10.4372" filterUnits="userSpaceOnUse" color-interpolation-filters="sRGB">
<feFlood flood-opacity="0" result="BackgroundImageFix"/>
<feGaussianBlur in="BackgroundImageFix" stdDeviation="2.17443"/>
<feComposite in2="SourceAlpha" operator="in" result="effect1_backgroundBlur_205_1659"/>
<feBlend mode="normal" in="SourceGraphic" in2="effect1_backgroundBlur_205_1659" result="shape"/>
</filter>
<filter id="filter2_b_205_1659" x="14.0508" y="18.8508" width="16.6977" height="10.6178" filterUnits="userSpaceOnUse" color-interpolation-filters="sRGB">
<feFlood flood-opacity="0" result="BackgroundImageFix"/>
<feGaussianBlur in="BackgroundImageFix" stdDeviation="2.17443"/>
<feComposite in2="SourceAlpha" operator="in" result="effect1_backgroundBlur_205_1659"/>
<feBlend mode="normal" in="SourceGraphic" in2="effect1_backgroundBlur_205_1659" result="shape"/>
</filter>
<linearGradient id="paint0_linear_205_1659" x1="12.3652" y1="12.03" x2="27.8483" y2="17.7129" gradientUnits="userSpaceOnUse">
<stop stop-color="#FBA47F"/>
<stop offset="1" stop-color="#DF6B00"/>
</linearGradient>
<linearGradient id="paint1_linear_205_1659" x1="11.8216" y1="14.6953" x2="39.924" y2="30.1918" gradientUnits="userSpaceOnUse">
<stop stop-color="white"/>
<stop offset="1" stop-color="white" stop-opacity="0"/>
</linearGradient>
<linearGradient id="paint2_linear_205_1659" x1="31.8805" y1="16.848" x2="29.6405" y2="26.768" gradientUnits="userSpaceOnUse">
<stop stop-color="white" stop-opacity="0"/>
<stop offset="0.979167" stop-color="white"/>
</linearGradient>
<linearGradient id="paint3_linear_205_1659" x1="29.7067" y1="18.08" x2="29.7067" y2="28.5172" gradientUnits="userSpaceOnUse">
<stop stop-color="white" stop-opacity="0"/>
<stop offset="1" stop-color="white"/>
</linearGradient>
<linearGradient id="paint4_linear_205_1659" x1="28.9437" y1="23.1139" x2="28.0761" y2="29.611" gradientUnits="userSpaceOnUse">
<stop stop-color="white" stop-opacity="0"/>
<stop offset="0.979167" stop-color="white"/>
</linearGradient>
<linearGradient id="paint5_linear_205_1659" x1="27.3597" y1="23.1997" x2="27.3597" y2="31.1997" gradientUnits="userSpaceOnUse">
<stop stop-color="white" stop-opacity="0"/>
<stop offset="1" stop-color="white"/>
</linearGradient>
</defs>
</svg>
