<svg width="40" height="40" viewBox="0 0 40 40" fill="none" xmlns="http://www.w3.org/2000/svg">
<path d="M21.6853 25.8799C24.3826 24.4723 29.6102 20.4606 29.7607 10.4688C29.7648 10.1976 29.624 9.93832 29.3937 9.79505C23.7094 6.25812 16.5092 6.25812 10.8249 9.79504C10.5946 9.93832 10.4538 10.1976 10.4579 10.4688C10.6084 20.4606 15.836 24.4723 18.5332 25.8799C18.7362 25.9859 18.8377 26.0388 19.4078 26.1442C19.6656 26.1919 20.553 26.1919 20.8107 26.1442C21.3808 26.0388 21.4823 25.9859 21.6853 25.8799Z" fill="url(#paint0_linear_205_1701)"/>
<g filter="url(#filter0_b_205_1701)">
<path d="M20.1093 32.2967C20.1093 32.2967 31.3731 29.457 31.3731 14.5964C24.3935 10.608 15.8251 10.608 8.84546 14.5964C8.84546 29.457 20.1093 32.2967 20.1093 32.2967Z" fill="#F8B77B" fill-opacity="0.6"/>
<path d="M20.3969 31.5787C20.2781 31.6198 20.1812 31.6507 20.1093 31.6727C20.0373 31.6507 19.9404 31.6198 19.8216 31.5787C19.5317 31.4782 19.1118 31.3172 18.6054 31.0782C17.5918 30.5997 16.2368 29.8115 14.8816 28.5759C12.2303 26.1586 9.53421 21.9908 9.4476 14.9465C16.0845 11.2913 24.1341 11.2913 30.7709 14.9465C30.6843 21.9908 27.9882 26.1586 25.3369 28.5759C23.9818 29.8115 22.6268 30.5997 21.6131 31.0782C21.1067 31.3172 20.6869 31.4782 20.3969 31.5787Z" stroke="url(#paint1_linear_205_1701)" stroke-width="1.2"/>
</g>
<path d="M19.097 22.7521C19.1521 22.8071 19.2268 22.8381 19.3047 22.8381C19.3826 22.8381 19.4573 22.8071 19.5124 22.7521L24.2909 17.9735C24.6475 17.6169 25.2257 17.6169 25.5823 17.9735C25.9389 18.3301 25.9389 18.9083 25.5823 19.2649L19.9504 24.8968C19.7791 25.068 19.5469 25.1642 19.3047 25.1642C19.0625 25.1642 18.8303 25.068 18.659 24.8968L15.4408 21.6785C15.0842 21.3219 15.0842 20.7438 15.4408 20.3872C15.7974 20.0306 16.3756 20.0306 16.7322 20.3872L19.097 22.7521Z" fill="url(#paint2_linear_205_1701)" fill-opacity="0.9" stroke="url(#paint3_linear_205_1701)" stroke-width="0.58742" stroke-linecap="round" stroke-linejoin="round"/>
<defs>
<filter id="filter0_b_205_1701" x="4.57782" y="7.33758" width="31.0629" height="29.2267" filterUnits="userSpaceOnUse" color-interpolation-filters="sRGB">
<feFlood flood-opacity="0" result="BackgroundImageFix"/>
<feGaussianBlur in="BackgroundImageFix" stdDeviation="2.13382"/>
<feComposite in2="SourceAlpha" operator="in" result="effect1_backgroundBlur_205_1701"/>
<feBlend mode="normal" in="SourceGraphic" in2="effect1_backgroundBlur_205_1701" result="shape"/>
</filter>
<linearGradient id="paint0_linear_205_1701" x1="16.0246" y1="8.94599" x2="31.2682" y2="13.4393" gradientUnits="userSpaceOnUse">
<stop stop-color="#FBA47F"/>
<stop offset="1" stop-color="#DF6B00"/>
</linearGradient>
<linearGradient id="paint1_linear_205_1701" x1="7.23634" y1="10.3542" x2="39.9573" y2="26.1226" gradientUnits="userSpaceOnUse">
<stop stop-color="white"/>
<stop offset="1" stop-color="white" stop-opacity="0"/>
</linearGradient>
<linearGradient id="paint2_linear_205_1701" x1="16.6399" y1="20.4799" x2="34.2399" y2="22.5599" gradientUnits="userSpaceOnUse">
<stop stop-color="white"/>
<stop offset="1" stop-color="white" stop-opacity="0"/>
</linearGradient>
<linearGradient id="paint3_linear_205_1701" x1="15.1999" y1="18.5599" x2="22.3999" y2="20.9599" gradientUnits="userSpaceOnUse">
<stop stop-color="white"/>
<stop offset="1" stop-color="white" stop-opacity="0"/>
</linearGradient>
</defs>
</svg>
