<svg width="40" height="40" viewBox="0 0 40 40" fill="none" xmlns="http://www.w3.org/2000/svg">
<path d="M34.2694 19.7572C34.2694 27.7721 27.7721 34.2694 19.7572 34.2694C11.7422 34.2694 5.24487 27.7721 5.24487 19.7572C5.24487 11.7422 11.7422 5.24487 19.7572 5.24487C27.7721 5.24487 34.2694 11.7422 34.2694 19.7572Z" fill="url(#paint0_linear_205_1719)"/>
<g filter="url(#filter0_b_205_1719)">
<path d="M14.2404 11.3126C14.7797 10.9522 15.3493 10.6457 15.9411 10.3955C17.3772 9.78833 18.0953 9.48474 19.0114 10.092C19.9275 10.6993 19.9275 11.6936 19.9275 13.682V15.7294C19.9275 17.6596 19.9275 18.6247 20.5271 19.2243C21.1268 19.824 22.0919 19.824 24.0221 19.824H26.0694C28.0579 19.824 29.0521 19.824 29.6594 20.7401C30.2667 21.6562 29.9631 22.3742 29.356 23.8103C29.1058 24.4021 28.7992 24.9718 28.4389 25.5111C27.3141 27.1945 25.7153 28.5066 23.8449 29.2813C21.9744 30.0561 19.9161 30.2588 17.9304 29.8639C15.9447 29.4689 14.1208 28.4939 12.6891 27.0623C11.2575 25.6307 10.2826 23.8067 9.88762 21.821C9.49264 19.8353 9.69535 17.7771 10.4701 15.9066C11.2449 14.0361 12.557 12.4374 14.2404 11.3126Z" fill="#F8B77B" fill-opacity="0.71"/>
<path d="M14.2959 11.3957C14.83 11.0389 15.3941 10.7354 15.9801 10.4876C16.7025 10.1822 17.2282 9.96061 17.6871 9.88709C18.1358 9.81519 18.5189 9.88557 18.9561 10.1754C19.3874 10.4613 19.6044 10.8358 19.7149 11.3887C19.827 11.9497 19.8275 12.6837 19.8275 13.682V15.7294V15.7373C19.8275 16.6957 19.8275 17.425 19.9033 17.9891C19.9798 18.5577 20.1349 18.9735 20.4564 19.295C20.7779 19.6165 21.1937 19.7717 21.7623 19.8481C22.3265 19.924 23.0558 19.924 24.0141 19.924H24.0221H26.0694C27.0678 19.924 27.8017 19.9244 28.3628 20.0366C28.9157 20.147 29.2902 20.3641 29.5761 20.7953C29.8659 21.2325 29.9363 21.6157 29.8644 22.0644C29.7909 22.5232 29.5693 23.049 29.2639 23.7714C29.0161 24.3574 28.7126 24.9215 28.3557 25.4556C27.2419 27.1225 25.6588 28.4217 23.8066 29.1889C21.9544 29.9562 19.9162 30.1569 17.9499 29.7658C15.9836 29.3747 14.1775 28.4092 12.7599 26.9916C11.3422 25.574 10.3768 23.7678 9.98569 21.8015C9.59457 19.8352 9.79531 17.7971 10.5625 15.9449C11.3297 14.0927 12.629 12.5096 14.2959 11.3957Z" stroke="url(#paint1_linear_205_1719)" stroke-width="0.2"/>
</g>
<path d="M21.8206 9.7381C21.9153 9.37026 22.2903 9.14882 22.6581 9.24349C26.4979 10.2318 29.5193 13.2532 30.5076 17.093C30.6023 17.4609 30.3809 17.8358 30.013 17.9305C29.6452 18.0252 29.2702 17.8037 29.1756 17.4359C28.3122 14.0814 25.6697 11.4389 22.3153 10.5756C21.9474 10.4809 21.726 10.1059 21.8206 9.7381Z" fill="url(#paint2_linear_205_1719)" fill-opacity="0.9" stroke="url(#paint3_linear_205_1719)" stroke-width="0.16" stroke-linecap="round" stroke-linejoin="round"/>
<defs>
<filter id="filter0_b_205_1719" x="5.42327" y="5.49334" width="28.8348" height="28.8348" filterUnits="userSpaceOnUse" color-interpolation-filters="sRGB">
<feFlood flood-opacity="0" result="BackgroundImageFix"/>
<feGaussianBlur in="BackgroundImageFix" stdDeviation="2.13382"/>
<feComposite in2="SourceAlpha" operator="in" result="effect1_backgroundBlur_205_1719"/>
<feBlend mode="normal" in="SourceGraphic" in2="effect1_backgroundBlur_205_1719" result="shape"/>
</filter>
<linearGradient id="paint0_linear_205_1719" x1="13.6173" y1="11.594" x2="35.8876" y2="19.2526" gradientUnits="userSpaceOnUse">
<stop stop-color="#FBA47F"/>
<stop offset="1" stop-color="#F49F50"/>
</linearGradient>
<linearGradient id="paint1_linear_205_1719" x1="8.24095" y1="11.6064" x2="36.9258" y2="26.4172" gradientUnits="userSpaceOnUse">
<stop stop-color="white"/>
<stop offset="1" stop-color="white" stop-opacity="0"/>
</linearGradient>
<linearGradient id="paint2_linear_205_1719" x1="23.1081" y1="12.5314" x2="37.0946" y2="13.7121" gradientUnits="userSpaceOnUse">
<stop stop-color="white"/>
<stop offset="1" stop-color="white" stop-opacity="0"/>
</linearGradient>
<linearGradient id="paint3_linear_205_1719" x1="21.9715" y1="10.4097" x2="27.9473" y2="11.8325" gradientUnits="userSpaceOnUse">
<stop stop-color="white"/>
<stop offset="1" stop-color="white" stop-opacity="0"/>
</linearGradient>
</defs>
</svg>
