<svg width="40" height="40" viewBox="0 0 40 40" fill="none" xmlns="http://www.w3.org/2000/svg">
<path d="M8.00171 11.5601C8.00171 10.5836 8.00171 10.0954 8.19475 9.72377C8.35742 9.41061 8.61276 9.15527 8.92592 8.9926C9.29754 8.79956 9.78576 8.79956 10.7622 8.79956H17.9676C18.3829 8.79956 18.5906 8.79956 18.7865 8.84621C18.953 8.88586 19.1127 8.95023 19.2601 9.03717C19.4336 9.13943 19.5832 9.28349 19.8824 9.57161L20.0594 9.7421C20.3586 10.0302 20.5082 10.1743 20.6816 10.2765C20.8291 10.3635 20.9887 10.4279 21.1553 10.4675C21.3511 10.5142 21.5588 10.5142 21.9742 10.5142H29.2455C30.2219 10.5142 30.7102 10.5142 31.0818 10.7072C31.3949 10.8699 31.6503 11.1252 31.813 11.4384C32.006 11.81 32.006 12.2982 32.006 13.2746V29.709C32.006 30.1972 32.006 30.4413 31.9095 30.6271C31.8281 30.7837 31.7005 30.9114 31.5439 30.9927C31.3581 31.0893 31.114 31.0892 30.6257 31.0892H10.4862C9.60735 31.0892 9.16795 31.0892 8.8335 30.9155C8.55165 30.7691 8.32185 30.5393 8.17544 30.2575C8.00171 29.923 8.00171 29.4836 8.00171 28.6048V11.5601Z" fill="url(#paint0_linear_205_1691)"/>
<g filter="url(#filter0_b_205_1691)">
<path d="M14.3574 16.5328C14.5998 15.6988 14.7211 15.2817 15.0412 15.0414C15.3614 14.801 15.7956 14.801 16.6639 14.801H32.4768C33.8441 14.801 34.5277 14.801 34.888 15.245C35.2482 15.689 35.1074 16.358 34.8257 17.696L32.4072 29.1837C32.215 30.0967 32.1189 30.5532 31.7884 30.8214C31.4578 31.0896 30.9913 31.0896 30.0583 31.0896H9.71631C10.6032 30.1252 10.6032 29.1607 11.49 26.2674C12.1263 24.1915 13.5843 19.1922 14.3574 16.5328Z" fill="#F8B77B" fill-opacity="0.6"/>
<path d="M14.4534 16.5607C14.5753 16.1414 14.6644 15.8353 14.7623 15.6033C14.8591 15.3738 14.9605 15.227 15.1013 15.1214C15.242 15.0157 15.4113 14.9593 15.6586 14.9304C15.9086 14.9012 16.2274 14.901 16.6639 14.901H32.4768C33.1635 14.901 33.6677 14.9013 34.0458 14.9555C34.4212 15.0094 34.653 15.1141 34.8103 15.308C34.9677 15.502 35.0224 15.7503 34.9978 16.1287C34.973 16.5099 34.8693 17.0033 34.7279 17.6754L32.3094 29.1631C32.2128 29.6221 32.142 29.9574 32.055 30.2121C31.969 30.4641 31.8706 30.6259 31.7254 30.7438C31.5801 30.8616 31.4015 30.9246 31.1371 30.9569C30.87 30.9895 30.5273 30.9896 30.0583 30.9896H9.93544C10.2984 30.5452 10.4999 30.0799 10.6988 29.4311C10.7912 29.1297 10.8835 28.7867 10.9911 28.3872C11.0134 28.3046 11.0363 28.2195 11.06 28.132C11.1984 27.62 11.3644 27.0185 11.5856 26.2967C12.2222 24.2199 13.6804 19.2198 14.4534 16.5607Z" stroke="url(#paint1_linear_205_1691)" stroke-width="0.2"/>
</g>
<g filter="url(#filter1_b_205_1691)">
<path fill-rule="evenodd" clip-rule="evenodd" d="M32.4768 14.961H16.6639C16.2259 14.961 15.9113 14.9613 15.6656 14.99C15.4241 15.0182 15.2664 15.0724 15.1373 15.1693C15.0082 15.2663 14.9121 15.4026 14.8176 15.6267C14.7214 15.8546 14.6333 16.1568 14.511 16.5775C13.738 19.2364 12.2797 24.237 11.643 26.3142C11.422 27.0351 11.2563 27.636 11.1179 28.1476C11.0943 28.235 11.0714 28.3199 11.0492 28.4024C10.9416 28.802 10.8489 29.1462 10.7561 29.4487C10.5704 30.0547 10.381 30.5059 10.0591 30.9296H30.0583C30.5288 30.9296 30.8672 30.9294 31.1299 30.8973C31.3882 30.8658 31.5544 30.8053 31.6876 30.6972C31.8208 30.5891 31.9142 30.4389 31.9983 30.1927C32.0838 29.9423 32.1537 29.6112 32.2507 29.1508L34.6692 17.663C34.811 16.9892 34.9134 16.5007 34.9379 16.1249C34.9621 15.7533 34.9075 15.523 34.7637 15.3458C34.62 15.1687 34.4058 15.0678 34.0373 15.0149C33.6645 14.9614 33.1654 14.961 32.4768 14.961ZM30.0583 31.0896C30.9913 31.0896 31.4578 31.0896 31.7884 30.8214C32.1189 30.5532 32.215 30.0967 32.4072 29.1837L34.8257 17.696C35.1074 16.358 35.2482 15.689 34.888 15.245C34.5277 14.801 33.8441 14.801 32.4768 14.801H16.6639C15.7956 14.801 15.3614 14.801 15.0412 15.0414C14.7211 15.2817 14.5998 15.6988 14.3574 16.5328C13.5843 19.1922 12.1263 24.1915 11.49 26.2674C11.2303 27.1148 11.0466 27.7968 10.8944 28.3617C10.5558 29.6192 10.3732 30.2971 9.85533 30.9296C9.81149 30.9832 9.76525 31.0364 9.71631 31.0896H30.0583Z" fill="url(#paint2_linear_205_1691)"/>
</g>
<path d="M11.5112 11.3715C11.5112 10.9422 11.8592 10.5942 12.2884 10.5942H15.7176C16.1469 10.5942 16.4949 10.9422 16.4949 11.3715C16.4949 11.8007 16.1469 12.1488 15.7176 12.1488H12.2884C11.8592 12.1488 11.5112 11.8007 11.5112 11.3715Z" fill="url(#paint3_linear_205_1691)" fill-opacity="0.9" stroke="url(#paint4_linear_205_1691)" stroke-width="0.16"/>
<defs>
<filter id="filter0_b_205_1691" x="5.44867" y="10.5334" width="33.9225" height="24.8239" filterUnits="userSpaceOnUse" color-interpolation-filters="sRGB">
<feFlood flood-opacity="0" result="BackgroundImageFix"/>
<feGaussianBlur in="BackgroundImageFix" stdDeviation="2.13382"/>
<feComposite in2="SourceAlpha" operator="in" result="effect1_backgroundBlur_205_1691"/>
<feBlend mode="normal" in="SourceGraphic" in2="effect1_backgroundBlur_205_1691" result="shape"/>
</filter>
<filter id="filter1_b_205_1691" x="5.42983" y="10.5145" width="33.9602" height="24.8615" filterUnits="userSpaceOnUse" color-interpolation-filters="sRGB">
<feFlood flood-opacity="0" result="BackgroundImageFix"/>
<feGaussianBlur in="BackgroundImageFix" stdDeviation="2.14324"/>
<feComposite in2="SourceAlpha" operator="in" result="effect1_backgroundBlur_205_1691"/>
<feBlend mode="normal" in="SourceGraphic" in2="effect1_backgroundBlur_205_1691" result="shape"/>
</filter>
<linearGradient id="paint0_linear_205_1691" x1="14.926" y1="13.6754" x2="33.0383" y2="20.3832" gradientUnits="userSpaceOnUse">
<stop stop-color="#FBA47F"/>
<stop offset="1" stop-color="#DF6B00"/>
</linearGradient>
<linearGradient id="paint1_linear_205_1691" x1="7.90294" y1="16.2818" x2="35.4811" y2="38.4749" gradientUnits="userSpaceOnUse">
<stop stop-color="white"/>
<stop offset="1" stop-color="white" stop-opacity="0"/>
</linearGradient>
<linearGradient id="paint2_linear_205_1691" x1="8.44695" y1="15.9645" x2="17.6216" y2="37.8036" gradientUnits="userSpaceOnUse">
<stop stop-color="white"/>
<stop offset="0.765625" stop-color="white" stop-opacity="0"/>
</linearGradient>
<linearGradient id="paint3_linear_205_1691" x1="11.0402" y1="10.3996" x2="18.0802" y2="12.4796" gradientUnits="userSpaceOnUse">
<stop stop-color="white"/>
<stop offset="1" stop-color="white" stop-opacity="0"/>
</linearGradient>
<linearGradient id="paint4_linear_205_1691" x1="10.5602" y1="10.8796" x2="14.003" y2="12.2288" gradientUnits="userSpaceOnUse">
<stop stop-color="white"/>
<stop offset="1" stop-color="white" stop-opacity="0"/>
</linearGradient>
</defs>
</svg>
