<svg width="40" height="40" viewBox="0 0 40 40" fill="none" xmlns="http://www.w3.org/2000/svg">
<g clip-path="url(#clip0_2087_16859)">
<path d="M15.5513 10.1397C17.1703 8.414 17.9799 7.55113 18.9313 7.24577C19.6983 6.99961 20.523 6.99961 21.29 7.24577C22.2414 7.55113 23.0509 8.414 24.67 10.1397L27.6111 13.2746C30.7947 16.6679 32.3865 18.3646 32.4345 19.8176C32.4726 20.972 31.9916 22.0827 31.1236 22.8448C30.0312 23.804 27.7047 23.804 23.0517 23.804H17.1696C12.5166 23.804 10.1901 23.804 9.09766 22.8448C8.22971 22.0827 7.74874 20.972 7.78683 19.8176C7.83477 18.3646 9.42657 16.6679 12.6102 13.2746L15.5513 10.1397Z" fill="url(#paint0_linear_2087_16859)"/>
<g filter="url(#filter0_b_2087_16859)">
<rect x="8.98828" y="16.9186" width="21.9645" height="16.9964" rx="6.40146" fill="#F8B77B" fill-opacity="0.6"/>
<rect x="9.08828" y="17.0186" width="21.7645" height="16.7964" rx="6.30147" stroke="url(#paint1_linear_2087_16859)" stroke-width="0.2"/>
</g>
<g filter="url(#filter1_b_2087_16859)">
<rect x="23.1973" y="26.2512" width="4.631" height="6.17467" rx="2.3155" transform="rotate(90 23.1973 26.2512)" fill="url(#paint2_linear_2087_16859)"/>
<rect x="23.1173" y="26.3312" width="4.471" height="6.01467" rx="2.2355" transform="rotate(90 23.1173 26.3312)" stroke="url(#paint3_linear_2087_16859)" stroke-width="0.16"/>
</g>
</g>
<defs>
<filter id="filter0_b_2087_16859" x="4.72064" y="12.6509" width="30.5001" height="25.5317" filterUnits="userSpaceOnUse" color-interpolation-filters="sRGB">
<feFlood flood-opacity="0" result="BackgroundImageFix"/>
<feGaussianBlur in="BackgroundImageFix" stdDeviation="2.13382"/>
<feComposite in2="SourceAlpha" operator="in" result="effect1_backgroundBlur_2087_16859"/>
<feBlend mode="normal" in="SourceGraphic" in2="effect1_backgroundBlur_2087_16859" result="shape"/>
</filter>
<filter id="filter1_b_2087_16859" x="9.3051" y="18.5329" width="21.6105" height="20.0677" filterUnits="userSpaceOnUse" color-interpolation-filters="sRGB">
<feFlood flood-opacity="0" result="BackgroundImageFix"/>
<feGaussianBlur in="BackgroundImageFix" stdDeviation="3.85917"/>
<feComposite in2="SourceAlpha" operator="in" result="effect1_backgroundBlur_2087_16859"/>
<feBlend mode="normal" in="SourceGraphic" in2="effect1_backgroundBlur_2087_16859" result="shape"/>
</filter>
<linearGradient id="paint0_linear_2087_16859" x1="11.6205" y1="10.6828" x2="37.8628" y2="25.3477" gradientUnits="userSpaceOnUse">
<stop stop-color="#FBA47F"/>
<stop offset="1" stop-color="#DF6B00"/>
</linearGradient>
<linearGradient id="paint1_linear_2087_16859" x1="7.41939" y1="18.4637" x2="34.6207" y2="36.6138" gradientUnits="userSpaceOnUse">
<stop stop-color="white"/>
<stop offset="1" stop-color="white" stop-opacity="0"/>
</linearGradient>
<linearGradient id="paint2_linear_2087_16859" x1="24.8992" y1="32.0529" x2="27.3551" y2="25.2993" gradientUnits="userSpaceOnUse">
<stop stop-color="white"/>
<stop offset="1" stop-color="white" stop-opacity="0"/>
</linearGradient>
<linearGradient id="paint3_linear_2087_16859" x1="23.6713" y1="33.5879" x2="27.9691" y2="26.6807" gradientUnits="userSpaceOnUse">
<stop stop-color="white"/>
<stop offset="1" stop-color="white" stop-opacity="0"/>
</linearGradient>
<clipPath id="clip0_2087_16859">
<rect width="38.4" height="38.4" fill="white" transform="translate(0.800781 0.799927)"/>
</clipPath>
</defs>
</svg>
