<svg width="40" height="40" viewBox="0 0 40 40" fill="none" xmlns="http://www.w3.org/2000/svg">
<path d="M21.6858 25.88C24.3831 24.4723 29.6107 20.4606 29.7612 10.4688C29.7652 10.1976 29.6245 9.93837 29.3942 9.79509C23.7099 6.25816 16.5097 6.25816 10.8253 9.79509C10.5951 9.93837 10.4543 10.1976 10.4584 10.4688C10.6089 20.4606 15.8365 24.4723 18.5337 25.88C18.7367 25.9859 18.8382 26.0389 19.4083 26.1442C19.6661 26.1919 20.5535 26.1919 20.8112 26.1442C21.3813 26.0389 21.4828 25.9859 21.6858 25.88Z" fill="url(#paint0_linear_2087_16876)"/>
<g filter="url(#filter0_b_2087_16876)">
<path d="M20.1095 32.2967C20.1095 32.2967 31.3733 29.4571 31.3733 14.5965C24.3937 10.6081 15.8253 10.6081 8.8457 14.5965C8.8457 29.4571 20.1095 32.2967 20.1095 32.2967Z" fill="#F8B77B" fill-opacity="0.6"/>
<path d="M20.3972 31.5787C20.2784 31.6199 20.1815 31.6508 20.1095 31.6727C20.0376 31.6508 19.9407 31.6199 19.8219 31.5787C19.5319 31.4783 19.1121 31.3173 18.6056 31.0783C17.592 30.5998 16.237 29.8116 14.8819 28.576C12.2306 26.1586 9.53446 21.9908 9.44785 14.9466C16.0847 11.2914 24.1343 11.2914 30.7712 14.9466C30.6846 21.9908 27.9885 26.1586 25.3372 28.576C23.982 29.8116 22.627 30.5998 21.6134 31.0783C21.107 31.3173 20.6871 31.4783 20.3972 31.5787Z" stroke="url(#paint1_linear_2087_16876)" stroke-width="1.2"/>
</g>
<path d="M19.0982 22.7521C19.1533 22.8072 19.228 22.8381 19.3059 22.8381C19.3838 22.8381 19.4585 22.8072 19.5136 22.7521L24.2922 17.9736C24.6488 17.617 25.2269 17.617 25.5835 17.9736C25.9401 18.3302 25.9401 18.9083 25.5835 19.2649L19.9516 24.8968C19.7804 25.0681 19.5481 25.1643 19.3059 25.1643C19.0638 25.1643 18.8315 25.0681 18.6603 24.8968L15.442 21.6786C15.0854 21.322 15.0854 20.7438 15.442 20.3872C15.7986 20.0307 16.3768 20.0307 16.7334 20.3872L19.0982 22.7521Z" fill="url(#paint2_linear_2087_16876)" fill-opacity="0.9" stroke="url(#paint3_linear_2087_16876)" stroke-width="0.58742" stroke-linecap="round" stroke-linejoin="round"/>
<defs>
<filter id="filter0_b_2087_16876" x="4.57806" y="7.33754" width="31.0626" height="29.2268" filterUnits="userSpaceOnUse" color-interpolation-filters="sRGB">
<feFlood flood-opacity="0" result="BackgroundImageFix"/>
<feGaussianBlur in="BackgroundImageFix" stdDeviation="2.13382"/>
<feComposite in2="SourceAlpha" operator="in" result="effect1_backgroundBlur_2087_16876"/>
<feBlend mode="normal" in="SourceGraphic" in2="effect1_backgroundBlur_2087_16876" result="shape"/>
</filter>
<linearGradient id="paint0_linear_2087_16876" x1="16.0251" y1="8.94603" x2="31.2687" y2="13.4393" gradientUnits="userSpaceOnUse">
<stop stop-color="#FBA47F"/>
<stop offset="1" stop-color="#DF6B00"/>
</linearGradient>
<linearGradient id="paint1_linear_2087_16876" x1="7.23659" y1="10.3542" x2="39.9576" y2="26.1226" gradientUnits="userSpaceOnUse">
<stop stop-color="white"/>
<stop offset="1" stop-color="white" stop-opacity="0"/>
</linearGradient>
<linearGradient id="paint2_linear_2087_16876" x1="16.6411" y1="20.48" x2="34.2411" y2="22.56" gradientUnits="userSpaceOnUse">
<stop stop-color="white"/>
<stop offset="1" stop-color="white" stop-opacity="0"/>
</linearGradient>
<linearGradient id="paint3_linear_2087_16876" x1="15.2011" y1="18.56" x2="22.4011" y2="20.96" gradientUnits="userSpaceOnUse">
<stop stop-color="white"/>
<stop offset="1" stop-color="white" stop-opacity="0"/>
</linearGradient>
</defs>
</svg>
