<svg width="40" height="40" viewBox="0 0 40 40" fill="none" xmlns="http://www.w3.org/2000/svg">
<path d="M10.8266 14.1412C11.0913 12.0236 11.2236 10.9647 11.722 10.1668C12.1611 9.46385 12.7953 8.90392 13.5473 8.55544C14.4009 8.15991 15.468 8.15991 17.6021 8.15991H22.617C24.7511 8.15991 25.8182 8.15991 26.6717 8.55544C27.4237 8.90392 28.058 9.46385 28.4971 10.1668C28.9954 10.9647 29.1278 12.0236 29.3925 14.1412C29.724 16.7937 29.8898 18.12 29.4741 19.1483C29.1091 20.0512 28.4462 20.8021 27.5955 21.2763C26.6267 21.8164 25.2901 21.8164 22.617 21.8164H17.6021C14.9289 21.8164 13.5923 21.8164 12.6236 21.2763C11.7729 20.8021 11.11 20.0512 10.745 19.1483C10.3292 18.12 10.495 16.7937 10.8266 14.1412Z" fill="url(#paint0_linear_2087_16867)"/>
<g filter="url(#filter0_b_2087_16867)">
<rect x="6.45312" y="11.574" width="27.3129" height="20.4847" rx="6.40146" fill="#F8B77B" fill-opacity="0.6"/>
<rect x="6.55312" y="11.674" width="27.1129" height="20.2847" rx="6.30147" stroke="url(#paint1_linear_2087_16867)" stroke-width="0.2"/>
</g>
<path fill-rule="evenodd" clip-rule="evenodd" d="M20.1105 17.9755C17.9892 17.9755 16.2696 19.6951 16.2696 21.8164C16.2696 23.9376 17.9892 25.6573 20.1105 25.6573C22.2317 25.6573 23.9513 23.9376 23.9513 21.8164C23.9513 19.6951 22.2317 17.9755 20.1105 17.9755ZM13.709 21.8164C13.709 18.281 16.575 15.4149 20.1105 15.4149C23.6459 15.4149 26.5119 18.281 26.5119 21.8164C26.5119 25.3518 23.6459 28.2178 20.1105 28.2178C16.575 28.2178 13.709 25.3518 13.709 21.8164Z" fill="url(#paint2_linear_2087_16867)" fill-opacity="0.9"/>
<rect x="26.9375" y="14.9882" width="3.41412" height="1.70706" rx="0.853529" fill="url(#paint3_linear_2087_16867)" fill-opacity="0.9"/>
<defs>
<filter id="filter0_b_2087_16867" x="2.18548" y="7.30639" width="35.8478" height="29.02" filterUnits="userSpaceOnUse" color-interpolation-filters="sRGB">
<feFlood flood-opacity="0" result="BackgroundImageFix"/>
<feGaussianBlur in="BackgroundImageFix" stdDeviation="2.13382"/>
<feComposite in2="SourceAlpha" operator="in" result="effect1_backgroundBlur_2087_16867"/>
<feBlend mode="normal" in="SourceGraphic" in2="effect1_backgroundBlur_2087_16867" result="shape"/>
</filter>
<linearGradient id="paint0_linear_2087_16867" x1="15.7762" y1="11.1473" x2="29.6588" y2="18.3084" gradientUnits="userSpaceOnUse">
<stop stop-color="#FBA47F"/>
<stop offset="1" stop-color="#DF6B00"/>
</linearGradient>
<linearGradient id="paint1_linear_2087_16867" x1="4.5022" y1="13.4363" x2="37.668" y2="36.2688" gradientUnits="userSpaceOnUse">
<stop stop-color="white"/>
<stop offset="1" stop-color="white" stop-opacity="0"/>
</linearGradient>
<linearGradient id="paint2_linear_2087_16867" x1="13.6679" y1="21.7717" x2="31.4487" y2="26.4784" gradientUnits="userSpaceOnUse">
<stop stop-color="white"/>
<stop offset="1" stop-color="white" stop-opacity="0"/>
</linearGradient>
<linearGradient id="paint3_linear_2087_16867" x1="25.8257" y1="15.7576" x2="34.8468" y2="20.3336" gradientUnits="userSpaceOnUse">
<stop stop-color="white"/>
<stop offset="1" stop-color="white" stop-opacity="0"/>
</linearGradient>
</defs>
</svg>
