<svg width="40" height="40" viewBox="0 0 40 40" fill="none" xmlns="http://www.w3.org/2000/svg">
<path d="M34.2707 19.7574C34.2707 27.7723 27.7733 34.2697 19.7584 34.2697C11.7435 34.2697 5.24609 27.7723 5.24609 19.7574C5.24609 11.7425 11.7435 5.24512 19.7584 5.24512C27.7733 5.24512 34.2707 11.7425 34.2707 19.7574Z" fill="url(#paint0_linear_2087_16847)"/>
<g filter="url(#filter0_b_2087_16847)">
<path d="M14.2408 11.3128C14.7802 10.9525 15.3498 10.6459 15.9416 10.3957C17.3777 9.78857 18.0958 9.48499 19.0119 10.0923C19.928 10.6996 19.928 11.6938 19.928 13.6823V15.7296C19.928 17.6598 19.928 18.6249 20.5276 19.2246C21.1273 19.8242 22.0924 19.8242 24.0226 19.8242H26.0699C28.0584 19.8242 29.0526 19.8242 29.6599 20.7403C30.2672 21.6564 29.9636 22.3745 29.3565 23.8106C29.1063 24.4024 28.7997 24.972 28.4394 25.5114C27.3146 27.1947 25.7158 28.5068 23.8453 29.2816C21.9749 30.0564 19.9166 30.2591 17.9309 29.8641C15.9452 29.4691 14.1212 28.4942 12.6896 27.0626C11.258 25.631 10.2831 23.807 9.8881 21.8213C9.49312 19.8356 9.69584 17.7773 10.4706 15.9069C11.2454 14.0364 12.5574 12.4376 14.2408 11.3128Z" fill="#F8B77B" fill-opacity="0.71"/>
<path d="M14.2964 11.396C14.8304 11.0391 15.3946 10.7356 15.9806 10.4878C16.703 10.1824 17.2287 9.96085 17.6876 9.88733C18.1362 9.81543 18.5194 9.88582 18.9566 10.1756C19.3879 10.4615 19.6049 10.836 19.7154 11.3889C19.8275 11.95 19.828 12.6839 19.828 13.6823V15.7296V15.7376C19.828 16.6959 19.828 17.4252 19.9038 17.9894C19.9803 18.558 20.1354 18.9738 20.4569 19.2953C20.7784 19.6168 21.1942 19.7719 21.7628 19.8484C22.327 19.9242 23.0562 19.9242 24.0146 19.9242H24.0226H26.0699C27.0683 19.9242 27.8022 19.9247 28.3633 20.0368C28.9162 20.1473 29.2907 20.3643 29.5766 20.7956C29.8664 21.2328 29.9368 21.616 29.8649 22.0646C29.7913 22.5235 29.5698 23.0492 29.2644 23.7716C29.0166 24.3576 28.7131 24.9218 28.3562 25.4558C27.2424 27.1227 25.6593 28.422 23.8071 29.1892C21.9549 29.9564 19.9167 30.1571 17.9504 29.766C15.9841 29.3749 14.178 28.4095 12.7603 26.9919C11.3427 25.5742 10.3773 23.7681 9.98618 21.8018C9.59506 19.8355 9.7958 17.7973 10.563 15.9451C11.3302 14.0929 12.6295 12.5098 14.2964 11.396Z" stroke="url(#paint1_linear_2087_16847)" stroke-width="0.2"/>
</g>
<path d="M21.8206 9.73835C21.9153 9.37051 22.2903 9.14906 22.6581 9.24374C26.4979 10.232 29.5193 13.2535 30.5076 17.0933C30.6023 17.4611 30.3809 17.8361 30.013 17.9307C29.6452 18.0254 29.2702 17.804 29.1756 17.4361C28.3122 14.0816 25.6697 11.4392 22.3153 10.5758C21.9474 10.4811 21.726 10.1062 21.8206 9.73835Z" fill="url(#paint2_linear_2087_16847)" fill-opacity="0.9" stroke="url(#paint3_linear_2087_16847)" stroke-width="0.16" stroke-linecap="round" stroke-linejoin="round"/>
<defs>
<filter id="filter0_b_2087_16847" x="5.42376" y="5.49359" width="28.8341" height="28.8348" filterUnits="userSpaceOnUse" color-interpolation-filters="sRGB">
<feFlood flood-opacity="0" result="BackgroundImageFix"/>
<feGaussianBlur in="BackgroundImageFix" stdDeviation="2.13382"/>
<feComposite in2="SourceAlpha" operator="in" result="effect1_backgroundBlur_2087_16847"/>
<feBlend mode="normal" in="SourceGraphic" in2="effect1_backgroundBlur_2087_16847" result="shape"/>
</filter>
<linearGradient id="paint0_linear_2087_16847" x1="13.6186" y1="11.5942" x2="35.8888" y2="19.2528" gradientUnits="userSpaceOnUse">
<stop stop-color="#FBA47F"/>
<stop offset="1" stop-color="#F49F50"/>
</linearGradient>
<linearGradient id="paint1_linear_2087_16847" x1="8.24144" y1="11.6066" x2="36.9263" y2="26.4174" gradientUnits="userSpaceOnUse">
<stop stop-color="white"/>
<stop offset="1" stop-color="white" stop-opacity="0"/>
</linearGradient>
<linearGradient id="paint2_linear_2087_16847" x1="23.1081" y1="12.5317" x2="37.0946" y2="13.7124" gradientUnits="userSpaceOnUse">
<stop stop-color="white"/>
<stop offset="1" stop-color="white" stop-opacity="0"/>
</linearGradient>
<linearGradient id="paint3_linear_2087_16847" x1="21.9715" y1="10.41" x2="27.9473" y2="11.8328" gradientUnits="userSpaceOnUse">
<stop stop-color="white"/>
<stop offset="1" stop-color="white" stop-opacity="0"/>
</linearGradient>
</defs>
</svg>
