<svg width="18" height="18" viewBox="0 0 18 18" fill="none" xmlns="http://www.w3.org/2000/svg">
<path d="M0.404368 4.11452C0.134789 4.2775 0 4.53603 0 4.8901C0 5.05309 0.0336973 5.25541 0.0786271 5.33972C0.196568 5.56452 4.74571 9.96511 5.00967 10.1112C5.2961 10.2686 5.66677 10.2798 5.9869 10.1337C6.13292 10.0663 6.87988 9.38061 8.13791 8.15542C9.19938 7.12131 10.0867 6.27828 10.1092 6.27828C10.1317 6.27828 11.21 7.37984 12.5017 8.72305L14.8549 11.1678L12.9903 11.1959C11.2324 11.224 11.1201 11.2296 10.9741 11.3364C10.4799 11.7074 10.5023 12.5223 11.0078 12.8595L11.2156 13L14.2764 12.9831L17.3429 12.9663L17.5563 12.7921C17.6743 12.7021 17.8203 12.5223 17.8821 12.3986C17.9944 12.1851 18 12.1008 18 9.31317C18 6.52557 17.9944 6.44127 17.8821 6.25018C17.5451 5.67131 16.6633 5.63196 16.3039 6.17712C16.214 6.312 16.1972 6.51433 16.1747 8.07112L16.1466 9.80775L13.4789 7.03701C10.6821 4.13138 10.6034 4.06394 10.1317 4.05832C9.68799 4.05832 9.42964 4.26626 7.43027 6.2277L5.52637 8.0936L3.53822 6.15464C2.44306 5.08681 1.47145 4.17072 1.37598 4.1089C1.14571 3.96278 0.651482 3.96278 0.404368 4.11452Z" fill="#F37D40"/>
</svg>
