<svg width="26" height="26" viewBox="0 0 26 26" fill="none" xmlns="http://www.w3.org/2000/svg">
<g clip-path="url(#clip0_2001_9494)">
<mask id="mask0_2001_9494" style="mask-type:alpha" maskUnits="userSpaceOnUse" x="0" y="0" width="26" height="26">
<path d="M26 13C26 5.82029 20.1797 0 13 0C5.8203 0 0 5.82029 0 13C0 20.1797 5.8203 26 13 26C20.1797 26 26 20.1797 26 13Z" fill="black"/>
</mask>
<g mask="url(#mask0_2001_9494)">
<path d="M26 13C26 5.82029 20.1797 0 13 0C5.8203 0 0 5.82029 0 13C0 20.1797 5.8203 26 13 26C20.1797 26 26 20.1797 26 13Z" fill="white"/>
<path fill-rule="evenodd" clip-rule="evenodd" d="M13.3896 0C13.455 5.27003 13.8148 8.23203 15.7914 10.2086C17.768 12.1852 20.73 12.545 26 12.6104V13.3896C20.73 13.455 17.7679 13.8148 15.7914 15.7914C13.8148 17.768 13.455 20.73 13.3896 26H12.6104C12.545 20.73 12.1852 17.768 10.2086 15.7914C8.23203 13.8148 5.27003 13.455 0 13.3896V12.6104C5.27003 12.5449 8.23203 12.1852 10.2086 10.2086C12.1852 8.23203 12.545 5.27 12.6104 0H13.3896Z" fill="#D9D9D9"/>
</g>
</g>
<defs>
<clipPath id="clip0_2001_9494">
<rect width="26" height="26" fill="white" transform="matrix(-1 0 0 1 26 0)"/>
</clipPath>
</defs>
</svg>
