<svg width="56" height="56" viewBox="0 0 56 56" fill="none" xmlns="http://www.w3.org/2000/svg">
<circle cx="28" cy="28" r="28" fill="#F6F6F6"/>
<path d="M35.8228 19.947C35.327 19.4929 33.3191 18.0332 28.8475 18.0141C28.8475 18.0141 23.5711 17.6983 21.0008 20.057C19.5711 21.4867 19.0704 23.5804 19.0129 26.1774C18.9554 28.7744 18.8912 33.6417 23.5828 34.9648H23.5869L23.5828 36.9802C23.5828 36.9802 23.5519 37.7967 24.0885 37.9608C24.7367 38.1641 25.12 37.5426 25.7407 36.8744C26.0806 36.507 26.5488 35.9687 26.9046 35.558C27.4045 35.6071 27.9844 35.6346 28.5717 35.6346C30.0939 35.6346 31.5728 35.4472 32.9858 35.0939L32.8609 35.1206C33.5091 34.9098 37.1766 34.4407 37.7699 29.5742C38.3897 24.5502 37.4749 21.3809 35.8228 19.947ZM36.366 29.2076C35.8602 33.2693 32.8892 33.5276 32.3426 33.7025C31.1496 34.0058 29.7798 34.1791 28.3693 34.1791C27.9644 34.1791 27.5628 34.1649 27.1654 34.1366L27.2187 34.1399C27.2187 34.1399 25.1874 36.5886 24.5551 37.2251C24.3484 37.4318 24.121 37.4151 24.1252 37.0027C24.1252 36.7336 24.141 33.655 24.141 33.655C20.1693 32.5536 20.3993 28.4078 20.4459 26.2424C20.4926 24.077 20.8992 22.2974 22.1097 21.1026C24.286 19.1305 28.7659 19.423 28.7659 19.423C32.5509 19.4388 34.3631 20.5794 34.7846 20.9618C36.1794 22.1574 36.89 25.0176 36.366 29.2076ZM30.9413 26.0516V26.0633C30.9413 26.2032 30.8279 26.3165 30.688 26.3165C30.5522 26.3165 30.4414 26.2099 30.4355 26.0758C30.4389 26.0408 30.4414 25.9983 30.4414 25.9575C30.4414 25.2901 29.9006 24.7494 29.2333 24.7494C29.2083 24.7494 29.1833 24.7502 29.1591 24.7519H29.1625C29.0283 24.7444 28.9225 24.6344 28.9225 24.4994C28.9225 24.3594 29.0358 24.2461 29.1758 24.2461H29.19C29.2066 24.2453 29.2266 24.2453 29.2466 24.2453C30.1847 24.2453 30.9446 25.0051 30.9446 25.9433C30.9446 25.9816 30.9429 26.0199 30.9404 26.0574V26.0524L30.9413 26.0516ZM31.7336 26.494C31.7728 24.8377 30.738 23.5413 28.7734 23.3963C28.6409 23.3871 28.5376 23.2772 28.5376 23.1439C28.5376 23.0039 28.6509 22.8906 28.7909 22.8906C28.7967 22.8906 28.8034 22.8906 28.8092 22.8914H28.8225C30.7113 22.8914 32.2435 24.4228 32.2435 26.3124C32.2435 26.3799 32.2418 26.4474 32.2377 26.514L32.2385 26.5048C32.2352 26.6423 32.1235 26.7515 31.986 26.7515C31.8461 26.7515 31.7328 26.6381 31.7328 26.4982C31.7328 26.4957 31.7328 26.494 31.7328 26.4915L31.7336 26.494ZM33.5666 27.0181V27.0197C33.5666 27.1597 33.4532 27.273 33.3133 27.273C33.1733 27.273 33.0617 27.1605 33.0608 27.0222C33.0408 23.8379 30.9171 22.1041 28.3435 22.0857C28.2035 22.0857 28.091 21.9724 28.091 21.8333C28.091 21.6942 28.2043 21.5809 28.3435 21.5809C31.2254 21.6008 33.5416 23.5896 33.5649 27.0172L33.5666 27.0181ZM33.1291 30.8489V30.8564C32.7076 31.5988 31.9186 32.4186 31.1062 32.157L31.0987 32.1454C29.5724 31.5755 28.2526 30.8306 27.0737 29.9133L27.1079 29.9383C26.4888 29.4451 25.9448 28.901 25.4674 28.3028L25.4516 28.282C25.0275 27.7504 24.6301 27.1555 24.2835 26.5273L24.2501 26.4615C23.8694 25.84 23.5253 25.1218 23.2562 24.3678L23.2312 24.2861C22.9696 23.4738 23.7852 22.6848 24.5317 22.2632H24.5392C24.6476 22.1941 24.7792 22.1524 24.9208 22.1524C25.1433 22.1524 25.3416 22.2549 25.4724 22.414L25.4732 22.4157C25.4732 22.4157 25.9573 22.9931 26.1647 23.2788C26.3597 23.5446 26.6221 23.9704 26.758 24.2078C26.8363 24.3303 26.8821 24.4803 26.8821 24.6411C26.8821 24.881 26.7788 25.0968 26.6138 25.2459L26.613 25.2468L26.1447 25.6217C26.0156 25.7467 25.9356 25.9216 25.9356 26.1149C25.9356 26.1341 25.9365 26.1524 25.9381 26.1707V26.1682C26.4205 27.7538 27.6444 28.9777 29.1958 29.4517L29.2308 29.4609C29.2466 29.4626 29.2658 29.4634 29.2841 29.4634C29.4774 29.4634 29.6524 29.3834 29.7773 29.2551L30.1523 28.7869C30.3022 28.6211 30.518 28.5178 30.758 28.5178C30.9188 28.5178 31.0679 28.5644 31.1945 28.6444L31.1912 28.6427C31.8686 29.0285 32.4543 29.4526 32.9883 29.9333L32.9792 29.925C33.1391 30.0533 33.24 30.2491 33.24 30.4682C33.24 30.609 33.1983 30.7398 33.1258 30.8498L33.1275 30.8473L33.1291 30.8489Z" fill="#AA76FF"/>
</svg>
