<svg width="22" height="26" viewBox="0 0 22 26" fill="none" xmlns="http://www.w3.org/2000/svg">
<g clip-path="url(#clip0_147_9319)">
<path d="M9.68775 1.07026C7.6815 1.39839 6.02213 2.2562 4.62057 3.69995C1.72838 6.69057 1.32057 11.2843 3.64088 14.7671C4.269 15.714 4.93932 16.3984 5.92838 17.1109C6.39713 17.4484 7.58307 18.0531 8.08932 18.2124L8.4315 18.3203L8.75494 18.9671C8.93307 19.3234 9.069 19.6328 9.05494 19.6562C9.03619 19.6843 8.89557 19.7031 8.73619 19.7031C8.02838 19.7031 6.1065 19.914 5.04713 20.1062C2.89088 20.4999 1.65338 21.0578 1.31588 21.789C1.1565 22.1218 1.16119 22.5531 1.32525 22.8812C1.82213 23.8749 3.87057 24.5265 7.62525 24.8874C8.68463 24.9859 12.1065 25.0281 13.3299 24.9578C16.9065 24.7421 19.4003 24.1609 20.3284 23.3265C20.9612 22.7593 20.9659 21.9015 20.3378 21.339C19.494 20.5796 17.4081 20.0359 14.3518 19.7734C13.9159 19.7359 13.4237 19.7031 13.2643 19.7031C13.1049 19.7031 12.9643 19.6843 12.9456 19.6562C12.9315 19.6328 13.0674 19.3234 13.2456 18.9671L13.569 18.3203L13.9112 18.2124C14.1034 18.1515 14.5768 17.9453 14.9612 17.7531C16.3721 17.0593 17.4878 16.0749 18.3596 14.7671C20.2815 11.8796 20.3612 8.18589 18.5659 5.22807C17.5065 3.48432 15.7628 2.08745 13.8456 1.44526C12.8612 1.11714 12.3737 1.03745 11.1643 1.0187C10.4049 1.00932 9.969 1.02339 9.68775 1.07026ZM11.6424 2.47182C12.7815 2.54214 14.0331 2.98276 15.1018 3.69057C17.7456 5.45307 18.969 8.7062 18.144 11.7671C17.4971 14.1718 15.6596 16.0937 13.2409 16.8906C12.894 17.0078 12.6174 17.1249 12.5471 17.1953C12.4815 17.2562 12.1159 17.9406 11.7268 18.7187C11.3424 19.4921 11.0143 20.1249 11.0003 20.1249C10.9862 20.1249 10.6581 19.4921 10.2737 18.7187C9.88463 17.9406 9.519 17.2562 9.45338 17.1953C9.37838 17.1249 9.12525 17.0124 8.82057 16.914C7.61119 16.5203 6.68307 15.9531 5.79244 15.0671C4.92057 14.1953 4.34869 13.2812 3.97838 12.1749C3.46744 10.6562 3.47682 8.95932 3.99713 7.45464C4.37682 6.36245 4.94869 5.45776 5.79713 4.60932C6.81432 3.58745 8.00963 2.92651 9.42057 2.60776C9.894 2.50464 10.8221 2.4062 11.094 2.43432C11.1596 2.4437 11.4081 2.45776 11.6424 2.47182ZM10.1331 21.714C10.4893 22.4171 10.5971 22.5156 11.0003 22.5156C11.4034 22.5156 11.5112 22.4171 11.8674 21.714L12.1768 21.1093H12.3971C13.6534 21.1093 16.2315 21.4093 17.469 21.6999C18.2518 21.8828 19.2034 22.2296 19.2034 22.3281C19.2034 22.3749 18.6362 22.6281 18.2659 22.7453C17.1831 23.0921 15.369 23.3687 13.344 23.4999C12.3503 23.5656 9.65494 23.5656 8.6565 23.4999C6.12057 23.3359 4.01119 22.9515 3.02213 22.464C2.89557 22.4031 2.79713 22.3421 2.79713 22.3234C2.79713 22.2812 3.37838 22.0281 3.73463 21.9109C4.91588 21.5406 6.48619 21.3015 8.89088 21.1421C9.00807 21.1328 9.26588 21.1234 9.46275 21.1187L9.82369 21.1093L10.1331 21.714Z" fill="white" stroke="white" stroke-width="0.5"/>
<path d="M10.3902 7.07487C9.41519 7.28112 8.59957 8.03581 8.29957 9.00143C8.19176 9.34831 8.17769 9.44206 8.19644 9.93893C8.21988 10.5483 8.29957 10.8436 8.57144 11.3077C8.89957 11.8608 9.53707 12.353 10.1886 12.5592C10.5402 12.6671 11.2011 12.6952 11.5949 12.6108C12.6308 12.3905 13.4699 11.5842 13.7464 10.5483C13.8543 10.1358 13.8308 9.40924 13.6949 8.97799C13.2589 7.59518 11.8199 6.76549 10.3902 7.07487ZM11.4214 8.53268C11.7355 8.63581 12.1058 8.96393 12.2464 9.27331C12.3308 9.44674 12.3589 9.59206 12.3589 9.83581C12.3589 10.2624 12.223 10.5577 11.8902 10.8577C11.0136 11.6452 9.64019 11.0264 9.64019 9.83581C9.64019 9.40924 9.77613 9.11393 10.0996 8.82331C10.4839 8.47643 10.9386 8.37799 11.4214 8.53268Z" fill="white" stroke="white" stroke-width="0.5"/>
</g>
<defs>
<clipPath id="clip0_147_9319">
<rect width="22" height="26" fill="white"/>
</clipPath>
</defs>
</svg>
