<svg width="267" height="60" viewBox="0 0 267 60" fill="none" xmlns="http://www.w3.org/2000/svg">
<path d="M151.134 44.2958H128.672V16.7686H150.717V17.7911H130.757V28.8213H149.704V29.8439H130.757V43.2732H151.134V44.2958Z" fill="#EFCDAD"/>
<path d="M165.394 44.6887C157.827 44.6887 153.478 42.4475 153.14 36.8236L155.146 36.0177C155.186 41.779 158.761 43.8236 165.394 43.8236C171.312 43.8236 174.55 42.2113 174.55 39.2028C174.55 36.3126 170.836 35.5653 166.764 34.9164L162.693 34.2679C158.642 33.619 154.014 32.5964 154.014 28.9785C154.014 25.3215 157.887 23.2568 164.639 23.2568C171.71 23.2568 175.741 25.7343 175.9 30.63L173.914 31.3577C173.954 26.3241 170.657 24.1219 164.639 24.1219C158.86 24.1219 155.742 25.636 155.742 28.5066C155.742 31.0824 159.039 31.8296 163.11 32.4785L167.181 33.1275C171.253 33.776 176.377 34.7985 176.377 38.79C176.377 42.6832 172.504 44.6887 165.394 44.6887Z" fill="#EFCDAD"/>
<path d="M189.008 44.6493C184.738 44.6493 182.573 42.7617 182.573 39.2421V24.6723H177.489V23.6497H182.573V18.8914L184.559 17.7314V23.6497H196.257V24.6723H184.559V38.888C184.559 41.9553 186.208 43.5089 189.465 43.5089C191.689 43.5089 193.874 42.7025 195.721 41.1493L195.78 42.0144C194.092 43.7642 191.729 44.6493 189.008 44.6493Z" fill="#EFCDAD"/>
<path d="M205.472 44.6887C200.726 44.6887 198.064 43.096 198.064 39.97V39.8913C198.064 36.1947 201.758 34.7985 209.742 33.619L217.726 32.439V30.3351C217.726 25.9113 215.045 24.1219 209.464 24.1219C203.288 24.1219 200.07 26.4619 200.388 31.4168L198.402 30.65C198.164 25.8326 202.136 23.2568 209.464 23.2568C216.376 23.2568 219.712 25.5573 219.712 30.296V41.8773C219.712 43.7253 220.864 43.8432 222.91 43.0177L222.791 43.8236C222.135 44.4134 221.4 44.6887 220.447 44.6887C217.746 44.6887 217.19 43.0568 218.084 38.7113L217.667 38.5739C215.82 42.3687 210.854 44.6887 205.472 44.6887ZM206.366 43.6466C212.066 43.6466 217.726 40.3236 217.726 35.1917V33.3632L210.239 34.4645C202.752 35.5653 200.189 36.9024 200.189 39.6747V39.7534C200.189 42.29 202.334 43.6466 206.366 43.6466Z" fill="#EFCDAD"/>
<path d="M233.337 44.6493C229.066 44.6493 226.902 42.7617 226.902 39.2421V24.6723H221.818V23.6497H226.902V18.8914L228.888 17.7314V23.6497H240.585V24.6723H228.888V38.888C228.888 41.9553 230.536 43.5089 233.794 43.5089C236.018 43.5089 238.203 42.7025 240.049 41.1493L240.109 42.0144C238.421 43.7642 236.057 44.6493 233.337 44.6493Z" fill="#EFCDAD"/>
<path d="M265.947 37.453L267 37.7479C265.669 42.29 261.399 44.6887 254.845 44.6887C246.663 44.6887 241.797 40.9134 241.797 34.0122V33.9334C241.797 27.4645 246.881 23.2568 254.607 23.2568C261.797 23.2568 266.603 27.2679 266.603 32.616C266.603 33.0092 266.583 33.4224 266.523 33.8156H243.863V33.9926C243.863 40.3041 247.954 43.6466 255.064 43.6466C260.943 43.6466 264.736 41.6215 265.947 37.453ZM254.687 24.1219C248.252 24.1219 244.359 27.2679 243.902 32.793H264.537V32.7143C264.537 27.3466 260.923 24.1219 254.687 24.1219Z" fill="#EFCDAD"/>
<path d="M112.805 46.7115C101.742 54.7264 82.9467 60 61.6215 60C27.5889 60 0 46.5685 0 30C0 13.4315 27.5889 0 61.6215 0C81.8558 0 99.8125 4.74809 111.047 12.0804H110.016C99.2246 5.21915 82.3793 0.805534 63.4516 0.805534C30.8795 0.805534 4.47436 13.8762 4.47436 30C4.47436 46.1238 30.8795 59.1945 63.4516 59.1945C83.468 59.1945 101.156 54.2587 111.818 46.7115H112.805Z" fill="#EFCDAD"/>
<path d="M117.955 42.1773C121.354 38.456 123.243 34.3356 123.243 30.0003C123.243 25.6649 121.354 21.5445 117.955 17.8232V18.8262C120.838 22.2684 122.429 26.0424 122.429 30.0003C122.429 33.9581 120.838 37.7322 117.955 41.1743V42.1773Z" fill="#EFCDAD"/>
<path d="M41.9295 44.2857C33.6277 44.2857 28.7815 40.9036 27.8282 34.6313L29.9536 33.6678C30.4896 40.2351 34.2832 43.381 41.9295 43.381C48.6024 43.381 52.2369 41.2381 52.2369 37.3449C52.2369 34.061 50.2309 32.7832 44.0545 31.3674L37.9572 29.9713C31.8203 28.5755 29.5565 26.8253 29.5565 23.3453C29.5565 18.6066 33.5881 15.9717 40.8967 15.9717C48.6621 15.9717 52.9521 19.5308 53.4288 25.9406L51.3631 26.8649C51.1447 20.0027 47.8279 16.8764 40.8967 16.8764C34.5612 16.8764 31.2844 18.9998 31.2844 22.893C31.2844 25.3313 32.4362 26.727 38.5731 28.1232L44.67 29.5193C50.8469 30.9351 54.0245 32.567 54.0245 36.7551C54.0245 41.5917 49.5755 44.2857 41.9295 44.2857Z" fill="#EFCDAD"/>
<path d="M70.0321 44.2864C62.9221 44.2864 57.4205 41.2583 57.4205 33.8064V33.3345C57.4205 26.0005 62.9221 22.8545 70.0321 22.8545C77.1223 22.8545 82.6234 26.0005 82.6234 33.3345V33.8064C82.6234 41.2583 77.1223 44.2864 70.0321 44.2864ZM70.0321 43.4213C76.1887 43.4213 80.538 40.7668 80.538 33.8064V33.3345C80.538 26.3741 76.1887 23.7196 70.0321 23.7196C63.8552 23.7196 59.5059 26.3741 59.5059 33.3345V33.8064C59.5059 40.7668 63.8552 43.4213 70.0321 43.4213Z" fill="#EFCDAD"/>
<path d="M106.893 23.2471H108.879V43.8926H106.674C106.674 42.2015 106.913 40.196 107.429 37.5807L107.012 37.4628C105.542 41.9262 101.69 44.2858 96.1883 44.2858C89.8924 44.2858 86.5162 41.3951 86.5162 36.1654V23.2471H88.502V35.9683C88.502 40.9432 91.1832 43.1845 96.625 43.1845C103.119 43.1845 106.893 39.4879 106.893 33.1173V23.2471Z" fill="#EFCDAD"/>
<path d="M115.652 43.8925H113.665V16.3652H115.652V43.8925Z" fill="#EFCDAD"/>
</svg>
