<svg width="300" height="68" viewBox="0 0 300 68" fill="none" xmlns="http://www.w3.org/2000/svg">
<path d="M169.813 50.1783H144.575V18.9951H169.345V20.1535H146.918V32.6486H168.207V33.807H146.918V49.0199H169.813V50.1783Z" fill="white"/>
<path d="M185.836 50.6236C177.334 50.6236 172.447 48.0846 172.067 41.7139L174.321 40.8009C174.366 47.3273 178.383 49.6436 185.836 49.6436C192.486 49.6436 196.123 47.8171 196.123 44.409C196.123 41.1349 191.95 40.2885 187.375 39.5533L182.801 38.8187C178.249 38.0836 173.049 36.9252 173.049 32.8268C173.049 28.6841 177.401 26.3452 184.988 26.3452C192.932 26.3452 197.462 29.1517 197.641 34.6977L195.409 35.522C195.453 29.8198 191.749 27.3252 184.988 27.3252C178.494 27.3252 174.99 29.0403 174.99 32.2922C174.99 35.2101 178.695 36.0566 183.269 36.7917L187.844 37.5268C192.419 38.2614 198.176 39.4198 198.176 43.9414C198.176 48.3517 193.825 50.6236 185.836 50.6236Z" fill="white"/>
<path d="M212.368 50.5793C207.571 50.5793 205.138 48.441 205.138 44.4539V27.9491H199.426V26.7908H205.138V21.4005L207.37 20.0864V26.7908H220.514V27.9491H207.37V44.0529C207.37 47.5275 209.222 49.2874 212.882 49.2874C215.381 49.2874 217.836 48.374 219.911 46.6145L219.978 47.5945C218.081 49.5767 215.426 50.5793 212.368 50.5793Z" fill="white"/>
<path d="M230.868 50.6236C225.535 50.6236 222.544 48.8193 222.544 45.2781V45.1889C222.544 41.0014 226.695 39.4198 235.666 38.0836L244.636 36.7468V34.3636C244.636 29.3522 241.624 27.3252 235.353 27.3252C228.413 27.3252 224.798 29.976 225.155 35.589L222.923 34.7203C222.656 29.2631 227.119 26.3452 235.353 26.3452C243.119 26.3452 246.868 28.9512 246.868 34.3192V47.4387C246.868 49.5322 248.162 49.6657 250.46 48.7306L250.327 49.6436C249.59 50.3117 248.764 50.6236 247.693 50.6236C244.658 50.6236 244.034 48.7749 245.038 43.8522L244.569 43.6965C242.494 47.9954 236.915 50.6236 230.868 50.6236ZM231.872 49.443C238.276 49.443 244.636 45.6787 244.636 39.8652V37.7939L236.223 39.0414C227.811 40.2884 224.932 41.803 224.932 44.9436V45.0328C224.932 47.9062 227.342 49.443 231.872 49.443Z" fill="white"/>
<path d="M262.176 50.5793C257.378 50.5793 254.946 48.441 254.946 44.4539V27.9491H249.233V26.7908H254.946V21.4005L257.177 20.0864V26.7908H270.321V27.9491H257.177V44.0529C257.177 47.5275 259.03 49.2874 262.689 49.2874C265.189 49.2874 267.643 48.374 269.718 46.6145L269.785 47.5945C267.889 49.5767 265.233 50.5793 262.176 50.5793Z" fill="white"/>
<path d="M298.817 42.4268L300 42.7609C298.505 47.9063 293.707 50.6236 286.343 50.6236C277.149 50.6236 271.682 46.3468 271.682 38.529V38.4398C271.682 31.1117 277.395 26.3452 286.075 26.3452C294.154 26.3452 299.554 30.889 299.554 36.9474C299.554 37.3928 299.532 37.8609 299.464 38.3063H274.003V38.5068C274.003 45.6565 278.6 49.443 286.588 49.443C293.194 49.443 297.456 47.149 298.817 42.4268ZM286.165 27.3252C278.934 27.3252 274.561 30.889 274.047 37.1479H297.233V37.0587C297.233 30.9782 293.172 27.3252 286.165 27.3252Z" fill="white"/>
<path d="M126.747 52.9154C114.317 61.9947 93.1985 67.9688 69.2376 67.9688C30.9987 67.9688 0 52.7534 0 33.9844C0 15.2154 30.9987 0 69.2376 0C91.9728 0 112.149 5.37869 124.772 13.6849H123.613C111.488 5.91232 92.561 0.912519 71.294 0.912519C34.6961 0.912519 5.02737 15.7191 5.02737 33.9844C5.02737 52.2496 34.6961 67.0562 71.294 67.0562C93.7843 67.0562 113.658 61.465 125.638 52.9154H126.747Z" fill="white"/>
<path d="M132.534 47.7785C136.353 43.563 138.475 38.8953 138.475 33.9842C138.475 29.0731 136.353 24.4054 132.534 20.1899V21.3261C135.773 25.2254 137.561 29.5007 137.561 33.9842C137.561 38.4678 135.773 42.743 132.534 46.6423V47.7785Z" fill="white"/>
<path d="M47.1119 50.1678C37.784 50.1678 32.3389 46.3365 31.2677 39.2311L33.6558 38.1397C34.258 45.5791 38.5204 49.1429 47.1119 49.1429C54.6095 49.1429 58.6932 46.7153 58.6932 42.3051C58.6932 38.5851 56.4393 37.1375 49.4995 35.5338L42.6486 33.9522C35.7532 32.371 33.2096 30.3884 33.2096 26.4462C33.2096 21.0781 37.7395 18.0933 45.9514 18.0933C54.6766 18.0933 59.4968 22.1251 60.0324 29.3862L57.7114 30.4332C57.466 22.6597 53.7392 19.1181 45.9514 19.1181C38.8329 19.1181 35.151 21.5235 35.151 25.9338C35.151 28.6959 36.4453 30.277 43.3406 31.8586L50.1911 33.4402C57.1314 35.044 60.7017 36.8926 60.7017 41.637C60.7017 47.1159 55.7028 50.1678 47.1119 50.1678Z" fill="white"/>
<path d="M78.6877 50.1675C70.6989 50.1675 64.5173 46.7372 64.5173 38.2956V37.761C64.5173 29.4529 70.6989 25.8892 78.6877 25.8892C86.6542 25.8892 92.8353 29.4529 92.8353 37.761V38.2956C92.8353 46.7372 86.6542 50.1675 78.6877 50.1675ZM78.6877 49.1875C85.6052 49.1875 90.4921 46.1805 90.4921 38.2956V37.761C90.4921 29.8762 85.6052 26.8692 78.6877 26.8692C71.7474 26.8692 66.8605 29.8762 66.8605 37.761V38.2956C66.8605 46.1805 71.7474 49.1875 78.6877 49.1875Z" fill="white"/>
<path d="M120.104 26.335H122.336V49.7225H119.859C119.859 47.8068 120.126 45.5349 120.707 42.5723L120.238 42.4387C118.587 47.4949 114.258 50.1679 108.077 50.1679C101.003 50.1679 97.2092 46.8933 97.2092 40.969V26.335H99.4404V40.7458C99.4404 46.3814 102.453 48.9204 108.567 48.9204C115.865 48.9204 120.104 44.7328 120.104 37.5161V26.335Z" fill="white"/>
<path d="M129.946 49.7223H127.714V18.5391H129.946V49.7223Z" fill="white"/>
</svg>
