<svg width="743" height="169" viewBox="0 0 743 169" fill="none" xmlns="http://www.w3.org/2000/svg">
<path d="M420.571 124.275H358.065V47.0447H419.411V49.9135H363.868V80.8599H416.592V83.7288H363.868V121.406H420.571V124.275Z" fill="#F37D40"/>
<path d="M460.253 125.378C439.197 125.378 427.093 119.09 426.153 103.312L431.735 101.051C431.847 117.214 441.794 122.951 460.253 122.951C476.723 122.951 485.732 118.427 485.732 109.987C485.732 101.878 475.397 99.7815 464.066 97.9609L452.737 96.1414C441.463 94.3208 428.585 91.4519 428.585 81.3016C428.585 71.0414 439.363 65.2488 458.153 65.2488C477.828 65.2488 489.048 72.1995 489.49 85.935L483.963 87.9765C484.073 73.8542 474.899 67.6759 458.153 67.6759C442.071 67.6759 433.393 71.9237 433.393 79.9776C433.393 87.2041 442.568 89.3005 453.897 91.1212L465.228 92.9418C476.557 94.7613 490.817 97.6302 490.817 108.829C490.817 119.751 480.039 125.378 460.253 125.378Z" fill="#F37D40"/>
<path d="M525.965 125.268C514.084 125.268 508.059 119.972 508.059 110.098V69.2206H493.911V66.3517H508.059V53.0018L513.586 49.7473V66.3517H546.138V69.2206H513.586V109.104C513.586 117.71 518.173 122.068 527.237 122.068C533.427 122.068 539.506 119.806 544.646 115.448L544.812 117.876C540.114 122.785 533.538 125.268 525.965 125.268Z" fill="#F37D40"/>
<path d="M571.782 125.378C558.574 125.378 551.168 120.909 551.168 112.139V111.918C551.168 101.547 561.447 97.6302 583.665 94.3208L605.882 91.0102V85.1076C605.882 72.6961 598.421 67.6759 582.892 67.6759C565.703 67.6759 556.75 74.241 557.634 88.1425L552.107 85.9911C551.444 72.4753 562.497 65.2488 582.892 65.2488C602.124 65.2488 611.409 71.7028 611.409 84.9978V117.49C611.409 122.675 614.615 123.006 620.307 120.69L619.976 122.951C618.152 124.606 616.106 125.378 613.454 125.378C605.937 125.378 604.39 120.8 606.878 108.608L605.716 108.222C600.577 118.869 586.76 125.378 571.782 125.378ZM574.27 122.454C590.131 122.454 605.882 113.131 605.882 98.7333V93.6032L585.047 96.693C564.211 99.7815 557.081 103.533 557.081 111.311V111.532C557.081 118.648 563.05 122.454 574.27 122.454Z" fill="#F37D40"/>
<path d="M649.322 125.268C637.44 125.268 631.416 119.972 631.416 110.098V69.2206H617.268V66.3517H631.416V53.0018L636.942 49.7473V66.3517H669.494V69.2206H636.942V109.104C636.942 117.71 641.53 122.068 650.594 122.068C656.784 122.068 662.863 119.806 668.003 115.448L668.168 117.876C663.471 122.785 656.894 125.268 649.322 125.268Z" fill="#F37D40"/>
<path d="M740.071 105.078L743 105.905C739.297 118.648 727.415 125.378 709.176 125.378C686.406 125.378 672.866 114.786 672.866 95.4239V95.203C672.866 77.0538 687.014 65.2488 708.513 65.2488C728.52 65.2488 741.895 76.5022 741.895 91.5068C741.895 92.6099 741.84 93.7692 741.673 94.8723H678.614V95.369C678.614 113.076 689.998 122.454 709.784 122.454C726.144 122.454 736.699 116.773 740.071 105.078ZM708.735 67.6759C690.827 67.6759 679.996 76.5022 678.724 92.0034H736.146V91.7826C736.146 76.7231 726.089 67.6759 708.735 67.6759Z" fill="#F37D40"/>
<path d="M313.909 131.054C283.125 153.54 230.822 168.336 171.478 168.336C76.7735 168.336 0 130.653 0 84.168C0 37.6834 76.7735 0 171.478 0C227.786 0 277.756 13.3212 309.018 33.8928H306.149C276.119 14.6428 229.243 2.26001 176.571 2.26001C85.9306 2.26001 12.4511 38.931 12.4511 84.168C12.4511 129.405 85.9306 166.076 176.571 166.076C232.272 166.076 281.493 152.228 311.163 131.054H313.909Z" fill="#F37D40"/>
<path d="M328.243 118.332C337.7 107.891 342.957 96.3309 342.957 84.1677C342.957 72.0046 337.7 60.4443 328.243 50.0039V52.8179C336.265 62.4751 340.693 73.0635 340.693 84.1677C340.693 95.2719 336.265 105.86 328.243 115.518V118.332Z" fill="#F37D40"/>
<path d="M116.68 124.248C93.5782 124.248 80.0925 114.76 77.4396 97.1618L83.3542 94.4589C84.8457 112.884 95.4023 121.71 116.68 121.71C135.249 121.71 145.363 115.698 145.363 104.775C145.363 95.5621 139.781 91.9768 122.594 88.0048L105.626 84.0877C88.5488 80.1718 82.2491 75.2614 82.2491 65.498C82.2491 52.203 93.4682 44.8105 113.806 44.8105C135.416 44.8105 147.354 54.7961 148.68 72.7794L142.932 75.3725C142.324 56.1201 133.094 47.3487 113.806 47.3487C96.1761 47.3487 87.0573 53.3061 87.0573 64.2289C87.0573 71.0698 90.2627 74.9857 107.34 78.9028L124.307 82.8198C141.495 86.7919 150.338 91.3704 150.338 103.12C150.338 116.69 137.957 124.248 116.68 124.248Z" fill="#F37D40"/>
<path d="M194.883 124.249C175.098 124.249 159.788 115.753 159.788 94.8461V93.5221C159.788 72.9457 175.098 64.1194 194.883 64.1194C214.614 64.1194 229.922 72.9457 229.922 93.5221V94.8461C229.922 115.753 214.614 124.249 194.883 124.249ZM194.883 121.822C212.016 121.822 224.119 114.374 224.119 94.8461V93.5221C224.119 73.9939 212.016 66.5465 194.883 66.5465C177.694 66.5465 165.591 73.9939 165.591 93.5221V94.8461C165.591 114.374 177.694 121.822 194.883 121.822Z" fill="#F37D40"/>
<path d="M297.458 65.2227H302.985V123.146H296.851C296.851 118.401 297.513 112.775 298.951 105.437L297.79 105.106C293.7 117.629 282.979 124.249 267.67 124.249C250.15 124.249 240.755 116.139 240.755 101.466V65.2227H246.281V100.913C246.281 114.871 253.742 121.159 268.885 121.159C286.958 121.159 297.458 110.788 297.458 92.9145V65.2227Z" fill="#F37D40"/>
<path d="M321.832 123.146H316.305V45.9153H321.832V123.146Z" fill="#F37D40"/>
</svg>
