<svg width="328" height="593" viewBox="0 0 328 593" fill="none" xmlns="http://www.w3.org/2000/svg">
<g clip-path="url(#clip0_2061_14317)">
<rect width="328" height="593" rx="24" fill="#F6F6F6"/>
<path fill-rule="evenodd" clip-rule="evenodd" d="M306.411 183.343L857.359 405.636L794.457 514.085L734.103 489.734L690.311 547.592L926.274 690.263L849.371 791.945L734.273 739.722L1015.67 906.021L937.876 1007.37L586.745 838.744L606.193 852.162L526.506 951.873L429.098 909.089L386.725 989.723L-217.568 898.209L-191.762 779.675L113.687 825.932L-182.091 639.75L-104.931 538.373L-23.2158 574.264L-163.581 477.423L-96.2664 396.54L-344.931 249.585L-268.663 147.523L145.126 335.268L203.227 254.243L241.166 269.557L306.411 183.343Z" fill="#F37D40" stroke="white" stroke-width="6"/>
</g>
<defs>
<clipPath id="clip0_2061_14317">
<rect width="328" height="593" rx="24" fill="white"/>
</clipPath>
</defs>
</svg>
