<svg width="622" height="420" viewBox="0 0 622 420" fill="none" xmlns="http://www.w3.org/2000/svg">
<g clip-path="url(#clip0_762_8390)">
<path d="M472.465 75.5073C474.43 69.9279 475.412 67.1381 477.222 65.1531C478.689 63.5446 480.53 62.3228 482.581 61.5961C485.113 60.6993 488.066 60.8775 493.97 61.2339L525.888 63.1607C528.209 63.3008 529.369 63.3708 530.483 63.6348C531.391 63.8502 532.274 64.1612 533.117 64.5625C534.15 65.0543 535.098 65.7268 536.995 67.0718L563.077 85.57C567.902 88.992 570.314 90.703 571.726 92.9886C572.869 94.8406 573.539 96.9463 573.674 99.1188C573.84 101.8 572.858 104.59 570.893 110.169L556.147 152.044C553.603 159.268 552.331 162.88 549.916 165.108C547.967 166.906 545.523 168.078 542.9 168.47C539.65 168.955 536.038 167.683 528.814 165.139L470.814 144.715C463.59 142.171 459.979 140.899 457.75 138.484C455.952 136.535 454.78 134.091 454.389 131.468C453.903 128.218 455.175 124.606 457.719 117.382L472.465 75.5073Z" fill="url(#paint0_linear_762_8390)"/>
<g filter="url(#filter0_b_762_8390)">
<path fill-rule="evenodd" clip-rule="evenodd" d="M505.317 38.3273C499.493 36.2762 492.477 41.129 489.647 49.1663L485.67 60.459C482.203 70.3022 480.47 75.2239 480.849 79.8829C481.228 84.542 484.005 89.6125 489.557 99.7534C497.21 113.731 502.18 124.087 509.721 126.805C517.417 129.578 527.734 124.554 542.404 118.406C553.11 113.919 558.463 111.675 561.655 108.292C564.846 104.91 566.576 99.9961 570.037 90.1691L574.013 78.8764C576.844 70.8391 574.417 62.6609 568.592 60.6099L505.317 38.3273Z" fill="#F8B77B" fill-opacity="0.4"/>
<path d="M489.97 49.2801C491.364 45.3222 493.784 42.1617 496.554 40.2456C499.325 38.3292 502.421 37.6707 505.203 38.6506L568.479 60.9332C571.261 61.9131 573.261 64.3663 574.22 67.5958C575.178 70.8249 575.084 74.8045 573.69 78.7625L569.713 90.0552C567.981 94.9736 566.688 98.6445 565.431 101.51C564.175 104.371 562.963 106.405 561.405 108.057C559.85 109.706 557.755 111.091 554.694 112.629C551.631 114.167 547.629 115.844 542.272 118.089C540.839 118.69 539.45 119.279 538.101 119.851C532.53 122.212 527.656 124.278 523.345 125.623C517.989 127.295 513.576 127.83 509.837 126.482C506.173 125.162 503.097 121.971 499.966 117.31C497.441 113.553 494.907 108.883 492.01 103.543C491.315 102.263 490.599 100.943 489.858 99.5888C487.079 94.5141 485.004 90.7234 483.575 87.6191C482.146 84.5167 481.376 82.1266 481.191 79.8551C481.006 77.5802 481.335 75.2276 482.149 72.2041C482.964 69.1764 484.258 65.4993 485.993 60.5729L489.97 49.2801Z" stroke="url(#paint1_linear_762_8390)" stroke-width="0.685582"/>
</g>
<rect x="550.268" y="78.1522" width="6.90531" height="44.1742" rx="3.45265" transform="rotate(109.4 550.268 78.1522)" fill="url(#paint2_linear_762_8390)" fill-opacity="0.9" stroke="url(#paint3_linear_762_8390)" stroke-width="0.548466"/>
<rect x="542.84" y="99.2464" width="6.90531" height="44.1742" rx="3.45265" transform="rotate(109.4 542.84 99.2464)" fill="url(#paint4_linear_762_8390)" fill-opacity="0.9" stroke="url(#paint5_linear_762_8390)" stroke-width="0.548466"/>
<path fill-rule="evenodd" clip-rule="evenodd" d="M479.513 75.923C477.603 72.8078 473.295 73.1537 472.081 76.6001C471.874 77.1876 471.943 77.837 472.269 78.3681L505.306 132.267C506.228 133.771 508.079 134.423 509.74 133.828L569.25 112.527C569.839 112.317 570.302 111.852 570.509 111.262C571.722 107.817 568.583 104.849 565.145 106.08L526.473 119.922C520.507 122.057 517.524 123.125 514.692 122.9C512.4 122.718 510.195 121.941 508.294 120.647C505.946 119.048 504.29 116.347 500.979 110.944L479.513 75.923Z" fill="url(#paint6_linear_762_8390)"/>
</g>
<g clip-path="url(#clip1_762_8390)">
<path d="M50.438 341.481C47.912 337.445 46.649 335.428 46.3075 333.293C46.0308 331.563 46.1852 329.791 46.7571 328.136C47.4628 326.092 49.0559 324.323 52.242 320.786L69.4649 301.664C70.7172 300.274 71.3434 299.578 72.068 299.01C72.6592 298.547 73.2978 298.147 73.9732 297.818C74.8009 297.414 75.6998 297.155 77.4976 296.636L102.223 289.499C106.797 288.179 109.084 287.519 111.23 287.777C112.97 287.986 114.631 288.621 116.066 289.626C117.837 290.866 119.1 292.884 121.626 296.919L140.584 327.205C143.854 332.429 145.49 335.042 145.681 337.679C145.835 339.808 145.346 341.934 144.277 343.781C142.953 346.07 140.34 347.706 135.116 350.976L93.1675 377.235C87.9428 380.505 85.3305 382.14 82.6928 382.331C80.5641 382.486 78.4382 381.997 76.5909 380.928C74.3018 379.603 72.6666 376.991 69.3961 371.766L50.438 341.481Z" fill="url(#paint7_linear_762_8390)"/>
<g filter="url(#filter1_b_762_8390)">
<path fill-rule="evenodd" clip-rule="evenodd" d="M43.5168 302.154C39.3044 304.791 38.8393 311.641 42.478 317.454L47.5906 325.621C52.047 332.74 54.2752 336.3 57.3976 338.398C60.52 340.497 65.1039 341.293 74.2715 342.885C86.9074 345.08 95.9185 347.146 101.411 343.764C107.017 340.311 109.03 331.297 112.519 318.98C115.066 309.991 116.339 305.497 115.811 301.792C115.282 298.086 113.058 294.533 108.609 287.425L103.496 279.258C99.8574 273.445 93.4928 270.87 89.2803 273.507L43.5168 302.154Z" fill="#F8B77B" fill-opacity="0.4"/>
<path d="M42.7119 317.307C40.92 314.445 40.1449 311.336 40.3285 308.632C40.5121 305.927 41.6506 303.648 43.6632 302.388L89.4267 273.741C91.4393 272.481 93.9865 272.453 96.4999 273.47C99.0129 274.486 101.47 276.542 103.262 279.404L108.375 287.572C110.602 291.129 112.263 293.784 113.436 296.013C114.606 298.238 115.279 300.022 115.537 301.831C115.795 303.637 115.616 305.65 115.048 308.348C114.48 311.047 113.528 314.407 112.254 318.905C111.913 320.108 111.587 321.278 111.27 322.414C109.962 327.104 108.817 331.208 107.502 334.596C105.868 338.806 103.99 341.851 101.266 343.529C98.598 345.172 95.047 345.508 90.5424 345.141C86.9111 344.845 82.701 344.097 77.8873 343.242C76.7326 343.037 75.5432 342.826 74.3187 342.613C69.731 341.816 66.3043 341.221 63.6335 340.564C60.9644 339.906 59.0738 339.192 57.5515 338.169C56.0268 337.145 54.7111 335.758 53.2165 333.729C51.7197 331.697 50.0549 329.038 47.8245 325.475L42.7119 317.307Z" stroke="url(#paint8_linear_762_8390)" stroke-width="0.551767"/>
</g>
<rect x="91.1294" y="293.84" width="5.5575" height="35.552" rx="2.77875" transform="rotate(57.9545 91.1294 293.84)" fill="url(#paint9_linear_762_8390)" fill-opacity="0.9" stroke="url(#paint10_linear_762_8390)" stroke-width="0.441414"/>
<rect x="100.679" y="309.096" width="5.5575" height="35.552" rx="2.77875" transform="rotate(57.9545 100.679 309.096)" fill="url(#paint11_linear_762_8390)" fill-opacity="0.9" stroke="url(#paint12_linear_762_8390)" stroke-width="0.441414"/>
<path fill-rule="evenodd" clip-rule="evenodd" d="M54.234 337.254C51.316 336.893 49.373 339.778 50.9331 342.27C51.1994 342.695 51.6432 342.978 52.1414 343.04L102.634 349.283C104.043 349.457 105.381 348.619 105.84 347.276L122.286 299.135C122.448 298.659 122.388 298.135 122.121 297.708C120.561 295.217 117.118 295.704 116.168 298.486L105.482 329.769C103.833 334.595 103.009 337.008 101.447 338.677C100.182 340.028 98.5871 341.027 96.8191 341.574C94.635 342.249 92.1045 341.936 87.0433 341.311L54.234 337.254Z" fill="url(#paint13_linear_762_8390)"/>
</g>
<defs>
<filter id="filter0_b_762_8390" x="466.169" y="23.2281" width="123.656" height="118.988" filterUnits="userSpaceOnUse" color-interpolation-filters="sRGB">
<feFlood flood-opacity="0" result="BackgroundImageFix"/>
<feGaussianBlur in="BackgroundImageFix" stdDeviation="7.31455"/>
<feComposite in2="SourceAlpha" operator="in" result="effect1_backgroundBlur_762_8390"/>
<feBlend mode="normal" in="SourceGraphic" in2="effect1_backgroundBlur_762_8390" result="shape"/>
</filter>
<filter id="filter1_b_762_8390" x="28.2525" y="260.698" width="99.4497" height="96.6265" filterUnits="userSpaceOnUse" color-interpolation-filters="sRGB">
<feFlood flood-opacity="0" result="BackgroundImageFix"/>
<feGaussianBlur in="BackgroundImageFix" stdDeviation="5.88686"/>
<feComposite in2="SourceAlpha" operator="in" result="effect1_backgroundBlur_762_8390"/>
<feBlend mode="normal" in="SourceGraphic" in2="effect1_backgroundBlur_762_8390" result="shape"/>
</filter>
<linearGradient id="paint0_linear_762_8390" x1="504.138" y1="76.1905" x2="568.72" y2="129.849" gradientUnits="userSpaceOnUse">
<stop stop-color="#FBA47F"/>
<stop offset="1" stop-color="#DF6B00"/>
</linearGradient>
<linearGradient id="paint1_linear_762_8390" x1="486.269" y1="39.5219" x2="578.162" y2="144.457" gradientUnits="userSpaceOnUse">
<stop stop-color="white"/>
<stop offset="1" stop-color="white" stop-opacity="0"/>
</linearGradient>
<linearGradient id="paint2_linear_762_8390" x1="554.769" y1="129.758" x2="554.769" y2="69.7243" gradientUnits="userSpaceOnUse">
<stop stop-color="white"/>
<stop offset="1" stop-color="white" stop-opacity="0"/>
</linearGradient>
<linearGradient id="paint3_linear_762_8390" x1="535.798" y1="137.836" x2="568.02" y2="69.2779" gradientUnits="userSpaceOnUse">
<stop stop-color="white"/>
<stop offset="1" stop-color="white" stop-opacity="0"/>
</linearGradient>
<linearGradient id="paint4_linear_762_8390" x1="540.544" y1="144.182" x2="547.214" y2="90.0773" gradientUnits="userSpaceOnUse">
<stop stop-color="white"/>
<stop offset="1" stop-color="white" stop-opacity="0"/>
</linearGradient>
<linearGradient id="paint5_linear_762_8390" x1="532.746" y1="146.59" x2="558.798" y2="99.9703" gradientUnits="userSpaceOnUse">
<stop stop-color="white"/>
<stop offset="1" stop-color="white" stop-opacity="0"/>
</linearGradient>
<linearGradient id="paint6_linear_762_8390" x1="498.475" y1="92.2742" x2="536.973" y2="151.758" gradientUnits="userSpaceOnUse">
<stop stop-color="#FF8754"/>
<stop offset="1" stop-color="#FF7C03"/>
</linearGradient>
<linearGradient id="paint7_linear_762_8390" x1="66.7556" y1="321.889" x2="132.922" y2="308.158" gradientUnits="userSpaceOnUse">
<stop stop-color="#FBA47F"/>
<stop offset="1" stop-color="#DF6B00"/>
</linearGradient>
<linearGradient id="paint8_linear_762_8390" x1="34.7141" y1="314.742" x2="146.852" y2="309.543" gradientUnits="userSpaceOnUse">
<stop stop-color="white"/>
<stop offset="1" stop-color="white" stop-opacity="0"/>
</linearGradient>
<linearGradient id="paint9_linear_762_8390" x1="94.5403" y1="335.203" x2="94.5403" y2="286.888" gradientUnits="userSpaceOnUse">
<stop stop-color="white"/>
<stop offset="1" stop-color="white" stop-opacity="0"/>
</linearGradient>
<linearGradient id="paint10_linear_762_8390" x1="79.272" y1="341.705" x2="105.205" y2="286.528" gradientUnits="userSpaceOnUse">
<stop stop-color="white"/>
<stop offset="1" stop-color="white" stop-opacity="0"/>
</linearGradient>
<linearGradient id="paint11_linear_762_8390" x1="98.6196" y1="345.091" x2="103.988" y2="301.547" gradientUnits="userSpaceOnUse">
<stop stop-color="white"/>
<stop offset="1" stop-color="white" stop-opacity="0"/>
</linearGradient>
<linearGradient id="paint12_linear_762_8390" x1="92.3439" y1="347.03" x2="113.311" y2="309.509" gradientUnits="userSpaceOnUse">
<stop stop-color="white"/>
<stop offset="1" stop-color="white" stop-opacity="0"/>
</linearGradient>
<linearGradient id="paint13_linear_762_8390" x1="74.0377" y1="333.521" x2="130.786" y2="339.129" gradientUnits="userSpaceOnUse">
<stop stop-color="#FF8754"/>
<stop offset="1" stop-color="#FF7C03"/>
</linearGradient>
<clipPath id="clip0_762_8390">
<rect width="164.54" height="164.54" fill="white" transform="translate(466.653) rotate(19.3999)"/>
</clipPath>
<clipPath id="clip1_762_8390">
<rect width="132.424" height="132.424" fill="white" transform="translate(0 307.263) rotate(-32.0455)"/>
</clipPath>
</defs>
</svg>
