<svg width="337" height="290" viewBox="0 0 337 290" fill="none" xmlns="http://www.w3.org/2000/svg">
<path d="M209.632 43.1363C210.49 39.7966 210.92 38.1267 211.907 37.0254C212.738 36.0973 213.836 35.4485 215.05 35.1674C216.491 34.8339 218.161 35.2632 221.501 36.1217L246.145 42.457C247.566 42.8222 248.276 43.0048 248.905 43.3366C249.44 43.6186 249.929 43.9792 250.357 44.4062C250.861 44.9084 251.246 45.5327 252.016 46.7812L252.471 47.52C253.241 48.7685 253.626 49.3928 254.13 49.8951C254.557 50.3221 255.047 50.6826 255.582 50.9646C256.211 51.2964 256.921 51.479 258.342 51.8442L283.212 58.2375C286.551 59.096 288.221 59.5253 289.322 60.5123C290.251 61.344 290.899 62.4419 291.18 63.656C291.514 65.0967 291.085 66.7666 290.226 70.1063L275.776 126.317C275.347 127.987 275.132 128.822 274.639 129.372C274.223 129.836 273.674 130.161 273.067 130.301C272.347 130.468 271.512 130.253 269.842 129.824L200.959 112.116C197.953 111.344 196.45 110.957 195.459 110.069C194.623 109.32 194.039 108.332 193.787 107.24C193.486 105.943 193.873 104.44 194.645 101.434L209.632 43.1363Z" fill="url(#paint0_linear_763_8391)"/>
<g filter="url(#filter0_b_763_8391)">
<path d="M226.999 65.7315C228.561 63.092 229.342 61.7723 230.649 61.2317C231.955 60.6911 233.44 61.0728 236.41 61.8363L290.495 75.7397C295.172 76.9419 297.51 77.543 298.352 79.3783C299.193 81.2136 298.124 83.3779 295.984 87.7065L277.611 124.872C276.151 127.825 275.421 129.302 274.055 129.929C272.688 130.556 271.093 130.146 267.901 129.325L198.326 111.44C202.207 108.921 203.055 105.622 208.632 96.5054C212.634 89.9649 222.016 74.1477 226.999 65.7315Z" fill="#F8B77B" fill-opacity="0.6"/>
<path d="M227.242 65.8754C228.026 64.5499 228.603 63.5769 229.145 62.8657C229.682 62.1603 230.167 61.7369 230.757 61.4927C231.347 61.2486 231.989 61.2054 232.868 61.3249C233.753 61.4455 234.848 61.7265 236.34 62.1099L290.425 76.0133C292.771 76.6166 294.502 77.0621 295.753 77.5824C296.997 78.0998 297.717 78.6711 298.095 79.4961C298.473 80.321 298.437 81.239 298.017 82.5195C297.595 83.8073 296.804 85.4092 295.73 87.5813L277.358 124.746C276.625 126.23 276.086 127.319 275.562 128.118C275.042 128.911 274.554 129.389 273.937 129.672C273.32 129.955 272.639 130.013 271.699 129.89C270.751 129.766 269.574 129.463 267.972 129.052L199 111.321C200.69 110.109 201.805 108.684 203.084 106.594C203.664 105.645 204.281 104.555 205.001 103.283C205.149 103.02 205.302 102.749 205.461 102.47C206.384 100.841 207.481 98.9281 208.873 96.6529C212.876 90.1101 222.26 74.2908 227.242 65.8754Z" stroke="url(#paint1_linear_763_8391)" stroke-width="0.56504"/>
</g>
<g filter="url(#filter1_b_763_8391)">
<path fill-rule="evenodd" clip-rule="evenodd" d="M290.354 76.2869L236.27 62.3835C234.772 61.9985 233.695 61.7227 232.83 61.6048C231.979 61.489 231.392 61.5357 230.865 61.7538C230.338 61.9718 229.89 62.3535 229.369 63.0368C228.84 63.732 228.273 64.6881 227.485 66.0193C222.503 74.4339 213.118 90.2554 209.114 96.8003C207.725 99.0717 206.63 100.981 205.706 102.609C205.549 102.887 205.396 103.158 205.247 103.42C204.528 104.692 203.908 105.788 203.325 106.741C202.157 108.651 201.112 110.027 199.639 111.194L268.042 128.778C269.651 129.192 270.809 129.488 271.736 129.609C272.647 129.729 273.268 129.668 273.819 129.415C274.37 129.163 274.821 128.731 275.325 127.963C275.838 127.182 276.368 126.111 277.105 124.621L295.477 87.4561C296.555 85.2761 297.335 83.6955 297.749 82.4315C298.158 81.1821 298.174 80.3461 297.838 79.6139C297.502 78.8816 296.858 78.3482 295.644 77.8433C294.416 77.3326 292.71 76.8924 290.354 76.2869ZM267.901 129.325C271.093 130.146 272.688 130.556 274.055 129.929C275.421 129.302 276.151 127.825 277.611 124.872L295.984 87.7065C298.124 83.3779 299.193 81.2136 298.352 79.3783C297.51 77.543 295.172 76.9419 290.495 75.7397L236.41 61.8363C233.44 61.0728 231.955 60.6911 230.649 61.2317C229.342 61.7723 228.561 63.092 226.999 65.7315C222.016 74.1477 212.634 89.9649 208.632 96.5054C206.999 99.1756 205.771 101.347 204.754 103.145C202.49 107.148 201.269 109.306 198.942 111.015C198.745 111.159 198.54 111.301 198.326 111.44L267.901 129.325Z" fill="url(#paint2_linear_763_8391)"/>
</g>
<path d="M221.747 45.562C222.132 44.0634 223.659 43.1609 225.158 43.5462L236.886 46.5613C238.385 46.9465 239.288 48.4735 238.902 49.9721C238.517 51.4706 236.99 52.3731 235.491 51.9879L223.763 48.9728C222.264 48.5876 221.362 47.0605 221.747 45.562Z" fill="url(#paint3_linear_763_8391)" fill-opacity="0.9" stroke="url(#paint4_linear_763_8391)" stroke-width="0.452032"/>
<path d="M46.9719 152.053C45.7533 147.505 45.144 145.231 45.5794 143.26C45.9462 141.598 46.8168 140.09 48.0723 138.942C49.5623 137.579 51.8362 136.969 56.3841 135.751L89.9436 126.759C91.8783 126.24 92.8456 125.981 93.8161 125.954C94.6411 125.931 95.465 126.031 96.2603 126.252C97.1957 126.512 98.0723 126.996 99.8254 127.965L100.863 128.538C102.616 129.506 103.492 129.991 104.428 130.251C105.223 130.471 106.047 130.572 106.872 130.549C107.843 130.522 108.81 130.263 110.745 129.744L144.611 120.67C149.159 119.451 151.433 118.842 153.405 119.277C155.066 119.644 156.574 120.514 157.723 121.77C159.086 123.26 159.695 125.534 160.914 130.082L181.424 206.626C182.033 208.9 182.338 210.037 182.12 211.023C181.936 211.854 181.501 212.608 180.873 213.182C180.128 213.863 178.991 214.168 176.718 214.777L82.9158 239.911C78.8227 241.008 76.7761 241.556 75.0016 241.165C73.5061 240.834 72.149 240.051 71.1154 238.921C69.8888 237.58 69.3404 235.533 68.2437 231.44L46.9719 152.053Z" fill="url(#paint5_linear_763_8391)"/>
<g filter="url(#filter2_b_763_8391)">
<path d="M82.7798 167.28C82.8682 163.093 82.9124 160.999 84.1037 159.48C85.295 157.961 87.3171 157.419 91.3613 156.336L165.011 136.601C171.379 134.895 174.564 134.042 176.796 135.66C179.028 137.278 179.207 140.57 179.564 147.153L182.637 203.677C182.881 208.169 183.003 210.415 181.798 212.077C180.593 213.739 178.421 214.321 174.075 215.485L79.3305 240.872C82.2575 235.273 81.0539 230.781 81.5736 216.198C81.9464 205.736 82.4979 180.631 82.7798 167.28Z" fill="#F8B77B" fill-opacity="0.6"/>
<path d="M83.1654 167.288C83.2098 165.186 83.243 163.642 83.4103 162.433C83.5761 161.233 83.8692 160.405 84.4072 159.718C84.9453 159.032 85.6803 158.55 86.8051 158.103C87.9393 157.653 89.4302 157.253 91.4612 156.708L165.111 136.974C168.307 136.118 170.663 135.487 172.5 135.267C174.327 135.048 175.566 135.245 176.569 135.972C177.572 136.7 178.145 137.816 178.504 139.62C178.866 141.435 179 143.871 179.179 147.174L182.252 203.698C182.374 205.953 182.464 207.611 182.376 208.912C182.289 210.204 182.03 211.1 181.486 211.85C180.942 212.601 180.17 213.126 178.97 213.61C177.76 214.098 176.157 214.528 173.975 215.113L80.0535 240.279C81.2494 237.704 81.6212 235.261 81.7403 231.918C81.7944 230.4 81.7966 228.689 81.7991 226.694C81.7996 226.282 81.8002 225.857 81.8012 225.419C81.8072 222.862 81.8294 219.851 81.9591 216.212C82.3321 205.746 82.8836 180.638 83.1654 167.288Z" stroke="url(#paint6_linear_763_8391)" stroke-width="0.771501"/>
</g>
<g filter="url(#filter3_b_763_8391)">
<path fill-rule="evenodd" clip-rule="evenodd" d="M165.211 137.347L91.561 157.081C89.5212 157.628 88.0559 158.021 86.9475 158.462C85.8579 158.895 85.1913 159.344 84.7108 159.956C84.2303 160.569 83.953 161.324 83.7924 162.485C83.6289 163.667 83.5957 165.185 83.5511 167.296C83.2693 180.645 82.7177 205.756 82.3446 216.226C82.2151 219.859 82.1929 222.864 82.187 225.42C82.1859 225.856 82.1854 226.28 82.1849 226.693C82.1823 228.688 82.1801 230.407 82.1258 231.931C82.017 234.986 81.6977 237.324 80.7274 239.699L173.875 214.74C176.067 214.153 177.643 213.729 178.826 213.252C179.989 212.783 180.688 212.294 181.174 211.624C181.659 210.954 181.907 210.138 181.991 208.886C182.077 207.614 181.99 205.984 181.866 203.719L178.794 147.195C178.614 143.88 178.481 141.477 178.126 139.696C177.775 137.935 177.233 136.93 176.343 136.285C175.452 135.639 174.329 135.436 172.546 135.65C170.743 135.866 168.418 136.487 165.211 137.347ZM174.075 215.485C178.421 214.321 180.593 213.739 181.798 212.077C183.003 210.415 182.881 208.169 182.637 203.677L179.564 147.153C179.207 140.57 179.028 137.278 176.796 135.66C174.564 134.042 171.379 134.895 165.011 136.601L91.3613 156.336C87.3171 157.419 85.295 157.961 84.1037 159.48C82.9124 160.999 82.8682 163.093 82.7798 167.28C82.4979 180.631 81.9464 205.736 81.5736 216.198C81.4214 220.469 81.417 223.875 81.4134 226.696C81.4053 232.976 81.4009 236.361 79.7784 239.953C79.641 240.257 79.4921 240.563 79.3305 240.872L174.075 215.485Z" fill="url(#paint7_linear_763_8391)"/>
</g>
<path d="M63.0074 146.814C62.4606 144.773 63.6716 142.676 65.7122 142.129L81.6839 137.849C83.7245 137.302 85.822 138.513 86.3688 140.554C86.9155 142.595 85.7046 144.692 83.664 145.239L67.6923 149.518C65.6517 150.065 63.5542 148.854 63.0074 146.814Z" fill="url(#paint8_linear_763_8391)" fill-opacity="0.9" stroke="url(#paint9_linear_763_8391)" stroke-width="0.617201"/>
<defs>
<filter id="filter0_b_763_8391" x="186.269" y="48.9213" width="124.428" height="93.3689" filterUnits="userSpaceOnUse" color-interpolation-filters="sRGB">
<feFlood flood-opacity="0" result="BackgroundImageFix"/>
<feGaussianBlur in="BackgroundImageFix" stdDeviation="6.02847"/>
<feComposite in2="SourceAlpha" operator="in" result="effect1_backgroundBlur_763_8391"/>
<feBlend mode="normal" in="SourceGraphic" in2="effect1_backgroundBlur_763_8391" result="shape"/>
</filter>
<filter id="filter1_b_763_8391" x="186.216" y="48.8681" width="124.534" height="93.4753" filterUnits="userSpaceOnUse" color-interpolation-filters="sRGB">
<feFlood flood-opacity="0" result="BackgroundImageFix"/>
<feGaussianBlur in="BackgroundImageFix" stdDeviation="6.05508"/>
<feComposite in2="SourceAlpha" operator="in" result="effect1_backgroundBlur_763_8391"/>
<feBlend mode="normal" in="SourceGraphic" in2="effect1_backgroundBlur_763_8391" result="shape"/>
</filter>
<filter id="filter2_b_763_8391" x="62.8681" y="118.334" width="136.391" height="139" filterUnits="userSpaceOnUse" color-interpolation-filters="sRGB">
<feFlood flood-opacity="0" result="BackgroundImageFix"/>
<feGaussianBlur in="BackgroundImageFix" stdDeviation="8.23123"/>
<feComposite in2="SourceAlpha" operator="in" result="effect1_backgroundBlur_763_8391"/>
<feBlend mode="normal" in="SourceGraphic" in2="effect1_backgroundBlur_763_8391" result="shape"/>
</filter>
<filter id="filter3_b_763_8391" x="62.7955" y="118.262" width="136.537" height="139.145" filterUnits="userSpaceOnUse" color-interpolation-filters="sRGB">
<feFlood flood-opacity="0" result="BackgroundImageFix"/>
<feGaussianBlur in="BackgroundImageFix" stdDeviation="8.26755"/>
<feComposite in2="SourceAlpha" operator="in" result="effect1_backgroundBlur_763_8391"/>
<feBlend mode="normal" in="SourceGraphic" in2="effect1_backgroundBlur_763_8391" result="shape"/>
</filter>
<linearGradient id="paint0_linear_763_8391" x1="231.455" y1="56.4597" x2="287.507" y2="95.3273" gradientUnits="userSpaceOnUse">
<stop stop-color="#FBA47F"/>
<stop offset="1" stop-color="#DF6B00"/>
</linearGradient>
<linearGradient id="paint1_linear_763_8391" x1="205.143" y1="59.198" x2="279.955" y2="159.353" gradientUnits="userSpaceOnUse">
<stop stop-color="white"/>
<stop offset="1" stop-color="white" stop-opacity="0"/>
</linearGradient>
<linearGradient id="paint2_linear_763_8391" x1="207.283" y1="58.591" x2="219.461" y2="141.354" gradientUnits="userSpaceOnUse">
<stop stop-color="white"/>
<stop offset="0.765625" stop-color="white" stop-opacity="0"/>
</linearGradient>
<linearGradient id="paint3_linear_763_8391" x1="221.045" y1="41.8379" x2="243.295" y2="55.142" gradientUnits="userSpaceOnUse">
<stop stop-color="white"/>
<stop offset="1" stop-color="white" stop-opacity="0"/>
</linearGradient>
<linearGradient id="paint4_linear_763_8391" x1="218.982" y1="43.0576" x2="229.571" y2="50.6992" gradientUnits="userSpaceOnUse">
<stop stop-color="white"/>
<stop offset="1" stop-color="white" stop-opacity="0"/>
</linearGradient>
<linearGradient id="paint5_linear_763_8391" x1="81.8624" y1="153.264" x2="174.593" y2="161.902" gradientUnits="userSpaceOnUse">
<stop stop-color="#FBA47F"/>
<stop offset="1" stop-color="#DF6B00"/>
</linearGradient>
<linearGradient id="paint6_linear_763_8391" x1="52.4046" y1="174.166" x2="208.549" y2="243.115" gradientUnits="userSpaceOnUse">
<stop stop-color="white"/>
<stop offset="1" stop-color="white" stop-opacity="0"/>
</linearGradient>
<linearGradient id="paint7_linear_763_8391" x1="54.5423" y1="172.009" x2="124.529" y2="262.277" gradientUnits="userSpaceOnUse">
<stop stop-color="white"/>
<stop offset="0.765625" stop-color="white" stop-opacity="0"/>
</linearGradient>
<linearGradient id="paint8_linear_763_8391" x1="59.6756" y1="142.855" x2="95.0608" y2="143.757" gradientUnits="userSpaceOnUse">
<stop stop-color="white"/>
<stop offset="1" stop-color="white" stop-opacity="0"/>
</linearGradient>
<linearGradient id="paint9_linear_763_8391" x1="58.039" y1="145.69" x2="75.758" y2="147.677" gradientUnits="userSpaceOnUse">
<stop stop-color="white"/>
<stop offset="1" stop-color="white" stop-opacity="0"/>
</linearGradient>
</defs>
</svg>
