<svg width="213" height="368" viewBox="0 0 213 368" fill="none" xmlns="http://www.w3.org/2000/svg">
<g clip-path="url(#clip0_2014_27490)">
<path d="M63.466 233.507C65.4308 227.928 66.4132 225.138 68.2231 223.153C69.6897 221.545 71.5305 220.323 73.5823 219.596C76.1145 218.699 79.0668 218.877 84.9713 219.234L116.889 221.161C119.21 221.301 120.37 221.371 121.484 221.635C122.392 221.85 123.275 222.161 124.118 222.562C125.151 223.054 126.099 223.727 127.996 225.072L154.078 243.57C158.903 246.992 161.315 248.703 162.727 250.989C163.87 252.841 164.54 254.946 164.675 257.119C164.841 259.8 163.859 262.59 161.894 268.169L147.148 310.044C144.604 317.268 143.332 320.88 140.917 323.108C138.968 324.906 136.524 326.078 133.901 326.47C130.651 326.955 127.039 325.683 119.815 323.139L61.8152 302.715C54.5914 300.171 50.9795 298.899 48.751 296.484C46.9526 294.535 45.7815 292.091 45.3895 289.468C44.9038 286.218 46.1757 282.606 48.7196 275.382L63.466 233.507Z" fill="url(#paint0_linear_2014_27490)"/>
<g filter="url(#filter0_b_2014_27490)">
<path fill-rule="evenodd" clip-rule="evenodd" d="M96.3173 196.327C90.493 194.276 83.477 199.129 80.6467 207.166L76.6699 218.459C73.2036 228.302 71.4704 233.224 71.8494 237.883C72.2285 242.542 75.0047 247.612 80.5572 257.753C88.2102 271.731 93.1803 282.087 100.721 284.804C108.417 287.578 118.735 282.554 133.404 276.406C144.11 271.918 149.464 269.675 152.655 266.292C155.846 262.909 157.576 257.996 161.037 248.169L165.014 236.876C167.844 228.839 165.417 220.661 159.592 218.61L96.3173 196.327Z" fill="#F8B77B" fill-opacity="0.4"/>
<path d="M80.97 207.28C82.3638 203.322 84.7841 200.162 87.5543 198.245C90.3249 196.329 93.4208 195.671 96.2035 196.651L159.479 218.933C162.261 219.913 164.261 222.366 165.22 225.596C166.178 228.825 166.084 232.804 164.69 236.762L160.713 248.055C158.981 252.973 157.688 256.644 156.431 259.509C155.175 262.371 153.963 264.405 152.405 266.057C150.85 267.706 148.755 269.091 145.694 270.628C142.631 272.167 138.629 273.844 133.272 276.089C131.839 276.69 130.45 277.279 129.101 277.85C123.53 280.212 118.656 282.278 114.345 283.623C108.989 285.295 104.577 285.83 100.837 284.482C97.1736 283.162 94.0975 279.971 90.9657 275.31C88.441 271.553 85.9072 266.883 83.0102 261.543C82.3153 260.262 81.5994 258.943 80.8578 257.589C78.0793 252.514 76.004 248.723 74.5746 245.619C73.1461 242.517 72.3759 240.126 72.1911 237.855C72.006 235.58 72.3348 233.227 73.1487 230.204C73.9637 227.176 75.2584 223.499 76.9932 218.573L80.97 207.28Z" stroke="url(#paint1_linear_2014_27490)" stroke-width="0.685582"/>
</g>
<rect x="141.269" y="236.152" width="6.90531" height="44.1742" rx="3.45265" transform="rotate(109.4 141.269 236.152)" fill="url(#paint2_linear_2014_27490)" fill-opacity="0.9" stroke="url(#paint3_linear_2014_27490)" stroke-width="0.548466"/>
<rect x="133.842" y="257.246" width="6.90531" height="44.1742" rx="3.45265" transform="rotate(109.4 133.842 257.246)" fill="url(#paint4_linear_2014_27490)" fill-opacity="0.9" stroke="url(#paint5_linear_2014_27490)" stroke-width="0.548466"/>
<path fill-rule="evenodd" clip-rule="evenodd" d="M70.514 233.923C68.6046 230.808 64.2964 231.154 63.0827 234.6C62.8758 235.188 62.9447 235.837 63.2702 236.368L96.3076 290.267C97.2296 291.771 99.0799 292.423 100.741 291.828L160.252 270.527C160.84 270.317 161.303 269.852 161.511 269.262C162.724 265.817 159.584 262.849 156.146 264.08L117.474 277.922C111.508 280.057 108.525 281.125 105.694 280.9C103.401 280.718 101.196 279.941 99.2954 278.647C96.9475 277.048 95.2918 274.347 91.9804 268.944L70.514 233.923Z" fill="url(#paint6_linear_2014_27490)"/>
</g>
<g clip-path="url(#clip1_2014_27490)">
<path d="M50.4389 104.48C47.9129 100.445 46.6499 98.4275 46.3084 96.2927C46.0317 94.5628 46.1861 92.7913 46.7579 91.1354C47.4637 89.0919 49.0567 87.3232 52.2428 83.7858L69.4658 64.6639C70.7181 63.2736 71.3442 62.5784 72.0688 62.0101C72.66 61.5465 73.2986 61.1467 73.974 60.8175C74.8017 60.4141 75.7006 60.1546 77.4985 59.6357L102.224 52.4991C106.798 51.1788 109.085 50.5187 111.231 50.7768C112.971 50.986 114.632 51.6211 116.067 52.6259C117.838 53.8659 119.101 55.8835 121.627 59.9188L140.585 90.2047C143.855 95.4293 145.49 98.0416 145.682 100.679C145.836 102.808 145.347 104.934 144.278 106.781C142.953 109.07 140.341 110.705 135.117 113.976L93.1683 140.234C87.9437 143.505 85.3314 145.14 82.6936 145.331C80.565 145.486 78.4391 144.997 76.5918 143.928C74.3027 142.603 72.6675 139.991 69.397 134.766L50.4389 104.48Z" fill="url(#paint7_linear_2014_27490)"/>
<g filter="url(#filter1_b_2014_27490)">
<path fill-rule="evenodd" clip-rule="evenodd" d="M43.5159 65.154C39.3035 67.7909 38.8385 74.6408 42.4772 80.4537L47.5898 88.6211C52.0461 95.7402 54.2743 99.2998 57.3967 101.398C60.5192 103.497 65.103 104.293 74.2707 105.885C86.9065 108.08 95.9177 110.146 101.41 106.764C107.016 103.311 109.03 94.2971 112.518 81.9805C115.065 72.9915 116.338 68.4969 115.81 64.7917C115.281 61.0865 113.057 57.5328 108.608 50.4255L103.495 42.258C99.8565 36.4451 93.4919 33.8704 89.2795 36.5072L43.5159 65.154Z" fill="#F8B77B" fill-opacity="0.4"/>
<path d="M42.711 80.3073C40.9191 77.4447 40.144 74.3361 40.3276 71.6315C40.5113 68.9265 41.6497 66.6477 43.6623 65.3878L89.4259 36.7411C91.4385 35.4813 93.9857 35.453 96.4991 36.4697C99.0121 37.4863 101.47 39.5418 103.261 42.4044L108.374 50.5718C110.601 54.129 112.263 56.7841 113.435 59.0128C114.606 61.2384 115.279 63.0215 115.537 64.8307C115.794 66.6368 115.615 68.6503 115.047 71.3479C114.479 74.0468 113.527 77.4071 112.253 81.9053C111.912 83.108 111.586 84.278 111.269 85.4137C109.961 90.1043 108.817 94.2079 107.501 97.5962C105.867 101.806 103.99 104.851 101.266 106.529C98.5971 108.172 95.0462 108.508 90.5416 108.141C86.9102 107.845 82.7001 107.097 77.8864 106.242C76.7318 106.037 75.5423 105.826 74.3179 105.613C69.7302 104.816 66.3034 104.221 63.6327 103.564C60.9635 102.906 59.0729 102.192 57.5506 101.169C56.026 100.145 54.7102 98.7576 53.2156 96.7288C51.7188 94.6971 50.054 92.0378 47.8236 88.4747L42.711 80.3073Z" stroke="url(#paint8_linear_2014_27490)" stroke-width="0.551767"/>
</g>
<rect x="91.1292" y="56.8399" width="5.5575" height="35.552" rx="2.77875" transform="rotate(57.9545 91.1292 56.8399)" fill="url(#paint9_linear_2014_27490)" fill-opacity="0.9" stroke="url(#paint10_linear_2014_27490)" stroke-width="0.441414"/>
<rect x="100.678" y="72.0962" width="5.5575" height="35.552" rx="2.77875" transform="rotate(57.9545 100.678 72.0962)" fill="url(#paint11_linear_2014_27490)" fill-opacity="0.9" stroke="url(#paint12_linear_2014_27490)" stroke-width="0.441414"/>
<path fill-rule="evenodd" clip-rule="evenodd" d="M54.2341 100.254C51.3162 99.8931 49.3731 102.778 50.9332 105.27C51.1995 105.695 51.6434 105.978 52.1415 106.04L102.634 112.283C104.043 112.457 105.381 111.619 105.84 110.276L122.286 62.1347C122.448 61.6587 122.388 61.1347 122.121 60.7083C120.561 58.2169 117.118 58.704 116.168 61.4854L105.482 92.7687C103.833 97.5945 103.009 100.007 101.447 101.677C100.182 103.028 98.5873 104.027 96.8192 104.573C94.6352 105.249 92.1046 104.936 87.0434 104.31L54.2341 100.254Z" fill="url(#paint13_linear_2014_27490)"/>
</g>
<defs>
<filter id="filter0_b_2014_27490" x="57.1697" y="181.228" width="123.655" height="118.988" filterUnits="userSpaceOnUse" color-interpolation-filters="sRGB">
<feFlood flood-opacity="0" result="BackgroundImageFix"/>
<feGaussianBlur in="BackgroundImageFix" stdDeviation="7.31455"/>
<feComposite in2="SourceAlpha" operator="in" result="effect1_backgroundBlur_2014_27490"/>
<feBlend mode="normal" in="SourceGraphic" in2="effect1_backgroundBlur_2014_27490" result="shape"/>
</filter>
<filter id="filter1_b_2014_27490" x="28.2517" y="23.6984" width="99.4498" height="96.6266" filterUnits="userSpaceOnUse" color-interpolation-filters="sRGB">
<feFlood flood-opacity="0" result="BackgroundImageFix"/>
<feGaussianBlur in="BackgroundImageFix" stdDeviation="5.88686"/>
<feComposite in2="SourceAlpha" operator="in" result="effect1_backgroundBlur_2014_27490"/>
<feBlend mode="normal" in="SourceGraphic" in2="effect1_backgroundBlur_2014_27490" result="shape"/>
</filter>
<linearGradient id="paint0_linear_2014_27490" x1="95.1391" y1="234.191" x2="159.721" y2="287.849" gradientUnits="userSpaceOnUse">
<stop stop-color="#FBA47F"/>
<stop offset="1" stop-color="#DF6B00"/>
</linearGradient>
<linearGradient id="paint1_linear_2014_27490" x1="77.2694" y1="197.522" x2="169.163" y2="302.457" gradientUnits="userSpaceOnUse">
<stop stop-color="white"/>
<stop offset="1" stop-color="white" stop-opacity="0"/>
</linearGradient>
<linearGradient id="paint2_linear_2014_27490" x1="145.77" y1="287.758" x2="145.77" y2="227.724" gradientUnits="userSpaceOnUse">
<stop stop-color="white"/>
<stop offset="1" stop-color="white" stop-opacity="0"/>
</linearGradient>
<linearGradient id="paint3_linear_2014_27490" x1="126.799" y1="295.836" x2="159.022" y2="227.278" gradientUnits="userSpaceOnUse">
<stop stop-color="white"/>
<stop offset="1" stop-color="white" stop-opacity="0"/>
</linearGradient>
<linearGradient id="paint4_linear_2014_27490" x1="131.546" y1="302.182" x2="138.216" y2="248.077" gradientUnits="userSpaceOnUse">
<stop stop-color="white"/>
<stop offset="1" stop-color="white" stop-opacity="0"/>
</linearGradient>
<linearGradient id="paint5_linear_2014_27490" x1="123.748" y1="304.59" x2="149.8" y2="257.97" gradientUnits="userSpaceOnUse">
<stop stop-color="white"/>
<stop offset="1" stop-color="white" stop-opacity="0"/>
</linearGradient>
<linearGradient id="paint6_linear_2014_27490" x1="89.4767" y1="250.274" x2="127.974" y2="309.758" gradientUnits="userSpaceOnUse">
<stop stop-color="#FF8754"/>
<stop offset="1" stop-color="#FF7C03"/>
</linearGradient>
<linearGradient id="paint7_linear_2014_27490" x1="66.7564" y1="84.8888" x2="132.923" y2="71.1579" gradientUnits="userSpaceOnUse">
<stop stop-color="#FBA47F"/>
<stop offset="1" stop-color="#DF6B00"/>
</linearGradient>
<linearGradient id="paint8_linear_2014_27490" x1="34.7132" y1="77.7416" x2="146.851" y2="72.5427" gradientUnits="userSpaceOnUse">
<stop stop-color="white"/>
<stop offset="1" stop-color="white" stop-opacity="0"/>
</linearGradient>
<linearGradient id="paint9_linear_2014_27490" x1="94.5402" y1="98.2036" x2="94.5402" y2="49.8877" gradientUnits="userSpaceOnUse">
<stop stop-color="white"/>
<stop offset="1" stop-color="white" stop-opacity="0"/>
</linearGradient>
<linearGradient id="paint10_linear_2014_27490" x1="79.2719" y1="104.705" x2="105.205" y2="49.5285" gradientUnits="userSpaceOnUse">
<stop stop-color="white"/>
<stop offset="1" stop-color="white" stop-opacity="0"/>
</linearGradient>
<linearGradient id="paint11_linear_2014_27490" x1="98.6186" y1="108.091" x2="103.987" y2="64.5474" gradientUnits="userSpaceOnUse">
<stop stop-color="white"/>
<stop offset="1" stop-color="white" stop-opacity="0"/>
</linearGradient>
<linearGradient id="paint12_linear_2014_27490" x1="92.3429" y1="110.03" x2="113.31" y2="72.5094" gradientUnits="userSpaceOnUse">
<stop stop-color="white"/>
<stop offset="1" stop-color="white" stop-opacity="0"/>
</linearGradient>
<linearGradient id="paint13_linear_2014_27490" x1="74.0378" y1="96.5207" x2="130.786" y2="102.129" gradientUnits="userSpaceOnUse">
<stop stop-color="#FF8754"/>
<stop offset="1" stop-color="#FF7C03"/>
</linearGradient>
<clipPath id="clip0_2014_27490">
<rect width="164.54" height="164.54" fill="white" transform="translate(57.6543 158) rotate(19.3999)"/>
</clipPath>
<clipPath id="clip1_2014_27490">
<rect width="132.424" height="132.424" fill="white" transform="translate(0 70.2632) rotate(-32.0455)"/>
</clipPath>
</defs>
</svg>
