<svg width="660" height="430" viewBox="0 0 660 430" fill="none" xmlns="http://www.w3.org/2000/svg">
<rect x="515.371" y="83.688" width="111" height="111" rx="20" transform="rotate(20.3183 515.371 83.688)" fill="#D9D9D9"/>
<rect x="515.371" y="83.688" width="111" height="111" rx="20" transform="rotate(20.3183 515.371 83.688)" fill="url(#paint0_linear_2054_7979)"/>
<g clip-path="url(#clip0_2054_7979)">
<g filter="url(#filter0_b_2054_7979)">
<path d="M640.038 140.344C642.186 134.545 643.243 127.872 642.599 121.982C641.709 119.298 639.837 116.721 637.091 115.233C625.954 109.696 614.51 104.988 602.76 101.108C591.162 96.8138 579.412 92.9338 567.922 89.6214C565.284 89.1154 562.906 89.177 560.636 90.2203C555.681 92.1535 552.967 98.2129 550.866 102.616C547.077 111.574 543.857 120.272 540.897 129.538C539.823 132.437 539.317 135.075 539.072 138.281C538.72 140.506 539.195 143.037 539.825 145.154C540.868 147.424 542.479 149.433 544.81 150.767C553.462 155.384 562.007 159.019 571.272 161.979C585.769 167.346 598.609 172.1 613.979 176.379C616.618 176.885 619.149 176.409 621.419 175.366C623.122 174.583 624.41 173.648 625.438 172.144C628.781 168.202 630.883 163.799 632.723 158.829C633.904 156.911 639.118 142.829 640.038 140.344ZM576.977 141.484L586.485 115.805L606.168 137.693C598.161 138.967 587.515 139.735 576.977 141.484Z" fill="#F8B77B" fill-opacity="0.4"/>
<path d="M602.638 101.436L602.638 101.436L602.65 101.44C614.383 105.314 625.809 110.015 636.93 115.544C639.571 116.976 641.384 119.458 642.255 122.057C642.884 127.875 641.838 134.477 639.71 140.222C639.25 141.465 637.717 145.605 636.152 149.673C635.369 151.708 634.579 153.723 633.911 155.348C633.238 156.987 632.702 158.196 632.425 158.645L632.407 158.675L632.395 158.707C630.561 163.66 628.477 168.02 625.171 171.918L625.159 171.932L625.149 171.947C624.166 173.384 622.935 174.284 621.273 175.048C619.06 176.065 616.608 176.523 614.059 176.038C598.711 171.765 585.887 167.017 571.394 161.65L571.386 161.648L571.379 161.645C562.136 158.693 553.612 155.067 544.98 150.461C542.733 149.174 541.171 147.236 540.153 145.03C539.532 142.935 539.079 140.475 539.418 138.336L539.42 138.322L539.421 138.308C539.664 135.128 540.165 132.522 541.225 129.659L541.228 129.652L541.23 129.644C544.186 120.391 547.402 111.706 551.185 102.759C551.267 102.586 551.35 102.412 551.435 102.235C552.427 100.149 553.55 97.7877 554.971 95.688C556.513 93.4077 558.381 91.4759 560.763 90.5463L560.773 90.5426L560.782 90.5383C562.96 89.5373 565.253 89.4679 567.841 89.9622C579.317 93.2711 591.054 97.1468 602.638 101.436ZM576.649 141.363L576.439 141.928L577.034 141.83C582.294 140.956 587.582 140.328 592.562 139.758C593.08 139.699 593.594 139.64 594.105 139.582C598.503 139.081 602.628 138.611 606.223 138.039L606.859 137.937L606.428 137.459L586.746 115.571L586.358 115.14L586.157 115.683L576.649 141.363Z" stroke="url(#paint1_linear_2054_7979)" stroke-width="0.7"/>
</g>
</g>
<rect x="11.8276" y="90.0493" width="111" height="111" rx="20" transform="rotate(-36.2545 11.8276 90.0493)" fill="#D9D9D9"/>
<rect x="11.8276" y="90.0493" width="111" height="111" rx="20" transform="rotate(-36.2545 11.8276 90.0493)" fill="url(#paint2_linear_2054_7979)"/>
<g clip-path="url(#clip1_2054_7979)">
<g filter="url(#filter1_b_2054_7979)">
<path fill-rule="evenodd" clip-rule="evenodd" d="M52.2117 35.6319C65.9986 54.9299 72.5757 66.6358 70.6631 79.0684C68.7506 91.5013 58.9595 100.689 40.0097 114.951L42.0833 117.778C61.3814 103.992 73.0872 97.4147 85.5199 99.3271C97.9525 101.24 107.14 111.031 121.402 129.981L124.23 127.907C110.443 108.609 103.866 96.9031 105.778 84.4705C107.691 72.0379 117.482 62.85 136.432 48.5879L134.358 45.7604C115.06 59.5472 103.355 66.1245 90.9217 64.2117C78.489 62.2992 69.3012 52.5079 55.0392 33.5583L52.2117 35.6319Z" fill="#F8B77B" fill-opacity="0.4"/>
<path d="M71.009 79.1216C72.9373 66.5875 66.3321 54.8191 52.6974 35.7098L54.9675 34.0449C69.0953 52.7927 78.3344 62.6296 90.8685 64.5576C103.403 66.486 115.171 59.8808 134.28 46.246L135.945 48.5162C117.197 62.6441 107.361 71.8832 105.433 84.4173C103.504 96.9513 110.109 108.72 123.744 127.829L121.474 129.494C107.346 110.746 98.1072 100.909 85.5731 98.9812C73.039 97.0531 61.2706 103.658 42.1611 117.293L40.4963 115.023C59.2443 100.895 69.081 91.656 71.009 79.1216Z" stroke="url(#paint3_linear_2054_7979)" stroke-width="0.7"/>
</g>
</g>
<rect x="42" y="329.483" width="111" height="111" rx="20" transform="rotate(-25.3264 42 329.483)" fill="#D9D9D9"/>
<rect x="42" y="329.483" width="111" height="111" rx="20" transform="rotate(-25.3264 42 329.483)" fill="url(#paint4_linear_2054_7979)"/>
<g clip-path="url(#clip2_2054_7979)">
<g filter="url(#filter2_b_2054_7979)">
<path d="M112.307 314.366L84.1703 327.682C72.7389 333.092 67.8402 346.794 73.2503 358.225L86.5663 386.361C91.9763 397.793 105.678 402.692 117.109 397.281L145.245 383.966C156.677 378.555 161.576 364.854 156.165 353.423L142.849 325.286C137.439 313.855 123.738 308.956 112.307 314.366ZM149.171 356.733C152.758 364.312 149.53 373.377 141.935 376.971L113.799 390.287C106.22 393.874 97.1552 390.646 93.5609 383.051L80.245 354.915C76.6582 347.336 79.886 338.271 87.4806 334.677L115.617 321.361C123.196 317.774 132.261 321.002 135.855 328.597L149.171 356.733Z" fill="#F8B77B" fill-opacity="0.4"/>
<path d="M84.3842 328.134L112.521 314.818C123.703 309.526 137.106 314.318 142.398 325.5L155.713 353.637C161.005 364.819 156.213 378.222 145.032 383.514L116.895 396.83C105.713 402.121 92.3101 397.329 87.0182 386.148L73.7023 358.011C68.4103 346.829 73.2023 333.426 84.3842 328.134ZM142.149 377.423C149.994 373.71 153.327 364.347 149.623 356.519L136.307 328.383C132.594 320.538 123.231 317.204 115.403 320.909L87.2667 334.225C79.4221 337.938 76.0883 347.3 79.793 355.129L93.109 383.265C96.8215 391.11 106.184 394.444 114.013 390.739L142.149 377.423Z" stroke="url(#paint5_linear_2054_7979)"/>
</g>
<g filter="url(#filter3_b_2054_7979)">
<path d="M106.189 337.824C96.2578 342.524 92.0079 354.411 96.7081 364.343C101.408 374.274 113.295 378.524 123.226 373.824C133.158 369.124 137.408 357.237 132.708 347.305C128.007 337.374 116.121 333.124 106.189 337.824ZM119.916 366.829C113.837 369.706 106.58 367.111 103.703 361.032C100.826 354.953 103.421 347.696 109.5 344.819C115.578 341.942 122.836 344.537 125.713 350.616C128.59 356.695 125.995 363.952 119.916 366.829Z" fill="#F8B77B" fill-opacity="0.4"/>
<path d="M97.16 364.129C92.578 354.447 96.7213 342.858 106.403 338.276C116.085 333.694 127.674 337.837 132.256 347.519C136.838 357.201 132.694 368.79 123.013 373.372C113.331 377.954 101.742 373.811 97.16 364.129ZM103.251 361.246C106.246 367.575 113.802 370.276 120.13 367.281C126.459 364.286 129.16 356.73 126.165 350.402C123.17 344.073 115.614 341.372 109.286 344.367C102.957 347.362 100.256 354.918 103.251 361.246Z" stroke="url(#paint6_linear_2054_7979)"/>
</g>
<g filter="url(#filter4_b_2054_7979)">
<path d="M128.614 327.385C129.742 329.77 128.728 332.608 126.344 333.736C123.959 334.864 121.121 333.85 119.993 331.465C118.865 329.081 119.879 326.243 122.264 325.115C124.625 323.978 127.486 325.001 128.614 327.385Z" fill="#F8B77B" fill-opacity="0.4"/>
<path d="M122.478 325.567L122.481 325.565C124.589 324.55 127.151 325.463 128.162 327.599C129.172 329.734 128.264 332.274 126.13 333.284C123.995 334.294 121.455 333.386 120.445 331.251C119.435 329.117 120.343 326.577 122.478 325.567Z" stroke="url(#paint7_linear_2054_7979)"/>
</g>
</g>
<defs>
<filter id="filter0_b_2054_7979" x="524.323" y="74.6839" width="133.092" height="116.528" filterUnits="userSpaceOnUse" color-interpolation-filters="sRGB">
<feFlood flood-opacity="0" result="BackgroundImageFix"/>
<feGaussianBlur in="BackgroundImageFix" stdDeviation="7.31455"/>
<feComposite in2="SourceAlpha" operator="in" result="effect1_backgroundBlur_2054_7979"/>
<feBlend mode="normal" in="SourceGraphic" in2="effect1_backgroundBlur_2054_7979" result="shape"/>
</filter>
<filter id="filter1_b_2054_7979" x="25.3807" y="18.929" width="125.68" height="125.681" filterUnits="userSpaceOnUse" color-interpolation-filters="sRGB">
<feFlood flood-opacity="0" result="BackgroundImageFix"/>
<feGaussianBlur in="BackgroundImageFix" stdDeviation="7.31455"/>
<feComposite in2="SourceAlpha" operator="in" result="effect1_backgroundBlur_2054_7979"/>
<feBlend mode="normal" in="SourceGraphic" in2="effect1_backgroundBlur_2054_7979" result="shape"/>
</filter>
<filter id="filter2_b_2054_7979" x="56.4183" y="297.534" width="116.579" height="116.579" filterUnits="userSpaceOnUse" color-interpolation-filters="sRGB">
<feFlood flood-opacity="0" result="BackgroundImageFix"/>
<feGaussianBlur in="BackgroundImageFix" stdDeviation="7.31455"/>
<feComposite in2="SourceAlpha" operator="in" result="effect1_backgroundBlur_2054_7979"/>
<feBlend mode="normal" in="SourceGraphic" in2="effect1_backgroundBlur_2054_7979" result="shape"/>
</filter>
<filter id="filter3_b_2054_7979" x="80.1639" y="321.28" width="69.0878" height="69.0883" filterUnits="userSpaceOnUse" color-interpolation-filters="sRGB">
<feFlood flood-opacity="0" result="BackgroundImageFix"/>
<feGaussianBlur in="BackgroundImageFix" stdDeviation="7.31455"/>
<feComposite in2="SourceAlpha" operator="in" result="effect1_backgroundBlur_2054_7979"/>
<feBlend mode="normal" in="SourceGraphic" in2="effect1_backgroundBlur_2054_7979" result="shape"/>
</filter>
<filter id="filter4_b_2054_7979" x="104.903" y="310.021" width="38.8007" height="38.8046" filterUnits="userSpaceOnUse" color-interpolation-filters="sRGB">
<feFlood flood-opacity="0" result="BackgroundImageFix"/>
<feGaussianBlur in="BackgroundImageFix" stdDeviation="7.31455"/>
<feComposite in2="SourceAlpha" operator="in" result="effect1_backgroundBlur_2054_7979"/>
<feBlend mode="normal" in="SourceGraphic" in2="effect1_backgroundBlur_2054_7979" result="shape"/>
</filter>
<linearGradient id="paint0_linear_2054_7979" x1="547.39" y1="107.969" x2="632.56" y2="137.258" gradientUnits="userSpaceOnUse">
<stop stop-color="#FBA47F"/>
<stop offset="1" stop-color="#DF6B00"/>
</linearGradient>
<linearGradient id="paint1_linear_2054_7979" x1="548.702" y1="87.5407" x2="625.885" y2="204.451" gradientUnits="userSpaceOnUse">
<stop stop-color="white"/>
<stop offset="1" stop-color="white" stop-opacity="0"/>
</linearGradient>
<linearGradient id="paint2_linear_2054_7979" x1="43.8469" y1="114.331" x2="129.016" y2="143.62" gradientUnits="userSpaceOnUse">
<stop stop-color="#FBA47F"/>
<stop offset="1" stop-color="#DF6B00"/>
</linearGradient>
<linearGradient id="paint3_linear_2054_7979" x1="6.00204" y1="82.7098" x2="189.806" y2="53.7757" gradientUnits="userSpaceOnUse">
<stop stop-color="white"/>
<stop offset="1" stop-color="white" stop-opacity="0"/>
</linearGradient>
<linearGradient id="paint4_linear_2054_7979" x1="74.0192" y1="353.764" x2="159.189" y2="383.053" gradientUnits="userSpaceOnUse">
<stop stop-color="#FBA47F"/>
<stop offset="1" stop-color="#DF6B00"/>
</linearGradient>
<linearGradient id="paint5_linear_2054_7979" x1="61.462" y1="346.174" x2="183.844" y2="350.409" gradientUnits="userSpaceOnUse">
<stop stop-color="white"/>
<stop offset="1" stop-color="white" stop-opacity="0"/>
</linearGradient>
<linearGradient id="paint6_linear_2054_7979" x1="87.1669" y1="350.832" x2="150.468" y2="353.023" gradientUnits="userSpaceOnUse">
<stop stop-color="white"/>
<stop offset="1" stop-color="white" stop-opacity="0"/>
</linearGradient>
<linearGradient id="paint7_linear_2054_7979" x1="117.708" y1="328.23" x2="132.867" y2="328.754" gradientUnits="userSpaceOnUse">
<stop stop-color="white"/>
<stop offset="1" stop-color="white" stop-opacity="0"/>
</linearGradient>
<clipPath id="clip0_2054_7979">
<rect width="106" height="106" fill="white" transform="translate(559.652 64.8945) rotate(20.3183)"/>
</clipPath>
<clipPath id="clip1_2054_7979">
<rect width="117" height="117" fill="white" transform="translate(6.45117 69.1904) rotate(-36.2545)"/>
</clipPath>
<clipPath id="clip2_2054_7979">
<rect width="77" height="77" fill="white" transform="translate(63.439 337.494) rotate(-25.3264)"/>
</clipPath>
</defs>
</svg>
