<svg width="608" height="511" viewBox="0 0 608 511" fill="none" xmlns="http://www.w3.org/2000/svg">
<path d="M454.151 390.777C451.443 385.517 450.09 382.888 449.889 380.209C449.727 378.038 450.102 375.861 450.983 373.87C452.069 371.413 454.226 369.389 458.539 365.341L477.355 347.683C479.05 346.092 479.898 345.296 480.854 344.668C481.634 344.156 482.467 343.727 483.337 343.39C484.404 342.977 485.544 342.749 487.824 342.294L513.129 337.241C518.93 336.082 521.83 335.503 524.461 336.046C526.593 336.487 528.583 337.446 530.255 338.839C532.319 340.559 533.672 343.189 536.38 348.448L552.431 379.629C555.936 386.439 557.688 389.844 557.65 393.129C557.62 395.781 556.793 398.362 555.277 400.538C553.399 403.235 549.994 404.987 543.185 408.492L499.065 431.204C492.255 434.709 488.85 436.462 485.565 436.424C482.913 436.393 480.332 435.566 478.156 434.05C475.459 432.172 473.707 428.767 470.202 421.958L454.151 390.777Z" fill="url(#paint0_linear_4001_15690)"/>
<g filter="url(#filter0_b_4001_15690)">
<path fill-rule="evenodd" clip-rule="evenodd" d="M449.343 345.35C444.478 347.854 443.335 355.328 446.792 362.043L450.513 369.273C455.305 378.58 457.7 383.234 461.328 386.152C464.957 389.069 470.548 390.551 481.729 393.515C494.138 396.805 503.07 399.367 509.032 396.352C515.117 393.276 518.169 384.51 522.64 372.504C526.694 361.619 528.721 356.176 528.446 351.554C528.171 346.931 525.779 342.285 520.996 332.992L517.274 325.761C513.817 319.047 507.071 315.634 502.205 318.139L449.343 345.35Z" fill="#F8B77B" fill-opacity="0.4"/>
<path d="M447.096 361.886C445.398 358.586 444.836 355.111 445.286 352.169C445.735 349.227 447.189 346.844 449.5 345.655L502.362 318.443C504.673 317.254 507.457 317.455 510.113 318.799C512.769 320.142 515.27 322.618 516.969 325.918L520.691 333.148C523.085 337.799 524.872 341.271 526.096 344.158C527.319 347.041 527.97 349.317 528.104 351.574C528.238 353.827 527.813 356.299 526.838 359.583C525.863 362.868 524.348 366.937 522.319 372.385C522.14 372.864 521.964 373.339 521.79 373.808C519.78 379.215 518.042 383.89 516.136 387.621C514.064 391.676 511.822 394.558 508.877 396.047C505.993 397.505 502.356 397.63 497.849 396.959C493.697 396.34 488.86 395.055 483.264 393.568C482.787 393.442 482.305 393.313 481.817 393.184C476.222 391.701 472.042 390.593 468.807 389.492C465.573 388.391 463.312 387.307 461.543 385.885C459.772 384.46 458.29 382.604 456.649 379.929C455.006 377.251 453.216 373.774 450.818 369.116L447.096 361.886Z" stroke="url(#paint1_linear_4001_15690)" stroke-width="0.685582"/>
</g>
<rect x="502.345" y="340.662" width="6.05755" height="39.0876" rx="3.02877" transform="rotate(62.7623 502.345 340.662)" fill="url(#paint2_linear_4001_15690)" fill-opacity="0.9" stroke="url(#paint3_linear_4001_15690)" stroke-width="0.548466"/>
<rect x="511.415" y="358.285" width="6.05755" height="39.0876" rx="3.02877" transform="rotate(62.7623 511.415 358.285)" fill="url(#paint4_linear_4001_15690)" fill-opacity="0.9" stroke="url(#paint5_linear_4001_15690)" stroke-width="0.548466"/>
<path fill-rule="evenodd" clip-rule="evenodd" d="M529.739 347.268C530.893 344.634 534.038 343.965 535.376 346.51C535.901 347.511 536.147 349.104 535.693 350.139L513.57 400.613C512.942 402.045 511.396 402.841 509.866 402.519L455.93 391.196C454.824 390.964 453.67 389.839 453.161 388.829C451.866 386.261 454.239 384.091 457.053 384.682L491.556 391.926C497.757 393.227 500.858 393.878 503.632 393.269C505.878 392.776 507.957 391.706 509.664 390.165C511.772 388.26 513.043 385.359 515.587 379.555L529.739 347.268Z" fill="url(#paint6_linear_4001_15690)"/>
<g clip-path="url(#clip0_4001_15690)">
<path d="M456.513 57.9287C459.693 54.3861 461.283 52.6148 463.241 51.6967C464.827 50.9528 466.572 50.6118 468.321 50.7039C470.48 50.8175 472.62 51.8599 476.9 53.9446L500.036 65.2138C501.719 66.0332 502.56 66.4429 503.306 66.9823C503.915 67.4224 504.476 67.9257 504.979 68.4838C505.595 69.1679 506.093 69.9601 507.088 71.5446L520.778 93.3356C523.311 97.3668 524.577 99.3824 524.922 101.517C525.202 103.246 525.05 105.018 524.481 106.675C523.779 108.719 522.189 110.491 519.008 114.033L495.139 140.621C491.022 145.208 488.963 147.501 486.481 148.414C484.478 149.15 482.299 149.267 480.229 148.751C477.663 148.11 475.369 146.051 470.783 141.934L433.956 108.873C429.37 104.756 427.076 102.697 426.164 100.215C425.427 98.2115 425.31 96.0333 425.827 93.9626C426.467 91.3966 428.526 89.1033 432.644 84.5166L456.513 57.9287Z" fill="url(#paint7_linear_4001_15690)"/>
<g filter="url(#filter1_b_4001_15690)">
<path fill-rule="evenodd" clip-rule="evenodd" d="M492.397 40.4112C488.699 37.0913 481.987 38.5369 477.406 43.6401L470.969 50.8103C465.358 57.0601 462.553 60.1851 461.399 63.7657C460.245 67.3464 460.746 71.9718 461.749 81.2225C463.131 93.9728 463.634 103.204 468.403 107.548C473.27 111.982 482.489 111.427 495.291 111.377C504.633 111.34 509.305 111.322 512.72 109.791C516.135 108.259 518.935 105.139 524.537 98.8999L530.974 91.7297C535.555 86.6265 536.271 79.7983 532.573 76.4784L492.397 40.4112Z" fill="#F8B77B" fill-opacity="0.4"/>
<path d="M477.611 43.8244C479.867 41.3113 482.641 39.7075 485.291 39.1367C487.941 38.5658 490.446 39.0303 492.213 40.6165L532.389 76.6837C534.156 78.2699 534.886 80.7101 534.604 83.4066C534.321 86.1026 533.025 89.0323 530.768 91.5454L524.332 98.7156C521.528 101.838 519.435 104.169 517.617 105.912C515.802 107.652 514.274 108.791 512.607 109.539C510.942 110.285 508.957 110.67 506.208 110.869C503.457 111.069 499.965 111.083 495.29 111.101C494.04 111.106 492.825 111.115 491.646 111.125C486.777 111.163 482.516 111.197 478.897 110.869C474.399 110.462 470.954 109.499 468.589 107.344C466.272 105.234 464.968 101.914 464.077 97.4833C463.358 93.9116 462.913 89.6588 462.405 84.7962C462.283 83.6298 462.157 82.4283 462.023 81.1927C461.521 76.5635 461.147 73.1057 461.041 70.3572C460.935 67.6104 461.099 65.5961 461.662 63.8504C462.225 62.102 463.195 60.4542 464.731 58.4572C466.271 56.4574 468.366 54.1226 471.174 50.9946L477.611 43.8244Z" stroke="url(#paint8_linear_4001_15690)" stroke-width="0.551767"/>
</g>
<rect x="513.542" y="83.8732" width="5.5575" height="35.552" rx="2.77875" transform="rotate(131.915 513.542 83.8732)" fill="url(#paint9_linear_4001_15690)" fill-opacity="0.9" stroke="url(#paint10_linear_4001_15690)" stroke-width="0.441414"/>
<rect x="501.518" y="97.2664" width="5.5575" height="35.552" rx="2.77875" transform="rotate(131.915 501.518 97.2664)" fill="url(#paint11_linear_4001_15690)" fill-opacity="0.9" stroke="url(#paint12_linear_4001_15690)" stroke-width="0.441414"/>
<path fill-rule="evenodd" clip-rule="evenodd" d="M461.625 60.4091C461.165 57.505 457.856 56.4347 455.892 58.6225C455.556 58.996 455.407 59.5007 455.486 59.9965L463.437 110.248C463.658 111.651 464.833 112.706 466.251 112.775L517.062 115.28C517.565 115.304 518.051 115.101 518.387 114.727C520.351 112.54 518.932 109.366 515.996 109.221L482.978 107.594C477.884 107.343 475.338 107.217 473.302 106.177C471.653 105.335 470.253 104.078 469.239 102.53C467.986 100.618 467.588 98.0991 466.791 93.0621L461.625 60.4091Z" fill="url(#paint13_linear_4001_15690)"/>
</g>
<path d="M117.186 353.657C121.886 357.246 124.531 363.593 129.821 376.285C135.111 388.978 137.757 395.325 136.998 401.189C136.501 405.031 135.001 408.675 132.649 411.753C129.06 416.453 122.713 419.098 110.02 424.388L96.4398 430.049C92.6144 431.643 89.3655 432.997 86.5326 434.091L76.1011 448.095C75.0258 449.539 72.7675 449.157 72.2263 447.44L68.8418 436.705C65.9981 435.969 63.3206 434.671 60.9718 432.877C56.2723 429.287 53.6271 422.941 48.3367 410.248C43.0464 397.556 40.4012 391.209 41.1601 385.345C41.6573 381.503 43.1571 377.859 45.5086 374.78C49.0982 370.081 55.4446 367.436 68.1373 362.145L81.7181 356.485C94.4109 351.194 100.757 348.549 106.622 349.308C110.464 349.805 114.107 351.305 117.186 353.657Z" fill="url(#paint14_linear_4001_15690)"/>
<g filter="url(#filter2_b_4001_15690)">
<path d="M76.8125 394.395C76.0535 400.259 78.6987 406.606 83.9891 419.298C89.2795 431.991 91.9246 438.338 96.6241 441.927C99.7028 444.279 103.346 445.779 107.188 446.276C113.053 447.035 119.399 444.389 132.092 439.099L145.673 433.439C148.153 432.405 150.391 431.472 152.414 430.605C154.195 429.842 155.086 429.46 155.973 429.346C156.861 429.233 157.782 429.373 159.624 429.653L172.761 431.647C174.551 431.919 175.889 430.04 175.046 428.438L173.133 424.803C171.85 422.364 171.208 421.145 171.053 420.039C170.898 418.933 171.387 416.598 172.365 411.928C172.481 411.37 172.577 410.807 172.65 410.239C173.409 404.375 170.764 398.028 165.473 385.336C160.183 372.643 157.538 366.296 152.838 362.707C149.76 360.355 146.116 358.856 142.274 358.358C136.41 357.599 130.063 360.245 117.37 365.535L103.79 371.195C91.0969 376.486 84.7506 379.131 81.161 383.831C78.8094 386.909 77.3096 390.553 76.8125 394.395Z" fill="#F8B77B" fill-opacity="0.6"/>
<path d="M84.0814 419.26C81.4355 412.912 79.4537 408.157 78.2277 404.256C77.002 400.356 76.5348 397.32 76.9116 394.408C77.4066 390.583 78.8995 386.956 81.2404 383.891C83.0228 381.558 85.4926 379.73 89.1083 377.823C92.7252 375.916 97.4801 373.934 103.828 371.288L117.409 365.627C123.757 362.981 128.512 361 132.413 359.774C136.313 358.548 139.349 358.081 142.261 358.458C146.086 358.952 149.713 360.445 152.778 362.786C155.111 364.569 156.939 367.038 158.846 370.654C160.753 374.271 162.735 379.026 165.381 385.374C168.027 391.722 170.009 396.477 171.235 400.378C172.46 404.278 172.928 407.315 172.551 410.227C172.478 410.792 172.383 411.352 172.267 411.908L172.266 411.909C171.778 414.243 171.411 415.996 171.186 417.303C170.961 418.607 170.874 419.482 170.954 420.053C171.034 420.619 171.237 421.211 171.579 421.963C171.92 422.713 172.403 423.63 173.043 424.847L173.045 424.85L174.957 428.484C175.762 430.014 174.485 431.808 172.776 431.549L159.639 429.554L159.62 429.551C157.796 429.274 156.862 429.132 155.961 429.247C155.059 429.362 154.157 429.749 152.394 430.505L152.374 430.513C150.352 431.38 148.115 432.312 145.634 433.346L132.054 439.007C125.706 441.653 120.951 443.634 117.05 444.861C113.15 446.086 110.113 446.553 107.201 446.177C103.376 445.682 99.7496 444.189 96.6848 441.848C94.3514 440.065 92.5234 437.596 90.6166 433.98C88.7092 430.363 86.7273 425.608 84.0814 419.26Z" stroke="url(#paint15_linear_4001_15690)" stroke-width="0.2"/>
</g>
<g filter="url(#filter3_b_4001_15690)">
<rect x="140.236" y="379.955" width="7.49982" height="44.9989" rx="3.74991" transform="rotate(67.3735 140.236 379.955)" fill="url(#paint16_linear_4001_15690)" fill-opacity="0.9"/>
<rect x="140.193" y="380.059" width="7.33982" height="44.8389" rx="3.66991" transform="rotate(67.3735 140.193 380.059)" stroke="url(#paint17_linear_4001_15690)" stroke-width="0.16"/>
</g>
<g filter="url(#filter4_b_4001_15690)">
<rect x="139.029" y="404.372" width="8.27782" height="34.4909" rx="4.13891" transform="rotate(67.3735 139.029 404.372)" fill="url(#paint18_linear_4001_15690)" fill-opacity="0.9"/>
<rect x="138.986" y="404.477" width="8.11782" height="34.3309" rx="4.05891" transform="rotate(67.3735 138.986 404.477)" stroke="url(#paint19_linear_4001_15690)" stroke-width="0.16"/>
</g>
<defs>
<filter id="filter0_b_4001_15690" x="430.166" y="302.688" width="112.934" height="109.634" filterUnits="userSpaceOnUse" color-interpolation-filters="sRGB">
<feFlood flood-opacity="0" result="BackgroundImageFix"/>
<feGaussianBlur in="BackgroundImageFix" stdDeviation="7.31455"/>
<feComposite in2="SourceAlpha" operator="in" result="effect1_backgroundBlur_4001_15690"/>
<feBlend mode="normal" in="SourceGraphic" in2="effect1_backgroundBlur_4001_15690" result="shape"/>
</filter>
<filter id="filter1_b_4001_15690" x="448.961" y="26.853" width="97.7525" height="96.3454" filterUnits="userSpaceOnUse" color-interpolation-filters="sRGB">
<feFlood flood-opacity="0" result="BackgroundImageFix"/>
<feGaussianBlur in="BackgroundImageFix" stdDeviation="5.88686"/>
<feComposite in2="SourceAlpha" operator="in" result="effect1_backgroundBlur_4001_15690"/>
<feBlend mode="normal" in="SourceGraphic" in2="effect1_backgroundBlur_4001_15690" result="shape"/>
</filter>
<filter id="filter2_b_4001_15690" x="72.416" y="353.963" width="107.156" height="96.7086" filterUnits="userSpaceOnUse" color-interpolation-filters="sRGB">
<feFlood flood-opacity="0" result="BackgroundImageFix"/>
<feGaussianBlur in="BackgroundImageFix" stdDeviation="2.13382"/>
<feComposite in2="SourceAlpha" operator="in" result="effect1_backgroundBlur_4001_15690"/>
<feBlend mode="normal" in="SourceGraphic" in2="effect1_backgroundBlur_4001_15690" result="shape"/>
</filter>
<filter id="filter3_b_4001_15690" x="95.5047" y="376.759" width="50.813" height="30.6263" filterUnits="userSpaceOnUse" color-interpolation-filters="sRGB">
<feFlood flood-opacity="0" result="BackgroundImageFix"/>
<feGaussianBlur in="BackgroundImageFix" stdDeviation="2.17443"/>
<feComposite in2="SourceAlpha" operator="in" result="effect1_backgroundBlur_4001_15690"/>
<feBlend mode="normal" in="SourceGraphic" in2="effect1_backgroundBlur_4001_15690" result="shape"/>
</filter>
<filter id="filter4_b_4001_15690" x="104.116" y="401.296" width="41.1743" height="27.0624" filterUnits="userSpaceOnUse" color-interpolation-filters="sRGB">
<feFlood flood-opacity="0" result="BackgroundImageFix"/>
<feGaussianBlur in="BackgroundImageFix" stdDeviation="2.17443"/>
<feComposite in2="SourceAlpha" operator="in" result="effect1_backgroundBlur_4001_15690"/>
<feBlend mode="normal" in="SourceGraphic" in2="effect1_backgroundBlur_4001_15690" result="shape"/>
</filter>
<linearGradient id="paint0_linear_4001_15690" x1="473.023" y1="369.149" x2="546.897" y2="360.189" gradientUnits="userSpaceOnUse">
<stop stop-color="#FBA47F"/>
<stop offset="1" stop-color="#DF6B00"/>
</linearGradient>
<linearGradient id="paint1_linear_4001_15690" x1="438.522" y1="358.35" x2="562.054" y2="362.995" gradientUnits="userSpaceOnUse">
<stop stop-color="white"/>
<stop offset="1" stop-color="white" stop-opacity="0"/>
</linearGradient>
<linearGradient id="paint2_linear_4001_15690" x1="506.142" y1="386.177" x2="506.142" y2="332.972" gradientUnits="userSpaceOnUse">
<stop stop-color="white"/>
<stop offset="1" stop-color="white" stop-opacity="0"/>
</linearGradient>
<linearGradient id="paint3_linear_4001_15690" x1="489.328" y1="393.337" x2="517.886" y2="332.576" gradientUnits="userSpaceOnUse">
<stop stop-color="white"/>
<stop offset="1" stop-color="white" stop-opacity="0"/>
</linearGradient>
<linearGradient id="paint4_linear_4001_15690" x1="509.188" y1="397.889" x2="515.1" y2="349.938" gradientUnits="userSpaceOnUse">
<stop stop-color="white"/>
<stop offset="1" stop-color="white" stop-opacity="0"/>
</linearGradient>
<linearGradient id="paint5_linear_4001_15690" x1="502.277" y1="400.023" x2="525.367" y2="358.706" gradientUnits="userSpaceOnUse">
<stop stop-color="white"/>
<stop offset="1" stop-color="white" stop-opacity="0"/>
</linearGradient>
<linearGradient id="paint6_linear_4001_15690" x1="479.745" y1="382.193" x2="541.876" y2="393.231" gradientUnits="userSpaceOnUse">
<stop stop-color="#FF8754"/>
<stop offset="1" stop-color="#FF7C03"/>
</linearGradient>
<linearGradient id="paint7_linear_4001_15690" x1="479.85" y1="68.198" x2="511.328" y2="127.995" gradientUnits="userSpaceOnUse">
<stop stop-color="#FBA47F"/>
<stop offset="1" stop-color="#DF6B00"/>
</linearGradient>
<linearGradient id="paint8_linear_4001_15690" x1="477.867" y1="35.429" x2="513.847" y2="141.766" gradientUnits="userSpaceOnUse">
<stop stop-color="white"/>
<stop offset="1" stop-color="white" stop-opacity="0"/>
</linearGradient>
<linearGradient id="paint9_linear_4001_15690" x1="517.194" y1="125.524" x2="517.194" y2="77.2084" gradientUnits="userSpaceOnUse">
<stop stop-color="white"/>
<stop offset="1" stop-color="white" stop-opacity="0"/>
</linearGradient>
<linearGradient id="paint10_linear_4001_15690" x1="501.926" y1="132.026" x2="527.859" y2="76.8492" gradientUnits="userSpaceOnUse">
<stop stop-color="white"/>
<stop offset="1" stop-color="white" stop-opacity="0"/>
</linearGradient>
<linearGradient id="paint11_linear_4001_15690" x1="499.701" y1="133.549" x2="505.069" y2="90.005" gradientUnits="userSpaceOnUse">
<stop stop-color="white"/>
<stop offset="1" stop-color="white" stop-opacity="0"/>
</linearGradient>
<linearGradient id="paint12_linear_4001_15690" x1="493.425" y1="135.487" x2="514.392" y2="97.967" gradientUnits="userSpaceOnUse">
<stop stop-color="white"/>
<stop offset="1" stop-color="white" stop-opacity="0"/>
</linearGradient>
<linearGradient id="paint13_linear_4001_15690" x1="470.684" y1="78.4104" x2="480.973" y2="134.499" gradientUnits="userSpaceOnUse">
<stop stop-color="#FF8754"/>
<stop offset="1" stop-color="#FF7C03"/>
</linearGradient>
<linearGradient id="paint14_linear_4001_15690" x1="64.6515" y1="383.2" x2="135.693" y2="380.134" gradientUnits="userSpaceOnUse">
<stop stop-color="#FBA47F"/>
<stop offset="1" stop-color="#DF6B00"/>
</linearGradient>
<linearGradient id="paint15_linear_4001_15690" x1="66.9086" y1="394.709" x2="204.447" y2="409.765" gradientUnits="userSpaceOnUse">
<stop stop-color="white"/>
<stop offset="1" stop-color="white" stop-opacity="0"/>
</linearGradient>
<linearGradient id="paint16_linear_4001_15690" x1="153.359" y1="374.644" x2="143.701" y2="417.412" gradientUnits="userSpaceOnUse">
<stop stop-color="white" stop-opacity="0"/>
<stop offset="0.979167" stop-color="white"/>
</linearGradient>
<linearGradient id="paint17_linear_4001_15690" x1="143.986" y1="379.955" x2="143.986" y2="424.954" gradientUnits="userSpaceOnUse">
<stop stop-color="white" stop-opacity="0"/>
<stop offset="1" stop-color="white"/>
</linearGradient>
<linearGradient id="paint18_linear_4001_15690" x1="149.998" y1="404.002" x2="146.257" y2="432.014" gradientUnits="userSpaceOnUse">
<stop stop-color="white" stop-opacity="0"/>
<stop offset="0.979167" stop-color="white"/>
</linearGradient>
<linearGradient id="paint19_linear_4001_15690" x1="143.168" y1="404.372" x2="143.168" y2="438.863" gradientUnits="userSpaceOnUse">
<stop stop-color="white" stop-opacity="0"/>
<stop offset="1" stop-color="white"/>
</linearGradient>
<clipPath id="clip0_4001_15690">
<rect width="132.424" height="132.424" fill="white" transform="translate(475.463) rotate(41.9154)"/>
</clipPath>
</defs>
</svg>
