<svg width="354" height="179" viewBox="0 0 354 179" fill="none" xmlns="http://www.w3.org/2000/svg">
<path d="M71.1124 37.2201C74.0444 39.4596 75.6948 43.4191 78.9955 51.3382C82.2961 59.2573 83.9465 63.2168 83.473 66.8758C83.1628 69.2728 82.2271 71.546 80.7599 73.4668C78.5204 76.3988 74.5608 78.0491 66.6418 81.3498L58.1687 84.8814C55.7821 85.8762 53.7551 86.721 51.9876 87.403L45.4794 96.1405C44.8085 97.0412 43.3996 96.8031 43.0619 95.732L40.9503 89.0341C39.1761 88.5752 37.5056 87.7652 36.0401 86.6459C33.1081 84.4063 31.4578 80.4468 28.1571 72.5277C24.8564 64.6087 23.2061 60.6492 23.6796 56.9902C23.9898 54.5931 24.9255 52.32 26.3926 50.3992C28.6322 47.4671 32.5917 45.8168 40.5108 42.5161L48.9838 38.9845C56.9029 35.6838 60.8624 34.0335 64.5214 34.507C66.9184 34.8172 69.1916 35.7529 71.1124 37.2201Z" fill="url(#paint0_linear_4009_27073)"/>
<g filter="url(#filter0_b_4009_27073)">
<path d="M45.9237 62.6366C45.4502 66.2956 47.1006 70.2552 50.4012 78.1742C53.7019 86.0933 55.3523 90.0528 58.2843 92.2924C60.2051 93.7595 62.4782 94.6952 64.8753 95.0054C68.5343 95.4789 72.4938 93.8286 80.4129 90.5279L88.8859 86.9963C89.9164 86.5668 90.8798 86.1652 91.7811 85.7852C93.5793 85.0269 94.4784 84.6478 95.357 84.5381C96.2356 84.4284 97.1564 84.5683 98.9981 84.8479L105.787 85.8788C106.903 86.0483 107.738 84.8757 107.212 83.8762L106.516 82.5545C105.855 81.2987 105.525 80.6707 105.357 80.1575C105.053 79.2276 105.084 79.3986 105.045 78.4209C105.024 77.8814 105.255 76.095 105.717 72.5223C106.191 68.8633 104.54 64.9037 101.24 56.9847C97.9389 49.0656 96.2886 45.1061 93.3566 42.8665C91.4357 41.3994 89.1626 40.4637 86.7656 40.1535C83.1066 39.68 79.147 41.3303 71.228 44.631L62.7549 48.1626C54.8359 51.4633 50.8763 53.1136 48.6368 56.0456C47.1696 57.9665 46.2339 60.2396 45.9237 62.6366Z" fill="#F8B77B" fill-opacity="0.6"/>
<path d="M50.4935 78.1357C48.8425 74.1745 47.6069 71.2097 46.8426 68.7779C46.0787 66.3474 45.7888 64.4586 46.0229 62.6495C46.3308 60.2699 47.2597 58.0132 48.7162 56.1063C49.8236 54.6566 51.3591 53.5192 53.6127 52.3308C55.8674 51.1418 58.8322 49.906 62.7934 48.2549L71.2665 44.7233C75.2277 43.0723 78.1925 41.8366 80.6243 41.0723C83.0548 40.3084 84.9436 40.0185 86.7527 40.2527C89.1324 40.5606 91.389 41.4895 93.2959 42.946C94.7456 44.0533 95.883 45.5889 97.0714 47.8424C98.2604 50.0972 99.4962 53.0619 101.147 57.0232C102.798 60.9844 104.034 63.9492 104.798 66.381C105.562 68.8115 105.852 70.7003 105.618 72.5094C105.387 74.2955 105.213 75.636 105.1 76.5974C104.988 77.5549 104.934 78.1455 104.945 78.4249C104.948 78.5048 104.951 78.5773 104.953 78.6436C104.966 78.978 104.972 79.154 105.003 79.3248C105.034 79.4956 105.089 79.6629 105.194 79.9808C105.215 80.0438 105.237 80.1126 105.262 80.1886C105.433 80.7099 105.766 81.3443 106.42 82.5861L106.428 82.6011L107.123 83.9228C107.611 84.8496 106.837 85.9372 105.802 85.7799L99.0131 84.7491L98.9934 84.7461C97.1704 84.4692 96.2369 84.3275 95.3446 84.4389C94.4523 84.5502 93.5415 84.9343 91.7622 85.6846L91.7423 85.693C90.8412 86.073 89.878 86.4745 88.8474 86.904L80.3744 90.4356C76.4132 92.0866 73.4484 93.3223 71.0166 94.0866C68.5861 94.8505 66.6973 95.1404 64.8881 94.9062C62.5085 94.5983 60.2518 93.6694 58.345 92.2129C56.8953 91.1056 55.7579 89.57 54.5695 87.3165C53.3804 85.0617 52.1446 82.097 50.4935 78.1357Z" stroke="url(#paint1_linear_4009_27073)" stroke-width="0.2"/>
</g>
<g filter="url(#filter1_b_4009_27073)">
<rect x="85.4941" y="53.6276" width="4.67916" height="28.075" rx="2.33958" transform="rotate(67.3735 85.4941 53.6276)" fill="url(#paint2_linear_4009_27073)" fill-opacity="0.9"/>
<rect x="85.4511" y="53.7322" width="4.51916" height="27.915" rx="2.25958" transform="rotate(67.3735 85.4511 53.7322)" stroke="url(#paint3_linear_4009_27073)" stroke-width="0.16"/>
</g>
<g filter="url(#filter2_b_4009_27073)">
<rect x="84.7402" y="68.8615" width="5.16456" height="21.519" rx="2.58228" transform="rotate(67.3735 84.7402 68.8615)" fill="url(#paint4_linear_4009_27073)" fill-opacity="0.9"/>
<rect x="84.6972" y="68.9661" width="5.00456" height="21.359" rx="2.50228" transform="rotate(67.3735 84.6972 68.9661)" stroke="url(#paint5_linear_4009_27073)" stroke-width="0.16"/>
</g>
<g clip-path="url(#clip0_4009_27073)">
<path d="M268.909 101.593C270.075 98.4713 270.658 96.9104 271.699 95.8116C272.542 94.9213 273.592 94.2527 274.755 93.8653C276.191 93.3872 277.852 93.5191 281.174 93.7829L299.132 95.209C300.438 95.3127 301.091 95.3645 301.715 95.5251C302.224 95.6561 302.718 95.8407 303.189 96.0757C303.765 96.3638 304.292 96.7527 305.346 97.5306L319.84 108.229C322.521 110.208 323.862 111.197 324.633 112.5C325.257 113.555 325.611 114.748 325.664 115.973C325.73 117.485 325.146 119.046 323.98 122.168L315.227 145.597C313.717 149.639 312.962 151.66 311.578 152.889C310.461 153.882 309.071 154.515 307.59 154.708C305.754 154.947 303.733 154.192 299.691 152.682L267.24 140.558C263.198 139.048 261.177 138.293 259.948 136.909C258.956 135.792 258.322 134.402 258.129 132.921C257.89 131.085 258.645 129.064 260.155 125.022L268.909 101.593Z" fill="url(#paint6_linear_4009_27073)"/>
<g filter="url(#filter3_b_4009_27073)">
<path fill-rule="evenodd" clip-rule="evenodd" d="M287.811 81.0013C284.552 79.7838 280.548 82.4424 278.868 86.9393L276.508 93.2577C274.45 98.7651 273.421 101.519 273.585 104.147C273.749 106.775 275.258 109.661 278.278 115.433C282.439 123.387 285.128 129.274 289.346 130.885C293.652 132.529 299.517 129.809 307.846 126.503C313.924 124.09 316.963 122.883 318.797 121.012C320.63 119.141 321.657 116.392 323.712 110.893L326.072 104.575C327.752 100.078 326.472 95.4454 323.214 94.228L287.811 81.0013Z" fill="#F8B77B" fill-opacity="0.4"/>
<path d="M279.049 87.0069C279.876 84.7923 281.273 83.038 282.854 81.9883C284.435 80.9384 286.186 80.6005 287.743 81.1822L323.146 94.4089C324.703 94.9906 325.803 96.3937 326.309 98.223C326.814 100.052 326.719 102.293 325.891 104.507L323.531 110.826C322.503 113.577 321.735 115.631 320.996 117.232C320.258 118.83 319.554 119.963 318.659 120.877C317.765 121.789 316.57 122.547 314.83 123.38C313.088 124.214 310.816 125.116 307.774 126.323C306.961 126.646 306.172 126.963 305.406 127.271C302.243 128.541 299.476 129.653 297.033 130.365C293.999 131.25 291.507 131.503 289.415 130.704C287.366 129.922 285.667 128.092 283.953 125.433C282.571 123.289 281.194 120.632 279.619 117.593C279.241 116.865 278.852 116.114 278.449 115.343C276.938 112.455 275.809 110.298 275.037 108.534C274.266 106.771 273.858 105.416 273.778 104.135C273.698 102.852 273.908 101.53 274.399 99.8357C274.89 98.139 275.659 96.0817 276.688 93.3253L279.049 87.0069Z" stroke="url(#paint7_linear_4009_27073)" stroke-width="0.386237"/>
</g>
<rect x="312.706" y="103.913" width="3.89025" height="24.8864" rx="1.94512" transform="rotate(110.486 312.706 103.913)" fill="url(#paint8_linear_4009_27073)" fill-opacity="0.9" stroke="url(#paint9_linear_4009_27073)" stroke-width="0.308989"/>
<rect x="308.295" y="115.716" width="3.89025" height="24.8864" rx="1.94512" transform="rotate(110.486 308.295 115.716)" fill="url(#paint10_linear_4009_27073)" fill-opacity="0.9" stroke="url(#paint11_linear_4009_27073)" stroke-width="0.308989"/>
<path fill-rule="evenodd" clip-rule="evenodd" d="M272.874 101.903C271.832 100.128 269.402 100.277 268.681 102.205C268.558 102.534 268.59 102.901 268.768 103.204L286.801 133.915C287.304 134.772 288.339 135.159 289.281 134.841L323.03 123.478C323.364 123.366 323.629 123.109 323.753 122.779C324.473 120.852 322.736 119.147 320.786 119.803L298.855 127.187L298.855 127.187C295.472 128.326 293.78 128.896 292.188 128.739C290.898 128.612 289.665 128.151 288.608 127.401C287.302 126.476 286.399 124.936 284.591 121.858L272.874 101.903Z" fill="url(#paint12_linear_4009_27073)"/>
</g>
<defs>
<filter id="filter0_b_4009_27073" x="41.5761" y="35.806" width="70.0646" height="63.5469" filterUnits="userSpaceOnUse" color-interpolation-filters="sRGB">
<feFlood flood-opacity="0" result="BackgroundImageFix"/>
<feGaussianBlur in="BackgroundImageFix" stdDeviation="2.13382"/>
<feComposite in2="SourceAlpha" operator="in" result="effect1_backgroundBlur_4009_27073"/>
<feBlend mode="normal" in="SourceGraphic" in2="effect1_backgroundBlur_4009_27073" result="shape"/>
</filter>
<filter id="filter1_b_4009_27073" x="55.95" y="49.9981" width="34.9731" height="22.379" filterUnits="userSpaceOnUse" color-interpolation-filters="sRGB">
<feFlood flood-opacity="0" result="BackgroundImageFix"/>
<feGaussianBlur in="BackgroundImageFix" stdDeviation="2.17443"/>
<feComposite in2="SourceAlpha" operator="in" result="effect1_backgroundBlur_4009_27073"/>
<feBlend mode="normal" in="SourceGraphic" in2="effect1_backgroundBlur_4009_27073" result="shape"/>
</filter>
<filter id="filter2_b_4009_27073" x="61.323" y="65.3067" width="28.9594" height="20.1555" filterUnits="userSpaceOnUse" color-interpolation-filters="sRGB">
<feFlood flood-opacity="0" result="BackgroundImageFix"/>
<feGaussianBlur in="BackgroundImageFix" stdDeviation="2.17443"/>
<feComposite in2="SourceAlpha" operator="in" result="effect1_backgroundBlur_4009_27073"/>
<feBlend mode="normal" in="SourceGraphic" in2="effect1_backgroundBlur_4009_27073" result="shape"/>
</filter>
<filter id="filter3_b_4009_27073" x="265.327" y="72.4644" width="69.7274" height="67.1557" filterUnits="userSpaceOnUse" color-interpolation-filters="sRGB">
<feFlood flood-opacity="0" result="BackgroundImageFix"/>
<feGaussianBlur in="BackgroundImageFix" stdDeviation="4.1208"/>
<feComposite in2="SourceAlpha" operator="in" result="effect1_backgroundBlur_4009_27073"/>
<feBlend mode="normal" in="SourceGraphic" in2="effect1_backgroundBlur_4009_27073" result="shape"/>
</filter>
<linearGradient id="paint0_linear_4009_27073" x1="38.3359" y1="55.6523" x2="82.659" y2="53.7392" gradientUnits="userSpaceOnUse">
<stop stop-color="#FBA47F"/>
<stop offset="1" stop-color="#DF6B00"/>
</linearGradient>
<linearGradient id="paint1_linear_4009_27073" x1="39.7446" y1="62.8326" x2="125.555" y2="72.2261" gradientUnits="userSpaceOnUse">
<stop stop-color="white"/>
<stop offset="1" stop-color="white" stop-opacity="0"/>
</linearGradient>
<linearGradient id="paint2_linear_4009_27073" x1="93.6811" y1="50.3139" x2="87.6558" y2="76.9974" gradientUnits="userSpaceOnUse">
<stop stop-color="white" stop-opacity="0"/>
<stop offset="0.979167" stop-color="white"/>
</linearGradient>
<linearGradient id="paint3_linear_4009_27073" x1="87.8337" y1="53.6276" x2="87.8337" y2="81.7025" gradientUnits="userSpaceOnUse">
<stop stop-color="white" stop-opacity="0"/>
<stop offset="1" stop-color="white"/>
</linearGradient>
<linearGradient id="paint4_linear_4009_27073" x1="91.5835" y1="68.6308" x2="89.2496" y2="86.1072" gradientUnits="userSpaceOnUse">
<stop stop-color="white" stop-opacity="0"/>
<stop offset="0.979167" stop-color="white"/>
</linearGradient>
<linearGradient id="paint5_linear_4009_27073" x1="87.3225" y1="68.8615" x2="87.3225" y2="90.3805" gradientUnits="userSpaceOnUse">
<stop stop-color="white" stop-opacity="0"/>
<stop offset="1" stop-color="white"/>
</linearGradient>
<linearGradient id="paint6_linear_4009_27073" x1="286.742" y1="102.316" x2="322.546" y2="133.23" gradientUnits="userSpaceOnUse">
<stop stop-color="#FBA47F"/>
<stop offset="1" stop-color="#DF6B00"/>
</linearGradient>
<linearGradient id="paint7_linear_4009_27073" x1="277.069" y1="81.4709" x2="327.709" y2="141.559" gradientUnits="userSpaceOnUse">
<stop stop-color="white"/>
<stop offset="1" stop-color="white" stop-opacity="0"/>
</linearGradient>
<linearGradient id="paint8_linear_4009_27073" x1="315.243" y1="132.99" x2="315.243" y2="99.1692" gradientUnits="userSpaceOnUse">
<stop stop-color="white"/>
<stop offset="1" stop-color="white" stop-opacity="0"/>
</linearGradient>
<linearGradient id="paint9_linear_4009_27073" x1="304.555" y1="137.541" x2="322.708" y2="98.9177" gradientUnits="userSpaceOnUse">
<stop stop-color="white"/>
<stop offset="1" stop-color="white" stop-opacity="0"/>
</linearGradient>
<linearGradient id="paint10_linear_4009_27073" x1="307.004" y1="141.035" x2="310.761" y2="110.554" gradientUnits="userSpaceOnUse">
<stop stop-color="white"/>
<stop offset="1" stop-color="white" stop-opacity="0"/>
</linearGradient>
<linearGradient id="paint11_linear_4009_27073" x1="302.611" y1="142.392" x2="317.288" y2="116.127" gradientUnits="userSpaceOnUse">
<stop stop-color="white"/>
<stop offset="1" stop-color="white" stop-opacity="0"/>
</linearGradient>
<linearGradient id="paint12_linear_4009_27073" x1="283.381" y1="111.315" x2="304.43" y2="145.232" gradientUnits="userSpaceOnUse">
<stop stop-color="#FF8754"/>
<stop offset="1" stop-color="#FF7C03"/>
</linearGradient>
<clipPath id="clip0_4009_27073">
<rect width="92.6968" height="92.6968" fill="white" transform="translate(266.441 59) rotate(20.4858)"/>
</clipPath>
</defs>
</svg>
