<svg width="204" height="307" viewBox="0 0 204 307" fill="none" xmlns="http://www.w3.org/2000/svg">
<g filter="url(#filter0_b_4026_10000)">
<rect x="95" y="228.766" width="83.4523" height="83.4523" rx="20" transform="rotate(-21.6335 95 228.766)" fill="url(#paint0_radial_4026_10000)" fill-opacity="0.2"/>
</g>
<circle cx="152.54" cy="237.202" r="12.1741" transform="rotate(-21.6335 152.54 237.202)" fill="url(#paint1_linear_4026_10000)" stroke="url(#paint2_linear_4026_10000)"/>
<g clip-path="url(#clip0_4026_10000)">
<g filter="url(#filter1_b_4026_10000)">
<path d="M140.841 235.577C142.989 234.725 144.674 234.057 146.071 233.631C147.494 233.197 148.726 232.979 149.965 233.095C152.002 233.286 153.926 234.118 155.461 235.47C156.395 236.292 157.08 237.338 157.739 238.672C158.387 239.982 159.055 241.666 159.907 243.814L159.948 243.92C160.8 246.068 161.468 247.752 161.895 249.15C162.329 250.573 162.547 251.804 162.431 253.043C162.24 255.08 161.408 257.004 160.056 258.54C159.234 259.474 158.187 260.159 156.854 260.818C155.544 261.465 153.86 262.133 151.711 262.985L148.135 264.404L149.274 267.276C150.279 266.957 151.313 266.724 152.366 266.584L155.076 266.223C155.768 266.13 156.404 266.616 156.496 267.308C156.588 268 156.102 268.635 155.411 268.728L152.7 269.089C151.432 269.258 150.195 269.582 149.015 270.05C147.835 270.518 146.712 271.13 145.673 271.876L143.451 273.471C142.884 273.878 142.095 273.748 141.688 273.181C141.281 272.614 141.41 271.825 141.977 271.418L144.199 269.823C145.062 269.204 145.974 268.664 146.925 268.208L145.785 265.336L142.209 266.754C140.061 267.606 138.376 268.274 136.979 268.7C135.556 269.134 134.324 269.353 133.085 269.236C131.049 269.045 129.124 268.214 127.589 266.862C126.655 266.039 125.97 264.993 125.311 263.659C124.663 262.349 123.995 260.665 123.143 258.517L123.102 258.412C122.25 256.263 121.582 254.579 121.155 253.181C120.721 251.758 120.503 250.527 120.619 249.288C120.811 247.251 121.642 245.327 122.994 243.792C123.816 242.858 124.863 242.173 126.196 241.514C127.506 240.866 129.191 240.198 131.339 239.346L140.841 235.577Z" fill="url(#paint3_linear_4026_10000)" fill-opacity="0.35"/>
<path d="M140.841 235.577C142.989 234.725 144.674 234.057 146.071 233.631C147.494 233.197 148.726 232.979 149.965 233.095C152.002 233.286 153.926 234.118 155.461 235.47C156.395 236.292 157.08 237.338 157.739 238.672C158.387 239.982 159.055 241.666 159.907 243.814L159.948 243.92C160.8 246.068 161.468 247.752 161.895 249.15C162.329 250.573 162.547 251.804 162.431 253.043C162.24 255.08 161.408 257.004 160.056 258.54C159.234 259.474 158.187 260.159 156.854 260.818C155.544 261.465 153.86 262.133 151.711 262.985L148.135 264.404L149.274 267.276C150.279 266.957 151.313 266.724 152.366 266.584L155.076 266.223C155.768 266.13 156.404 266.616 156.496 267.308C156.588 268 156.102 268.635 155.411 268.728L152.7 269.089C151.432 269.258 150.195 269.582 149.015 270.05C147.835 270.518 146.712 271.13 145.673 271.876L143.451 273.471C142.884 273.878 142.095 273.748 141.688 273.181C141.281 272.614 141.41 271.825 141.977 271.418L144.199 269.823C145.062 269.204 145.974 268.664 146.925 268.208L145.785 265.336L142.209 266.754C140.061 267.606 138.376 268.274 136.979 268.7C135.556 269.134 134.324 269.353 133.085 269.236C131.049 269.045 129.124 268.214 127.589 266.862C126.655 266.039 125.97 264.993 125.311 263.659C124.663 262.349 123.995 260.665 123.143 258.517L123.102 258.412C122.25 256.263 121.582 254.579 121.155 253.181C120.721 251.758 120.503 250.527 120.619 249.288C120.811 247.251 121.642 245.327 122.994 243.792C123.816 242.858 124.863 242.173 126.196 241.514C127.506 240.866 129.191 240.198 131.339 239.346L140.841 235.577Z" stroke="url(#paint4_linear_4026_10000)" stroke-linecap="round"/>
</g>
</g>
<rect width="77.8159" height="75.0396" rx="20" transform="matrix(0.896071 -0.440591 0.429412 0.901743 0 157.91)" fill="#D9D9D9"/>
<rect width="77.8159" height="75.0396" rx="20" transform="matrix(0.896071 -0.440591 0.429412 0.901743 0 157.91)" fill="url(#paint5_linear_4026_10000)"/>
<g clip-path="url(#clip1_4026_10000)">
<g filter="url(#filter2_b_4026_10000)">
<path d="M48.7533 146.275L29.1989 155.89C21.2543 159.796 17.7778 169.246 21.4492 176.956L30.4857 195.932C34.1571 203.642 43.6071 206.736 51.5518 202.83L71.1062 193.215C79.0508 189.308 82.5273 179.858 78.8559 172.149L69.8195 153.173C66.1481 145.463 56.698 142.369 48.7533 146.275ZM73.9948 174.539C76.4288 179.65 74.1379 185.902 68.8597 188.497L49.3053 198.112C44.0382 200.702 37.786 198.664 35.3468 193.542L26.3104 174.566C23.8763 169.454 26.1672 163.202 31.4454 160.607L50.9998 150.992C56.267 148.403 62.5192 150.441 64.9583 155.563L73.9948 174.539Z" fill="#F8B77B" fill-opacity="0.4"/>
<path d="M29.4137 156.341L48.9681 146.726C56.6808 142.934 65.8259 145.947 69.3714 153.393L78.4079 172.369C81.9534 179.814 78.6042 188.972 70.8915 192.764L51.3371 202.379C43.6244 206.171 34.4792 203.157 30.9337 195.712L21.8972 176.736C18.3517 169.29 21.701 160.133 29.4137 156.341ZM69.0745 188.948C74.5849 186.239 77.0026 179.694 74.4428 174.319L65.4063 155.342C62.8412 149.956 56.2839 147.838 50.7851 150.542L31.2307 160.156C25.7202 162.866 23.3026 169.411 25.8623 174.786L34.8988 193.762C37.464 199.149 44.0212 201.267 49.52 198.563L69.0745 188.948Z" stroke="url(#paint6_linear_4026_10000)"/>
</g>
<g filter="url(#filter3_b_4026_10000)">
<path d="M44.3709 162.413C37.4687 165.806 34.4526 174.005 37.6422 180.703C40.8319 187.401 49.0305 190.086 55.9327 186.692C62.8349 183.298 65.851 175.099 62.6613 168.401C59.4717 161.703 51.2731 159.019 44.3709 162.413ZM53.6862 181.974C49.4615 184.052 44.4557 182.413 42.5034 178.313C40.5511 174.213 42.3926 169.207 46.6173 167.13C50.842 165.053 55.8478 166.692 57.8002 170.792C59.7525 174.891 57.911 179.897 53.6862 181.974Z" fill="#F8B77B" fill-opacity="0.4"/>
<path d="M38.0903 180.483C35.0265 174.049 37.9153 166.143 44.5856 162.863C51.2558 159.584 59.1495 162.188 62.2133 168.622C65.2771 175.055 62.3882 182.961 55.718 186.241C49.0477 189.521 41.154 186.917 38.0903 180.483ZM42.0554 178.533C44.1336 182.897 49.4443 184.617 53.901 182.425C58.3576 180.234 60.3264 174.935 58.2482 170.571C56.17 166.207 50.8593 164.488 46.4026 166.679C41.9459 168.87 39.9772 174.169 42.0554 178.533Z" stroke="url(#paint7_linear_4026_10000)"/>
</g>
<g filter="url(#filter4_b_4026_10000)">
<path d="M59.9559 154.868C60.7216 156.476 60.0015 158.434 58.3446 159.249C56.6876 160.063 54.7302 159.422 53.9645 157.814C53.1988 156.206 53.9189 154.249 55.5758 153.434C57.2167 152.614 59.1902 153.261 59.9559 154.868Z" fill="#F8B77B" fill-opacity="0.4"/>
<path d="M55.7905 153.885L55.7934 153.884C57.1992 153.181 58.8673 153.744 59.5079 155.089C60.1477 156.432 59.5549 158.097 58.1299 158.798C56.7049 159.498 55.0524 158.938 54.4125 157.594C53.7727 156.25 54.3655 154.586 55.7905 153.885Z" stroke="url(#paint8_linear_4026_10000)"/>
</g>
</g>
<rect width="70.3421" height="67.8598" rx="20" transform="matrix(0.944693 0.325856 -0.309014 0.950488 130.391 12.1631)" fill="#D9D9D9"/>
<rect width="70.3421" height="67.8598" rx="20" transform="matrix(0.944693 0.325856 -0.309014 0.950488 130.391 12.1631)" fill="url(#paint9_linear_4026_10000)"/>
<g filter="url(#filter5_b_4026_10000)">
<path fill-rule="evenodd" clip-rule="evenodd" d="M166.831 13.5923C162.144 27.4095 158.646 34.8776 151.667 38.2589C144.688 41.6404 136.457 39.855 122.305 35.1651L121.638 37.217C135.678 42.2515 143.293 45.9316 146.887 52.9601C150.482 59.9885 148.908 68.1204 144.572 82.0583L146.656 82.7772C151.343 68.96 154.841 61.492 161.82 58.1107C168.799 54.7293 177.029 56.5148 191.181 61.2044L191.848 59.1526C177.809 54.118 170.194 50.4382 166.599 43.4095C163.005 36.381 164.578 28.2492 168.915 14.3112L166.831 13.5923Z" fill="#F8B77B" fill-opacity="0.4"/>
<path d="M151.821 38.5764C158.892 35.1504 162.426 27.6226 167.049 14.0376L168.481 14.5313C164.229 28.2445 162.649 36.4461 166.291 43.5675C168.127 47.1589 170.987 49.8806 175.134 52.3318C179.21 54.7404 184.547 56.8985 191.411 59.367L190.957 60.7619C184.035 58.4752 178.512 56.8872 173.85 56.2821C169.106 55.6664 165.232 56.0654 161.666 57.7931C154.595 61.2191 151.061 68.7469 146.438 82.332L145.006 81.8382C149.258 68.125 150.838 59.9234 147.196 52.802C145.359 49.2107 142.5 46.4891 138.352 44.0378C134.277 41.6292 128.939 39.471 122.076 37.0025L122.529 35.6077C129.452 37.8945 134.975 39.4825 139.637 40.0876C144.381 40.7033 148.255 40.3043 151.821 38.5764Z" stroke="url(#paint10_linear_4026_10000)" stroke-width="0.7"/>
</g>
<defs>
<filter id="filter0_b_4026_10000" x="77.3555" y="180.356" width="143.629" height="143.629" filterUnits="userSpaceOnUse" color-interpolation-filters="sRGB">
<feFlood flood-opacity="0" result="BackgroundImageFix"/>
<feGaussianBlur in="BackgroundImageFix" stdDeviation="12"/>
<feComposite in2="SourceAlpha" operator="in" result="effect1_backgroundBlur_4026_10000"/>
<feBlend mode="normal" in="SourceGraphic" in2="effect1_backgroundBlur_4026_10000" result="shape"/>
</filter>
<filter id="filter1_b_4026_10000" x="96.0879" y="208.564" width="90.873" height="89.6442" filterUnits="userSpaceOnUse" color-interpolation-filters="sRGB">
<feFlood flood-opacity="0" result="BackgroundImageFix"/>
<feGaussianBlur in="BackgroundImageFix" stdDeviation="12"/>
<feComposite in2="SourceAlpha" operator="in" result="effect1_backgroundBlur_4026_10000"/>
<feBlend mode="normal" in="SourceGraphic" in2="effect1_backgroundBlur_4026_10000" result="shape"/>
</filter>
<filter id="filter2_b_4026_10000" x="5.35723" y="129.955" width="89.5902" height="89.1942" filterUnits="userSpaceOnUse" color-interpolation-filters="sRGB">
<feFlood flood-opacity="0" result="BackgroundImageFix"/>
<feGaussianBlur in="BackgroundImageFix" stdDeviation="7.31455"/>
<feComposite in2="SourceAlpha" operator="in" result="effect1_backgroundBlur_4026_10000"/>
<feBlend mode="normal" in="SourceGraphic" in2="effect1_backgroundBlur_4026_10000" result="shape"/>
</filter>
<filter id="filter3_b_4026_10000" x="21.742" y="146.314" width="56.8207" height="56.4767" filterUnits="userSpaceOnUse" color-interpolation-filters="sRGB">
<feFlood flood-opacity="0" result="BackgroundImageFix"/>
<feGaussianBlur in="BackgroundImageFix" stdDeviation="7.31455"/>
<feComposite in2="SourceAlpha" operator="in" result="effect1_backgroundBlur_4026_10000"/>
<feBlend mode="normal" in="SourceGraphic" in2="effect1_backgroundBlur_4026_10000" result="shape"/>
</filter>
<filter id="filter4_b_4026_10000" x="39.0291" y="138.449" width="35.8617" height="35.7818" filterUnits="userSpaceOnUse" color-interpolation-filters="sRGB">
<feFlood flood-opacity="0" result="BackgroundImageFix"/>
<feGaussianBlur in="BackgroundImageFix" stdDeviation="7.31455"/>
<feComposite in2="SourceAlpha" operator="in" result="effect1_backgroundBlur_4026_10000"/>
<feBlend mode="normal" in="SourceGraphic" in2="effect1_backgroundBlur_4026_10000" result="shape"/>
</filter>
<filter id="filter5_b_4026_10000" x="107.01" y="-1.03675" width="99.4672" height="98.443" filterUnits="userSpaceOnUse" color-interpolation-filters="sRGB">
<feFlood flood-opacity="0" result="BackgroundImageFix"/>
<feGaussianBlur in="BackgroundImageFix" stdDeviation="7.31455"/>
<feComposite in2="SourceAlpha" operator="in" result="effect1_backgroundBlur_4026_10000"/>
<feBlend mode="normal" in="SourceGraphic" in2="effect1_backgroundBlur_4026_10000" result="shape"/>
</filter>
<radialGradient id="paint0_radial_4026_10000" cx="0" cy="0" r="1" gradientUnits="userSpaceOnUse" gradientTransform="translate(95 228.766) rotate(45) scale(118.019)">
<stop stop-color="#FAFAFA"/>
<stop offset="1" stop-color="#F7F7F7" stop-opacity="0"/>
</radialGradient>
<linearGradient id="paint1_linear_4026_10000" x1="139.866" y1="249.876" x2="165.754" y2="225.092" gradientUnits="userSpaceOnUse">
<stop stop-color="#DC5D01"/>
<stop offset="1" stop-color="#F37D40"/>
</linearGradient>
<linearGradient id="paint2_linear_4026_10000" x1="138.055" y1="226.832" x2="173.874" y2="245.326" gradientUnits="userSpaceOnUse">
<stop stop-color="white"/>
<stop offset="1" stop-color="white" stop-opacity="0"/>
</linearGradient>
<linearGradient id="paint3_linear_4026_10000" x1="131.042" y1="278.433" x2="151.159" y2="228.812" gradientUnits="userSpaceOnUse">
<stop stop-color="#DC5D01"/>
<stop offset="1" stop-color="#F37D40"/>
</linearGradient>
<linearGradient id="paint4_linear_4026_10000" x1="116.273" y1="248.864" x2="177.416" y2="257.245" gradientUnits="userSpaceOnUse">
<stop stop-color="white"/>
<stop offset="1" stop-color="white" stop-opacity="0"/>
</linearGradient>
<linearGradient id="paint5_linear_4026_10000" x1="22.4469" y1="16.4149" x2="81.6822" y2="37.5391" gradientUnits="userSpaceOnUse">
<stop stop-color="#FBA47F"/>
<stop offset="1" stop-color="#DF6B00"/>
</linearGradient>
<linearGradient id="paint6_linear_4026_10000" x1="13.3681" y1="168.94" x2="97.8906" y2="172.682" gradientUnits="userSpaceOnUse">
<stop stop-color="white"/>
<stop offset="1" stop-color="white" stop-opacity="0"/>
</linearGradient>
<linearGradient id="paint7_linear_4026_10000" x1="31.1253" y1="171.649" x2="74.8439" y2="173.585" gradientUnits="userSpaceOnUse">
<stop stop-color="white"/>
<stop offset="1" stop-color="white" stop-opacity="0"/>
</linearGradient>
<linearGradient id="paint8_linear_4026_10000" x1="52.4038" y1="155.646" x2="62.8733" y2="156.11" gradientUnits="userSpaceOnUse">
<stop stop-color="white"/>
<stop offset="1" stop-color="white" stop-opacity="0"/>
</linearGradient>
<linearGradient id="paint9_linear_4026_10000" x1="20.291" y1="14.8443" x2="73.842" y2="33.9337" gradientUnits="userSpaceOnUse">
<stop stop-color="#FBA47F"/>
<stop offset="1" stop-color="#DF6B00"/>
</linearGradient>
<linearGradient id="paint10_linear_4026_10000" x1="126.111" y1="6.46886" x2="207.525" y2="90.9109" gradientUnits="userSpaceOnUse">
<stop stop-color="white"/>
<stop offset="1" stop-color="white" stop-opacity="0"/>
</linearGradient>
<clipPath id="clip0_4026_10000">
<rect width="40.4363" height="40.4363" fill="white" transform="translate(116.551 243.036) rotate(-21.6335)"/>
</clipPath>
<clipPath id="clip1_4026_10000">
<rect width="53.9804" height="52.0545" fill="white" transform="matrix(0.896071 -0.440591 0.429412 0.901743 14.791 162.974)"/>
</clipPath>
</defs>
</svg>
