<svg width="178" height="60" viewBox="0 0 178 60" fill="none" xmlns="http://www.w3.org/2000/svg">
<path d="M136.968 35.8188C135.338 37.6026 133.115 38.6431 130.596 38.6431C125.853 38.6431 122 34.7783 122 30.0216C122 25.265 125.853 21.4002 130.596 21.4002C132.522 21.4002 134.152 21.9948 135.634 23.0353L140.376 16.3462C137.709 14.4138 134.3 13.2246 130.744 13.2246C121.556 13.2246 113.998 20.8056 113.998 30.0216C113.998 39.2377 121.556 46.8186 130.744 46.8186C135.041 46.8186 138.894 45.1835 141.858 42.5079L136.968 35.8188Z" fill="black"/>
<path fill-rule="evenodd" clip-rule="evenodd" d="M94.1394 20.805L98.8822 14.2646C105.402 16.4943 109.996 22.7374 109.996 30.0211C109.996 39.2371 102.439 46.8181 93.2502 46.8181V54.3991H85.3964V46.8181C76.2082 46.8181 68.6504 39.2371 68.6504 30.0211C68.6504 20.805 76.2082 13.224 85.3964 13.224V5.94043H93.2502V13.224V20.805V39.2372C98.2894 39.2372 102.439 35.0751 102.439 30.0211C102.439 25.2644 98.734 21.2509 94.1394 20.805ZM85.3961 20.8047C80.3575 20.8047 76.208 24.9668 76.208 30.0208C76.208 35.0747 80.3575 39.2368 85.3961 39.2368V20.8047Z" fill="black"/>
<path fill-rule="evenodd" clip-rule="evenodd" d="M167.644 13.9658L156.085 30.0196L168.237 46.222H177.277L164.977 29.8709L176.536 13.9658H167.644ZM146.601 46.0733H155.047V13.9658H146.601V46.0733Z" fill="black"/>
<path d="M23.0594 17.5907H56.467C53.0672 10.0518 46.8587 4.28675 39.0242 1.62598L23.0594 17.5907Z" fill="#D7592A"/>
<path d="M58.2415 22.321H17.4429C16.5559 22.321 15.669 21.7298 15.2256 20.8428C14.9299 19.9559 15.0778 18.9211 15.669 18.3298L33.7032 0.295643C32.3728 0.147821 30.8947 0 29.5643 0C13.3039 0 0 13.3039 0 29.5643C0 31.7816 0.295643 33.8511 0.739106 35.9205H41.9813C42.8681 35.9205 43.755 36.5118 44.1985 37.3988C44.4942 38.2857 44.3464 39.3205 43.755 39.9117L24.834 58.6851C26.3122 58.9807 27.9382 59.1284 29.5643 59.1284C45.8246 59.1284 59.1284 45.8246 59.1284 29.5643C59.1284 27.0512 58.8328 24.5383 58.2415 22.321Z" fill="#D7592A"/>
<path d="M36.2157 40.6504H2.2168C5.32105 48.3371 11.6774 54.5456 19.5119 57.3542L36.2157 40.6504Z" fill="#D7592A"/>
</svg>
