<svg width="124" height="63" viewBox="0 0 124 63" fill="none" xmlns="http://www.w3.org/2000/svg">
<g clip-path="url(#clip0_219_11693)">
<path d="M104 0H20C8.9543 0 0 8.9543 0 20V42.6526C0 53.6983 8.9543 62.6526 20 62.6526H104C115.046 62.6526 124 53.6983 124 42.6526V20C124 8.9543 115.046 0 104 0Z" fill="#E61D25"/>
<path d="M100.169 8H81.2637C72.4271 8 65.2637 15.1634 65.2637 24V38.9895C65.2637 47.8261 72.4271 54.9895 81.2637 54.9895H100.169C109.006 54.9895 116.169 47.8261 116.169 38.9895V24C116.169 15.1634 109.006 8 100.169 8Z" fill="white"/>
<path d="M24.7617 37.3579C24.7617 38.0788 24.1773 38.6632 23.4564 38.6632H21.7048C21.2794 38.6632 20.8808 38.4559 20.6364 38.1078L13.832 28.413V37.3579C13.832 38.0788 13.2476 38.6632 12.5267 38.6632H11.7476C11.0268 38.6632 10.4424 38.0788 10.4424 37.3579V24.3053C10.4424 23.5844 11.0268 23 11.7476 23H13.4295C13.8552 23 14.2541 23.2076 14.4984 23.5562L21.3721 33.3653V24.3053C21.3721 23.5844 21.9565 23 22.6774 23H23.4564C24.1773 23 24.7617 23.5844 24.7617 24.3053V37.3579Z" fill="white"/>
<path d="M29.5366 38.6632C28.8157 38.6632 28.2313 38.0788 28.2313 37.3579V24.3053C28.2313 23.5844 28.8157 23 29.5366 23H34.2727C36.8706 23 38.869 23.6373 40.2679 24.9118C41.6667 26.1864 42.3662 28.1596 42.3662 30.8316C42.3662 33.5189 41.6591 35.4998 40.2448 36.7744C38.8306 38.0336 36.7707 38.6632 34.0651 38.6632H29.5366ZM31.7132 35.5305H34.0882C35.7484 35.5305 36.9474 35.139 37.6853 34.3558C38.4232 33.5726 38.7921 32.3979 38.7921 30.8316C38.7921 29.2038 38.4155 28.0138 37.6623 27.2613C36.9244 26.5089 35.7253 26.1326 34.0651 26.1326H31.7132V35.5305Z" fill="white"/>
<path d="M49.7535 38.6632C49.2071 38.6632 48.7186 38.3228 48.5292 37.8103L43.7061 24.7577C43.3912 23.9053 44.0218 23 44.9305 23H45.9145C46.468 23 46.9614 23.3492 47.1454 23.8712L50.9888 34.7704L54.7879 23.8755C54.9707 23.3512 55.4651 23 56.0204 23H56.8652C57.7731 23 58.4037 23.904 58.0901 24.7561L53.2863 37.8087C53.0973 38.3221 52.6083 38.6632 52.0613 38.6632H49.7535Z" fill="white"/>
<path d="M77.0105 38.4362C76.2896 38.4362 75.7053 37.8518 75.7053 37.1309V24.3053C75.7053 23.5844 76.2896 23 77.0105 23H82.8551C84.6268 23 86.0458 23.4086 87.112 24.2258C88.1782 25.043 88.7113 26.3445 88.7113 28.1303C88.7113 29.3107 88.4526 30.2792 87.9352 31.0359C87.4178 31.7926 86.6965 32.3374 85.7714 32.6703L88.124 36.4398C88.6666 37.3092 88.0415 38.4362 87.0167 38.4362H86.1088C85.6513 38.4362 85.2272 38.1966 84.991 37.8048L82.1965 33.1697H79.2566V37.1309C79.2566 37.8518 78.6723 38.4362 77.9514 38.4362H77.0105ZM79.2566 30.2641H82.4552C83.396 30.2641 84.0702 30.09 84.4779 29.742C84.8856 29.3788 85.0894 28.8415 85.0894 28.1303C85.0894 27.3585 84.8856 26.8061 84.4779 26.4731C84.0702 26.1251 83.396 25.951 82.4552 25.951H79.2566V30.2641Z" fill="#2F2F2F"/>
<path d="M102.175 32.2617V24.3053C102.175 23.5844 102.759 23 103.48 23H104.421C105.142 23 105.726 23.5844 105.726 24.3053V32.1936C105.726 34.3577 105.17 35.977 104.056 37.0515C102.943 38.1259 101.203 38.6632 98.8352 38.6632C96.4833 38.6632 94.7115 38.1259 93.5199 37.0515C92.3439 35.977 91.756 34.3577 91.756 32.1936V24.3053C91.756 23.5844 92.3403 23 93.0612 23H94.0021C94.723 23 95.3073 23.5844 95.3073 24.3053V32.2617C95.3073 33.3513 95.5739 34.1837 96.107 34.7587C96.6558 35.3187 97.5652 35.5986 98.8352 35.5986C100.058 35.5986 100.921 35.3187 101.422 34.7587C101.924 34.1837 102.175 33.3513 102.175 32.2617Z" fill="#2F2F2F"/>
</g>
<defs>
<clipPath id="clip0_219_11693">
<rect width="124" height="63" fill="white"/>
</clipPath>
</defs>
</svg>
