<svg width="209" height="50" viewBox="0 0 209 50" fill="none" xmlns="http://www.w3.org/2000/svg">
<g clip-path="url(#clip0_219_11735)">
<path d="M103.1 17.3498C99.8798 17.3498 98.0998 15.0498 98.0998 11.0198V10.7998C98.0998 6.79982 100.05 4.40984 103.1 4.40984C105.56 4.40984 106.83 5.62981 107.16 7.97981H111.65C111.598 6.95478 111.33 5.95219 110.865 5.03731C110.4 4.12243 109.747 3.31576 108.95 2.66982C107.231 1.46614 105.166 0.858512 103.07 0.939836C101.804 0.914236 100.545 1.14261 99.3685 1.6115C98.1919 2.08039 97.1213 2.78027 96.2198 3.66982C95.311 4.62277 94.5993 5.74585 94.1257 6.97457C93.652 8.20328 93.4257 9.51342 93.4598 10.8298V11.0498C93.3129 13.6685 94.2081 16.2388 95.9498 18.1998C96.9014 19.1271 98.0358 19.8461 99.2805 20.311C100.525 20.7758 101.853 20.9764 103.18 20.8998C105.332 20.9936 107.45 20.3439 109.18 19.0598C109.982 18.3935 110.638 17.5694 111.107 16.6387C111.577 15.708 111.85 14.6906 111.91 13.6498H107.6C107.25 16.1298 105.6 17.3498 103.16 17.3498M119.52 1.23982L113.1 20.5998H117.21L118.54 16.2998H125.54L126.87 20.5998H131.45L125.17 1.23982H119.52ZM119.52 13.2398L122.09 4.86983L124.64 13.2398H119.52ZM141.16 1.23982H134.47V20.5998H138.83V13.5998H141.29C143.167 13.7105 145.027 13.1856 146.57 12.1098C147.241 11.5675 147.773 10.8724 148.121 10.0826C148.469 9.29281 148.623 8.43122 148.57 7.56981V7.45983C148.57 3.33983 145.92 1.27983 141.18 1.27983M144.35 7.58983C144.35 9.58983 143.26 10.5898 141.07 10.5898H138.85V4.65984H141.07C143.15 4.65984 144.35 5.46981 144.35 7.53981V7.58983ZM152.2 20.6398H156.62V1.23982H152.2V20.6398ZM175.2 1.27983H160.29V4.68984H165.52V20.6398H169.93V4.64983H175.15L175.2 1.27983ZM181.2 1.27983L174.83 20.6398H178.95L180.28 16.3398H187.28L188.61 20.6398H193.18L186.91 1.27983H181.2ZM181.2 13.2798L183.77 4.90984L186.31 13.2798H181.2ZM200.53 1.27983H196.15V20.6398H208.41V17.1998H200.53V1.27983ZM103.71 41.2798H108.1C108.109 41.8099 108.014 42.3366 107.818 42.8293C107.622 43.322 107.33 43.7709 106.96 44.1498C106.487 44.5796 105.933 44.9093 105.33 45.1189C104.726 45.3286 104.087 45.414 103.45 45.3698C102.666 45.4286 101.88 45.2943 101.16 44.9788C100.44 44.6632 99.8079 44.176 99.3198 43.5598C98.4088 42.201 97.9632 40.5834 98.0498 38.9498V38.7098C98.0498 34.7098 99.9998 32.2298 103.39 32.2298C105.74 32.2298 107.18 33.2298 107.58 35.5398H111.94C111.879 34.5152 111.59 33.517 111.096 32.6177C110.601 31.7183 109.912 30.9402 109.08 30.3398C107.366 29.2171 105.348 28.6481 103.3 28.7098C101.998 28.6828 100.703 28.9126 99.4901 29.3862C98.277 29.8598 97.1691 30.5678 96.2298 31.4698C95.3117 32.4089 94.5923 33.5233 94.1146 34.7467C93.637 35.97 93.4108 37.2771 93.4498 38.5898V38.8098C93.3906 40.0987 93.5862 41.3867 94.0255 42.5998C94.4648 43.813 95.1391 44.9276 96.0098 45.8798C96.9605 46.8336 98.1002 47.5781 99.3556 48.0655C100.611 48.5528 101.955 48.7723 103.3 48.7098C105.766 48.8362 108.183 47.9804 110.02 46.3298C110.82 45.5082 111.444 44.5318 111.853 43.4605C112.262 42.3892 112.448 41.2456 112.4 40.0998V38.0398H103.71V41.2798ZM129.17 38.4998C129.962 37.5412 130.368 36.3219 130.31 35.0798V34.9698C130.361 34.1231 130.205 33.2767 129.857 32.5034C129.509 31.73 128.978 31.0528 128.31 30.5298C126.697 29.4807 124.79 28.976 122.87 29.0898H115.9V48.4098H120.26V40.9298H122.15L126.78 48.4098H131.44L126.32 40.1798C127.414 39.884 128.402 39.2841 129.17 38.4498M126.03 35.1698C126.03 37.0098 124.92 37.9598 122.72 37.9598H120.26V32.4098H122.72C124.86 32.4098 126.03 33.0798 126.03 35.0598V35.1698ZM143.11 28.7698C140.463 28.7144 137.903 29.7105 135.99 31.5398C135.056 32.4637 134.321 33.5699 133.833 34.7896C133.344 36.0093 133.112 37.3165 133.15 38.6298V38.8498C133.092 40.1677 133.311 41.4831 133.792 42.7114C134.273 43.9398 135.005 45.054 135.942 45.9826C136.879 46.9111 138 47.6334 139.232 48.103C140.465 48.5727 141.782 48.7794 143.1 48.7098C144.431 48.7788 145.762 48.5674 147.007 48.0893C148.251 47.6111 149.381 46.877 150.324 45.9342C151.267 44.9915 152.001 43.8613 152.479 42.6168C152.957 41.3723 153.169 40.0412 153.1 38.7098V38.4998C153.134 37.1935 152.903 35.8937 152.422 34.6787C151.941 33.4637 151.219 32.3586 150.3 31.4298C148.358 29.622 145.781 28.6551 143.13 28.7398M148.52 38.7398C148.588 40.4107 148.083 42.0547 147.09 43.3998C146.598 43.9475 145.997 44.3855 145.325 44.6853C144.653 44.9852 143.926 45.1402 143.19 45.1402C142.454 45.1402 141.726 44.9852 141.054 44.6853C140.382 44.3855 139.781 43.9475 139.29 43.3998C138.213 42.0924 137.661 40.4316 137.74 38.7398V38.5298C137.646 36.8541 138.157 35.2003 139.18 33.8698C139.669 33.3086 140.278 32.8639 140.961 32.568C141.645 32.2722 142.386 32.1327 143.13 32.1598C143.886 32.1313 144.639 32.2748 145.332 32.5797C146.025 32.8846 146.64 33.3428 147.13 33.9198C148.099 35.2453 148.592 36.8591 148.53 38.4998L148.52 38.7398ZM168.18 40.3598C168.18 43.9098 167.05 45.1498 164.44 45.1498C161.83 45.1498 160.85 43.7698 160.85 40.5198V29.0398H156.43V40.8498C156.43 46.0298 159.3 48.7098 164.43 48.7098C169.7 48.7098 172.61 45.9998 172.61 40.7098V29.0398H168.19L168.18 40.3598ZM183.62 28.9798H176.93V48.4098H181.29V41.3598H183.76C185.635 41.4656 187.493 40.945 189.04 39.8798C189.71 39.3343 190.241 38.6372 190.589 37.8461C190.936 37.055 191.091 36.1925 191.04 35.3298V35.2198C191.04 31.0998 188.38 29.0398 183.64 29.0398M186.81 35.3598C186.81 37.3598 185.72 38.3598 183.54 38.3598H181.31V32.4298H183.54C185.62 32.4298 186.81 33.2398 186.81 35.2998V35.3598Z" fill="#0060A7"/>
<path d="M26.22 38.23C29.0916 38.3405 31.9145 37.4654 34.22 35.75C35.2967 34.8524 36.1773 33.7429 36.8069 32.4905C37.4366 31.2381 37.8018 29.8696 37.88 28.47H32.11C31.63 31.82 29.38 33.47 26.11 33.47C21.78 33.47 19.34 30.38 19.34 24.96V24.71C19.34 19.29 21.95 16.13 26.07 16.13C29.38 16.13 31.07 17.76 31.53 20.93H37.53C37.4828 19.5459 37.144 18.1873 36.5357 16.9432C35.9274 15.699 35.0633 14.5973 34 13.71C31.4119 11.983 28.3179 11.177 25.2161 11.4219C22.1143 11.6668 19.1851 12.9482 16.9 15.06C15.6744 16.3331 14.715 17.8379 14.078 19.4863C13.441 21.1346 13.1391 22.8935 13.19 24.66V24.95C13.19 28.95 14.32 32.26 16.54 34.55C18.76 36.84 21.99 38.19 26.25 38.19M54.08 38.19C57.98 38.19 61.08 37.03 63.08 34.99C64.1559 33.8868 64.9948 32.5751 65.5451 31.1357C66.0954 29.6963 66.3455 28.1596 66.28 26.62V23.86H54.6V28.14H60.45C60.4653 28.852 60.3387 29.56 60.0778 30.2227C59.8168 30.8854 59.4267 31.4895 58.93 32C57.4357 33.1889 55.5464 33.7673 53.6426 33.6189C51.7388 33.4704 49.962 32.6061 48.67 31.2C47.4371 29.3835 46.8362 27.2118 46.96 25.02V24.73C46.96 19.38 49.58 16.04 54.13 16.04C57.29 16.04 59.22 17.41 59.76 20.47H65.62C65.5361 19.09 65.1462 17.7459 64.4786 16.5352C63.811 15.3244 62.8823 14.2774 61.76 13.47C59.4613 12.0068 56.7732 11.2747 54.05 11.37C52.3016 11.3315 50.5629 11.6395 48.9341 12.2763C47.3053 12.913 45.8187 13.8659 44.56 15.08C43.3216 16.3396 42.3509 17.8368 41.7064 19.4815C41.0619 21.1262 40.757 22.8843 40.81 24.65V24.94C40.7325 26.671 40.9973 28.4003 41.5894 30.0288C42.1814 31.6573 43.0889 33.1529 44.26 34.43C46.49 36.79 49.8 38.18 54.05 38.18M0 49.65H79.44V0H0V49.65ZM74.48 44.65H5V4.95999H74.51L74.48 44.65Z" fill="#0060A7"/>
</g>
<defs>
<clipPath id="clip0_219_11735">
<rect width="208.31" height="49.65" fill="white"/>
</clipPath>
</defs>
</svg>
