<svg width="189" height="46" viewBox="0 0 189 46" fill="none" xmlns="http://www.w3.org/2000/svg">
<path fill-rule="evenodd" clip-rule="evenodd" d="M184.34 45.3263H177.356C176.519 45.3594 175.684 45.2191 174.903 44.9143C174.122 44.6094 173.412 44.1465 172.818 43.5544C172.224 42.9623 171.757 42.2537 171.448 41.473C171.14 40.6922 170.994 39.856 171.022 39.0166V9.786H175.888V36.6443C175.888 37.9471 176.076 39.2721 176.906 39.7471C177.687 40.0284 178.521 40.1295 179.346 40.0429H183.806V9.786H188.667V45.3263H184.34ZM184.429 5.21795L182.015 5.29156H177.753L175.353 5.23045C175.269 5.2009 175.18 5.18678 175.091 5.18878C172.781 4.93045 173.04 2.311 173.04 0.756836H186.652C186.655 2.35267 186.813 4.97906 184.429 5.21795ZM158.864 45.3263H152.991C152.155 45.3584 151.321 45.2175 150.542 44.9126C149.762 44.6076 149.053 44.145 148.46 43.5536C147.866 42.9623 147.4 42.2547 147.092 41.4751C146.783 40.6955 146.637 39.8605 146.664 39.0221V16.1249C146.637 15.2863 146.782 14.451 147.091 13.671C147.399 12.8911 147.865 12.1832 148.459 11.5915C149.052 10.9998 149.761 10.537 150.541 10.2319C151.321 9.92674 152.155 9.78584 152.991 9.81795H158.864C159.701 9.78545 160.535 9.92606 161.315 10.231C162.096 10.536 162.805 10.9988 163.399 11.5905C163.993 12.1822 164.458 12.8902 164.767 13.6703C165.076 14.4505 165.221 15.286 165.194 16.1249V39.0235C165.221 39.862 165.075 40.6971 164.766 41.4768C164.457 42.2564 163.991 42.9639 163.397 43.5552C162.803 44.1464 162.094 44.6088 161.314 44.9135C160.535 45.2183 159.7 45.3587 158.864 45.3263ZM160.333 18.4596C160.333 17.1596 160.144 15.8332 159.314 15.3582C158.532 15.0781 157.696 14.978 156.87 15.0652H154.985C154.16 14.978 153.325 15.0782 152.544 15.3582C151.712 15.8332 151.525 17.1638 151.525 18.4596V36.636C151.525 37.9374 151.711 39.2624 152.544 39.7388C153.326 40.0161 154.16 40.1157 154.985 40.0304H156.87C157.696 40.1158 158.531 40.0162 159.314 39.7388C160.146 39.2624 160.333 37.9332 160.333 36.636V18.4596ZM135.066 30.936H128.622V45.3277H123.758V9.81517H135.066C135.902 9.78287 136.737 9.92363 137.517 10.2287C138.297 10.5337 139.006 10.9965 139.6 11.5882C140.193 12.1799 140.659 12.8879 140.968 13.6679C141.277 14.4479 141.422 15.2834 141.394 16.1221V24.6277C141.422 25.4665 141.277 26.3021 140.968 27.0823C140.66 27.8625 140.194 28.5706 139.6 29.1625C139.006 29.7543 138.297 30.2173 137.517 30.5224C136.737 30.8275 135.903 30.9683 135.066 30.936ZM136.531 18.4638C136.531 17.1596 136.341 15.8346 135.515 15.3624C134.734 15.0803 133.9 14.9791 133.075 15.0666H128.622V25.6749H133.07C133.897 25.762 134.732 25.6613 135.515 25.3804C136.346 24.9082 136.531 23.5818 136.531 22.2846V18.4638ZM112.441 45.3277H107.575V15.0652H101.182V9.78739H118.835V15.0652H112.441V45.3277ZM91.4782 45.3277H86.5506C85.7144 45.3596 84.8806 45.2186 84.1011 44.9135C83.3216 44.6085 82.6131 44.1459 82.0197 43.5545C81.4264 42.9631 80.9608 42.2557 80.652 41.4762C80.3431 40.6967 80.1977 39.8618 80.2248 39.0235V16.1318C80.1979 15.2937 80.3435 14.4589 80.6524 13.6796C80.9613 12.9002 81.4269 12.193 82.0203 11.6017C82.6136 11.0105 83.3221 10.5481 84.1014 10.2431C84.8808 9.93811 85.7145 9.79718 86.5506 9.82906H91.4782C92.3142 9.79718 93.1479 9.93811 93.9273 10.2431C94.7067 10.5481 95.4151 11.0105 96.0085 11.6017C96.6018 12.193 97.0675 12.9002 97.3764 13.6796C97.6852 14.4589 97.8308 15.2937 97.804 16.1318V19.0943H92.9443V18.4596C92.9443 17.1582 92.7516 15.8332 91.9271 15.3582C91.1462 15.0794 90.3128 14.9798 89.4883 15.0666H88.5418C87.7178 14.9796 86.8848 15.0793 86.1044 15.3582C85.2729 15.8332 85.0886 17.1638 85.0886 18.4596V36.6388C85.0886 37.9402 85.2716 39.2638 86.1044 39.7402C86.8854 40.0167 87.7179 40.1158 88.5418 40.0304H89.4883C90.3127 40.1156 91.1456 40.0165 91.9271 39.7402C92.7586 39.2638 92.9443 37.9346 92.9443 36.6388V36.0485H97.804V39.0221C97.831 39.8604 97.6856 40.6953 97.3768 41.4748C97.068 42.2543 96.6024 42.9618 96.009 43.5531C95.4156 44.1445 94.7071 44.6071 93.9276 44.9121C93.1481 45.2172 92.3144 45.3596 91.4782 45.3277ZM68.6832 30.7638H60.7846V45.2679H55.8903V9.78045H60.7846V25.4749H68.6832V9.78045H73.5443V45.2666H68.6832V30.7638ZM42.8728 45.3277H36.9974C36.1612 45.3596 35.3274 45.2186 34.548 44.9135C33.7685 44.6085 33.06 44.1459 32.4666 43.5545C31.8732 42.9631 31.4076 42.2557 31.0988 41.4762C30.79 40.6967 30.6446 39.8618 30.6716 39.0235V16.1249C30.6442 15.2864 30.7893 14.4512 31.098 13.6714C31.4066 12.8915 31.8721 12.1837 32.4656 11.5921C33.059 11.0004 33.7676 10.5375 34.5473 10.2323C35.327 9.92708 36.161 9.78604 36.9974 9.81795H42.8728C43.7096 9.78545 44.5441 9.92606 45.3243 10.231C46.1044 10.536 46.8136 10.9988 47.4075 11.5905C48.0014 12.1822 48.4673 12.8902 48.7761 13.6703C49.085 14.4505 49.2303 15.286 49.2028 16.1249V39.0235C49.2297 39.862 49.084 40.6971 48.7749 41.4768C48.4657 42.2564 47.9997 42.9639 47.4059 43.5552C46.8121 44.1464 46.1031 44.6088 45.3233 44.9135C44.5434 45.2183 43.7093 45.3601 42.8728 45.3277ZM44.3403 18.4638C44.3403 17.1596 44.1505 15.8346 43.3218 15.3624C42.5411 15.0804 41.7068 14.9792 40.8816 15.0666H38.9748C38.1496 14.9791 37.3153 15.0802 36.5346 15.3624C35.7032 15.8346 35.5161 17.1596 35.5161 18.4638V36.636C35.5161 37.9388 35.7032 39.2638 36.5346 39.7374C37.316 40.0165 38.1497 40.1171 38.9748 40.0318H40.8816C41.7067 40.117 42.5404 40.0164 43.3218 39.7374C44.1532 39.2638 44.3403 37.9318 44.3403 36.636V18.4624V18.4638ZM5.24516 40.0443H5.58328V16.0971C5.55519 15.2574 5.70014 14.4209 6.0091 13.6399C6.31806 12.8589 6.78438 12.1501 7.37893 11.5578C7.97348 10.9656 8.68349 10.5026 9.46461 10.1977C10.2457 9.89284 11.0812 9.75269 11.9188 9.786H23.2304V40.0429H23.6128C26.6794 40.0429 28.1247 42.3874 28.0623 45.3207H0.792864C0.731893 42.3874 2.17858 40.0443 5.24516 40.0443ZM10.4319 40.0443H18.3623V15.0652H13.8892C13.0633 14.9772 12.2282 15.0774 11.4462 15.3582C10.6148 15.8332 10.4277 17.1638 10.4277 18.4624V40.0429L10.4319 40.0443Z" fill="#35B8FC"/>
</svg>
