<svg width="31" height="31" viewBox="0 0 31 31" fill="none" xmlns="http://www.w3.org/2000/svg">
<path d="M15.5 0C9.08809 0 3.875 5.21309 3.875 11.625C3.875 20.1984 14.5979 30.3945 15.058 30.8244C15.1852 30.9395 15.3426 31 15.5 31C15.6574 31 15.8209 30.9395 15.942 30.8244C16.4021 30.3945 27.125 20.1984 27.125 11.625C27.125 5.21309 21.9119 0 15.5 0ZM15.5 18.0854C11.9398 18.0854 9.03965 15.1852 9.03965 11.625C9.03965 8.06484 11.9398 5.16465 15.5 5.16465C19.0602 5.16465 21.9604 8.06484 21.9604 11.625C21.9604 15.1852 19.0602 18.0854 15.5 18.0854Z" fill="#F37D40"/>
</svg>
