<svg width="106" height="106" viewBox="0 0 106 106" fill="none" xmlns="http://www.w3.org/2000/svg">
<g filter="url(#filter0_b_2058_12072)">
<path d="M101.584 42.8415C101.584 36.6582 100.259 30.0332 97.6086 24.7332C95.8419 22.5249 93.1919 20.7582 90.1003 20.3166C77.7336 18.9916 65.3669 18.5499 53.0003 18.9916C40.6336 18.9916 28.2669 19.4332 16.3419 20.3166C13.6919 20.7582 11.4836 21.6416 9.71693 23.4082C5.74193 26.9416 5.30026 33.5666 4.85859 38.4249C4.41693 48.1416 4.41693 57.4165 4.85859 67.1332C4.85859 70.2249 5.30026 72.8749 6.18359 75.9666C6.62526 78.1749 7.95026 80.3832 9.27526 82.1499C11.0419 83.9165 13.2503 85.2415 15.9003 85.6832C25.6169 87.0082 34.8919 87.4499 44.6086 87.0082C60.0669 87.0082 73.7586 87.0082 89.6586 85.6832C92.3086 85.2415 94.5169 83.9165 96.2836 82.1499C97.6086 80.8249 98.4919 79.4999 98.9336 77.7332C100.7 72.8749 101.142 68.0166 101.142 62.7166C101.584 60.5082 101.584 45.4916 101.584 42.8415ZM42.8419 65.8082V38.4249L68.9003 52.1166C61.8336 56.0916 52.1169 60.5082 42.8419 65.8082Z" fill="#F8B77B" fill-opacity="0.4"/>
<path d="M53.0003 19.3416V19.3418L53.0128 19.3413C65.3607 18.9003 77.7086 19.3412 90.0568 20.6639C93.031 21.0906 95.5934 22.788 97.3122 24.9231C99.9226 30.1605 101.234 36.7152 101.234 42.8415C101.234 44.1665 101.234 48.5812 101.178 52.9402C101.151 55.12 101.109 57.2839 101.047 59.0398C100.985 60.8105 100.902 62.1301 100.799 62.6479L100.792 62.6819V62.7166C100.792 67.9979 100.351 72.81 98.6047 77.6136L98.5984 77.6307L98.594 77.6483C98.1718 79.3375 97.3296 80.6089 96.0361 81.9024C94.3142 83.6243 92.1742 84.9057 89.6151 85.3356C73.7378 86.6581 60.0635 86.6582 44.6086 86.6582H44.6006L44.5927 86.6586C34.8995 87.0992 25.6472 86.6588 15.9526 85.3371C13.3983 84.9101 11.2612 83.635 9.5403 81.9199C8.2309 80.1707 6.95144 78.0211 6.5268 75.8979L6.52402 75.884L6.52013 75.8704C5.6439 72.8036 5.20859 70.1863 5.20859 67.1332V67.1253L5.20823 67.1173C4.76717 57.4139 4.76705 48.1519 5.20787 38.4487C5.22519 38.2581 5.24249 38.0651 5.25999 37.87C5.46625 35.5692 5.69969 32.9653 6.30271 30.5029C6.9576 27.8288 8.03816 25.3687 9.94945 23.6698L9.95714 23.663L9.96441 23.6557C11.6594 21.9607 13.7855 21.0995 16.3838 20.6644C28.2948 19.7825 40.6473 19.3416 53.0003 19.3416ZM42.4919 65.8082V66.4113L43.0156 66.1121C47.6446 63.4669 52.3855 61.0413 56.8573 58.7778C57.3225 58.5423 57.7849 58.3085 58.244 58.0764C62.1939 56.0795 65.8988 54.2064 69.0719 52.4216L69.6328 52.1061L69.0631 51.8067L43.0047 38.115L42.4919 37.8456V38.4249V65.8082Z" stroke="url(#paint0_linear_2058_12072)" stroke-width="0.7"/>
</g>
<defs>
<filter id="filter0_b_2058_12072" x="-10.1018" y="4.19683" width="126.313" height="97.6061" filterUnits="userSpaceOnUse" color-interpolation-filters="sRGB">
<feFlood flood-opacity="0" result="BackgroundImageFix"/>
<feGaussianBlur in="BackgroundImageFix" stdDeviation="7.31455"/>
<feComposite in2="SourceAlpha" operator="in" result="effect1_backgroundBlur_2058_12072"/>
<feBlend mode="normal" in="SourceGraphic" in2="effect1_backgroundBlur_2058_12072" result="shape"/>
</filter>
<linearGradient id="paint0_linear_2058_12072" x1="-2.40524" y1="25.0394" x2="110.571" y2="107.874" gradientUnits="userSpaceOnUse">
<stop stop-color="white"/>
<stop offset="1" stop-color="white" stop-opacity="0"/>
</linearGradient>
</defs>
</svg>
