<svg width="24" height="24" viewBox="0 0 24 24" fill="none" xmlns="http://www.w3.org/2000/svg">
<path d="M22.9999 9.70019C22.9999 8.30019 22.6999 6.8002 22.0999 5.6002C21.6999 5.1002 21.0999 4.7002 20.3999 4.6002C17.5999 4.3002 14.7999 4.2002 11.9999 4.3002C9.1999 4.3002 6.3999 4.4002 3.6999 4.6002C3.0999 4.7002 2.5999 4.9002 2.1999 5.3002C1.2999 6.1002 1.1999 7.60019 1.0999 8.70019C0.999902 10.9002 0.999902 13.0002 1.0999 15.2002C1.0999 15.9002 1.1999 16.5002 1.3999 17.2002C1.4999 17.7002 1.7999 18.2002 2.0999 18.6002C2.4999 19.0002 2.9999 19.3002 3.5999 19.4002C5.7999 19.7002 7.8999 19.8002 10.0999 19.7002C13.5999 19.7002 16.6999 19.7002 20.2999 19.4002C20.8999 19.3002 21.3999 19.0002 21.7999 18.6002C22.0999 18.3002 22.2999 18.0002 22.3999 17.6002C22.7999 16.5002 22.8999 15.4002 22.8999 14.2002C22.9999 13.7002 22.9999 10.3002 22.9999 9.70019ZM9.6999 14.9002V8.70019L15.5999 11.8002C13.9999 12.7002 11.7999 13.7002 9.6999 14.9002Z" fill="#2A2A2A"/>
</svg>
