<svg width="20" height="20" viewBox="0 0 20 20" fill="none" xmlns="http://www.w3.org/2000/svg">
<g clip-path="url(#clip0_250_11211)">
<path d="M14.0426 0H5.95735C2.67241 0 0 2.67241 0 5.95735V14.0426C0 17.3276 2.67241 20 5.95735 20H14.0426C17.3276 20 20 17.3276 20 14.0426V5.95735C20 2.67241 17.3276 0 14.0426 0ZM17.99 14.0426C17.99 16.2205 16.225 17.99 14.0426 17.99H5.95735C3.77949 17.99 2.00998 16.225 2.00998 14.0426V5.95735C2.00998 3.77949 3.77495 2.00998 5.95735 2.00998H14.0426C16.2205 2.00998 17.99 3.77495 17.99 5.95735V14.0426Z" fill="#2A2A2A"/>
<path d="M10.0001 4.82764C7.14615 4.82764 4.82764 7.14615 4.82764 10.0001C4.82764 12.854 7.14615 15.1725 10.0001 15.1725C12.854 15.1725 15.1725 12.854 15.1725 10.0001C15.1725 7.14615 12.854 4.82764 10.0001 4.82764ZM10.0001 13.1625C8.25323 13.1625 6.83762 11.7469 6.83762 10.0001C6.83762 8.25323 8.25323 6.83762 10.0001 6.83762C11.7469 6.83762 13.1625 8.25323 13.1625 10.0001C13.1625 11.7469 11.7469 13.1625 10.0001 13.1625Z" fill="#2A2A2A"/>
<path d="M16.4246 4.86857C16.4246 5.55369 15.871 6.10722 15.1859 6.10722C14.5008 6.10722 13.9473 5.55369 13.9473 4.86857C13.9473 4.18345 14.5008 3.62991 15.1859 3.62991C15.8665 3.62537 16.4246 4.18345 16.4246 4.86857Z" fill="#2A2A2A"/>
</g>
<defs>
<clipPath id="clip0_250_11211">
<rect width="20" height="20" fill="white"/>
</clipPath>
</defs>
</svg>
