<svg width="21" height="18" viewBox="0 0 21 18" fill="none" xmlns="http://www.w3.org/2000/svg">
<path d="M10.5 13.5C12.1569 13.5 13.5 12.1569 13.5 10.5C13.5 8.84315 12.1569 7.5 10.5 7.5C8.84315 7.5 7.5 8.84315 7.5 10.5C7.5 12.1569 8.84315 13.5 10.5 13.5Z" stroke="#2A2A2A" stroke-width="1.5" stroke-linecap="round" stroke-linejoin="round"/>
<path d="M18.5 4.5H2.5C1.94772 4.5 1.5 4.94772 1.5 5.5V15.5C1.5 16.0523 1.94772 16.5 2.5 16.5H18.5C19.0523 16.5 19.5 16.0523 19.5 15.5V5.5C19.5 4.94772 19.0523 4.5 18.5 4.5Z" stroke="#2A2A2A" stroke-width="1.5" stroke-linecap="round" stroke-linejoin="round"/>
<path d="M12.7793 1.5H8.22082C7.79039 1.5 7.40825 1.77543 7.27214 2.18377L6.9388 3.18377C6.72296 3.8313 7.20493 4.5 7.88749 4.5H13.1126C13.7952 4.5 14.2772 3.8313 14.0613 3.18377L13.728 2.18377C13.5919 1.77543 13.2097 1.5 12.7793 1.5Z" stroke="#2A2A2A" stroke-width="1.5" stroke-linecap="round" stroke-linejoin="round"/>
</svg>
