<svg width="16" height="16" viewBox="0 0 16 16" fill="none" xmlns="http://www.w3.org/2000/svg">
<path d="M0.822011 0.369502C0.748641 0.418415 0.642663 0.524393 0.59375 0.597762L0.5 0.736349L0.508152 8.01624L0.52038 15.2961L0.618207 15.4347C0.671196 15.5081 0.789402 15.6059 0.883152 15.6467C1.04212 15.72 1.31114 15.7241 7.99185 15.7241C13.7962 15.7241 14.9538 15.716 15.0639 15.6671C15.2228 15.6018 15.3981 15.4184 15.4552 15.2635C15.4878 15.182 15.5 12.9483 15.5 7.98363V0.821947L15.4103 0.642599C15.3573 0.540697 15.2554 0.418415 15.178 0.369502L15.0394 0.275752H8H0.960598L0.822011 0.369502ZM4.13587 5.52983C4.1481 9.36543 4.1481 9.40211 4.2337 9.51216C4.39674 9.73635 4.51902 9.79341 4.8125 9.79341C5.14266 9.79341 5.31793 9.69151 5.43614 9.43064C5.50543 9.27983 5.51359 9.14939 5.51359 8.17113V7.08282H7.32337C9.12908 7.08282 9.12908 7.08282 9.26359 6.98907C9.4837 6.84233 9.56114 6.70374 9.57745 6.44287C9.59783 6.13717 9.4837 5.92521 9.2269 5.7907L9.04755 5.69695H7.27853H5.51359V3.67928V1.66162H9.81386H14.1141V3.67928V5.69695H13.0217C11.9538 5.69695 11.9212 5.70102 11.7459 5.7907C11.4891 5.92521 11.375 6.13717 11.3954 6.44287C11.4117 6.70374 11.4891 6.84233 11.7092 6.98907C11.8397 7.08282 11.8682 7.08282 12.9769 7.08282H14.1141V10.7105V14.3383H9.81386H5.51359V13.2459C5.51359 12.2717 5.50543 12.1412 5.43614 11.9904C5.31793 11.7296 5.14266 11.6277 4.8125 11.6277C4.51902 11.6277 4.39674 11.6847 4.2337 11.9089C4.15217 12.0149 4.1481 12.0842 4.13587 13.1806L4.12364 14.3383H3.00679H1.88587V7.99994V1.66162H3.00679H4.12772L4.13587 5.52983Z" fill="#2A2A2A"/>
</svg>
