<svg width="16" height="16" viewBox="0 0 16 16" fill="none" xmlns="http://www.w3.org/2000/svg">
<path d="M13.9865 7.86792C13.9618 7.74436 13.9024 7.6304 13.8153 7.53937C13.7281 7.44834 13.6169 7.38402 13.4945 7.35392L8.9212 6.20992L10.6125 2.26259C10.6714 2.1256 10.6826 1.9728 10.6443 1.8287C10.606 1.68459 10.5204 1.55753 10.4012 1.46792C10.2822 1.37771 10.1363 1.33023 9.98709 1.33313C9.83782 1.33604 9.69389 1.38916 9.57853 1.48392L2.2452 7.48392C2.14954 7.56217 2.07752 7.66546 2.03717 7.78228C1.99682 7.89909 1.98974 8.02481 2.01671 8.14542C2.04368 8.26602 2.10364 8.37676 2.1899 8.46526C2.27616 8.55375 2.38532 8.61653 2.5052 8.64659L6.98453 9.76725L4.75453 13.6699C4.697 13.7713 4.66703 13.886 4.66761 14.0026C4.66819 14.1191 4.69929 14.2335 4.75782 14.3343C4.81635 14.4351 4.90027 14.5189 5.00122 14.5772C5.10217 14.6354 5.21663 14.6663 5.3332 14.6666C5.47748 14.6668 5.61791 14.62 5.7332 14.5333L13.7332 8.53325C13.834 8.45763 13.9113 8.35499 13.9561 8.23723C14.0009 8.11948 14.0115 7.99142 13.9865 7.86792Z" fill="#F37D40"/>
</svg>
