<svg width="16" height="16" viewBox="0 0 16 16" fill="none" xmlns="http://www.w3.org/2000/svg">
<path d="M6.81678 0.816883C6.61736 0.653977 6.34196 0.620482 6.1093 0.730841C5.87665 0.841199 5.72835 1.07568 5.72835 1.33318C5.72835 1.7909 5.66295 2.38158 5.54639 2.95283C5.42807 3.53272 5.26866 4.03487 5.10642 4.33999C4.90501 4.71879 4.80335 4.88025 4.70263 5.01139C4.62546 5.11188 4.55016 5.19473 4.42403 5.33353C4.36166 5.40216 4.28686 5.48446 4.19326 5.58934C4.08419 5.71157 3.98421 5.81882 3.88928 5.92067C3.5684 6.26491 3.30495 6.54753 2.9412 7.13895C2.40737 8.00696 2.33325 9.10165 2.33325 9.80588C2.33325 12.9946 4.91603 15.3332 7.99992 15.3332C11.1032 15.3332 13.6665 12.8692 13.6665 9.69921C13.6665 8.96656 13.6267 8.15617 13.2177 6.92659C13.0283 6.3574 12.9056 6.00827 12.7752 5.70936C12.6422 5.40466 12.5056 5.16258 12.3062 4.8125C12.1637 4.56241 11.8768 4.43199 11.5947 4.48904C11.3126 4.54609 11.099 4.77774 11.0649 5.06353C11.0153 5.47988 10.8903 5.80432 10.7405 6.05709C10.7119 5.97077 10.6815 5.88171 10.6494 5.79058C10.3984 5.07819 10.0262 4.19017 9.55641 3.50197C8.78811 2.37647 7.77588 1.57687 7.11432 1.05428C7.0046 0.967611 6.9045 0.88854 6.81678 0.816883Z" fill="#F37D40"/>
</svg>
