<svg width="16" height="16" viewBox="0 0 16 16" fill="none" xmlns="http://www.w3.org/2000/svg">
<path fill-rule="evenodd" clip-rule="evenodd" d="M2.2888 11.5498L2.0528 13.1998C2.03822 13.3022 2.04767 13.4067 2.0804 13.5048C2.11313 13.6029 2.16826 13.6921 2.2414 13.7652C2.31455 13.8384 2.40372 13.8935 2.50185 13.9262C2.59998 13.959 2.70439 13.9684 2.8068 13.9538L4.4568 13.7178C4.7068 13.6825 5.33347 11.9998 5.33347 11.9998C5.33347 11.9998 5.64814 12.2698 5.7768 12.3105C6.05147 12.3972 6.3188 12.1278 6.4088 11.8545L6.6668 10.6732C6.6668 10.6732 7.05147 10.8678 7.1908 10.8965C7.36814 10.9332 7.54014 10.8238 7.66214 10.7012C7.73542 10.6281 7.79047 10.5388 7.8228 10.4405L8.00014 9.33984C8.00014 9.33984 8.45014 9.4645 8.60414 9.4825C8.77947 9.5025 8.95014 9.41317 9.07547 9.28717L9.83414 8.52917C10.4763 8.73727 11.1635 8.76411 11.82 8.60672C12.4765 8.44934 13.0768 8.11384 13.5548 7.63717C14.2413 6.94894 14.6268 6.01656 14.6268 5.0445C14.6268 4.07245 14.2413 3.14007 13.5548 2.45184C12.8666 1.76538 11.9342 1.37988 10.9621 1.37988C9.99008 1.37988 9.0577 1.76538 8.36947 2.45184C7.89267 2.92979 7.55708 3.53009 7.39969 4.1866C7.2423 4.8431 7.26922 5.53032 7.47747 6.1725L2.4768 11.1725C2.37473 11.2745 2.30872 11.4069 2.2888 11.5498ZM12.3361 3.6705C12.6998 4.03528 12.9041 4.52939 12.9041 5.0445C12.9041 5.55962 12.6998 6.05372 12.3361 6.4185L9.58814 3.6705C9.95292 3.3068 10.447 3.10256 10.9621 3.10256C11.4773 3.10256 11.9714 3.3068 12.3361 3.6705Z" fill="#F37D40"/>
</svg>
