<svg width="24" height="24" viewBox="0 0 24 24" fill="none" xmlns="http://www.w3.org/2000/svg">
<path d="M19.8228 3.94702C19.327 3.49295 17.3191 2.03325 12.8475 2.01409C12.8475 2.01409 7.57111 1.69832 5.0008 4.057C3.5711 5.48671 3.07037 7.58044 3.01288 10.1774C2.95539 12.7744 2.89124 17.6417 7.58277 18.9648H7.58694L7.58277 20.9802C7.58277 20.9802 7.55194 21.7967 8.0885 21.9608C8.7367 22.1641 9.11996 21.5426 9.74066 20.8744C10.0806 20.507 10.5488 19.9687 10.9046 19.558C11.4045 19.6071 11.9844 19.6346 12.5717 19.6346C14.0939 19.6346 15.5728 19.4472 16.9858 19.0939L16.8609 19.1206C17.5091 18.9098 21.1766 18.4407 21.7699 13.5742C22.3897 8.55024 21.4749 5.38089 19.8228 3.94702ZM20.366 13.2076C19.8602 17.2693 16.8892 17.5276 16.3426 17.7025C15.1496 18.0058 13.7798 18.1791 12.3693 18.1791C11.9644 18.1791 11.5628 18.1649 11.1654 18.1366L11.2187 18.1399C11.2187 18.1399 9.18744 20.5886 8.55507 21.2251C8.34845 21.4318 8.12099 21.4151 8.12516 21.0027C8.12516 20.7336 8.14099 17.655 8.14099 17.655C4.16931 16.5536 4.39926 12.4078 4.44592 10.2424C4.49257 8.07701 4.89916 6.29737 6.10974 5.10262C8.28596 3.13052 12.7659 3.42296 12.7659 3.42296C16.5509 3.43879 18.3631 4.57939 18.7846 4.96181C20.1794 6.1574 20.89 9.01765 20.366 13.2076ZM14.9413 10.0516V10.0633C14.9413 10.2032 14.8279 10.3165 14.688 10.3165C14.5522 10.3165 14.4414 10.2099 14.4355 10.0758C14.4389 10.0408 14.4414 9.99828 14.4414 9.95745C14.4414 9.29009 13.9006 8.74937 13.2333 8.74937C13.2083 8.74937 13.1833 8.7502 13.1591 8.75187H13.1625C13.0283 8.74437 12.9225 8.63439 12.9225 8.49942C12.9225 8.35945 13.0358 8.24614 13.1758 8.24614H13.19C13.2066 8.24531 13.2266 8.24531 13.2466 8.24531C14.1847 8.24531 14.9446 9.00515 14.9446 9.94329C14.9446 9.98162 14.9429 10.0199 14.9404 10.0574V10.0524L14.9413 10.0516ZM15.7336 10.494C15.7728 8.83768 14.738 7.54128 12.7734 7.39631C12.6409 7.38715 12.5376 7.27717 12.5376 7.14386C12.5376 7.00389 12.6509 6.89058 12.7909 6.89058C12.7967 6.89058 12.8034 6.89058 12.8092 6.89142H12.8225C14.7113 6.89142 16.2435 8.42277 16.2435 10.3124C16.2435 10.3799 16.2418 10.4474 16.2377 10.514L16.2385 10.5048C16.2352 10.6423 16.1235 10.7515 15.986 10.7515C15.8461 10.7515 15.7328 10.6381 15.7328 10.4982C15.7328 10.4957 15.7328 10.494 15.7328 10.4915L15.7336 10.494ZM17.5666 11.0181V11.0197C17.5666 11.1597 17.4532 11.273 17.3133 11.273C17.1733 11.273 17.0617 11.1605 17.0608 11.0222C17.0408 7.83789 14.9171 6.10408 12.3435 6.08575C12.2035 6.08575 12.091 5.97244 12.091 5.8333C12.091 5.69416 12.2043 5.58085 12.3435 5.58085C15.2254 5.60085 17.5416 7.58961 17.5649 11.0172L17.5666 11.0181ZM17.1291 14.8489V14.8564C16.7076 15.5988 15.9186 16.4186 15.1062 16.157L15.0987 16.1454C13.5724 15.5755 12.2526 14.8306 11.0737 13.9133L11.1079 13.9383C10.4888 13.4451 9.94479 12.901 9.46738 12.3028L9.45155 12.282C9.02747 11.7504 8.63006 11.1555 8.28346 10.5273L8.25013 10.4615C7.86938 9.83998 7.52528 9.12179 7.25617 8.36778L7.23118 8.28613C6.96956 7.4738 7.78523 6.68479 8.53174 6.26321H8.53924C8.64755 6.19406 8.77919 6.1524 8.92083 6.1524C9.14328 6.1524 9.34158 6.25488 9.47238 6.41401L9.47322 6.41568C9.47322 6.41568 9.95728 6.99306 10.1647 7.27884C10.3597 7.54462 10.6221 7.97036 10.758 8.20781C10.8363 8.33029 10.8821 8.48026 10.8821 8.64106C10.8821 8.88101 10.7788 9.0968 10.6138 9.24593L10.613 9.24677L10.1447 9.62169C10.0156 9.74666 9.93562 9.92163 9.93562 10.1149C9.93562 10.1341 9.93645 10.1524 9.93812 10.1707V10.1682C10.4205 11.7538 11.6444 12.9777 13.1958 13.4517L13.2308 13.4609C13.2466 13.4626 13.2658 13.4634 13.2841 13.4634C13.4774 13.4634 13.6524 13.3834 13.7773 13.2551L14.1523 12.7869C14.3022 12.6211 14.518 12.5178 14.758 12.5178C14.9188 12.5178 15.0679 12.5644 15.1945 12.6444L15.1912 12.6427C15.8686 13.0285 16.4543 13.4526 16.9883 13.9333L16.9792 13.925C17.1391 14.0533 17.24 14.2491 17.24 14.4682C17.24 14.609 17.1983 14.7398 17.1258 14.8498L17.1275 14.8473L17.1291 14.8489Z" fill="white"/>
</svg>
