<svg width="328" height="216" viewBox="0 0 328 216" preserveAspectRatio="none" fill="none" xmlns="http://www.w3.org/2000/svg">
<mask id="path-1-inside-1_2087_17284" fill="white">
<path fill-rule="evenodd" clip-rule="evenodd" d="M0 216H328V0L71.3742 36.6426L65.5418 6.74969L0 14.3004V216Z"/>
</mask>
<path fill-rule="evenodd" clip-rule="evenodd" d="M0 216H328V0L71.3742 36.6426L65.5418 6.74969L0 14.3004V216Z" fill="#F6F6F6"/>
<path d="M0 216H-3V219H0V216ZM328 216V219H331V216H328ZM328 0H331V-3.45879L327.576 -2.96988L328 0ZM71.3742 36.6426L68.4297 37.2171L68.9757 40.0155L71.7983 39.6125L71.3742 36.6426ZM65.5418 6.74969L68.4863 6.17519L67.9549 3.45185L65.1985 3.7694L65.5418 6.74969ZM0 14.3004L-0.343342 11.3201L-3 11.6262V14.3004H0ZM0 219H328V213H0V219ZM331 216V0H325V216H331ZM327.576 -2.96988L70.9502 33.6727L71.7983 39.6125L328.424 2.96988L327.576 -2.96988ZM74.3187 36.0681L68.4863 6.17519L62.5973 7.32419L68.4297 37.2171L74.3187 36.0681ZM65.1985 3.7694L-0.343342 11.3201L0.343342 17.2807L65.8852 9.72998L65.1985 3.7694ZM-3 14.3004V216H3V14.3004H-3Z" fill="white" mask="url(#path-1-inside-1_2087_17284)"/>
</svg>
